<?xml version="1.0" encoding="UTF-8"?>
<svg xmlns="http://www.w3.org/2000/svg" xmlns:xlink="http://www.w3.org/1999/xlink" width="152px" height="140px" viewBox="0 0 152 140" version="1.1">
<defs>
<clipPath id="clip1">
  <path d="M 73 64 L 83 64 L 83 79 L 73 79 Z M 73 64 "/>
</clipPath>
<clipPath id="clip2">
  <path d="M 64.128906 48.902344 C 64.128906 48.902344 65.765625 52.097656 66.433594 48.953125 C 66.433594 48.953125 78.308594 46.332031 80.847656 57.65625 C 83.539062 69.640625 83.523438 79.316406 78.523438 83.457031 C 73.523438 87.601562 53.652344 84.050781 53.652344 84.050781 C 53.652344 84.050781 50.867188 84.074219 50.5 79.859375 C 50.5 79.859375 46.59375 80.101562 45.5625 78.222656 C 43.960938 75.3125 42.144531 52.472656 56.039062 49.023438 C 56.039062 49.023438 62.910156 47.851562 64.128906 48.902344 Z M 64.128906 48.902344 "/>
</clipPath>
<clipPath id="clip3">
  <path d="M 62 48 L 69 48 L 69 52 L 62 52 Z M 62 48 "/>
</clipPath>
<clipPath id="clip4">
  <path d="M 64.128906 48.902344 C 64.128906 48.902344 65.765625 52.097656 66.433594 48.953125 C 66.433594 48.953125 78.308594 46.332031 80.847656 57.65625 C 83.539062 69.640625 83.523438 79.316406 78.523438 83.457031 C 73.523438 87.601562 53.652344 84.050781 53.652344 84.050781 C 53.652344 84.050781 50.867188 84.074219 50.5 79.859375 C 50.5 79.859375 46.59375 80.101562 45.5625 78.222656 C 43.960938 75.3125 42.144531 52.472656 56.039062 49.023438 C 56.039062 49.023438 62.910156 47.851562 64.128906 48.902344 Z M 64.128906 48.902344 "/>
</clipPath>
<clipPath id="clip5">
  <path d="M 72 122 L 86 122 L 86 140 L 72 140 Z M 72 122 "/>
</clipPath>
<clipPath id="clip6">
  <path d="M 74.472656 120.871094 C 74.472656 120.871094 71.414062 124.089844 73.070312 126.355469 C 74.722656 128.617188 77.070312 132.039062 77.351562 134.753906 C 77.824219 139.367188 84.429688 142.78125 85.15625 136.820312 C 85.703125 132.335938 82.167969 128.714844 82.863281 124.980469 C 83.476562 121.660156 73.828125 123.484375 74.472656 120.875 Z M 74.472656 120.871094 "/>
</clipPath>
<clipPath id="clip7">
  <path d="M 77 129 L 86 129 L 86 139 L 77 139 Z M 77 129 "/>
</clipPath>
<clipPath id="clip8">
  <path d="M 74.472656 120.871094 C 74.472656 120.871094 71.414062 124.089844 73.070312 126.355469 C 74.722656 128.617188 77.070312 132.039062 77.351562 134.753906 C 77.824219 139.367188 84.429688 142.78125 85.15625 136.820312 C 85.703125 132.335938 82.167969 128.714844 82.863281 124.980469 C 83.476562 121.660156 73.828125 123.484375 74.472656 120.875 Z M 74.472656 120.871094 "/>
</clipPath>
<clipPath id="clip9">
  <path d="M 75 123 L 84 123 L 84 129 L 75 129 Z M 75 123 "/>
</clipPath>
<clipPath id="clip10">
  <path d="M 74.472656 120.871094 C 74.472656 120.871094 71.414062 124.089844 73.070312 126.355469 C 74.722656 128.617188 77.070312 132.039062 77.351562 134.753906 C 77.824219 139.367188 84.429688 142.78125 85.15625 136.820312 C 85.703125 132.335938 82.167969 128.714844 82.863281 124.980469 C 83.476562 121.660156 73.828125 123.484375 74.472656 120.875 Z M 74.472656 120.871094 "/>
</clipPath>
<clipPath id="clip11">
  <path d="M 81 129 L 85 129 L 85 131 L 81 131 Z M 81 129 "/>
</clipPath>
<clipPath id="clip12">
  <path d="M 74.472656 120.871094 C 74.472656 120.871094 71.414062 124.089844 73.070312 126.355469 C 74.722656 128.617188 77.070312 132.039062 77.351562 134.753906 C 77.824219 139.367188 84.429688 142.78125 85.15625 136.820312 C 85.703125 132.335938 82.167969 128.714844 82.863281 124.980469 C 83.476562 121.660156 73.828125 123.484375 74.472656 120.875 Z M 74.472656 120.871094 "/>
</clipPath>
<clipPath id="clip13">
  <path d="M 81 130 L 85 130 L 85 132 L 81 132 Z M 81 130 "/>
</clipPath>
<clipPath id="clip14">
  <path d="M 74.472656 120.871094 C 74.472656 120.871094 71.414062 124.089844 73.070312 126.355469 C 74.722656 128.617188 77.070312 132.039062 77.351562 134.753906 C 77.824219 139.367188 84.429688 142.78125 85.15625 136.820312 C 85.703125 132.335938 82.167969 128.714844 82.863281 124.980469 C 83.476562 121.660156 73.828125 123.484375 74.472656 120.875 Z M 74.472656 120.871094 "/>
</clipPath>
<clipPath id="clip15">
  <path d="M 82 132 L 85 132 L 85 134 L 82 134 Z M 82 132 "/>
</clipPath>
<clipPath id="clip16">
  <path d="M 74.472656 120.871094 C 74.472656 120.871094 71.414062 124.089844 73.070312 126.355469 C 74.722656 128.617188 77.070312 132.039062 77.351562 134.753906 C 77.824219 139.367188 84.429688 142.78125 85.15625 136.820312 C 85.703125 132.335938 82.167969 128.714844 82.863281 124.980469 C 83.476562 121.660156 73.828125 123.484375 74.472656 120.875 Z M 74.472656 120.871094 "/>
</clipPath>
<clipPath id="clip17">
  <path d="M 82 133 L 86 133 L 86 135 L 82 135 Z M 82 133 "/>
</clipPath>
<clipPath id="clip18">
  <path d="M 74.472656 120.871094 C 74.472656 120.871094 71.414062 124.089844 73.070312 126.355469 C 74.722656 128.617188 77.070312 132.039062 77.351562 134.753906 C 77.824219 139.367188 84.429688 142.78125 85.15625 136.820312 C 85.703125 132.335938 82.167969 128.714844 82.863281 124.980469 C 83.476562 121.660156 73.828125 123.484375 74.472656 120.875 Z M 74.472656 120.871094 "/>
</clipPath>
<clipPath id="clip19">
  <path d="M 72 117 L 87 117 L 87 127 L 72 127 Z M 72 117 "/>
</clipPath>
<clipPath id="clip20">
  <path d="M 73.832031 80.171875 C 73.832031 80.171875 94.882812 86.328125 92.554688 97.910156 C 90.226562 109.492188 84.578125 127.394531 84.382812 128.015625 C 84.1875 128.636719 73.660156 126.152344 73.515625 119.386719 L 77.714844 98.917969 L 62.074219 90.375 C 62.074219 90.375 64.785156 78.003906 73.832031 80.171875 Z M 73.832031 80.171875 "/>
</clipPath>
<clipPath id="clip21">
  <path d="M 72 116 L 87 116 L 87 127 L 72 127 Z M 72 116 "/>
</clipPath>
<clipPath id="clip22">
  <path d="M 73.832031 80.171875 C 73.832031 80.171875 94.882812 86.328125 92.554688 97.910156 C 90.226562 109.492188 84.578125 127.394531 84.382812 128.015625 C 84.1875 128.636719 73.660156 126.152344 73.515625 119.386719 L 77.714844 98.917969 L 62.074219 90.375 C 62.074219 90.375 64.785156 78.003906 73.832031 80.171875 Z M 73.832031 80.171875 "/>
</clipPath>
<clipPath id="clip23">
  <path d="M 91 90 L 109 90 L 109 99 L 91 99 Z M 91 90 "/>
</clipPath>
<clipPath id="clip24">
  <path d="M 93.457031 87.957031 C 92.765625 88.09375 95.273438 92.132812 90.855469 93.332031 C 90.855469 93.332031 91.585938 95.214844 92.960938 95.476562 C 92.960938 95.476562 94.828125 95.175781 95.433594 95.441406 C 96.042969 95.707031 105.152344 102.136719 108.050781 93.828125 C 108.40625 92.808594 107.960938 89.179688 100.925781 89.480469 C 100.925781 89.480469 97.851562 89.332031 96.417969 88.496094 C 94.808594 87.558594 93.84375 87.847656 93.457031 87.957031 Z M 93.457031 87.957031 "/>
</clipPath>
<clipPath id="clip25">
  <path d="M 96 90 L 108 90 L 108 97 L 96 97 Z M 96 90 "/>
</clipPath>
<clipPath id="clip26">
  <path d="M 93.457031 87.957031 C 92.765625 88.09375 95.273438 92.132812 90.855469 93.332031 C 90.855469 93.332031 91.585938 95.214844 92.960938 95.476562 C 92.960938 95.476562 94.828125 95.175781 95.433594 95.441406 C 96.042969 95.707031 105.152344 102.136719 108.050781 93.828125 C 108.40625 92.808594 107.960938 89.179688 100.925781 89.480469 C 100.925781 89.480469 97.851562 89.332031 96.417969 88.496094 C 94.808594 87.558594 93.84375 87.847656 93.457031 87.957031 Z M 93.457031 87.957031 "/>
</clipPath>
<clipPath id="clip27">
  <path d="M 79 82 L 87 82 L 87 95 L 79 95 Z M 79 82 "/>
</clipPath>
<clipPath id="clip28">
  <path d="M 89.3125 85.59375 C 89.3125 85.59375 59.566406 68.453125 54.128906 75.96875 C 48.6875 83.480469 51.253906 98.5625 69.894531 93.832031 L 82.8125 94.976562 C 82.8125 94.976562 86.980469 94.910156 89.3125 85.59375 Z M 89.3125 85.59375 "/>
</clipPath>
</defs>
<g id="surface1">
<path style=" stroke:none;fill-rule:evenodd;fill:rgb(97.647059%,75.686275%,32.54902%);fill-opacity:1;" d="M 78.195312 123.78125 C 78.195312 123.167969 77.695312 122.671875 77.082031 122.671875 L 56.535156 122.671875 C 55.921875 122.671875 55.425781 123.167969 55.425781 123.78125 L 55.425781 124.5 C 55.425781 125.113281 55.921875 125.613281 56.535156 125.613281 L 77.082031 125.613281 C 77.695312 125.613281 78.195312 125.113281 78.195312 124.5 Z M 78.195312 123.78125 "/>
<path style=" stroke:none;fill-rule:evenodd;fill:rgb(67.843137%,51.764706%,19.607843%);fill-opacity:1;" d="M 55.757812 123.105469 C 55.554688 123.273438 55.433594 123.519531 55.425781 123.78125 L 55.425781 124.496094 C 55.425781 125.109375 56.152344 125.609375 57.046875 125.609375 L 76.570312 125.609375 C 77.464844 125.609375 78.191406 125.109375 78.191406 124.496094 L 78.191406 124.257812 C 77.828125 124.554688 77.371094 124.707031 76.902344 124.695312 L 57.382812 124.695312 C 56.484375 124.695312 55.757812 124.195312 55.757812 123.582031 Z M 55.757812 123.105469 "/>
<path style=" stroke:none;fill-rule:evenodd;fill:rgb(97.647059%,75.686275%,32.54902%);fill-opacity:1;" d="M 62.265625 95.964844 C 62.347656 95.488281 62.230469 95.003906 61.945312 94.617188 C 61.65625 94.230469 61.226562 93.980469 60.75 93.921875 C 59.742188 93.800781 58.816406 94.492188 58.648438 95.496094 L 52.5625 133.050781 C 52.484375 133.527344 52.597656 134.011719 52.886719 134.398438 C 53.171875 134.785156 53.605469 135.035156 54.082031 135.09375 C 55.089844 135.214844 56.015625 134.523438 56.183594 133.519531 Z M 62.265625 95.964844 "/>
<path style=" stroke:none;fill-rule:evenodd;fill:rgb(69.803922%,51.372549%,17.647059%);fill-opacity:1;" d="M 60.277344 93.914062 C 59.492188 93.96875 58.835938 94.535156 58.675781 95.308594 L 52.535156 133.238281 C 52.484375 133.691406 52.621094 134.148438 52.914062 134.496094 C 53.207031 134.847656 53.628906 135.0625 54.082031 135.09375 C 54.878906 135.21875 55.667969 134.816406 56.035156 134.09375 C 55.878906 134.109375 55.71875 134.109375 55.5625 134.089844 C 55.109375 134.054688 54.6875 133.839844 54.394531 133.492188 C 54.105469 133.140625 53.964844 132.6875 54.015625 132.234375 L 60.160156 94.300781 C 60.179688 94.167969 60.21875 94.039062 60.277344 93.914062 Z M 60.277344 93.914062 "/>
<path style=" stroke:none;fill-rule:evenodd;fill:rgb(67.843137%,51.764706%,19.607843%);fill-opacity:1;" d="M 71.027344 95.964844 C 70.949219 95.492188 71.066406 95.003906 71.351562 94.617188 C 71.640625 94.234375 72.070312 93.980469 72.546875 93.921875 C 73.554688 93.800781 74.480469 94.492188 74.648438 95.496094 L 80.730469 133.050781 C 80.8125 133.527344 80.695312 134.011719 80.410156 134.398438 C 80.121094 134.78125 79.691406 135.035156 79.214844 135.09375 C 78.207031 135.214844 77.28125 134.523438 77.113281 133.519531 Z M 71.027344 95.964844 "/>
<path style=" stroke:none;fill-rule:evenodd;fill:rgb(97.647059%,75.686275%,32.54902%);fill-opacity:1;" d="M 73.019531 93.914062 C 73.804688 93.96875 74.457031 94.535156 74.617188 95.308594 L 80.761719 133.238281 C 80.8125 133.691406 80.671875 134.148438 80.382812 134.496094 C 80.089844 134.847656 79.667969 135.0625 79.214844 135.09375 C 78.414062 135.21875 77.628906 134.816406 77.257812 134.09375 C 77.417969 134.109375 77.574219 134.109375 77.730469 134.089844 C 78.1875 134.058594 78.609375 133.839844 78.898438 133.492188 C 79.191406 133.140625 79.328125 132.6875 79.28125 132.234375 L 73.136719 94.300781 C 73.117188 94.167969 73.074219 94.039062 73.019531 93.914062 Z M 73.019531 93.914062 "/>
<path style=" stroke:none;fill-rule:evenodd;fill:rgb(97.647059%,75.686275%,32.54902%);fill-opacity:1;" d="M 78.910156 94.070312 C 78.910156 93.1875 78.195312 92.46875 77.316406 92.46875 L 55.453125 92.46875 C 54.574219 92.46875 53.859375 93.1875 53.859375 94.070312 L 53.859375 95.09375 C 53.859375 95.976562 54.574219 96.691406 55.453125 96.691406 L 77.3125 96.691406 C 78.195312 96.691406 78.90625 95.976562 78.910156 95.09375 Z M 78.910156 94.070312 "/>
<path style=" stroke:none;fill-rule:evenodd;fill:rgb(67.843137%,51.764706%,19.607843%);fill-opacity:1;" d="M 54.226562 93.097656 C 53.988281 93.367188 53.859375 93.710938 53.855469 94.070312 L 53.855469 95.09375 C 53.914062 96.027344 54.710938 96.742188 55.644531 96.691406 L 77.125 96.691406 C 78.058594 96.742188 78.855469 96.027344 78.910156 95.09375 L 78.910156 94.75 C 78.550781 95.15625 78.03125 95.386719 77.492188 95.378906 L 56.011719 95.378906 C 55.078125 95.429688 54.28125 94.714844 54.226562 93.78125 Z M 54.226562 93.097656 "/>
<path style="fill-rule:evenodd;fill:rgb(100%,100%,100%);fill-opacity:1;stroke-width:2.405;stroke-linecap:round;stroke-linejoin:round;stroke:rgb(54.117647%,61.960784%,89.803922%);stroke-opacity:1;stroke-miterlimit:4;" d="M 2273.321906 1048.856737 C 2273.32792 1048.586787 2273.111431 1048.370827 2272.846834 1048.364828 L 2250.073448 1047.902914 C 2249.947163 1047.896915 2249.820878 1047.944906 2249.730675 1048.03489 C 2249.640471 1048.124873 2249.586349 1048.24485 2249.586349 1048.370827 L 2249.333779 1061.700347 C 2249.327766 1061.964298 2249.538241 1062.186257 2249.802838 1062.192256 L 2272.576224 1062.65417 C 2272.840821 1062.660169 2273.063323 1062.444209 2273.063323 1062.180258 L 2273.315893 1048.856737 Z M 2273.321906 1048.856737 " transform="matrix(0.649573,0,0,0.651163,-1325.578359,-605.054605)"/>
<path style="fill:none;stroke-width:2.405;stroke-linecap:round;stroke-linejoin:round;stroke:rgb(54.117647%,61.960784%,89.803922%);stroke-opacity:1;stroke-miterlimit:4;" d="M 2263.781931 1057.123261 L 2275.550486 1048.790811 L 2252.338109 1048.322898 L 2263.781931 1057.117262 Z M 2263.781931 1057.123261 " transform="matrix(0.649573,0,0,0.651163,-1327.147077,-605.273395)"/>
<path style=" stroke:none;fill-rule:evenodd;fill:rgb(69.803922%,79.607843%,91.372549%);fill-opacity:1;" d="M 115.226562 61.953125 L 115.226562 53.542969 C 115.226562 52.628906 115.964844 51.886719 116.878906 51.886719 L 139.582031 51.886719 C 140.492188 51.886719 141.230469 52.628906 141.234375 53.542969 L 141.234375 63.570312 C 141.230469 64.484375 140.492188 65.226562 139.582031 65.226562 L 118.375 65.226562 L 116.066406 69.003906 C 116.066406 69.003906 115.734375 69.761719 115.632812 69.753906 C 115.53125 69.742188 115.457031 68.941406 115.457031 68.941406 L 115.230469 61.953125 Z M 115.226562 61.953125 "/>
<path style=" stroke:none;fill-rule:evenodd;fill:rgb(100%,100%,100%);fill-opacity:1;" d="M 123.5625 57.296875 C 124.179688 57.296875 124.675781 57.796875 124.675781 58.414062 C 124.679688 59.027344 124.179688 59.527344 123.566406 59.527344 C 122.949219 59.527344 122.453125 59.027344 122.453125 58.414062 C 122.453125 57.796875 122.949219 57.296875 123.5625 57.296875 Z M 123.5625 57.296875 "/>
<path style=" stroke:none;fill-rule:evenodd;fill:rgb(100%,100%,100%);fill-opacity:1;" d="M 127.960938 57.296875 C 128.574219 57.296875 129.074219 57.796875 129.074219 58.414062 C 129.074219 59.027344 128.574219 59.527344 127.960938 59.527344 C 127.34375 59.527344 126.847656 59.027344 126.847656 58.414062 C 126.847656 57.796875 127.34375 57.296875 127.960938 57.296875 Z M 127.960938 57.296875 "/>
<path style=" stroke:none;fill-rule:evenodd;fill:rgb(100%,100%,100%);fill-opacity:1;" d="M 132.382812 57.296875 C 132.996094 57.296875 133.496094 57.796875 133.496094 58.414062 C 133.496094 59.027344 132.996094 59.527344 132.382812 59.527344 C 131.769531 59.527344 131.269531 59.027344 131.269531 58.414062 C 131.269531 57.796875 131.769531 57.296875 132.382812 57.296875 Z M 132.382812 57.296875 "/>
<path style=" stroke:none;fill-rule:evenodd;fill:rgb(54.117647%,61.960784%,89.803922%);fill-opacity:1;" d="M 40.351562 15.9375 L 39.039062 22.042969 L 51.847656 23.933594 Z M 40.351562 15.9375 "/>
<path style="fill:none;stroke-width:1.665;stroke-linecap:round;stroke-linejoin:round;stroke:rgb(54.117647%,61.960784%,89.803922%);stroke-opacity:1;stroke-miterlimit:4;" d="M 1829.749796 652.968174 C 1832.215359 653.640049 1826.478414 651.498448 1826.237871 651.438459 C 1822.840205 650.544625 1819.971732 649.944737 1816.754473 650.310669 C 1810.307927 651.042532 1804.823552 653.568062 1801.852849 659.189017 C 1800.77642 661.558576 1800.163036 664.108102 1800.048778 666.711617 C 1799.772154 673.172415 1802.839074 680.383074 1808.984942 685.506121 C 1811.871455 687.911673 1816.826636 690.491193 1820.615184 689.045462 C 1826.057464 686.975847 1823.766294 679.795183 1816.940894 680.161115 C 1814.679792 680.335083 1812.569029 681.366891 1811.047596 683.046578 C 1805.635384 688.907488 1808.990955 696.394095 1814.511412 702.674926 C 1815.99075 704.354614 1817.614413 705.968314 1819.286185 707.534022 C 1821.402962 709.513654 1823.682104 711.373308 1825.94922 713.24496 " transform="matrix(0.649573,0,0,0.651163,-1146.871829,-404.797953)"/>
<path style=" stroke:none;fill-rule:evenodd;fill:rgb(100%,100%,100%);fill-opacity:1;" d="M 41.171875 13.359375 L 53.476562 24.441406 L 35.285156 19.78125 L 38.246094 16.605469 C 38.246094 16.605469 46.339844 20.648438 46.582031 20.667969 C 46.824219 20.6875 38.824219 15.953125 38.824219 15.953125 Z M 41.171875 13.359375 "/>
<path style=" stroke:none;fill-rule:evenodd;fill:rgb(54.117647%,61.960784%,89.803922%);fill-opacity:1;" d="M 74.050781 24.914062 C 74.460938 24.078125 74.125 23.066406 73.292969 22.652344 L 72.210938 22.113281 C 71.378906 21.699219 70.367188 22.039062 69.953125 22.871094 L 69.605469 23.578125 C 69.191406 24.414062 69.527344 25.425781 70.359375 25.839844 L 71.445312 26.378906 C 72.277344 26.792969 73.285156 26.453125 73.699219 25.621094 Z M 74.050781 24.914062 "/>
<path style=" stroke:none;fill-rule:evenodd;fill:rgb(92.54902%,96.470588%,100%);fill-opacity:1;" d="M 73.53125 20.761719 C 73.53125 20.761719 75.660156 22.1875 76.40625 20.816406 C 78.308594 17.3125 83.886719 19.386719 87.421875 13.082031 C 89.882812 8.691406 87.816406 3.171875 83.355469 0.949219 C 78.890625 -1.273438 73.472656 0.550781 71.253906 5.023438 C 68.0625 11.460938 73.144531 13.929688 71.8125 18.46875 C 71.429688 19.777344 73.53125 20.761719 73.53125 20.761719 Z M 73.53125 20.761719 "/>
<path style=" stroke:none;fill-rule:evenodd;fill:rgb(69.803922%,79.607843%,91.372549%);fill-opacity:1;" d="M 73.457031 19.226562 C 73.457031 19.199219 73.460938 19.175781 73.464844 19.152344 C 73.542969 18.394531 73.660156 17.640625 73.816406 16.894531 C 73.96875 15.855469 74.203125 14.832031 74.515625 13.832031 C 74.808594 12.839844 75.40625 11.964844 76.222656 11.328125 C 76.550781 11.085938 77.003906 11.125 77.289062 11.414062 L 77.257812 11.4375 C 76.894531 11.742188 76.636719 12.148438 76.519531 12.605469 C 76.46875 12.851562 76.484375 13.109375 76.570312 13.347656 C 76.640625 13.535156 76.804688 13.667969 77 13.695312 C 77.1875 13.714844 77.371094 13.621094 77.464844 13.453125 C 77.578125 13.261719 77.65625 13.054688 77.703125 12.835938 C 77.839844 12.425781 77.84375 11.980469 77.710938 11.566406 C 77.703125 11.542969 77.691406 11.519531 77.683594 11.496094 C 77.816406 11.425781 77.964844 11.390625 78.117188 11.402344 C 78.273438 11.414062 78.300781 11.550781 78.292969 11.703125 C 78.273438 11.917969 78.226562 12.125 78.148438 12.320312 C 78.082031 12.398438 78.027344 12.476562 77.96875 12.558594 C 77.890625 12.671875 77.816406 12.785156 77.746094 12.90625 C 77.691406 13 77.664062 13.109375 77.664062 13.21875 C 77.664062 13.269531 77.691406 13.316406 77.730469 13.34375 C 77.769531 13.371094 77.816406 13.378906 77.859375 13.367188 C 77.898438 13.355469 77.929688 13.335938 77.957031 13.308594 C 78.019531 13.230469 78.074219 13.148438 78.121094 13.0625 C 78.175781 12.96875 78.222656 12.867188 78.265625 12.773438 C 78.296875 12.707031 78.34375 12.597656 78.398438 12.46875 C 78.683594 11.996094 79.292969 11.84375 79.769531 12.113281 C 79.835938 12.160156 79.878906 12.234375 79.882812 12.316406 C 79.890625 12.421875 79.882812 12.527344 79.855469 12.632812 C 79.664062 13.355469 79.339844 14.035156 78.902344 14.640625 C 78.273438 15.539062 77.589844 16.402344 76.855469 17.21875 C 76.375 17.792969 75.976562 18.4375 75.515625 19.03125 C 74.902344 19.746094 74.359375 20.519531 73.902344 21.347656 C 73.867188 21.417969 73.894531 21.5 73.964844 21.535156 C 74.035156 21.570312 74.121094 21.542969 74.15625 21.472656 C 74.605469 20.664062 75.136719 19.902344 75.738281 19.203125 C 76.199219 18.617188 76.589844 17.972656 77.070312 17.402344 C 77.8125 16.574219 78.503906 15.703125 79.140625 14.792969 C 79.597656 14.160156 79.933594 13.449219 80.132812 12.695312 C 80.164062 12.558594 80.175781 12.417969 80.164062 12.28125 C 80.148438 12.113281 80.058594 11.964844 79.921875 11.875 C 79.5 11.59375 78.941406 11.621094 78.550781 11.945312 C 78.566406 11.867188 78.574219 11.792969 78.578125 11.714844 C 78.597656 11.554688 78.550781 11.390625 78.453125 11.261719 C 78.375 11.171875 78.261719 11.117188 78.144531 11.113281 C 77.929688 11.101562 77.71875 11.148438 77.53125 11.253906 C 77.15625 10.828125 76.519531 10.757812 76.0625 11.09375 C 75.199219 11.765625 74.570312 12.6875 74.257812 13.734375 C 73.9375 14.75 73.699219 15.785156 73.546875 16.835938 C 73.386719 17.59375 73.265625 18.355469 73.1875 19.125 C 73.152344 19.351562 73.164062 19.582031 73.226562 19.804688 C 73.246094 19.847656 73.285156 19.886719 73.328125 19.902344 C 73.386719 19.921875 73.445312 19.910156 73.492188 19.871094 C 73.535156 19.824219 73.570312 19.769531 73.589844 19.707031 C 73.636719 19.585938 73.664062 19.457031 73.675781 19.328125 C 73.667969 19.25 73.601562 19.191406 73.523438 19.199219 C 73.5 19.203125 73.480469 19.210938 73.460938 19.222656 Z M 77.441406 11.65625 L 77.4375 11.660156 C 77.125 11.921875 76.898438 12.273438 76.796875 12.667969 C 76.761719 12.828125 76.765625 12.992188 76.800781 13.152344 C 76.832031 13.28125 76.898438 13.394531 77.039062 13.414062 C 77.125 13.425781 77.183594 13.367188 77.234375 13.296875 C 77.492188 12.796875 77.566406 12.21875 77.453125 11.667969 L 77.445312 11.652344 Z M 77.441406 11.65625 "/>
<path style=" stroke:none;fill-rule:evenodd;fill:rgb(70.588235%,79.607843%,90.980392%);fill-opacity:1;" d="M 76.480469 20.71875 C 76.5625 20.546875 76.492188 20.339844 76.324219 20.253906 L 72.199219 18.199219 C 72.027344 18.113281 71.820312 18.183594 71.734375 18.355469 L 69.332031 23.207031 C 69.246094 23.378906 69.316406 23.585938 69.488281 23.671875 L 73.609375 25.726562 C 73.691406 25.769531 73.789062 25.773438 73.875 25.746094 C 73.960938 25.714844 74.035156 25.652344 74.074219 25.570312 Z M 76.480469 20.71875 "/>
<path style=" stroke:none;fill-rule:evenodd;fill:rgb(54.117647%,61.960784%,89.803922%);fill-opacity:1;" d="M 76.453125 20.773438 C 76.457031 20.757812 76.453125 20.746094 76.441406 20.738281 L 71.742188 18.398438 C 71.730469 18.390625 71.714844 18.398438 71.707031 18.410156 L 71.558594 18.714844 C 71.554688 18.71875 71.554688 18.726562 71.554688 18.734375 C 71.558594 18.738281 71.5625 18.746094 71.570312 18.75 L 76.265625 21.089844 C 76.277344 21.09375 76.292969 21.089844 76.300781 21.078125 L 76.449219 20.773438 Z M 76.453125 20.773438 "/>
<path style=" stroke:none;fill-rule:evenodd;fill:rgb(54.117647%,61.960784%,89.803922%);fill-opacity:1;" d="M 76.011719 21.632812 C 76.019531 21.621094 76.011719 21.605469 76 21.597656 L 71.304688 19.257812 C 71.292969 19.25 71.277344 19.257812 71.269531 19.269531 L 71.117188 19.574219 C 71.117188 19.578125 71.117188 19.585938 71.117188 19.59375 C 71.121094 19.601562 71.125 19.605469 71.128906 19.609375 L 75.828125 21.949219 C 75.839844 21.957031 75.855469 21.949219 75.863281 21.9375 Z M 76.011719 21.632812 "/>
<path style=" stroke:none;fill-rule:evenodd;fill:rgb(54.117647%,61.960784%,89.803922%);fill-opacity:1;" d="M 75.644531 22.378906 C 75.648438 22.371094 75.648438 22.363281 75.648438 22.355469 C 75.644531 22.351562 75.640625 22.34375 75.632812 22.34375 L 70.9375 20.003906 C 70.925781 19.996094 70.910156 20 70.902344 20.015625 L 70.75 20.316406 C 70.75 20.324219 70.746094 20.332031 70.75 20.339844 C 70.753906 20.34375 70.757812 20.351562 70.761719 20.351562 L 75.460938 22.691406 C 75.472656 22.699219 75.488281 22.695312 75.496094 22.683594 Z M 75.644531 22.378906 "/>
<path style=" stroke:none;fill-rule:evenodd;fill:rgb(54.117647%,61.960784%,89.803922%);fill-opacity:1;" d="M 75.269531 23.136719 C 75.273438 23.132812 75.273438 23.125 75.273438 23.117188 C 75.269531 23.113281 75.265625 23.105469 75.257812 23.101562 L 70.5625 20.761719 C 70.550781 20.757812 70.535156 20.761719 70.527344 20.773438 L 70.378906 21.078125 C 70.371094 21.089844 70.375 21.105469 70.390625 21.113281 L 75.085938 23.453125 C 75.097656 23.460938 75.113281 23.453125 75.121094 23.441406 L 75.273438 23.136719 Z M 75.269531 23.136719 "/>
<path style=" stroke:none;fill-rule:evenodd;fill:rgb(54.117647%,61.960784%,89.803922%);fill-opacity:1;" d="M 74.972656 23.785156 C 74.976562 23.777344 74.976562 23.769531 74.972656 23.765625 C 74.972656 23.757812 74.96875 23.753906 74.960938 23.75 L 70.261719 21.410156 C 70.25 21.402344 70.234375 21.40625 70.230469 21.421875 L 70.078125 21.726562 C 70.074219 21.730469 70.074219 21.738281 70.074219 21.746094 C 70.078125 21.75 70.082031 21.757812 70.089844 21.757812 L 74.785156 24.101562 C 74.800781 24.105469 74.8125 24.101562 74.820312 24.089844 Z M 74.972656 23.785156 "/>
<path style=" stroke:none;fill-rule:evenodd;fill:rgb(54.117647%,61.960784%,89.803922%);fill-opacity:1;" d="M 74.601562 24.523438 C 74.609375 24.507812 74.601562 24.492188 74.589844 24.488281 L 69.894531 22.148438 C 69.878906 22.140625 69.863281 22.148438 69.859375 22.160156 L 69.707031 22.464844 C 69.703125 22.476562 69.707031 22.492188 69.71875 22.496094 L 74.417969 24.839844 C 74.421875 24.839844 74.429688 24.839844 74.4375 24.839844 C 74.441406 24.835938 74.449219 24.832031 74.449219 24.828125 Z M 74.601562 24.523438 "/>
<path style=" stroke:none;fill-rule:evenodd;fill:rgb(54.117647%,61.960784%,89.803922%);fill-opacity:1;" d="M 74.273438 25.199219 C 74.28125 25.1875 74.273438 25.171875 74.261719 25.167969 L 69.566406 22.824219 C 69.558594 22.824219 69.550781 22.820312 69.546875 22.824219 C 69.539062 22.828125 69.535156 22.832031 69.53125 22.835938 L 69.378906 23.140625 C 69.378906 23.148438 69.375 23.152344 69.378906 23.160156 C 69.382812 23.167969 69.386719 23.171875 69.390625 23.175781 L 74.089844 25.515625 C 74.101562 25.523438 74.117188 25.515625 74.121094 25.503906 Z M 74.273438 25.199219 "/>
<path style=" stroke:none;fill-rule:evenodd;fill:rgb(99.607843%,70.196078%,61.568627%);fill-opacity:1;" d="M 64.074219 44.066406 C 64.375 44.238281 64.097656 48.882812 63.878906 52.652344 C 64.078125 53.425781 64.421875 54.15625 64.894531 54.800781 C 65.238281 55.25 65.726562 55.472656 65.761719 55.222656 C 66.222656 54.628906 66.550781 53.9375 66.71875 53.199219 C 66.71875 53.199219 66.3125 52.066406 66.394531 46.90625 C 66.472656 41.746094 64.074219 44.066406 64.074219 44.066406 Z M 64.074219 44.066406 "/>
<path style=" stroke:none;fill-rule:evenodd;fill:rgb(87.058824%,50.980392%,42.352941%);fill-opacity:1;" d="M 64.507812 54.195312 C 64.402344 53.976562 64.332031 53.746094 64.292969 53.507812 C 64.511719 49.742188 64.789062 45.09375 64.488281 44.921875 C 64.488281 44.921875 65.511719 43.933594 66.199219 44.683594 C 65.636719 42.558594 64.074219 44.066406 64.074219 44.066406 C 64.375 44.238281 64.097656 48.886719 63.878906 52.652344 C 64.007812 53.195312 64.21875 53.71875 64.507812 54.195312 Z M 64.507812 54.195312 "/>
<path style=" stroke:none;fill-rule:evenodd;fill:rgb(99.607843%,70.196078%,61.568627%);fill-opacity:1;" d="M 71.292969 44.871094 C 71.085938 46.332031 70.257812 47.632812 69.027344 48.433594 C 69.027344 48.433594 66.476562 49.867188 63.109375 44.511719 C 62.476562 44.671875 59.5 43.703125 60.273438 41.644531 C 60.894531 39.992188 62.460938 40.898438 62.652344 41.703125 L 61.984375 37.34375 L 66.644531 34.332031 L 69.777344 34.527344 L 71.324219 36.457031 C 71.675781 35.847656 71.621094 43.269531 71.289062 44.871094 Z M 71.292969 44.871094 "/>
<path style=" stroke:none;fill-rule:evenodd;fill:rgb(87.058824%,50.980392%,42.352941%);fill-opacity:1;" d="M 62.753906 41.925781 C 62.808594 42.082031 64.234375 40.828125 64.15625 38.867188 C 64.082031 37 65.035156 36.375 68.835938 37.171875 C 72.640625 37.972656 71.15625 35.242188 71.15625 35.242188 C 71.15625 35.242188 66.15625 34.261719 65.910156 34.058594 C 65.664062 33.851562 62.785156 36.425781 62.785156 36.425781 L 62.683594 40.734375 Z M 62.753906 41.925781 "/>
<path style=" stroke:none;fill-rule:evenodd;fill:rgb(87.058824%,50.980392%,42.352941%);fill-opacity:1;" d="M 60.835938 40.867188 C 60.140625 42.886719 63.066406 43.835938 63.691406 43.679688 C 67.058594 49.035156 69.609375 47.601562 69.609375 47.601562 C 69.949219 47.402344 70.253906 47.148438 70.515625 46.855469 C 70.171875 47.507812 69.65625 48.054688 69.027344 48.4375 C 69.027344 48.4375 66.476562 49.867188 63.109375 44.511719 C 62.476562 44.675781 59.5 43.703125 60.273438 41.644531 C 60.375 41.332031 60.570312 41.058594 60.839844 40.867188 Z M 62.632812 36.925781 L 63.238281 40.867188 C 63.101562 40.457031 62.789062 40.128906 62.386719 39.972656 L 61.984375 37.34375 Z M 62.632812 36.925781 "/>
<path style=" stroke:none;fill-rule:evenodd;fill:rgb(23.529412%,8.235294%,13.333333%);fill-opacity:1;" d="M 62.65625 42.070312 C 62.65625 42.070312 63.679688 41.535156 63.554688 39.558594 C 63.429688 37.582031 64.152344 35.492188 65.910156 36.078125 C 67.664062 36.667969 73.308594 39.050781 74.742188 35 C 76.175781 30.953125 73.15625 30.546875 71.5 31.152344 C 70.03125 31.695312 68.4375 31.796875 66.910156 31.445312 C 65.117188 31.160156 62.003906 31.671875 61.664062 33.910156 C 61.664062 33.910156 57.503906 35.738281 60.929688 40.789062 C 61.730469 40.761719 62.449219 41.292969 62.65625 42.070312 Z M 62.65625 42.070312 "/>
<path style=" stroke:none;fill-rule:evenodd;fill:rgb(5.490196%,22.352941%,63.529412%);fill-opacity:1;" d="M 64.128906 48.902344 C 64.128906 48.902344 65.765625 52.097656 66.433594 48.953125 C 66.433594 48.953125 78.308594 46.332031 80.847656 57.65625 C 83.539062 69.640625 83.523438 79.316406 78.523438 83.457031 C 73.523438 87.601562 53.652344 84.050781 53.652344 84.050781 C 53.652344 84.050781 50.867188 84.074219 50.5 79.859375 C 50.5 79.859375 46.59375 80.101562 45.5625 78.222656 C 43.960938 75.3125 42.144531 52.472656 56.039062 49.023438 C 56.039062 49.023438 62.910156 47.851562 64.128906 48.902344 Z M 64.128906 48.902344 "/>
<g clip-path="url(#clip1)" clip-rule="nonzero">
<g clip-path="url(#clip2)" clip-rule="evenodd">
<path style=" stroke:none;fill-rule:evenodd;fill:rgb(8.235294%,19.607843%,53.72549%);fill-opacity:1;" d="M 75.136719 70.417969 C 74.765625 70.945312 74.339844 71.429688 73.863281 71.859375 C 73.863281 71.859375 77.703125 79.207031 80.8125 77.960938 C 81.871094 77.554688 82.710938 76.714844 83.113281 75.648438 C 85.113281 73.632812 84.242188 70.324219 82.625 68.710938 C 80.863281 66.960938 76.375 64.886719 76.375 64.886719 C 76.265625 66.785156 75.84375 68.652344 75.136719 70.417969 Z M 75.136719 70.417969 "/>
</g>
</g>
<g clip-path="url(#clip3)" clip-rule="nonzero">
<g clip-path="url(#clip4)" clip-rule="evenodd">
<path style=" stroke:none;fill-rule:evenodd;fill:rgb(8.235294%,19.607843%,53.72549%);fill-opacity:1;" d="M 62.652344 47.261719 C 62.652344 47.261719 65.410156 54.464844 67.140625 49.640625 C 68.867188 44.8125 68.046875 46.089844 68.046875 46.089844 L 62.15625 46.636719 L 62.65625 47.261719 Z M 62.652344 47.261719 "/>
</g>
</g>
<path style=" stroke:none;fill-rule:evenodd;fill:rgb(8.235294%,19.607843%,53.72549%);fill-opacity:1;" d="M 55.519531 59.714844 C 56.03125 60.9375 54.21875 69.546875 54.46875 73.285156 C 54.84375 73.839844 53.359375 67.828125 55.519531 59.714844 Z M 55.519531 59.714844 "/>
<path style=" stroke:none;fill-rule:evenodd;fill:rgb(8.235294%,19.607843%,53.72549%);fill-opacity:1;" d="M 50.515625 79.34375 C 48.203125 79.195312 47.421875 74.480469 49.324219 72.632812 L 54.371094 68.695312 C 54.371094 68.695312 56.046875 74.179688 59.261719 73.988281 C 59.261719 73.988281 58.589844 74.566406 57.601562 75.34375 C 58.414062 76.816406 59.71875 78.433594 61.488281 78.328125 C 61.488281 78.328125 55.738281 83.285156 53.132812 83.667969 C 51.304688 83.933594 50.277344 81.496094 50.515625 79.34375 Z M 50.515625 79.34375 "/>
<path style=" stroke:none;fill-rule:evenodd;fill:rgb(55.686275%,55.686275%,55.686275%);fill-opacity:1;" d="M 71.308594 58.488281 C 71.277344 58.09375 70.941406 57.796875 70.546875 57.8125 L 58.9375 58.398438 C 58.75 58.410156 58.574219 58.492188 58.449219 58.632812 C 58.324219 58.773438 58.261719 58.960938 58.273438 59.148438 L 59.4375 75.957031 C 59.46875 76.351562 59.804688 76.652344 60.199219 76.632812 L 71.808594 76.046875 C 71.996094 76.039062 72.171875 75.953125 72.296875 75.8125 C 72.421875 75.671875 72.484375 75.488281 72.472656 75.300781 Z M 71.308594 58.488281 "/>
<path style=" stroke:none;fill-rule:evenodd;fill:rgb(100%,100%,100%);fill-opacity:1;" d="M 65.371094 64.332031 C 66.292969 64.234375 67.132812 64.875 67.285156 65.792969 C 67.359375 66.226562 67.25 66.667969 66.988281 67.015625 C 66.726562 67.363281 66.332031 67.589844 65.898438 67.636719 C 64.976562 67.730469 64.136719 67.089844 63.984375 66.171875 C 63.910156 65.742188 64.015625 65.300781 64.28125 64.953125 C 64.542969 64.601562 64.9375 64.378906 65.371094 64.332031 Z M 65.371094 64.332031 "/>
<path style=" stroke:none;fill-rule:evenodd;fill:rgb(7.843137%,7.843137%,7.843137%);fill-opacity:1;" d="M 59.230469 59.113281 C 59.535156 59.144531 59.761719 59.40625 59.746094 59.710938 C 59.753906 59.855469 59.703125 60 59.605469 60.105469 C 59.507812 60.210938 59.371094 60.273438 59.226562 60.277344 C 58.921875 60.25 58.695312 59.984375 58.710938 59.679688 C 58.703125 59.535156 58.753906 59.394531 58.851562 59.285156 C 58.949219 59.179688 59.085938 59.117188 59.230469 59.113281 Z M 59.230469 59.113281 "/>
<path style=" stroke:none;fill-rule:evenodd;fill:rgb(7.843137%,7.843137%,7.843137%);fill-opacity:1;" d="M 59.375 60.441406 C 59.488281 60.453125 59.574219 60.550781 59.570312 60.664062 C 59.574219 60.71875 59.554688 60.773438 59.519531 60.8125 C 59.480469 60.851562 59.429688 60.875 59.375 60.878906 C 59.261719 60.867188 59.175781 60.769531 59.179688 60.652344 C 59.175781 60.597656 59.195312 60.546875 59.234375 60.507812 C 59.269531 60.464844 59.320312 60.441406 59.375 60.441406 Z M 59.375 60.441406 "/>
<path style=" stroke:none;fill-rule:evenodd;fill:rgb(99.215686%,70.588235%,61.568627%);fill-opacity:1;" d="M 54.371094 70.976562 C 54.371094 70.976562 53.878906 67.171875 58.605469 66.152344 C 62.585938 65.289062 63.09375 67.882812 62.089844 68.527344 C 60.703125 69.410156 60.585938 69.222656 58.96875 70.109375 C 58.125 70.574219 57.980469 71.164062 57.515625 71.878906 C 56.972656 72.710938 55.378906 73.15625 55.378906 73.15625 Z M 54.371094 70.976562 "/>
<path style=" stroke:none;fill-rule:evenodd;fill:rgb(87.058824%,50.980392%,42.352941%);fill-opacity:1;" d="M 62.027344 66.578125 C 62.335938 66.800781 62.523438 67.15625 62.535156 67.535156 C 62.546875 67.917969 62.382812 68.285156 62.085938 68.527344 C 60.703125 69.410156 60.582031 69.21875 58.96875 70.109375 C 58.125 70.574219 57.980469 71.164062 57.515625 71.878906 C 56.972656 72.710938 55.378906 73.152344 55.378906 73.152344 L 55.132812 72.621094 C 55.90625 72.410156 56.605469 71.980469 57.140625 71.382812 C 57.605469 70.667969 57.753906 70.082031 58.59375 69.617188 C 60.207031 68.726562 60.328125 68.917969 61.714844 68.03125 C 62.164062 67.695312 62.300781 67.070312 62.027344 66.578125 Z M 62.027344 66.578125 "/>
<path style=" stroke:none;fill-rule:evenodd;fill:rgb(5.490196%,22.352941%,63.529412%);fill-opacity:1;" d="M 48.972656 73.144531 L 54.019531 69.210938 C 54.019531 69.210938 55.699219 74.695312 58.910156 74.5 C 58.910156 74.5 53.160156 79.457031 50.554688 79.839844 C 47.945312 80.222656 46.96875 75.09375 48.972656 73.144531 Z M 48.972656 73.144531 "/>
<path style=" stroke:none;fill-rule:evenodd;fill:rgb(8.235294%,19.607843%,53.72549%);fill-opacity:1;" d="M 74.648438 57.84375 C 74.023438 59.015625 75.054688 67.753906 74.457031 71.453125 C 74.023438 71.96875 76.074219 66.121094 74.648438 57.84375 Z M 74.648438 57.84375 "/>
<path style=" stroke:none;fill-rule:evenodd;fill:rgb(8.235294%,19.607843%,53.72549%);fill-opacity:1;" d="M 73.828125 71.691406 C 73.828125 71.691406 73.894531 66.351562 76.351562 64.992188 C 76.351562 64.992188 77.898438 65.746094 76.90625 68.300781 C 76.355469 69.789062 75.253906 71.003906 73.828125 71.6875 Z M 73.828125 71.691406 "/>
<path style=" stroke:none;fill-rule:evenodd;fill:rgb(99.215686%,70.588235%,61.568627%);fill-opacity:1;" d="M 76.632812 67.035156 C 76.632812 67.035156 75.761719 63.90625 71.535156 64.621094 C 67.976562 65.222656 68.429688 67.414062 69.46875 67.59375 C 70.902344 67.839844 70.9375 67.65625 72.5625 67.832031 C 73.40625 67.925781 73.730469 68.339844 74.351562 68.75 C 75.039062 69.046875 75.792969 69.15625 76.535156 69.0625 Z M 76.632812 67.035156 "/>
<path style=" stroke:none;fill-rule:evenodd;fill:rgb(87.058824%,50.980392%,42.352941%);fill-opacity:1;" d="M 68.964844 65.882812 C 68.726562 66.15625 68.644531 66.53125 68.746094 66.878906 C 68.847656 67.226562 69.121094 67.496094 69.472656 67.59375 C 70.90625 67.839844 70.941406 67.65625 72.5625 67.832031 C 73.410156 67.925781 73.734375 68.339844 74.351562 68.75 C 75.039062 69.046875 75.792969 69.15625 76.535156 69.0625 L 76.558594 68.585938 C 75.878906 68.660156 75.191406 68.546875 74.570312 68.257812 C 73.949219 67.847656 73.628906 67.433594 72.78125 67.339844 C 71.15625 67.164062 71.121094 67.351562 69.6875 67.101562 C 69.429688 67.039062 69.207031 66.875 69.070312 66.644531 C 68.933594 66.417969 68.894531 66.140625 68.964844 65.882812 Z M 68.964844 65.882812 "/>
<path style=" stroke:none;fill-rule:evenodd;fill:rgb(5.490196%,22.352941%,63.529412%);fill-opacity:1;" d="M 76.359375 64.996094 C 76.359375 64.996094 75.851562 69.300781 73.828125 71.75 C 73.828125 71.75 78.773438 78.398438 81.648438 76.683594 C 84.523438 74.964844 83.929688 71.152344 82.304688 69.273438 C 80.679688 67.398438 76.359375 64.996094 76.359375 64.996094 Z M 76.359375 64.996094 "/>
<path style=" stroke:none;fill-rule:evenodd;fill:rgb(5.098039%,21.960784%,63.921569%);fill-opacity:1;" d="M 74.472656 120.871094 C 74.472656 120.871094 71.414062 124.089844 73.070312 126.355469 C 74.722656 128.617188 77.070312 132.039062 77.351562 134.753906 C 77.824219 139.367188 84.429688 142.78125 85.15625 136.820312 C 85.703125 132.335938 82.167969 128.714844 82.863281 124.980469 C 83.476562 121.660156 73.828125 123.484375 74.472656 120.875 Z M 74.472656 120.871094 "/>
<g clip-path="url(#clip5)" clip-rule="nonzero">
<g clip-path="url(#clip6)" clip-rule="evenodd">
<path style=" stroke:none;fill-rule:evenodd;fill:rgb(69.803922%,80%,90.588235%);fill-opacity:1;" d="M 72.40625 122.457031 C 72.40625 122.457031 73.765625 126.261719 75.5625 128.324219 C 77.320312 130.347656 78.578125 135.753906 79.25 136.777344 C 79.921875 137.796875 82.957031 140.195312 85.09375 138.449219 C 87.226562 136.707031 82.960938 142.707031 82.960938 142.707031 C 82.960938 142.707031 80.707031 142.882812 79.980469 142.980469 C 79.257812 143.078125 75.253906 139.472656 74.320312 138.378906 C 73.386719 137.285156 71.46875 131.3125 71.46875 131.3125 C 71.46875 131.3125 71.0625 127.097656 70.632812 126.679688 C 70.199219 126.261719 72.40625 122.457031 72.40625 122.457031 Z M 72.40625 122.457031 "/>
</g>
</g>
<g clip-path="url(#clip7)" clip-rule="nonzero">
<g clip-path="url(#clip8)" clip-rule="evenodd">
<path style=" stroke:none;fill-rule:evenodd;fill:rgb(0%,0%,0%);fill-opacity:1;" d="M 77.296875 129.566406 C 78.144531 131.273438 78.878906 133.035156 79.488281 134.839844 C 80.019531 136.761719 82.421875 139.535156 85.5 138.105469 C 85.578125 138.066406 85.613281 137.976562 85.578125 137.898438 C 85.539062 137.820312 85.449219 137.789062 85.371094 137.824219 C 82.503906 139.160156 80.277344 136.550781 79.785156 134.757812 C 79.167969 132.9375 78.425781 131.15625 77.570312 129.433594 C 77.546875 129.378906 77.5 129.34375 77.441406 129.339844 C 77.382812 129.335938 77.328125 129.363281 77.296875 129.410156 C 77.269531 129.457031 77.265625 129.519531 77.292969 129.570312 Z M 77.296875 129.566406 "/>
</g>
</g>
<g clip-path="url(#clip9)" clip-rule="nonzero">
<g clip-path="url(#clip10)" clip-rule="evenodd">
<path style=" stroke:none;fill-rule:evenodd;fill:rgb(69.803922%,80%,90.588235%);fill-opacity:1;" d="M 75.65625 123.488281 C 76.335938 124.96875 77.324219 126.285156 78.550781 127.355469 C 79.910156 128.574219 81.804688 128.996094 83.550781 128.464844 C 83.660156 128.429688 83.722656 128.3125 83.6875 128.203125 C 83.65625 128.089844 83.539062 128.027344 83.429688 128.058594 C 81.816406 128.542969 80.070312 128.148438 78.820312 127.023438 C 77.644531 125.996094 76.703125 124.734375 76.046875 123.320312 C 76.019531 123.242188 75.953125 123.1875 75.875 123.179688 C 75.796875 123.167969 75.71875 123.199219 75.671875 123.265625 C 75.625 123.332031 75.621094 123.417969 75.65625 123.488281 Z M 75.65625 123.488281 "/>
</g>
</g>
<g clip-path="url(#clip11)" clip-rule="nonzero">
<g clip-path="url(#clip12)" clip-rule="evenodd">
<path style=" stroke:none;fill-rule:evenodd;fill:rgb(92.54902%,96.078431%,99.607843%);fill-opacity:1;" d="M 83.792969 130.085938 C 83.953125 130.074219 84.070312 129.933594 84.054688 129.773438 C 84.042969 129.613281 83.902344 129.496094 83.742188 129.511719 L 81.769531 129.683594 C 81.609375 129.699219 81.492188 129.835938 81.503906 129.996094 C 81.519531 130.15625 81.660156 130.273438 81.816406 130.261719 L 83.792969 130.089844 Z M 83.792969 130.085938 "/>
</g>
</g>
<g clip-path="url(#clip13)" clip-rule="nonzero">
<g clip-path="url(#clip14)" clip-rule="evenodd">
<path style=" stroke:none;fill-rule:evenodd;fill:rgb(92.54902%,96.078431%,99.607843%);fill-opacity:1;" d="M 84.183594 131.488281 C 84.339844 131.476562 84.457031 131.335938 84.445312 131.175781 C 84.429688 131.015625 84.289062 130.898438 84.132812 130.914062 L 82.15625 131.085938 C 81.996094 131.097656 81.878906 131.238281 81.894531 131.398438 C 81.90625 131.558594 82.046875 131.675781 82.207031 131.660156 Z M 84.183594 131.488281 "/>
</g>
</g>
<g clip-path="url(#clip15)" clip-rule="nonzero">
<g clip-path="url(#clip16)" clip-rule="evenodd">
<path style=" stroke:none;fill-rule:evenodd;fill:rgb(92.54902%,96.078431%,99.607843%);fill-opacity:1;" d="M 84.613281 132.917969 C 84.773438 132.90625 84.890625 132.765625 84.875 132.605469 C 84.863281 132.445312 84.722656 132.328125 84.5625 132.34375 L 82.589844 132.515625 C 82.433594 132.535156 82.324219 132.671875 82.335938 132.828125 C 82.347656 132.980469 82.484375 133.097656 82.636719 133.089844 Z M 84.613281 132.917969 "/>
</g>
</g>
<g clip-path="url(#clip17)" clip-rule="nonzero">
<g clip-path="url(#clip18)" clip-rule="evenodd">
<path style=" stroke:none;fill-rule:evenodd;fill:rgb(92.54902%,96.078431%,99.607843%);fill-opacity:1;" d="M 85.136719 134.550781 C 85.296875 134.535156 85.414062 134.394531 85.398438 134.238281 C 85.386719 134.078125 85.246094 133.960938 85.085938 133.972656 L 83.113281 134.144531 C 82.953125 134.160156 82.835938 134.300781 82.847656 134.460938 C 82.863281 134.617188 83.003906 134.734375 83.160156 134.722656 Z M 85.136719 134.550781 "/>
</g>
</g>
<path style=" stroke:none;fill-rule:evenodd;fill:rgb(7.843137%,7.843137%,7.843137%);fill-opacity:1;" d="M 73.832031 80.171875 C 73.832031 80.171875 94.882812 86.328125 92.554688 97.910156 C 90.226562 109.492188 84.578125 127.394531 84.382812 128.015625 C 84.1875 128.636719 73.660156 126.152344 73.515625 119.386719 L 77.714844 98.917969 L 62.074219 90.375 C 62.074219 90.375 64.785156 78.003906 73.832031 80.171875 Z M 73.832031 80.171875 "/>
<g clip-path="url(#clip19)" clip-rule="nonzero">
<g clip-path="url(#clip20)" clip-rule="evenodd">
<path style=" stroke:none;fill-rule:evenodd;fill:rgb(55.686275%,55.686275%,55.686275%);fill-opacity:1;" d="M 86.003906 125.0625 C 84.292969 124.542969 82.621094 123.890625 81.011719 123.113281 C 80.449219 122.839844 79.871094 122.542969 79.296875 122.214844 C 77.121094 120.980469 74.960938 119.351562 73.832031 117.316406 C 73.671875 117.054688 73.347656 116.945312 73.0625 117.054688 C 72.929688 117.09375 72.824219 117.195312 72.773438 117.320312 C 72.722656 117.449219 72.734375 117.59375 72.800781 117.714844 C 74.023438 119.921875 76.34375 121.710938 78.703125 123.046875 C 80.921875 124.28125 83.269531 125.277344 85.699219 126.015625 C 85.984375 126.113281 86.292969 125.972656 86.40625 125.695312 C 86.441406 125.558594 86.417969 125.410156 86.34375 125.292969 C 86.265625 125.171875 86.144531 125.089844 86.007812 125.0625 Z M 86.003906 125.0625 "/>
</g>
</g>
<g clip-path="url(#clip21)" clip-rule="nonzero">
<g clip-path="url(#clip22)" clip-rule="evenodd">
<path style="fill:none;stroke-width:0.4;stroke-linecap:butt;stroke-linejoin:round;stroke:rgb(21.960784%,21.960784%,21.960784%);stroke-opacity:1;stroke-miterlimit:4;" d="M 2078.84375 1429.735268 C 2076.209807 1428.937416 2073.636 1427.935603 2071.158409 1426.741825 C 2070.292455 1426.321903 2069.402447 1425.865988 2068.518452 1425.362081 C 2065.168894 1423.466434 2061.843391 1420.9649 2060.105469 1417.839481 C 2059.858913 1417.437556 2059.359787 1417.269587 2058.920796 1417.437556 C 2058.716335 1417.497545 2058.553968 1417.653516 2058.475792 1417.84548 C 2058.397616 1418.043443 2058.415656 1418.265402 2058.517887 1418.451367 C 2060.400134 1421.840737 2063.972194 1424.588225 2067.60439 1426.639844 C 2071.020097 1428.535491 2074.634252 1430.065206 2078.374692 1431.198996 C 2078.813683 1431.348968 2079.288755 1431.133008 2079.463148 1430.707087 C 2079.51727 1430.497126 2079.481189 1430.269169 2079.366931 1430.089202 C 2079.24666 1429.903237 2079.060239 1429.77726 2078.849764 1429.735268 Z M 2078.84375 1429.735268 " transform="matrix(0.649573,0,0,0.651163,-1264.356137,-805.927907)"/>
</g>
</g>
<path style=" stroke:none;fill-rule:evenodd;fill:rgb(69.803922%,80%,90.588235%);fill-opacity:1;" d="M 87.1875 86.832031 C 89.027344 87.40625 90.921875 87.800781 92.839844 88.011719 C 95.125 88.140625 95.722656 89.628906 95.933594 91.128906 C 96.144531 92.625 92.757812 94.5 91.269531 93.527344 C 91.269531 93.527344 86.992188 91.492188 85.253906 91.808594 C 83.515625 92.125 87.1875 86.832031 87.1875 86.832031 Z M 87.1875 86.832031 "/>
<path style=" stroke:none;fill-rule:evenodd;fill:rgb(5.098039%,21.960784%,63.921569%);fill-opacity:1;" d="M 93.453125 87.957031 C 92.765625 88.09375 95.273438 92.132812 90.851562 93.332031 C 90.851562 93.332031 91.585938 95.214844 92.960938 95.476562 C 92.960938 95.476562 94.828125 95.175781 95.433594 95.441406 C 96.039062 95.707031 105.152344 102.136719 108.050781 93.828125 C 108.40625 92.808594 107.960938 89.179688 100.921875 89.480469 C 100.921875 89.480469 97.851562 89.332031 96.417969 88.496094 C 94.808594 87.558594 93.84375 87.847656 93.457031 87.957031 Z M 93.453125 87.957031 "/>
<g clip-path="url(#clip23)" clip-rule="nonzero">
<g clip-path="url(#clip24)" clip-rule="evenodd">
<path style=" stroke:none;fill-rule:evenodd;fill:rgb(92.54902%,96.078431%,99.607843%);fill-opacity:1;" d="M 91.570312 95.53125 C 91.570312 95.53125 94.675781 93.902344 97.015625 95.507812 C 99.207031 97.011719 105.601562 99.507812 107.445312 92.929688 C 107.636719 92.378906 107.679688 91.789062 107.5625 91.214844 C 107.148438 89.246094 110.183594 90.765625 110.183594 90.765625 C 110.183594 90.765625 111.34375 96.960938 111.027344 97.046875 C 110.710938 97.136719 108.042969 100.46875 107.117188 100.675781 C 104.425781 100.921875 101.71875 101.007812 99.015625 100.929688 C 98.210938 100.808594 94.375 98.074219 94.171875 97.621094 C 93.96875 97.167969 91.570312 95.53125 91.570312 95.53125 Z M 91.570312 95.53125 "/>
</g>
</g>
<g clip-path="url(#clip25)" clip-rule="nonzero">
<g clip-path="url(#clip26)" clip-rule="evenodd">
<path style=" stroke:none;fill-rule:evenodd;fill:rgb(0%,0%,0%);fill-opacity:1;" d="M 96.632812 94.855469 C 96.632812 94.855469 99.984375 96.613281 101.613281 96.796875 C 102.800781 96.929688 103.988281 96.59375 104.933594 95.867188 C 106.046875 95.011719 107.039062 93.46875 107.421875 90.8125 C 107.429688 90.769531 107.417969 90.726562 107.390625 90.691406 C 107.363281 90.65625 107.324219 90.636719 107.28125 90.628906 C 107.191406 90.617188 107.109375 90.679688 107.097656 90.765625 C 106.730469 93.308594 105.796875 94.792969 104.730469 95.609375 C 103.855469 96.285156 102.753906 96.597656 101.652344 96.476562 C 100.058594 96.292969 96.789062 94.570312 96.789062 94.570312 C 96.710938 94.527344 96.613281 94.558594 96.566406 94.636719 C 96.546875 94.671875 96.542969 94.71875 96.554688 94.757812 C 96.566406 94.800781 96.59375 94.835938 96.632812 94.855469 Z M 96.632812 94.855469 "/>
</g>
</g>
<path style=" stroke:none;fill-rule:evenodd;fill:rgb(92.54902%,96.078431%,99.607843%);fill-opacity:1;" d="M 91.523438 93.84375 C 92.453125 93.753906 93.296875 93.257812 93.832031 92.488281 C 94.398438 91.652344 94.734375 90.289062 94.246094 88.070312 C 94.230469 87.980469 94.140625 87.925781 94.050781 87.945312 C 93.964844 87.960938 93.90625 88.050781 93.925781 88.140625 C 94.386719 90.230469 94.09375 91.519531 93.558594 92.308594 C 93.082031 92.992188 92.335938 93.433594 91.507812 93.523438 C 91.417969 93.527344 91.347656 93.601562 91.351562 93.691406 C 91.355469 93.78125 91.433594 93.851562 91.523438 93.847656 Z M 91.523438 93.84375 "/>
<path style=" stroke:none;fill-rule:evenodd;fill:rgb(92.54902%,96.078431%,99.607843%);fill-opacity:1;" d="M 97.644531 90.003906 C 97.660156 89.925781 97.644531 89.839844 97.597656 89.773438 C 97.550781 89.707031 97.480469 89.660156 97.398438 89.644531 C 97.234375 89.613281 97.074219 89.726562 97.039062 89.890625 L 96.652344 91.9375 C 96.636719 92.019531 96.652344 92.101562 96.699219 92.167969 C 96.742188 92.234375 96.8125 92.28125 96.894531 92.296875 C 97.0625 92.328125 97.222656 92.21875 97.253906 92.050781 Z M 97.644531 90.003906 "/>
<path style=" stroke:none;fill-rule:evenodd;fill:rgb(92.54902%,96.078431%,99.607843%);fill-opacity:1;" d="M 99.664062 90.332031 C 99.679688 90.25 99.664062 90.167969 99.617188 90.101562 C 99.570312 90.03125 99.5 89.988281 99.421875 89.972656 C 99.253906 89.941406 99.09375 90.050781 99.058594 90.21875 L 98.671875 92.265625 C 98.65625 92.34375 98.671875 92.425781 98.71875 92.496094 C 98.761719 92.5625 98.835938 92.609375 98.914062 92.621094 C 99.082031 92.652344 99.242188 92.542969 99.277344 92.375 Z M 99.664062 90.332031 "/>
<path style=" stroke:none;fill-rule:evenodd;fill:rgb(92.54902%,96.078431%,99.607843%);fill-opacity:1;" d="M 101.621094 90.703125 C 101.636719 90.621094 101.621094 90.539062 101.574219 90.472656 C 101.527344 90.40625 101.457031 90.359375 101.378906 90.34375 C 101.210938 90.3125 101.050781 90.421875 101.019531 90.589844 L 100.628906 92.636719 C 100.613281 92.714844 100.628906 92.800781 100.675781 92.867188 C 100.722656 92.933594 100.792969 92.980469 100.875 92.996094 C 101.039062 93.027344 101.199219 92.914062 101.234375 92.75 Z M 101.621094 90.703125 "/>
<path style=" stroke:none;fill-rule:evenodd;fill:rgb(92.54902%,96.078431%,99.607843%);fill-opacity:1;" d="M 103.539062 90.972656 C 103.554688 90.890625 103.535156 90.808594 103.492188 90.742188 C 103.445312 90.675781 103.375 90.628906 103.292969 90.613281 C 103.125 90.582031 102.964844 90.691406 102.933594 90.859375 L 102.542969 92.90625 C 102.527344 92.984375 102.546875 93.070312 102.589844 93.136719 C 102.636719 93.203125 102.707031 93.25 102.789062 93.265625 C 102.957031 93.296875 103.117188 93.1875 103.148438 93.019531 Z M 103.539062 90.972656 "/>
<path style=" stroke:none;fill-rule:evenodd;fill:rgb(21.960784%,21.960784%,21.960784%);fill-opacity:1;" d="M 89.3125 85.597656 C 89.3125 85.597656 59.566406 68.453125 54.128906 75.96875 C 48.6875 83.480469 51.253906 98.5625 69.894531 93.832031 L 82.8125 94.976562 C 82.8125 94.976562 86.980469 94.910156 89.3125 85.59375 Z M 89.3125 85.597656 "/>
<g clip-path="url(#clip27)" clip-rule="nonzero">
<g clip-path="url(#clip28)" clip-rule="evenodd">
<path style=" stroke:none;fill-rule:evenodd;fill:rgb(55.686275%,55.686275%,55.686275%);fill-opacity:1;" d="M 85.613281 83.027344 C 85.296875 85.128906 84.726562 87.1875 83.914062 89.148438 C 83.058594 91.175781 81.808594 93.25 79.988281 94.496094 C 79.761719 94.652344 79.703125 94.964844 79.859375 95.191406 C 80.015625 95.421875 80.324219 95.476562 80.550781 95.324219 C 82.523438 93.96875 83.902344 91.742188 84.832031 89.539062 C 85.679688 87.492188 86.273438 85.351562 86.601562 83.160156 C 86.640625 82.886719 86.445312 82.632812 86.175781 82.597656 C 85.902344 82.5625 85.652344 82.753906 85.613281 83.027344 Z M 85.613281 83.027344 "/>
</g>
</g>
<path style=" stroke:none;fill-rule:evenodd;fill:rgb(7.843137%,7.843137%,7.843137%);fill-opacity:1;" d="M 59.765625 91.058594 C 59.765625 91.058594 61.59375 92.886719 70.03125 94.097656 C 70.078125 94.109375 70.132812 94.09375 70.164062 94.054688 C 70.199219 94.019531 70.207031 93.964844 70.183594 93.917969 C 70.164062 93.871094 70.117188 93.839844 70.066406 93.839844 C 61.757812 92.648438 59.949219 90.875 59.949219 90.875 C 59.921875 90.832031 59.867188 90.8125 59.820312 90.824219 C 59.769531 90.835938 59.730469 90.875 59.71875 90.925781 C 59.707031 90.976562 59.730469 91.027344 59.769531 91.058594 Z M 59.765625 91.058594 "/>
<path style=" stroke:none;fill-rule:nonzero;fill:rgb(54.117647%,61.960784%,89.803922%);fill-opacity:1;" d="M 118.050781 33.117188 L 111.359375 33.117188 C 111.144531 33.117188 110.960938 32.96875 110.910156 32.761719 C 110.433594 30.78125 108.890625 29.238281 106.914062 28.773438 C 106.707031 28.722656 106.558594 28.535156 106.558594 28.320312 L 106.558594 21.617188 C 106.558594 21.484375 106.613281 21.359375 106.710938 21.269531 C 106.8125 21.179688 106.941406 21.140625 107.074219 21.152344 C 113.09375 21.804688 117.851562 26.566406 118.511719 32.601562 C 118.523438 32.730469 118.484375 32.863281 118.394531 32.960938 C 118.308594 33.0625 118.183594 33.117188 118.050781 33.117188 Z M 118.050781 33.117188 "/>
<path style=" stroke:none;fill-rule:nonzero;fill:rgb(69.803922%,79.607843%,91.372549%);fill-opacity:1;" d="M 118.515625 35.375 C 118.261719 37.839844 117.300781 40.179688 115.746094 42.105469 C 115.664062 42.210938 115.539062 42.273438 115.410156 42.28125 C 115.277344 42.289062 115.148438 42.238281 115.054688 42.144531 L 111.3125 38.390625 L 110.324219 37.402344 C 110.171875 37.25 110.148438 37.011719 110.261719 36.828125 C 110.566406 36.332031 110.789062 35.789062 110.921875 35.222656 C 110.96875 35.011719 111.15625 34.859375 111.371094 34.859375 L 118.054688 34.859375 C 118.1875 34.859375 118.3125 34.917969 118.398438 35.015625 C 118.488281 35.113281 118.53125 35.242188 118.515625 35.375 Z M 118.515625 35.375 "/>
<path style=" stroke:none;fill-rule:nonzero;fill:rgb(59.215686%,72.54902%,87.058824%);fill-opacity:1;" d="M 113.828125 43.378906 C 113.921875 43.472656 113.972656 43.601562 113.964844 43.734375 C 113.957031 43.863281 113.894531 43.988281 113.792969 44.070312 C 109.511719 47.53125 103.515625 47.894531 98.855469 44.972656 C 94.195312 42.050781 91.890625 36.488281 93.121094 31.117188 C 94.351562 25.746094 98.84375 21.746094 104.308594 21.15625 C 104.4375 21.140625 104.570312 21.183594 104.667969 21.269531 C 104.765625 21.359375 104.820312 21.484375 104.820312 21.617188 L 104.820312 28.320312 C 104.820312 28.539062 104.671875 28.726562 104.464844 28.773438 C 102.390625 29.257812 100.800781 30.929688 100.410156 33.027344 C 100.019531 35.125 100.902344 37.253906 102.660156 38.457031 C 104.417969 39.660156 106.71875 39.707031 108.527344 38.578125 C 108.710938 38.460938 108.949219 38.488281 109.101562 38.644531 Z M 113.828125 43.378906 "/>
<path style=" stroke:none;fill-rule:nonzero;fill:rgb(50.196078%,61.568627%,91.764706%);fill-opacity:1;" d="M 10.652344 76.273438 C 12.457031 76.210938 14.261719 76.210938 16.070312 76.191406 C 16.421875 76.234375 16.53125 76.40625 16.519531 76.742188 C 16.503906 80.222656 16.605469 83.65625 16.609375 87.132812 C 16.589844 87.363281 16.695312 87.746094 16.429688 87.863281 C 16.199219 87.90625 15.960938 87.925781 15.726562 87.914062 C 13.742188 87.921875 11.761719 87.945312 9.78125 87.964844 C 9.316406 88.011719 8.847656 88.015625 8.378906 87.980469 C 8.265625 87.773438 8.207031 87.539062 8.207031 87.300781 C 8.207031 84.863281 8.183594 82.421875 8.179688 79.980469 C 8.207031 79.332031 8.03125 78.804688 8.574219 78.324219 C 9.269531 77.679688 9.933594 76.859375 10.652344 76.273438 Z M 10.652344 76.273438 "/>
<path style=" stroke:none;fill-rule:nonzero;fill:rgb(100%,100%,100%);fill-opacity:1;" d="M 11.242188 76.972656 C 11.253906 77.785156 11.257812 78.601562 11.238281 79.410156 C 11.136719 79.839844 10.617188 79.640625 10.316406 79.605469 C 9.824219 79.535156 9.328125 79.464844 8.839844 79.363281 C 8.511719 79.28125 8.589844 78.832031 8.800781 78.664062 C 9.394531 78.066406 9.992188 77.472656 10.59375 76.875 C 10.746094 76.703125 11.210938 76.671875 11.242188 76.972656 Z M 11.242188 76.972656 "/>
<path style=" stroke:none;fill-rule:nonzero;fill:rgb(59.215686%,72.54902%,87.058824%);fill-opacity:1;" d="M 14.472656 80.324219 C 16.28125 80.261719 18.085938 80.261719 19.894531 80.242188 C 20.246094 80.285156 20.355469 80.457031 20.339844 80.796875 C 20.328125 84.273438 20.429688 87.707031 20.433594 91.183594 C 20.414062 91.414062 20.515625 91.796875 20.253906 91.914062 C 20.019531 91.960938 19.785156 91.976562 19.546875 91.964844 C 17.566406 91.972656 15.585938 91.996094 13.605469 92.015625 C 13.136719 92.0625 12.667969 92.066406 12.199219 92.03125 C 12.089844 91.824219 12.027344 91.589844 12.027344 91.355469 C 12.027344 88.914062 12.003906 86.472656 12 84.035156 C 12.027344 83.382812 11.855469 82.855469 12.398438 82.375 C 13.089844 81.730469 13.757812 80.910156 14.476562 80.324219 Z M 14.472656 80.324219 "/>
<path style=" stroke:none;fill-rule:nonzero;fill:rgb(100%,100%,100%);fill-opacity:1;" d="M 15.066406 81.023438 C 15.078125 81.835938 15.078125 82.652344 15.058594 83.460938 C 14.957031 83.890625 14.441406 83.691406 14.140625 83.65625 C 13.648438 83.582031 13.152344 83.515625 12.664062 83.414062 C 12.335938 83.332031 12.410156 82.882812 12.625 82.714844 C 13.21875 82.117188 13.816406 81.519531 14.414062 80.925781 C 14.570312 80.757812 15.035156 80.722656 15.0625 81.023438 Z M 15.066406 81.023438 "/>
<path style=" stroke:none;fill-rule:nonzero;fill:rgb(66.666667%,79.607843%,92.54902%);fill-opacity:1;" d="M 18.296875 84.375 C 20.105469 84.316406 21.910156 84.3125 23.714844 84.292969 C 24.070312 84.335938 24.179688 84.507812 24.164062 84.847656 C 24.148438 88.324219 24.25 91.761719 24.257812 95.234375 C 24.238281 95.464844 24.339844 95.847656 24.078125 95.964844 C 23.84375 96.011719 23.609375 96.027344 23.371094 96.015625 C 21.390625 96.023438 19.410156 96.046875 17.425781 96.066406 C 16.960938 96.113281 16.492188 96.117188 16.023438 96.082031 C 15.910156 95.875 15.851562 95.640625 15.851562 95.40625 C 15.851562 92.964844 15.828125 90.523438 15.828125 88.085938 C 15.851562 87.433594 15.679688 86.90625 16.222656 86.425781 C 16.917969 85.78125 17.578125 84.960938 18.296875 84.375 Z M 18.296875 84.375 "/>
<path style=" stroke:none;fill-rule:nonzero;fill:rgb(100%,100%,100%);fill-opacity:1;" d="M 18.886719 85.074219 C 18.898438 85.886719 18.902344 86.703125 18.882812 87.511719 C 18.78125 87.941406 18.265625 87.742188 17.960938 87.707031 C 17.472656 87.632812 16.976562 87.566406 16.484375 87.464844 C 16.15625 87.382812 16.234375 86.933594 16.445312 86.765625 C 17.042969 86.167969 17.636719 85.570312 18.238281 84.976562 C 18.390625 84.804688 18.855469 84.773438 18.886719 85.074219 Z M 18.886719 85.074219 "/>
<path style=" stroke:none;fill-rule:nonzero;fill:rgb(54.117647%,61.960784%,89.803922%);fill-opacity:1;" d="M 16.21875 50.046875 L 1.90625 50.046875 L 1.90625 48.679688 C 1.90625 48.378906 2.152344 48.132812 2.453125 48.132812 L 15.667969 48.132812 C 15.816406 48.132812 15.953125 48.191406 16.058594 48.292969 C 16.160156 48.394531 16.21875 48.535156 16.21875 48.679688 Z M 16.21875 50.046875 "/>
<path style=" stroke:none;fill-rule:nonzero;fill:rgb(59.215686%,72.54902%,87.058824%);fill-opacity:1;" d="M 15.667969 65.34375 L 1.90625 65.34375 L 1.90625 50.042969 L 16.21875 50.042969 L 16.21875 64.796875 C 16.21875 64.941406 16.160156 65.082031 16.058594 65.183594 C 15.953125 65.289062 15.816406 65.34375 15.667969 65.34375 Z M 15.667969 65.34375 "/>
<path style=" stroke:none;fill-rule:nonzero;fill:rgb(54.117647%,61.960784%,89.803922%);fill-opacity:1;" d="M 14.308594 53.390625 L 0 53.390625 L 0 52.023438 C 0 51.722656 0.246094 51.476562 0.546875 51.476562 L 13.761719 51.476562 C 14.0625 51.476562 14.308594 51.722656 14.308594 52.023438 Z M 14.308594 53.390625 "/>
<path style=" stroke:none;fill-rule:nonzero;fill:rgb(69.803922%,79.607843%,91.372549%);fill-opacity:1;" d="M 13.761719 68.691406 L 0.546875 68.691406 C 0.246094 68.691406 0 68.445312 0 68.144531 L 0 53.390625 L 14.308594 53.390625 L 14.308594 68.144531 C 14.308594 68.289062 14.25 68.429688 14.148438 68.53125 C 14.046875 68.636719 13.90625 68.691406 13.761719 68.691406 Z M 13.761719 68.691406 "/>
<path style=" stroke:none;fill-rule:nonzero;fill:rgb(100%,100%,100%);fill-opacity:1;" d="M 4.09375 49.089844 C 4.09375 48.785156 3.851562 48.539062 3.546875 48.539062 C 3.246094 48.539062 3 48.785156 3 49.089844 C 3 49.390625 3.246094 49.636719 3.546875 49.636719 C 3.851562 49.636719 4.09375 49.390625 4.09375 49.089844 Z M 4.09375 49.089844 "/>
<path style=" stroke:none;fill-rule:nonzero;fill:rgb(59.215686%,72.54902%,87.058824%);fill-opacity:1;" d="M 6.011719 49.089844 C 6.011719 48.785156 5.765625 48.539062 5.464844 48.539062 C 5.164062 48.539062 4.917969 48.785156 4.917969 49.089844 C 4.917969 49.390625 5.164062 49.636719 5.464844 49.636719 C 5.765625 49.636719 6.011719 49.390625 6.011719 49.089844 Z M 6.011719 49.089844 "/>
<path style=" stroke:none;fill-rule:nonzero;fill:rgb(93.333333%,95.686275%,99.607843%);fill-opacity:1;" d="M 7.925781 49.089844 C 7.925781 48.785156 7.679688 48.539062 7.378906 48.539062 C 7.078125 48.539062 6.832031 48.785156 6.832031 49.089844 C 6.832031 49.390625 7.078125 49.636719 7.378906 49.636719 C 7.679688 49.636719 7.925781 49.390625 7.925781 49.089844 Z M 7.925781 49.089844 "/>
<path style=" stroke:none;fill-rule:nonzero;fill:rgb(100%,100%,100%);fill-opacity:1;" d="M 2.1875 52.4375 C 2.1875 52.132812 1.941406 51.886719 1.640625 51.886719 C 1.339844 51.886719 1.09375 52.132812 1.09375 52.4375 C 1.09375 52.738281 1.339844 52.984375 1.640625 52.984375 C 1.941406 52.984375 2.1875 52.738281 2.1875 52.4375 Z M 2.1875 52.4375 "/>
<path style=" stroke:none;fill-rule:nonzero;fill:rgb(69.803922%,79.607843%,91.372549%);fill-opacity:1;" d="M 4.101562 52.4375 C 4.101562 52.132812 3.855469 51.886719 3.554688 51.886719 C 3.253906 51.886719 3.007812 52.132812 3.007812 52.4375 C 3.007812 52.738281 3.253906 52.984375 3.554688 52.984375 C 3.855469 52.984375 4.101562 52.738281 4.101562 52.4375 Z M 4.101562 52.4375 "/>
<path style=" stroke:none;fill-rule:nonzero;fill:rgb(93.333333%,95.686275%,99.607843%);fill-opacity:1;" d="M 6.015625 52.4375 C 6.015625 52.132812 5.769531 51.886719 5.46875 51.886719 C 5.167969 51.886719 4.921875 52.132812 4.921875 52.4375 C 4.921875 52.738281 5.167969 52.984375 5.46875 52.984375 C 5.769531 52.984375 6.015625 52.738281 6.015625 52.4375 Z M 6.015625 52.4375 "/>
<path style=" stroke:none;fill-rule:nonzero;fill:rgb(59.215686%,72.54902%,87.058824%);fill-opacity:1;" d="M 1.6875 55.035156 L 12.625 55.035156 L 12.625 58.683594 L 1.6875 58.683594 Z M 1.6875 55.035156 "/>
<path style=" stroke:none;fill-rule:nonzero;fill:rgb(93.333333%,95.686275%,99.607843%);fill-opacity:1;" d="M 1.6875 60.328125 L 12.625 60.328125 L 12.625 61.152344 L 1.6875 61.152344 Z M 1.6875 60.328125 "/>
<path style=" stroke:none;fill-rule:nonzero;fill:rgb(93.333333%,95.686275%,99.607843%);fill-opacity:1;" d="M 1.6875 64.308594 L 12.625 64.308594 L 12.625 65.128906 L 1.6875 65.128906 Z M 1.6875 64.308594 "/>
<path style=" stroke:none;fill-rule:nonzero;fill:rgb(93.333333%,95.686275%,99.607843%);fill-opacity:1;" d="M 1.6875 62.246094 L 12.625 62.246094 L 12.625 63.070312 L 1.6875 63.070312 Z M 1.6875 62.246094 "/>
<path style=" stroke:none;fill-rule:nonzero;fill:rgb(93.333333%,95.686275%,99.607843%);fill-opacity:1;" d="M 1.6875 66.226562 L 12.625 66.226562 L 12.625 67.046875 L 1.6875 67.046875 Z M 1.6875 66.226562 "/>
</g>
</svg>
