<svg xmlns="http://www.w3.org/2000/svg" xmlns:xlink="http://www.w3.org/1999/xlink" width="233.831" height="214.998" viewBox="0 0 233.831 214.998">
  <defs>
    <clipPath id="clip-path">
      <path id="Trazado_320" data-name="Trazado 320" d="M1867.857,883.741s2.522,4.908,3.547.079c0,0,18.283-4.022,22.193,13.365,4.14,18.406,4.12,33.267-3.577,39.627s-38.288.91-38.288.91-4.291.035-4.858-6.435c0,0-6.01.372-7.6-2.517-2.462-4.469-5.261-39.546,16.127-44.84,0,0,10.583-1.8,12.456-.189Z" transform="translate(-1837.607 -883.07)" fill="none" clip-rule="evenodd"/>
    </clipPath>
    <clipPath id="clip-path-2">
      <path id="Trazado_343" data-name="Trazado 343" d="M2060.073,1447.452s-4.709,4.942-2.161,8.419,6.163,8.729,6.592,12.9c.729,7.082,10.9,12.326,12.017,3.17.84-6.882-4.6-12.445-3.532-18.177.947-5.1-13.906-2.3-12.916-6.307Z" transform="translate(-2057.156 -1447.452)" fill="none" clip-rule="evenodd"/>
    </clipPath>
    <clipPath id="clip-path-3">
      <path id="Trazado_346" data-name="Trazado 346" d="M1993.182,1128.628s32.406,9.451,28.821,27.239-12.28,45.276-12.579,46.232-16.507-2.861-16.733-13.25l6.467-31.437-24.08-13.119s4.173-19,18.1-15.665Z" transform="translate(-1975.077 -1128.235)" fill="none" clip-rule="evenodd"/>
    </clipPath>
    <clipPath id="clip-path-4">
      <path id="Trazado_351" data-name="Trazado 351" d="M2203.964,1190.079c-1.062.208,2.8,6.413-4.005,8.252,0,0,1.128,2.89,3.245,3.294,0,0,2.873-.462,3.807-.055s14.963,10.283,19.421-2.479c.547-1.565-.138-7.138-10.97-6.677,0,0-4.731-.228-6.935-1.508-2.478-1.44-3.965-1-4.562-.827Z" transform="translate(-2199.959 -1189.876)" fill="none" clip-rule="evenodd"/>
    </clipPath>
    <clipPath id="clip-path-5">
      <path id="Trazado_359" data-name="Trazado 359" d="M1951.376,1100.3s-45.793-26.326-54.166-14.786-4.425,34.7,24.273,27.435l19.886,1.756s6.418-.1,10.007-14.406Z" transform="translate(-1893.336 -1082.587)" fill="none" clip-rule="evenodd"/>
    </clipPath>
  </defs>
  <g id="Grupo_117" data-name="Grupo 117" transform="translate(0 0)">
    <g id="Grupo_81" data-name="Grupo 81" transform="translate(80.845 142.008)">
      <path id="Trazado_283" data-name="Trazado 283" d="M1958.191,1463.169a1.711,1.711,0,0,0-1.71-1.709h-31.633a1.71,1.71,0,0,0-1.71,1.709v1.1a1.71,1.71,0,0,0,1.71,1.71h31.633a1.711,1.711,0,0,0,1.71-1.71v-1.1Z" transform="translate(-1918.658 -1415.082)" fill="#f9c153" fill-rule="evenodd"/>
      <path id="Trazado_284" data-name="Trazado 284" d="M1923.652,1464.867a1.4,1.4,0,0,0-.514,1.038V1467c0,.944,1.12,1.71,2.5,1.71h30.051c1.38,0,2.5-.766,2.5-1.71v-.365a3.018,3.018,0,0,1-1.987.671h-30.051c-1.381,0-2.5-.766-2.5-1.71v-.729Z" transform="translate(-1918.658 -1417.819)" fill="#ad8432" fill-rule="evenodd"/>
      <path id="Trazado_285" data-name="Trazado 285" d="M1915.572,1240.431a2.7,2.7,0,0,0-2.336-3.136,2.924,2.924,0,0,0-3.237,2.415l-9.364,57.676a2.7,2.7,0,0,0,2.336,3.136,2.924,2.924,0,0,0,3.237-2.415l9.363-57.676Z" transform="translate(-1900.559 -1235.065)" fill="#f9c153" fill-rule="evenodd"/>
      <path id="Trazado_286" data-name="Trazado 286" d="M1912.345,1237.343a2.694,2.694,0,0,0-2.462,2.136l-9.457,58.253a2.576,2.576,0,0,0,2.383,2.848,2.886,2.886,0,0,0,3.01-1.534,3.15,3.15,0,0,1-.729-.01,2.575,2.575,0,0,1-2.382-2.847l9.457-58.253a2.276,2.276,0,0,1,.18-.593Z" transform="translate(-1900.397 -1235.123)" fill="#b2832d" fill-rule="evenodd"/>
      <path id="Trazado_287" data-name="Trazado 287" d="M2044.909,1240.431a2.705,2.705,0,0,1,2.336-3.136,2.925,2.925,0,0,1,3.238,2.415l9.364,57.676a2.705,2.705,0,0,1-2.336,3.136,2.925,2.925,0,0,1-3.238-2.415l-9.364-57.676Z" transform="translate(-2016.407 -1235.065)" fill="#ad8432" fill-rule="evenodd"/>
      <path id="Trazado_288" data-name="Trazado 288" d="M2060.614,1237.343a2.693,2.693,0,0,1,2.461,2.136l9.457,58.253a2.575,2.575,0,0,1-2.382,2.848,2.883,2.883,0,0,1-3.009-1.534,3.138,3.138,0,0,0,.728-.01,2.575,2.575,0,0,0,2.383-2.847l-9.457-58.253a2.315,2.315,0,0,0-.181-.593Z" transform="translate(-2029.047 -1235.123)" fill="#f9c153" fill-rule="evenodd"/>
      <path id="Trazado_289" data-name="Trazado 289" d="M1949.46,1228.529a2.457,2.457,0,0,0-2.456-2.456h-33.657a2.457,2.457,0,0,0-2.456,2.456v1.573a2.457,2.457,0,0,0,2.456,2.456H1947a2.458,2.458,0,0,0,2.456-2.456v-1.573Z" transform="translate(-1908.823 -1226.073)" fill="#f9c153" fill-rule="evenodd"/>
      <path id="Trazado_290" data-name="Trazado 290" d="M1911.456,1230.969a2.278,2.278,0,0,0-.566,1.491v1.573a2.618,2.618,0,0,0,2.752,2.456h33.066a2.618,2.618,0,0,0,2.752-2.456v-.525a2.876,2.876,0,0,1-2.186.964h-33.066a2.618,2.618,0,0,1-2.752-2.456v-1.047Z" transform="translate(-1908.823 -1230.005)" fill="#ad8432" fill-rule="evenodd"/>
    </g>
    <g id="Grupo_82" data-name="Grupo 82" transform="translate(208.639 118.71)">
      <path id="Trazado_291" data-name="Trazado 291" d="M2273.32,1048.855a.482.482,0,0,0-.472-.492l-22.773-.463a.481.481,0,0,0-.491.472l-.253,13.326a.483.483,0,0,0,.472.492l22.772.463a.482.482,0,0,0,.491-.472l.252-13.327Z" transform="translate(-2249.332 -1047.901)" fill="#fff" stroke="#8a9ee5" stroke-linecap="round" stroke-linejoin="round" stroke-width="2.405" fill-rule="evenodd"/>
      <path id="Trazado_292" data-name="Trazado 292" d="M2263.783,1057.121l11.766-8.329-23.209-.472,11.443,8.8Z" transform="translate(-2251.747 -1048.237)" fill="none" stroke="#8a9ee5" stroke-linecap="round" stroke-linejoin="round" stroke-width="2.405"/>
    </g>
    <g id="Grupo_83" data-name="Grupo 83" transform="translate(177.387 79.683)">
      <path id="Trazado_293" data-name="Trazado 293" d="M2167.906,925.2V912.286a2.544,2.544,0,0,1,2.543-2.543H2205.4a2.544,2.544,0,0,1,2.543,2.543v15.4a2.544,2.544,0,0,1-2.543,2.543h-32.647l-3.551,5.8s-.513,1.167-.668,1.151-.269-1.246-.269-1.246l-.354-10.73Z" transform="translate(-2167.906 -909.743)" fill="#b2cbe9" fill-rule="evenodd"/>
      <path id="Trazado_294" data-name="Trazado 294" d="M2226.08,951.918a1.713,1.713,0,1,1-1.712,1.713,1.714,1.714,0,0,1,1.712-1.713Z" transform="translate(-2213.243 -943.609)" fill="#fff" fill-rule="evenodd"/>
      <path id="Trazado_295" data-name="Trazado 295" d="M2260.423,951.918a1.713,1.713,0,1,1-1.713,1.713,1.713,1.713,0,0,1,1.713-1.713Z" transform="translate(-2240.819 -943.609)" fill="#fff" fill-rule="evenodd"/>
      <path id="Trazado_296" data-name="Trazado 296" d="M2294.975,951.918a1.713,1.713,0,1,1-1.713,1.713,1.714,1.714,0,0,1,1.713-1.713Z" transform="translate(-2268.563 -943.609)" fill="#fff" fill-rule="evenodd"/>
    </g>
    <g id="Grupo_84" data-name="Grupo 84" transform="translate(34.455 20.515)">
      <path id="Trazado_297" data-name="Trazado 297" d="M1932.2,629.552l-2.022,9.372,19.72,2.907-17.7-12.279Z" transform="translate(-1904.532 -625.589)" fill="#8a9ee5" fill-rule="evenodd"/>
      <path id="Trazado_298" data-name="Trazado 298" d="M1829.75,652.966c2.464.674-3.271-1.466-3.511-1.529-3.4-.894-6.268-1.494-9.487-1.128-6.445.734-11.929,3.262-14.9,8.882a20.449,20.449,0,0,0-1.806,7.518c-.273,6.463,2.792,13.674,8.94,18.8,2.884,2.4,7.841,4.98,11.632,3.536,5.442-2.072,3.148-9.249-3.679-8.881a8.866,8.866,0,0,0-5.89,2.884c-5.416,5.862-2.057,13.345,3.464,19.628,1.476,1.679,3.1,3.291,4.772,4.857,2.116,1.979,4.4,3.841,6.667,5.711" transform="translate(-1800.034 -642.169)" fill="none" stroke="#8a9ee5" stroke-linecap="round" stroke-linejoin="round" stroke-width="1.665"/>
      <path id="Trazado_299" data-name="Trazado 299" d="M1909.916,609.439l18.938,17.022-28.006-7.161,4.56-4.874s12.46,6.207,12.832,6.238-11.94-7.24-11.94-7.24l3.616-3.985Z" transform="translate(-1880.985 -609.439)" fill="#fff" fill-rule="evenodd"/>
    </g>
    <g id="Grupo_85" data-name="Grupo 85" transform="translate(106.675 0)">
      <path id="Trazado_300" data-name="Trazado 300" d="M2091.124,680.868a2.591,2.591,0,0,0-1.166-3.471l-1.667-.829a2.591,2.591,0,0,0-3.472,1.166l-.539,1.085a2.591,2.591,0,0,0,1.165,3.472l1.669.829a2.59,2.59,0,0,0,3.471-1.166l.539-1.085Z" transform="translate(-2083.802 -642.609)" fill="#8a9ee5" fill-rule="evenodd"/>
      <path id="Trazado_301" data-name="Trazado 301" d="M2095.047,537.2s3.278,2.191,4.426.085c2.932-5.381,11.515-2.195,16.957-11.878,3.788-6.741.61-15.217-6.259-18.632a13.905,13.905,0,0,0-18.632,6.259c-4.913,9.884,2.913,13.678.862,20.648-.591,2.009,2.647,3.518,2.647,3.518Z" transform="translate(-2088.523 -505.318)" fill="#ecf6ff" fill-rule="evenodd"/>
      <path id="Trazado_302" data-name="Trazado 302" d="M2113.658,602.992c0-.042.007-.081.01-.118a33.936,33.936,0,0,1,.546-3.467,30.531,30.531,0,0,1,1.075-4.7,7.621,7.621,0,0,1,2.627-3.846,1.251,1.251,0,0,1,1.639.131l-.047.038a3.475,3.475,0,0,0-1.134,1.792,2.056,2.056,0,0,0,.077,1.138.827.827,0,0,0,.662.533.727.727,0,0,0,.716-.368,3.223,3.223,0,0,0,.366-.947,3.138,3.138,0,0,0,.014-1.955c-.015-.036-.031-.072-.047-.106a1.255,1.255,0,0,1,.669-.146c.242.02.282.229.271.467a3.389,3.389,0,0,1-.222.948c-.1.117-.188.239-.274.365a5.811,5.811,0,0,0-.344.533.943.943,0,0,0-.125.48.24.24,0,0,0,.1.193.225.225,0,0,0,.2.034.334.334,0,0,0,.146-.092,2.183,2.183,0,0,0,.258-.375c.08-.146.152-.3.222-.447.047-.1.121-.268.2-.467a1.57,1.57,0,0,1,2.115-.542.4.4,0,0,1,.172.308,1.433,1.433,0,0,1-.041.487,9.307,9.307,0,0,1-1.469,3.081,42.024,42.024,0,0,1-3.151,3.963c-.741.883-1.351,1.872-2.06,2.78a21.47,21.47,0,0,0-2.486,3.558.217.217,0,0,0,.389.193,21.074,21.074,0,0,1,2.439-3.484c.706-.9,1.313-1.888,2.052-2.768a42.653,42.653,0,0,0,3.182-4.005,9.736,9.736,0,0,0,1.529-3.224,1.913,1.913,0,0,0,.048-.636.82.82,0,0,0-.372-.622,1.78,1.78,0,0,0-2.111.106,2.431,2.431,0,0,0,.043-.35.982.982,0,0,0-.192-.7.682.682,0,0,0-.478-.224,1.711,1.711,0,0,0-.941.214,1.68,1.68,0,0,0-2.26-.244,8.046,8.046,0,0,0-2.783,4.056,30.97,30.97,0,0,0-1.094,4.764,34.611,34.611,0,0,0-.551,3.511,2.388,2.388,0,0,0,.062,1.044.274.274,0,0,0,.157.152.243.243,0,0,0,.248-.049.673.673,0,0,0,.154-.253,2.267,2.267,0,0,0,.133-.582.218.218,0,0,0-.238-.194.222.222,0,0,0-.093.032Zm6.136-11.631-.011.009a3.019,3.019,0,0,0-.985,1.547,1.729,1.729,0,0,0,.007.742c.051.2.152.376.368.407.131.018.221-.073.3-.183a3.784,3.784,0,0,0,.335-2.5l-.011-.027Z" transform="translate(-2107.248 -573.463)" fill="#b2cbe9" fill-rule="evenodd"/>
      <path id="Trazado_303" data-name="Trazado 303" d="M2094.02,650.806a.534.534,0,0,0-.24-.715l-6.346-3.155a.534.534,0,0,0-.716.241l-3.7,7.452a.534.534,0,0,0,.24.715l6.347,3.154a.533.533,0,0,0,.715-.24l3.7-7.452Z" transform="translate(-2082.958 -618.989)" fill="#b4cbe8" fill-rule="evenodd"/>
      <path id="Trazado_304" data-name="Trazado 304" d="M2108.169,652.347a.039.039,0,0,0-.018-.052l-7.231-3.594a.04.04,0,0,0-.053.018l-.232.467a.039.039,0,0,0,.017.053l7.232,3.594a.039.039,0,0,0,.052-.018l.232-.468Z" transform="translate(-2097.149 -620.447)" fill="#8a9ee5" fill-rule="evenodd"/>
      <path id="Trazado_305" data-name="Trazado 305" d="M2104.739,659.058a.041.041,0,0,0-.018-.053l-7.231-3.594a.04.04,0,0,0-.053.017l-.232.468a.039.039,0,0,0,.018.053l7.232,3.595a.039.039,0,0,0,.052-.018l.233-.467Z" transform="translate(-2094.394 -625.836)" fill="#8a9ee5" fill-rule="evenodd"/>
      <path id="Trazado_306" data-name="Trazado 306" d="M2101.868,664.857a.038.038,0,0,0-.018-.053l-7.231-3.594a.039.039,0,0,0-.052.018l-.233.467a.039.039,0,0,0,.018.053l7.232,3.594a.039.039,0,0,0,.052-.017l.232-.468Z" transform="translate(-2092.089 -630.492)" fill="#8a9ee5" fill-rule="evenodd"/>
      <path id="Trazado_307" data-name="Trazado 307" d="M2098.944,670.78a.039.039,0,0,0-.018-.053l-7.231-3.595a.039.039,0,0,0-.052.018l-.233.467a.039.039,0,0,0,.018.052l7.232,3.595a.04.04,0,0,0,.053-.018l.232-.467Z" transform="translate(-2089.741 -635.247)" fill="#8a9ee5" fill-rule="evenodd"/>
      <path id="Trazado_308" data-name="Trazado 308" d="M2096.608,675.818a.039.039,0,0,0-.018-.053l-7.232-3.595a.04.04,0,0,0-.053.018l-.232.468a.038.038,0,0,0,.018.053l7.231,3.595a.04.04,0,0,0,.052-.018l.233-.468Z" transform="translate(-2087.865 -639.293)" fill="#8a9ee5" fill-rule="evenodd"/>
      <path id="Trazado_309" data-name="Trazado 309" d="M2093.707,681.574a.04.04,0,0,0-.018-.053l-7.231-3.594a.039.039,0,0,0-.052.018l-.233.467a.039.039,0,0,0,.018.052l7.231,3.595a.039.039,0,0,0,.053-.018l.233-.467Z" transform="translate(-2085.535 -643.915)" fill="#8a9ee5" fill-rule="evenodd"/>
      <path id="Trazado_310" data-name="Trazado 310" d="M2091.151,686.862a.04.04,0,0,0-.018-.053l-7.232-3.594a.038.038,0,0,0-.052.017l-.232.467a.039.039,0,0,0,.018.053l7.231,3.594a.039.039,0,0,0,.052-.018l.233-.467Z" transform="translate(-2083.483 -648.161)" fill="#8a9ee5" fill-rule="evenodd"/>
    </g>
    <g id="Grupo_96" data-name="Grupo 96" transform="translate(68.474 47.495)">
      <path id="Trazado_311" data-name="Trazado 311" d="M1989.5,845.535c.464.266.035,7.4-.3,13.185a9.591,9.591,0,0,0,1.564,3.3c.53.693,1.282,1.034,1.331.652a7.981,7.981,0,0,0,1.475-3.111s-.622-1.741-.5-9.663-3.571-4.361-3.571-4.361Z" transform="translate(-1959.333 -825.358)" fill="#feb39d" fill-rule="evenodd"/>
      <path id="Trazado_312" data-name="Trazado 312" d="M1990.167,861.091a3.808,3.808,0,0,1-.329-1.055c.333-5.785.763-12.919.3-13.185,0,0,1.572-1.516,2.631-.369-.865-3.263-3.268-.945-3.268-.945.464.266.035,7.4-.3,13.185a8.188,8.188,0,0,0,.967,2.37Z" transform="translate(-1959.333 -825.358)" fill="#de826c" fill-rule="evenodd"/>
      <path id="Trazado_313" data-name="Trazado 313" d="M1977.186,789.115a7.835,7.835,0,0,1-3.488,5.471s-3.926,2.2-9.109-6.025c-.974.248-5.555-1.241-4.362-4.406.956-2.538,3.367-1.145,3.661.092l-1.031-6.694,7.178-4.623,4.822.3,2.38,2.962c.538-.935.455,10.461-.052,12.922Z" transform="translate(-1935.909 -767.698)" fill="#feb39d" fill-rule="evenodd"/>
      <path id="Trazado_314" data-name="Trazado 314" d="M1979.952,782.787c.082.24,2.277-1.688,2.156-4.7-.114-2.864,1.354-3.828,7.208-2.6s3.573-2.968,3.573-2.968-7.7-1.5-8.079-1.817-4.808,3.639-4.808,3.639l-.162,6.616.112,1.83Z" transform="translate(-1951.817 -765.895)" fill="#de826c" fill-rule="evenodd"/>
      <path id="Trazado_315" data-name="Trazado 315" d="M1961.093,799.187c-1.072,3.1,3.431,4.56,4.395,4.315,5.183,8.224,9.11,6.026,9.11,6.026a5.77,5.77,0,0,0,1.392-1.147,6.244,6.244,0,0,1-2.292,2.428s-3.926,2.2-9.109-6.025c-.974.248-5.555-1.241-4.362-4.406a2.31,2.31,0,0,1,.867-1.19Zm2.762-6.055.932,6.055a2.21,2.21,0,0,0-1.309-1.373l-.622-4.039,1-.643Z" transform="translate(-1935.909 -783.92)" fill="#de826c" fill-rule="evenodd"/>
      <path id="Trazado_316" data-name="Trazado 316" d="M1960.311,763.488s1.577-.821,1.384-3.857.923-6.244,3.625-5.342,11.393,4.56,13.6-1.656-2.44-6.842-4.989-5.91a12.365,12.365,0,0,1-7.069.447c-2.761-.438-7.552.351-8.073,3.787,0,0-6.41,2.809-1.135,10.565a2.65,2.65,0,0,1,2.657,1.965Z" transform="translate(-1932.33 -746.376)" fill="#3c1522" fill-rule="evenodd"/>
      <path id="Trazado_317" data-name="Trazado 317" d="M1867.857,883.741s2.522,4.908,3.547.079c0,0,18.283-4.022,22.193,13.365,4.14,18.406,4.12,33.267-3.577,39.627s-38.288.91-38.288.91-4.291.035-4.858-6.435c0,0-6.01.372-7.6-2.517-2.462-4.469-5.261-39.546,16.127-44.84,0,0,10.583-1.8,12.456-.189Z" transform="translate(-1837.607 -856.138)" fill="#0e39a2" fill-rule="evenodd"/>
      <g id="Grupo_87" data-name="Grupo 87" transform="translate(0 26.932)">
        <g id="Grupo_86" data-name="Grupo 86" clip-path="url(#clip-path)">
          <path id="Trazado_318" data-name="Trazado 318" d="M2069.154,1019.571a13.041,13.041,0,0,1-1.962,2.216s5.916,11.282,10.7,9.373a6.118,6.118,0,0,0,3.54-3.551c3.083-3.1,1.743-8.182-.75-10.655-2.711-2.688-9.618-5.873-9.618-5.873a26.942,26.942,0,0,1-1.912,8.491Z" transform="translate(-2021.958 -985.859)" fill="#153289" fill-rule="evenodd"/>
          <path id="Trazado_319" data-name="Trazado 319" d="M1976.48,865.407s4.244,11.065,6.907,3.651,1.4-5.449,1.4-5.449l-9.072.84.768.958Z" transform="translate(-1948.502 -867.254)" fill="#153289" fill-rule="evenodd"/>
        </g>
      </g>
      <path id="Trazado_321" data-name="Trazado 321" d="M1916.325,970.752c.788,1.877-2.006,15.1-1.62,20.842.578.85-1.705-8.379,1.62-20.842Z" transform="translate(-1899.327 -926.544)" fill="#153289" fill-rule="evenodd"/>
      <path id="Trazado_322" data-name="Trazado 322" d="M1870.6,1057.125c-3.56-.228-4.765-7.466-1.837-10.307l7.769-6.042s2.582,8.422,7.528,8.124c0,0-1.035.889-2.556,2.083,1.254,2.262,3.261,4.746,5.987,4.582,0,0-8.853,7.612-12.866,8.2-2.812.412-4.392-3.332-4.025-6.64Z" transform="translate(-1861.304 -982.772)" fill="#153289" fill-rule="evenodd"/>
      <path id="Trazado_323" data-name="Trazado 323" d="M1965.454,956.979a1.12,1.12,0,0,0-1.169-1.037l-17.877.9a1.072,1.072,0,0,0-1.018,1.148l1.792,25.816a1.121,1.121,0,0,0,1.169,1.037l17.877-.9a1.071,1.071,0,0,0,1.017-1.148l-1.791-25.816Z" transform="translate(-1924.152 -914.651)" fill="#8e8e8e" fill-rule="evenodd"/>
      <path id="Trazado_324" data-name="Trazado 324" d="M1992.02,1006.669a2.706,2.706,0,0,1,2.946,2.248,2.43,2.43,0,0,1-2.133,2.83,2.707,2.707,0,0,1-2.946-2.247,2.43,2.43,0,0,1,2.133-2.83Z" transform="translate(-1959.858 -955.371)" fill="#fff" fill-rule="evenodd"/>
      <path id="Trazado_325" data-name="Trazado 325" d="M1949.633,966.077a.877.877,0,0,1,.793.917.82.82,0,0,1-.8.87.876.876,0,0,1-.793-.917.82.82,0,0,1,.8-.87Z" transform="translate(-1926.922 -922.79)" fill="#141414" fill-rule="evenodd"/>
      <path id="Trazado_326" data-name="Trazado 326" d="M1952.788,976.426a.33.33,0,0,1,.3.343.307.307,0,0,1-.3.326.328.328,0,0,1-.3-.343.308.308,0,0,1,.3-.326Z" transform="translate(-1929.855 -931.1)" fill="#141414" fill-rule="evenodd"/>
      <path id="Trazado_327" data-name="Trazado 327" d="M1914.819,1027.251s-.757-5.841,6.517-7.409c6.128-1.322,6.909,2.661,5.361,3.649-2.13,1.358-2.315,1.066-4.8,2.431-1.3.712-1.523,1.619-2.24,2.716-.836,1.28-3.29,1.961-3.29,1.961l-1.55-3.347Z" transform="translate(-1899.588 -965.748)" fill="#fdb49d" fill-rule="evenodd"/>
      <path id="Trazado_328" data-name="Trazado 328" d="M1931.469,1024.245a1.892,1.892,0,0,1,.092,2.994c-2.129,1.358-2.315,1.067-4.8,2.431-1.3.712-1.523,1.619-2.24,2.716-.835,1.28-3.289,1.961-3.289,1.961l-.379-.818a6.413,6.413,0,0,0,3.093-1.9c.716-1.1.942-2,2.239-2.716,2.484-1.365,2.669-1.073,4.8-2.431a1.744,1.744,0,0,0,.483-2.237Z" transform="translate(-1904.453 -969.498)" fill="#de826c" fill-rule="evenodd"/>
      <path id="Trazado_329" data-name="Trazado 329" d="M1866.018,1050.82l7.77-6.042s2.582,8.421,7.528,8.123c0,0-8.852,7.612-12.866,8.2s-5.517-7.288-2.432-10.282Z" transform="translate(-1859.099 -985.985)" fill="#0e39a2" fill-rule="evenodd"/>
      <path id="Trazado_330" data-name="Trazado 330" d="M2071.766,956.173c-.967,1.8.624,15.219-.3,20.9-.662.793,2.493-8.188.3-20.9Z" transform="translate(-2025.318 -914.838)" fill="#153289" fill-rule="evenodd"/>
      <path id="Trazado_331" data-name="Trazado 331" d="M2066.939,1022.17s.1-8.2,3.886-10.288c0,0,2.38,1.159.85,5.086a9.388,9.388,0,0,1-4.736,5.2Z" transform="translate(-2021.755 -959.57)" fill="#153289" fill-rule="evenodd"/>
      <path id="Trazado_332" data-name="Trazado 332" d="M2039.2,1012.042s-1.34-4.808-7.845-3.709c-5.48.925-4.783,4.289-3.18,4.566,2.207.38,2.261.093,4.761.366,1.3.142,1.8.779,2.753,1.407a6.411,6.411,0,0,0,3.362.481l.149-3.112Z" transform="translate(-1989.702 -956.589)" fill="#fdb49d" fill-rule="evenodd"/>
      <path id="Trazado_333" data-name="Trazado 333" d="M2027.4,1018.841a1.617,1.617,0,0,0,.777,2.627c2.207.38,2.261.093,4.761.366,1.3.142,1.8.779,2.753,1.408a6.414,6.414,0,0,0,3.362.481l.035-.732a5.752,5.752,0,0,1-3.063-.505c-.957-.628-1.448-1.266-2.753-1.408-2.5-.272-2.554.015-4.761-.367a1.512,1.512,0,0,1-1.111-1.87Z" transform="translate(-1989.702 -965.158)" fill="#de826c" fill-rule="evenodd"/>
      <path id="Trazado_334" data-name="Trazado 334" d="M2070.821,1011.9s-.782,6.614-3.9,10.375c0,0,7.616,10.211,12.043,7.574s3.512-8.492,1.01-11.375-9.153-6.574-9.153-6.574Z" transform="translate(-2021.741 -959.582)" fill="#0e39a2" fill-rule="evenodd"/>
      <path id="Trazado_335" data-name="Trazado 335" d="M2060.073,1447.452s-4.709,4.942-2.161,8.419,6.163,8.729,6.592,12.9c.729,7.082,10.9,12.326,12.017,3.17.84-6.882-4.6-12.445-3.532-18.177.947-5.1-13.906-2.3-12.916-6.307Z" transform="translate(-2013.899 -1309.322)" fill="#0d38a3" fill-rule="evenodd"/>
      <g id="Grupo_89" data-name="Grupo 89" transform="translate(43.257 138.13)">
        <g id="Grupo_88" data-name="Grupo 88" clip-path="url(#clip-path-2)">
          <path id="Trazado_336" data-name="Trazado 336" d="M2044.33,1459.81s2.094,5.839,4.861,9.01c2.709,3.105,4.644,11.412,5.677,12.98s5.706,5.249,8.994,2.571-3.282,6.539-3.282,6.539-3.471.265-4.586.415-7.28-5.383-8.715-7.063-4.388-10.854-4.388-10.854-.627-6.473-1.291-7.114,2.73-6.484,2.73-6.484Z" transform="translate(-2044.596 -1457.375)" fill="#b2cce7" fill-rule="evenodd"/>
          <path id="Trazado_337" data-name="Trazado 337" d="M2093.915,1513.827a64.937,64.937,0,0,1,3.379,8.1c.813,2.951,4.516,7.212,9.255,5.011a.237.237,0,1,0-.2-.43c-4.414,2.05-7.841-1.958-8.6-4.707a65.763,65.763,0,0,0-3.411-8.179.237.237,0,1,0-.424.21Z" transform="translate(-2086.652 -1500.475)" fill-rule="evenodd"/>
          <path id="Trazado_338" data-name="Trazado 338" d="M2081.088,1465.972a17.782,17.782,0,0,0,4.456,5.938,8.054,8.054,0,0,0,7.7,1.707.328.328,0,0,0-.189-.628,7.426,7.426,0,0,1-7.093-1.588,17.033,17.033,0,0,1-4.269-5.69.328.328,0,1,0-.6.261Z" transform="translate(-2076.351 -1461.954)" fill="#b2cce7" fill-rule="evenodd"/>
          <path id="Trazado_339" data-name="Trazado 339" d="M2130.438,1515.662a.444.444,0,0,0-.077-.885l-3.041.265a.444.444,0,0,0,.077.886l3.041-.265Z" transform="translate(-2113.171 -1501.51)" fill="#ecf5fe" fill-rule="evenodd"/>
          <path id="Trazado_340" data-name="Trazado 340" d="M2133.467,1526.594a.444.444,0,0,0-.077-.886l-3.041.265a.444.444,0,0,0,.077.885l3.041-.265Z" transform="translate(-2115.602 -1510.289)" fill="#ecf5fe" fill-rule="evenodd"/>
          <path id="Trazado_341" data-name="Trazado 341" d="M2136.841,1537.735a.444.444,0,1,0-.076-.886l-3.041.264a.445.445,0,0,0,.077.886l3.041-.264Z" transform="translate(-2118.313 -1519.234)" fill="#ecf5fe" fill-rule="evenodd"/>
          <path id="Trazado_342" data-name="Trazado 342" d="M2140.934,1550.441a.444.444,0,0,0-.077-.885l-3.041.265a.444.444,0,1,0,.077.885l3.04-.265Z" transform="translate(-2121.599 -1529.436)" fill="#ecf5fe" fill-rule="evenodd"/>
        </g>
      </g>
      <path id="Trazado_344" data-name="Trazado 344" d="M1993.182,1128.628s32.406,9.451,28.821,27.239-12.28,45.276-12.579,46.232-16.507-2.861-16.733-13.25l6.467-31.437-24.08-13.119s4.173-19,18.1-15.665Z" transform="translate(-1947.992 -1052.999)" fill="#141414" fill-rule="evenodd"/>
      <g id="Grupo_91" data-name="Grupo 91" transform="translate(27.085 75.236)">
        <g id="Grupo_90" data-name="Grupo 90" clip-path="url(#clip-path-3)">
          <path id="Trazado_345" data-name="Trazado 345" d="M2078.845,1429.735a53.011,53.011,0,0,1-7.689-2.995c-.865-.416-1.753-.875-2.64-1.377-3.346-1.894-6.674-4.4-8.41-7.526a.983.983,0,0,0-1.188-.4.7.7,0,0,0-.4,1.014c1.883,3.392,5.455,6.137,9.084,8.19a55.022,55.022,0,0,0,10.773,4.556.874.874,0,0,0,1.091-.491.8.8,0,0,0-.618-.973Z" transform="translate(-2042.002 -1360.406)" fill="#8e8e8e" stroke="#383838" stroke-linejoin="round" stroke-width="0.4" fill-rule="evenodd"/>
        </g>
      </g>
      <path id="Trazado_347" data-name="Trazado 347" d="M2156.266,1182.129a46.1,46.1,0,0,0,8.7,1.812c3.518.2,4.438,2.481,4.764,4.784s-4.889,5.178-7.181,3.685c0,0-6.58-3.125-9.256-2.64s2.973-7.642,2.973-7.642Z" transform="translate(-2090.518 -1096.275)" fill="#b2cce7" fill-rule="evenodd"/>
      <path id="Trazado_348" data-name="Trazado 348" d="M2203.964,1190.079c-1.062.208,2.8,6.413-4.005,8.252,0,0,1.128,2.89,3.245,3.294,0,0,2.873-.462,3.807-.055s14.963,10.283,19.421-2.479c.547-1.565-.138-7.138-10.97-6.677,0,0-4.731-.228-6.935-1.508-2.478-1.44-3.965-1-4.562-.827Z" transform="translate(-2128.567 -1102.495)" fill="#0d38a3" fill-rule="evenodd"/>
      <g id="Grupo_93" data-name="Grupo 93" transform="translate(71.393 87.381)">
        <g id="Grupo_92" data-name="Grupo 92" clip-path="url(#clip-path-4)">
          <path id="Trazado_349" data-name="Trazado 349" d="M2205.572,1216.606s4.778-2.5,8.381-.035c3.375,2.309,13.218,6.146,16.058-3.958a4.993,4.993,0,0,0,.179-2.633c-.638-3.025,4.031-.688,4.031-.688s1.787,9.509,1.3,9.646-4.591,5.25-6.015,5.568a104.117,104.117,0,0,1-12.473.392c-1.242-.187-7.149-4.385-7.46-5.08s-4.006-3.213-4.006-3.213Z" transform="translate(-2204.466 -1204.775)" fill="#ecf5fe" fill-rule="evenodd"/>
          <path id="Trazado_350" data-name="Trazado 350" d="M2244.58,1218.209s5.157,2.7,7.667,2.982a7.115,7.115,0,0,0,5.109-1.431c1.716-1.315,3.242-3.684,3.831-7.762a.248.248,0,0,0-.215-.281.252.252,0,0,0-.285.212c-.564,3.9-2,6.18-3.641,7.438a6.6,6.6,0,0,1-4.74,1.329c-2.453-.28-7.487-2.927-7.487-2.927a.255.255,0,0,0-.342.1.247.247,0,0,0,.1.337Z" transform="translate(-2235.681 -1207.412)" fill-rule="evenodd"/>
        </g>
      </g>
      <path id="Trazado_352" data-name="Trazado 352" d="M2204.1,1199.843a4.917,4.917,0,0,0,3.552-2.087c.873-1.284,1.395-3.376.643-6.783a.253.253,0,0,0-.495.107c.709,3.213.255,5.189-.568,6.4a4.4,4.4,0,0,1-3.157,1.866.249.249,0,1,0,.025.5Z" transform="translate(-2131.677 -1103.218)" fill="#ecf5fe" fill-rule="evenodd"/>
      <path id="Trazado_353" data-name="Trazado 353" d="M2246.733,1204.576a.47.47,0,0,0-.376-.552.477.477,0,0,0-.554.379l-.6,3.142a.469.469,0,0,0,.375.551.478.478,0,0,0,.556-.378l.6-3.142Z" transform="translate(-2164.886 -1113.849)" fill="#ecf5fe" fill-rule="evenodd"/>
      <path id="Trazado_354" data-name="Trazado 354" d="M2262.515,1207.119a.471.471,0,0,0-.376-.551.478.478,0,0,0-.555.379l-.6,3.141a.47.47,0,0,0,.376.551.478.478,0,0,0,.556-.379l.6-3.141Z" transform="translate(-2177.558 -1115.892)" fill="#ecf5fe" fill-rule="evenodd"/>
      <path id="Trazado_355" data-name="Trazado 355" d="M2277.819,1210.021a.471.471,0,0,0-.377-.552.478.478,0,0,0-.554.379l-.6,3.141a.47.47,0,0,0,.377.552.477.477,0,0,0,.554-.379l.6-3.141Z" transform="translate(-2189.847 -1118.222)" fill="#ecf5fe" fill-rule="evenodd"/>
      <path id="Trazado_356" data-name="Trazado 356" d="M2292.785,1212.121a.47.47,0,0,0-.377-.551.478.478,0,0,0-.555.378l-.6,3.141a.471.471,0,0,0,.377.552.478.478,0,0,0,.555-.378l.6-3.142Z" transform="translate(-2201.864 -1119.908)" fill="#ecf5fe" fill-rule="evenodd"/>
      <path id="Trazado_357" data-name="Trazado 357" d="M1951.376,1100.3s-45.793-26.326-54.166-14.786-4.425,34.7,24.273,27.435l19.886,1.756s6.418-.1,10.007-14.406Z" transform="translate(-1882.356 -1016.344)" fill="#383838" fill-rule="evenodd"/>
      <g id="Grupo_95" data-name="Grupo 95" transform="translate(10.98 66.242)">
        <g id="Grupo_94" data-name="Grupo 94" clip-path="url(#clip-path-5)">
          <path id="Trazado_358" data-name="Trazado 358" d="M2122.364,1149.757a40.266,40.266,0,0,1-2.617,9.4c-1.32,3.113-3.243,6.3-6.044,8.214a.767.767,0,1,0,.867,1.266c3.037-2.08,5.157-5.5,6.589-8.88a41.919,41.919,0,0,0,2.727-9.8.767.767,0,1,0-1.521-.2Z" transform="translate(-2070.017 -1135.986)" fill="#8e8e8e" fill-rule="evenodd"/>
        </g>
      </g>
      <path id="Trazado_360" data-name="Trazado 360" d="M1956.826,1213.7s2.809,2.807,15.8,4.667a.2.2,0,1,0,.056-.392c-12.794-1.832-15.573-4.556-15.573-4.556a.2.2,0,1,0-.278.281Z" transform="translate(-1933.29 -1121.357)" fill="#141414" fill-rule="evenodd"/>
    </g>
    <g id="Grupo_100" data-name="Grupo 100" transform="translate(142.853 32.484)">
      <path id="Trazado_368" data-name="Trazado 368" d="M2295.335,688.565h-10.3a.713.713,0,0,1-.693-.549,8.287,8.287,0,0,0-6.149-6.126.713.713,0,0,1-.551-.694V670.9a.715.715,0,0,1,.792-.709,19.859,19.859,0,0,1,17.608,17.579A.714.714,0,0,1,2295.335,688.565Z" transform="translate(-2256.452 -670.189)" fill="#8a9ee5"/>
      <path id="Trazado_369" data-name="Trazado 369" d="M2318.833,777.826a19.665,19.665,0,0,1-4.265,10.338.715.715,0,0,1-1.062.059l-5.765-5.765-1.517-1.517a.715.715,0,0,1-.1-.882,8.231,8.231,0,0,0,1.016-2.469.714.714,0,0,1,.695-.555h10.289A.715.715,0,0,1,2318.833,777.826Z" transform="translate(-2279.234 -755.984)" fill="#b2cbe9"/>
      <path id="Trazado_370" data-name="Trazado 370" d="M2202.468,704.324a.714.714,0,0,1-.058,1.061,19.855,19.855,0,1,1-14.6-35.192.714.714,0,0,1,.791.71V681.2a.714.714,0,0,1-.552.694,8.263,8.263,0,1,0,6.256,15.056.713.713,0,0,1,.884.1Z" transform="translate(-2170.084 -670.19)" fill="#97b9de"/>
    </g>
    <g id="Grupo_101" data-name="Grupo 101" transform="translate(12.582 117.01)">
      <path id="Trazado_371" data-name="Trazado 371" d="M1680.439,1099.318c2.782-.092,5.561-.094,8.343-.123.543.063.711.327.69.847-.024,5.341.133,10.617.141,15.954-.029.353.128.944-.277,1.119a4.418,4.418,0,0,1-1.085.081c-3.051.01-6.1.045-9.151.076a12.4,12.4,0,0,1-2.159.026,2.212,2.212,0,0,1-.267-1.041c0-3.747-.036-7.493-.039-11.242.039-1-.227-1.807.609-2.547,1.069-.991,2.092-2.249,3.195-3.151Z" transform="translate(-1676.624 -1099.195)" fill="#809dea"/>
      <path id="Trazado_372" data-name="Trazado 372" d="M1684.139,1103.874c.018,1.245.023,2.5-.008,3.739-.157.662-.952.358-1.417.3-.756-.109-1.519-.214-2.272-.371-.507-.123-.387-.816-.06-1.072q1.373-1.377,2.756-2.748c.238-.262.954-.312,1,.149Z" transform="translate(-1679.414 -1102.673)" fill="#fff"/>
    </g>
    <g id="Grupo_102" data-name="Grupo 102" transform="translate(18.467 123.231)">
      <path id="Trazado_373" data-name="Trazado 373" d="M1710.308,1130.895c2.782-.092,5.561-.094,8.343-.123.544.063.711.327.69.847-.023,5.341.134,10.617.141,15.954-.028.353.128.944-.277,1.119a4.387,4.387,0,0,1-1.085.081c-3.051.011-6.1.045-9.151.076a12.425,12.425,0,0,1-2.16.026,2.218,2.218,0,0,1-.267-1.041c0-3.747-.037-7.493-.04-11.242.04-1-.227-1.807.609-2.547,1.069-.991,2.092-2.249,3.2-3.151Z" transform="translate(-1706.493 -1130.772)" fill="#97b9de"/>
      <path id="Trazado_374" data-name="Trazado 374" d="M1714.008,1135.451c.018,1.244.023,2.5-.008,3.739-.157.661-.952.358-1.417.3-.755-.11-1.519-.214-2.272-.371-.506-.123-.387-.816-.059-1.072q1.372-1.376,2.755-2.748c.238-.261.954-.311,1,.149Z" transform="translate(-1709.283 -1134.251)" fill="#fff"/>
    </g>
    <g id="Grupo_103" data-name="Grupo 103" transform="translate(24.352 129.452)">
      <path id="Trazado_375" data-name="Trazado 375" d="M1740.177,1162.472c2.782-.092,5.561-.094,8.343-.123.544.063.712.327.691.847-.024,5.341.133,10.618.141,15.954-.029.353.128.944-.277,1.119a4.407,4.407,0,0,1-1.085.081c-3.051.011-6.1.045-9.151.076a12.4,12.4,0,0,1-2.16.026,2.208,2.208,0,0,1-.266-1.04c0-3.747-.037-7.494-.039-11.243.039-1-.228-1.807.609-2.547,1.069-.99,2.091-2.248,3.195-3.15Z" transform="translate(-1736.362 -1162.349)" fill="#aacbec"/>
      <path id="Trazado_376" data-name="Trazado 376" d="M1743.877,1167.028c.018,1.244.024,2.5-.008,3.739-.157.661-.952.358-1.417.3-.755-.11-1.519-.215-2.272-.372-.507-.123-.387-.815-.06-1.072q1.373-1.376,2.755-2.748c.238-.261.954-.311,1,.149Z" transform="translate(-1739.152 -1165.828)" fill="#fff"/>
    </g>
    <g id="Grupo_116" data-name="Grupo 116" transform="translate(0 73.918)">
      <path id="Trazado_392" data-name="Trazado 392" d="M1713.56,883.421h-22.029v-2.095a.842.842,0,0,1,.842-.842h20.344a.842.842,0,0,1,.843.842Z" transform="translate(-1688.594 -880.484)" fill="#8a9ee5"/>
      <path id="Trazado_393" data-name="Trazado 393" d="M1712.717,918.889h-21.186v-23.5h22.029v22.655A.842.842,0,0,1,1712.717,918.889Z" transform="translate(-1688.594 -892.455)" fill="#97b9de"/>
      <path id="Trazado_394" data-name="Trazado 394" d="M1698.653,909.509h-22.029v-2.1a.842.842,0,0,1,.842-.842h20.344a.842.842,0,0,1,.842.842v2.1Z" transform="translate(-1676.624 -901.432)" fill="#8a9ee5"/>
      <path id="Trazado_395" data-name="Trazado 395" d="M1697.81,944.977h-20.344a.842.842,0,0,1-.842-.842V921.48h22.029v22.655A.842.842,0,0,1,1697.81,944.977Z" transform="translate(-1676.624 -913.403)" fill="#b2cbe9"/>
      <ellipse id="Elipse_9" data-name="Elipse 9" cx="0.842" cy="0.842" rx="0.842" ry="0.842" transform="translate(4.621 0.626)" fill="#fff"/>
      <ellipse id="Elipse_10" data-name="Elipse 10" cx="0.842" cy="0.842" rx="0.842" ry="0.842" transform="translate(7.57 0.626)" fill="#97b9de"/>
      <ellipse id="Elipse_11" data-name="Elipse 11" cx="0.842" cy="0.842" rx="0.842" ry="0.842" transform="translate(10.517 0.626)" fill="#eef4fe"/>
      <ellipse id="Elipse_12" data-name="Elipse 12" cx="0.842" cy="0.842" rx="0.842" ry="0.842" transform="translate(1.684 5.768)" fill="#fff"/>
      <ellipse id="Elipse_13" data-name="Elipse 13" cx="0.842" cy="0.842" rx="0.842" ry="0.842" transform="translate(4.631 5.768)" fill="#b2cbe9"/>
      <ellipse id="Elipse_14" data-name="Elipse 14" cx="0.842" cy="0.842" rx="0.842" ry="0.842" transform="translate(7.578 5.768)" fill="#eef4fe"/>
      <rect id="Rectángulo_89" data-name="Rectángulo 89" width="16.84" height="5.6" transform="translate(2.595 10.603)" fill="#97b9de"/>
      <g id="Grupo_115" data-name="Grupo 115" transform="translate(2.595 18.73)">
        <rect id="Rectángulo_90" data-name="Rectángulo 90" width="16.84" height="1.263" fill="#eef4fe"/>
        <rect id="Rectángulo_91" data-name="Rectángulo 91" width="16.84" height="1.263" transform="translate(0 6.109)" fill="#eef4fe"/>
        <rect id="Rectángulo_92" data-name="Rectángulo 92" width="16.84" height="1.263" transform="translate(0 2.947)" fill="#eef4fe"/>
        <rect id="Rectángulo_93" data-name="Rectángulo 93" width="16.84" height="1.263" transform="translate(0 9.056)" fill="#eef4fe"/>
      </g>
    </g>
  </g>
</svg>
