<?xml version="1.0" encoding="UTF-8"?>
<svg xmlns="http://www.w3.org/2000/svg" xmlns:xlink="http://www.w3.org/1999/xlink" width="238px" height="140px" viewBox="0 0 237 140" version="1.1">
<defs>
<clipPath id="clip1">
  <path d="M 162 30 L 237 30 L 237 39 L 162 39 Z M 162 30 "/>
</clipPath>
<clipPath id="clip2">
  <path d="M 236.554688 34.636719 C 236.554688 32.585938 234.898438 30.925781 232.851562 30.921875 L 166.507812 30.921875 C 164.464844 30.925781 162.808594 32.585938 162.808594 34.636719 L 162.808594 60.003906 C 162.808594 62.058594 164.464844 63.71875 166.507812 63.71875 L 232.851562 63.71875 C 234.898438 63.71875 236.554688 62.058594 236.554688 60.003906 Z M 236.554688 34.636719 "/>
</clipPath>
<clipPath id="clip3">
  <path d="M 71 85 L 139 85 L 139 140 L 71 140 Z M 71 85 "/>
</clipPath>
<clipPath id="clip4">
  <path d="M 84.84375 135.804688 C 73.296875 130.125 64.933594 103.992188 77.398438 92.019531 C 95.890625 74.253906 108.277344 93.949219 109.328125 96.140625 C 111.488281 100.648438 120.464844 115.234375 130.269531 117.664062 C 142.222656 120.628906 139.636719 130.941406 132.902344 135.203125 C 123.140625 141.375 98.464844 142.496094 84.84375 135.800781 Z M 84.84375 135.804688 "/>
</clipPath>
<clipPath id="clip5">
  <path d="M 160 116 L 184 116 L 184 135 L 160 135 Z M 160 116 "/>
</clipPath>
<clipPath id="clip6">
  <path d="M 163.230469 123.777344 C 166.304688 121.152344 165.691406 120.78125 166.539062 118.828125 C 169.972656 120.4375 177.683594 112.785156 182.011719 114.75 C 183.675781 115.507812 183.28125 118.683594 181.375 120.519531 C 175.613281 125.109375 169.808594 129.679688 163.429688 133.945312 C 162.40625 134.488281 161.136719 134.128906 160.546875 133.125 L 157.9375 129.222656 C 157.21875 128.144531 156.96875 126.441406 157.898438 125.777344 C 159.824219 125.601562 161.664062 124.914062 163.230469 123.78125 Z M 163.230469 123.777344 "/>
</clipPath>
<clipPath id="clip7">
  <path d="M 157 118 L 169 118 L 169 128 L 157 128 Z M 157 118 "/>
</clipPath>
<clipPath id="clip8">
  <path d="M 163.230469 123.777344 C 166.304688 121.152344 165.691406 120.78125 166.539062 118.828125 C 169.972656 120.4375 177.683594 112.785156 182.011719 114.75 C 183.675781 115.507812 183.28125 118.683594 181.375 120.519531 C 175.613281 125.109375 169.808594 129.679688 163.429688 133.945312 C 162.40625 134.488281 161.136719 134.128906 160.546875 133.125 L 157.9375 129.222656 C 157.21875 128.144531 156.96875 126.441406 157.898438 125.777344 C 159.824219 125.601562 161.664062 124.914062 163.230469 123.78125 Z M 163.230469 123.777344 "/>
</clipPath>
<clipPath id="clip9">
  <path d="M 168 114 L 184 114 L 184 127 L 168 127 Z M 168 114 "/>
</clipPath>
<clipPath id="clip10">
  <path d="M 163.230469 123.777344 C 166.304688 121.152344 165.691406 120.78125 166.539062 118.828125 C 169.972656 120.4375 177.683594 112.785156 182.011719 114.75 C 183.675781 115.507812 183.28125 118.683594 181.375 120.519531 C 175.613281 125.109375 169.808594 129.679688 163.429688 133.945312 C 162.40625 134.488281 161.136719 134.128906 160.546875 133.125 L 157.9375 129.222656 C 157.21875 128.144531 156.96875 126.441406 157.898438 125.777344 C 159.824219 125.601562 161.664062 124.914062 163.230469 123.78125 Z M 163.230469 123.777344 "/>
</clipPath>
<clipPath id="clip11">
  <path d="M 175 114 L 177 114 L 177 118 L 175 118 Z M 175 114 "/>
</clipPath>
<clipPath id="clip12">
  <path d="M 163.230469 123.777344 C 166.304688 121.152344 165.691406 120.78125 166.539062 118.828125 C 169.972656 120.4375 177.683594 112.785156 182.011719 114.75 C 183.675781 115.507812 183.28125 118.683594 181.375 120.519531 C 175.613281 125.109375 169.808594 129.679688 163.429688 133.945312 C 162.40625 134.488281 161.136719 134.128906 160.546875 133.125 L 157.9375 129.222656 C 157.21875 128.144531 156.96875 126.441406 157.898438 125.777344 C 159.824219 125.601562 161.664062 124.914062 163.230469 123.78125 Z M 163.230469 123.777344 "/>
</clipPath>
<clipPath id="clip13">
  <path d="M 173 115 L 175 115 L 175 119 L 173 119 Z M 173 115 "/>
</clipPath>
<clipPath id="clip14">
  <path d="M 163.230469 123.777344 C 166.304688 121.152344 165.691406 120.78125 166.539062 118.828125 C 169.972656 120.4375 177.683594 112.785156 182.011719 114.75 C 183.675781 115.507812 183.28125 118.683594 181.375 120.519531 C 175.613281 125.109375 169.808594 129.679688 163.429688 133.945312 C 162.40625 134.488281 161.136719 134.128906 160.546875 133.125 L 157.9375 129.222656 C 157.21875 128.144531 156.96875 126.441406 157.898438 125.777344 C 159.824219 125.601562 161.664062 124.914062 163.230469 123.78125 Z M 163.230469 123.777344 "/>
</clipPath>
<clipPath id="clip15">
  <path d="M 171 116 L 173 116 L 173 120 L 171 120 Z M 171 116 "/>
</clipPath>
<clipPath id="clip16">
  <path d="M 163.230469 123.777344 C 166.304688 121.152344 165.691406 120.78125 166.539062 118.828125 C 169.972656 120.4375 177.683594 112.785156 182.011719 114.75 C 183.675781 115.507812 183.28125 118.683594 181.375 120.519531 C 175.613281 125.109375 169.808594 129.679688 163.429688 133.945312 C 162.40625 134.488281 161.136719 134.128906 160.546875 133.125 L 157.9375 129.222656 C 157.21875 128.144531 156.96875 126.441406 157.898438 125.777344 C 159.824219 125.601562 161.664062 124.914062 163.230469 123.78125 Z M 163.230469 123.777344 "/>
</clipPath>
<clipPath id="clip17">
  <path d="M 169 117 L 171 117 L 171 121 L 169 121 Z M 169 117 "/>
</clipPath>
<clipPath id="clip18">
  <path d="M 163.230469 123.777344 C 166.304688 121.152344 165.691406 120.78125 166.539062 118.828125 C 169.972656 120.4375 177.683594 112.785156 182.011719 114.75 C 183.675781 115.507812 183.28125 118.683594 181.375 120.519531 C 175.613281 125.109375 169.808594 129.679688 163.429688 133.945312 C 162.40625 134.488281 161.136719 134.128906 160.546875 133.125 L 157.9375 129.222656 C 157.21875 128.144531 156.96875 126.441406 157.898438 125.777344 C 159.824219 125.601562 161.664062 124.914062 163.230469 123.78125 Z M 163.230469 123.777344 "/>
</clipPath>
<clipPath id="clip19">
  <path d="M 163 123 L 187 123 L 187 140 L 163 140 Z M 163 123 "/>
</clipPath>
<clipPath id="clip20">
  <path d="M 166.648438 129.949219 C 169.804688 127.425781 169.207031 127.03125 170.117188 125.105469 C 173.496094 126.824219 181.445312 119.425781 185.710938 121.53125 C 187.347656 122.339844 186.855469 125.5 184.886719 127.277344 C 178.984375 131.679688 173.039062 136.058594 166.523438 140.113281 C 165.484375 140.621094 164.226562 140.21875 163.671875 139.199219 L 161.1875 135.214844 C 160.5 134.113281 160.304688 132.402344 161.257812 131.769531 C 163.183594 131.65625 165.046875 131.027344 166.648438 129.949219 Z M 166.648438 129.949219 "/>
</clipPath>
<clipPath id="clip21">
  <path d="M 160 124 L 172 124 L 172 134 L 160 134 Z M 160 124 "/>
</clipPath>
<clipPath id="clip22">
  <path d="M 166.648438 129.949219 C 169.804688 127.425781 169.207031 127.03125 170.117188 125.105469 C 173.496094 126.824219 181.445312 119.425781 185.710938 121.53125 C 187.347656 122.339844 186.855469 125.5 184.886719 127.277344 C 178.984375 131.679688 173.039062 136.058594 166.523438 140.113281 C 165.484375 140.621094 164.226562 140.21875 163.671875 139.199219 L 161.1875 135.214844 C 160.5 134.113281 160.304688 132.402344 161.257812 131.769531 C 163.183594 131.65625 165.046875 131.027344 166.648438 129.949219 Z M 166.648438 129.949219 "/>
</clipPath>
<clipPath id="clip23">
  <path d="M 172 121 L 187 121 L 187 133 L 172 133 Z M 172 121 "/>
</clipPath>
<clipPath id="clip24">
  <path d="M 166.648438 129.949219 C 169.804688 127.425781 169.207031 127.03125 170.117188 125.105469 C 173.496094 126.824219 181.445312 119.425781 185.710938 121.53125 C 187.347656 122.339844 186.855469 125.5 184.886719 127.277344 C 178.984375 131.679688 173.039062 136.058594 166.523438 140.113281 C 165.484375 140.621094 164.226562 140.21875 163.671875 139.199219 L 161.1875 135.214844 C 160.5 134.113281 160.304688 132.402344 161.257812 131.769531 C 163.183594 131.65625 165.046875 131.027344 166.648438 129.949219 Z M 166.648438 129.949219 "/>
</clipPath>
<clipPath id="clip25">
  <path d="M 178 121 L 181 121 L 181 125 L 178 125 Z M 178 121 "/>
</clipPath>
<clipPath id="clip26">
  <path d="M 166.648438 129.949219 C 169.804688 127.425781 169.207031 127.03125 170.117188 125.105469 C 173.496094 126.824219 181.445312 119.425781 185.710938 121.53125 C 187.347656 122.339844 186.855469 125.5 184.886719 127.277344 C 178.984375 131.679688 173.039062 136.058594 166.523438 140.113281 C 165.484375 140.621094 164.226562 140.21875 163.671875 139.199219 L 161.1875 135.214844 C 160.5 134.113281 160.304688 132.402344 161.257812 131.769531 C 163.183594 131.65625 165.046875 131.027344 166.648438 129.949219 Z M 166.648438 129.949219 "/>
</clipPath>
<clipPath id="clip27">
  <path d="M 176 122 L 179 122 L 179 125 L 176 125 Z M 176 122 "/>
</clipPath>
<clipPath id="clip28">
  <path d="M 166.648438 129.949219 C 169.804688 127.425781 169.207031 127.03125 170.117188 125.105469 C 173.496094 126.824219 181.445312 119.425781 185.710938 121.53125 C 187.347656 122.339844 186.855469 125.5 184.886719 127.277344 C 178.984375 131.679688 173.039062 136.058594 166.523438 140.113281 C 165.484375 140.621094 164.226562 140.21875 163.671875 139.199219 L 161.1875 135.214844 C 160.5 134.113281 160.304688 132.402344 161.257812 131.769531 C 163.183594 131.65625 165.046875 131.027344 166.648438 129.949219 Z M 166.648438 129.949219 "/>
</clipPath>
<clipPath id="clip29">
  <path d="M 174 123 L 177 123 L 177 126 L 174 126 Z M 174 123 "/>
</clipPath>
<clipPath id="clip30">
  <path d="M 166.648438 129.949219 C 169.804688 127.425781 169.207031 127.03125 170.117188 125.105469 C 173.496094 126.824219 181.445312 119.425781 185.710938 121.53125 C 187.347656 122.339844 186.855469 125.5 184.886719 127.277344 C 178.984375 131.679688 173.039062 136.058594 166.523438 140.113281 C 165.484375 140.621094 164.226562 140.21875 163.671875 139.199219 L 161.1875 135.214844 C 160.5 134.113281 160.304688 132.402344 161.257812 131.769531 C 163.183594 131.65625 165.046875 131.027344 166.648438 129.949219 Z M 166.648438 129.949219 "/>
</clipPath>
<clipPath id="clip31">
  <path d="M 172 124 L 175 124 L 175 128 L 172 128 Z M 172 124 "/>
</clipPath>
<clipPath id="clip32">
  <path d="M 166.648438 129.949219 C 169.804688 127.425781 169.207031 127.03125 170.117188 125.105469 C 173.496094 126.824219 181.445312 119.425781 185.710938 121.53125 C 187.347656 122.339844 186.855469 125.5 184.886719 127.277344 C 178.984375 131.679688 173.039062 136.058594 166.523438 140.113281 C 165.484375 140.621094 164.226562 140.21875 163.671875 139.199219 L 161.1875 135.214844 C 160.5 134.113281 160.304688 132.402344 161.257812 131.769531 C 163.183594 131.65625 165.046875 131.027344 166.648438 129.949219 Z M 166.648438 129.949219 "/>
</clipPath>
<clipPath id="clip33">
  <path d="M 103 74 L 115 74 L 115 107 L 103 107 Z M 103 74 "/>
</clipPath>
<clipPath id="clip34">
  <path d="M 109.074219 57.148438 C 109.074219 57.148438 117.808594 59.433594 120.226562 84.539062 C 120.226562 84.539062 120.84375 88.679688 122.421875 88.769531 C 125.992188 88.96875 141.625 85.742188 141.625 85.742188 C 141.625 85.742188 146.027344 91.066406 142.851562 96.839844 C 142.851562 96.839844 117.921875 110.457031 114.019531 102.550781 C 114.019531 102.550781 106.015625 120.464844 90.476562 118.726562 C 87.503906 115.859375 75.9375 68.0625 109.070312 57.148438 Z M 109.074219 57.148438 "/>
</clipPath>
</defs>
<g id="surface1">
<path style=" stroke:none;fill-rule:evenodd;fill:rgb(69.411765%,79.607843%,90.980392%);fill-opacity:1;" d="M 236.554688 34.636719 C 236.554688 32.585938 234.898438 30.925781 232.851562 30.921875 L 166.507812 30.921875 C 164.464844 30.925781 162.808594 32.585938 162.808594 34.636719 L 162.808594 60.003906 C 162.808594 62.058594 164.464844 63.71875 166.507812 63.71875 L 232.851562 63.71875 C 234.898438 63.71875 236.554688 62.058594 236.554688 60.003906 Z M 236.554688 34.636719 "/>
<g clip-path="url(#clip1)" clip-rule="nonzero">
<g clip-path="url(#clip2)" clip-rule="evenodd">
<path style=" stroke:none;fill-rule:evenodd;fill:rgb(54.117647%,61.960784%,89.803922%);fill-opacity:1;" d="M 236.554688 30.925781 L 162.808594 30.925781 L 162.808594 38.199219 L 236.554688 38.199219 Z M 236.554688 30.925781 "/>
</g>
</g>
<path style=" stroke:none;fill-rule:evenodd;fill:rgb(54.117647%,61.960784%,89.803922%);fill-opacity:1;" d="M 186.855469 44.550781 L 193.753906 49.84375 C 193.839844 49.910156 193.96875 49.894531 194.035156 49.804688 C 194.101562 49.71875 194.085938 49.589844 193.996094 49.523438 L 187.101562 44.230469 C 187.011719 44.160156 186.886719 44.179688 186.820312 44.265625 C 186.75 44.355469 186.769531 44.484375 186.855469 44.550781 Z M 186.855469 44.550781 "/>
<path style=" stroke:none;fill-rule:evenodd;fill:rgb(54.117647%,61.960784%,89.803922%);fill-opacity:1;" d="M 174.523438 45.582031 L 191.507812 51.15625 C 191.578125 51.183594 191.65625 51.171875 191.714844 51.125 C 191.773438 51.074219 191.796875 50.996094 191.78125 50.921875 C 191.761719 50.847656 191.707031 50.792969 191.632812 50.773438 L 174.648438 45.199219 C 174.546875 45.175781 174.441406 45.230469 174.410156 45.332031 C 174.375 45.433594 174.425781 45.542969 174.523438 45.582031 Z M 174.523438 45.582031 "/>
<path style=" stroke:none;fill-rule:evenodd;fill:rgb(54.117647%,61.960784%,89.803922%);fill-opacity:1;" d="M 171.035156 51.554688 L 191.894531 53.828125 C 192.007812 53.839844 192.105469 53.761719 192.117188 53.648438 C 192.128906 53.539062 192.050781 53.4375 191.9375 53.425781 L 171.078125 51.152344 C 170.96875 51.140625 170.867188 51.21875 170.855469 51.332031 C 170.84375 51.445312 170.925781 51.542969 171.035156 51.554688 Z M 171.035156 51.554688 "/>
<path style=" stroke:none;fill-rule:evenodd;fill:rgb(54.117647%,61.960784%,89.803922%);fill-opacity:1;" d="M 185.082031 61.234375 L 195.019531 51.164062 C 195.097656 51.085938 195.097656 50.957031 195.019531 50.878906 C 194.941406 50.796875 194.8125 50.796875 194.734375 50.878906 L 184.792969 60.945312 C 184.714844 61.027344 184.714844 61.152344 184.792969 61.234375 C 184.875 61.3125 185 61.3125 185.082031 61.234375 Z M 185.082031 61.234375 "/>
<path style=" stroke:none;fill-rule:evenodd;fill:rgb(54.117647%,61.960784%,89.803922%);fill-opacity:1;" d="M 196.894531 52.839844 L 206.835938 42.773438 C 206.914062 42.695312 206.914062 42.566406 206.835938 42.484375 C 206.757812 42.40625 206.628906 42.40625 206.546875 42.484375 L 196.609375 52.554688 C 196.53125 52.632812 196.53125 52.761719 196.609375 52.839844 C 196.6875 52.921875 196.816406 52.921875 196.894531 52.839844 Z M 196.894531 52.839844 "/>
<path style=" stroke:none;fill-rule:evenodd;fill:rgb(54.117647%,61.960784%,89.803922%);fill-opacity:1;" d="M 200.800781 51.46875 L 221.464844 45.472656 C 221.570312 45.441406 221.632812 45.328125 221.601562 45.222656 C 221.570312 45.113281 221.460938 45.050781 221.351562 45.082031 L 200.691406 51.078125 C 200.582031 51.109375 200.519531 51.222656 200.550781 51.332031 C 200.582031 51.4375 200.695312 51.5 200.800781 51.46875 Z M 200.800781 51.46875 "/>
<path style=" stroke:none;fill-rule:evenodd;fill:rgb(54.117647%,61.960784%,89.803922%);fill-opacity:1;" d="M 213.484375 47.847656 L 228.546875 51.363281 C 228.65625 51.386719 228.761719 51.320312 228.789062 51.210938 C 228.816406 51.101562 228.75 50.996094 228.644531 50.964844 L 213.578125 47.453125 C 213.472656 47.429688 213.363281 47.496094 213.335938 47.601562 C 213.3125 47.710938 213.375 47.820312 213.484375 47.847656 Z M 213.484375 47.847656 "/>
<path style=" stroke:none;fill-rule:evenodd;fill:rgb(54.117647%,61.960784%,89.803922%);fill-opacity:1;" d="M 203.757812 58.796875 L 201.414062 52.8125 L 210.765625 52.8125 C 210.878906 52.8125 210.96875 52.722656 210.96875 52.609375 C 210.96875 52.5 210.878906 52.40625 210.765625 52.40625 L 201.113281 52.40625 C 201.046875 52.40625 200.984375 52.4375 200.945312 52.496094 C 200.90625 52.550781 200.898438 52.621094 200.921875 52.683594 L 203.375 58.941406 C 203.417969 59.046875 203.535156 59.097656 203.636719 59.058594 C 203.742188 59.015625 203.792969 58.898438 203.753906 58.792969 Z M 203.757812 58.796875 "/>
<path style=" stroke:none;fill-rule:evenodd;fill:rgb(54.117647%,61.960784%,89.803922%);fill-opacity:1;" d="M 214.605469 59.195312 L 212.519531 53.089844 L 220.675781 55.765625 C 220.777344 55.785156 220.875 55.726562 220.910156 55.628906 C 220.941406 55.53125 220.894531 55.425781 220.800781 55.378906 L 212.257812 52.582031 C 212.1875 52.558594 212.105469 52.578125 212.050781 52.632812 C 212 52.6875 211.980469 52.769531 212.003906 52.839844 L 214.226562 59.332031 C 214.261719 59.4375 214.375 59.492188 214.480469 59.457031 C 214.585938 59.421875 214.644531 59.304688 214.605469 59.199219 Z M 214.605469 59.195312 "/>
<path style=" stroke:none;fill-rule:evenodd;fill:rgb(54.117647%,61.960784%,89.803922%);fill-opacity:1;" d="M 175.5625 58.179688 L 180.277344 52.660156 C 180.34375 52.578125 180.328125 52.453125 180.246094 52.382812 C 180.164062 52.3125 180.042969 52.320312 179.96875 52.398438 L 175.253906 57.917969 C 175.179688 58.003906 175.191406 58.132812 175.273438 58.203125 C 175.359375 58.277344 175.488281 58.265625 175.558594 58.183594 Z M 175.5625 58.179688 "/>
<path style=" stroke:none;fill-rule:evenodd;fill:rgb(92.156863%,96.470588%,99.215686%);fill-opacity:1;" d="M 203.839844 48.285156 C 203.839844 47.691406 203.359375 47.210938 202.769531 47.210938 L 191.851562 47.210938 C 191.261719 47.210938 190.78125 47.691406 190.78125 48.285156 L 190.78125 54.007812 C 190.78125 54.601562 191.261719 55.082031 191.851562 55.082031 L 202.769531 55.082031 C 203.359375 55.082031 203.839844 54.601562 203.839844 54.007812 Z M 203.839844 48.285156 "/>
<path style=" stroke:none;fill-rule:evenodd;fill:rgb(100%,100%,100%);fill-opacity:1;" d="M 178.148438 40.738281 C 178.148438 40.316406 177.808594 39.972656 177.386719 39.972656 L 167.332031 39.972656 C 166.910156 39.972656 166.566406 40.316406 166.566406 40.738281 L 166.566406 44.824219 C 166.566406 45.246094 166.910156 45.589844 167.332031 45.589844 L 177.386719 45.589844 C 177.808594 45.589844 178.148438 45.246094 178.148438 44.824219 Z M 178.148438 40.738281 "/>
<path style=" stroke:none;fill-rule:evenodd;fill:rgb(100%,100%,100%);fill-opacity:1;" d="M 189.589844 42.277344 C 189.589844 41.984375 189.351562 41.75 189.0625 41.75 L 182.945312 41.75 C 182.65625 41.75 182.421875 41.984375 182.421875 42.277344 L 182.421875 45.085938 C 182.421875 45.378906 182.65625 45.613281 182.945312 45.613281 L 189.0625 45.613281 C 189.351562 45.613281 189.589844 45.378906 189.589844 45.085938 Z M 189.589844 42.277344 "/>
<path style=" stroke:none;fill-rule:evenodd;fill:rgb(100%,100%,100%);fill-opacity:1;" d="M 209.601562 41.4375 C 209.601562 41.144531 209.363281 40.90625 209.070312 40.90625 L 202.800781 40.90625 C 202.507812 40.910156 202.273438 41.144531 202.273438 41.4375 L 202.273438 44.261719 C 202.273438 44.554688 202.507812 44.792969 202.800781 44.792969 L 209.070312 44.792969 C 209.363281 44.792969 209.601562 44.554688 209.601562 44.261719 Z M 209.601562 41.4375 "/>
<path style=" stroke:none;fill-rule:evenodd;fill:rgb(100%,100%,100%);fill-opacity:1;" d="M 230.160156 41.054688 C 230.160156 40.648438 229.828125 40.320312 229.421875 40.320312 L 216.105469 40.320312 C 215.699219 40.320312 215.371094 40.648438 215.371094 41.054688 L 215.371094 44.988281 C 215.371094 45.394531 215.699219 45.726562 216.105469 45.726562 L 229.421875 45.726562 C 229.828125 45.726562 230.160156 45.394531 230.160156 44.988281 Z M 230.160156 41.054688 "/>
<path style=" stroke:none;fill-rule:evenodd;fill:rgb(100%,100%,100%);fill-opacity:1;" d="M 233.757812 49.464844 C 233.757812 49.191406 233.539062 48.972656 233.265625 48.972656 L 228.253906 48.972656 C 227.984375 48.972656 227.761719 49.191406 227.761719 49.464844 L 227.761719 52.09375 C 227.761719 52.367188 227.984375 52.585938 228.253906 52.585938 L 233.265625 52.585938 C 233.539062 52.585938 233.757812 52.367188 233.757812 52.09375 Z M 233.757812 49.464844 "/>
<path style=" stroke:none;fill-rule:evenodd;fill:rgb(100%,100%,100%);fill-opacity:1;" d="M 213.824219 51.484375 C 213.824219 51.257812 213.640625 51.074219 213.414062 51.070312 L 209.226562 51.070312 C 209 51.074219 208.816406 51.257812 208.816406 51.484375 L 208.816406 53.671875 C 208.816406 53.898438 209 54.082031 209.226562 54.082031 L 213.414062 54.082031 C 213.640625 54.082031 213.824219 53.898438 213.824219 53.671875 Z M 213.824219 51.484375 "/>
<path style=" stroke:none;fill-rule:evenodd;fill:rgb(100%,100%,100%);fill-opacity:1;" d="M 225.296875 54.554688 C 225.296875 54.28125 225.078125 54.0625 224.808594 54.0625 L 219.792969 54.0625 C 219.523438 54.0625 219.304688 54.28125 219.300781 54.554688 L 219.300781 57.183594 C 219.300781 57.457031 219.523438 57.675781 219.792969 57.679688 L 224.808594 57.679688 C 224.9375 57.679688 225.0625 57.625 225.15625 57.535156 C 225.246094 57.441406 225.296875 57.316406 225.296875 57.183594 Z M 225.296875 54.554688 "/>
<path style=" stroke:none;fill-rule:evenodd;fill:rgb(100%,100%,100%);fill-opacity:1;" d="M 218.105469 59.046875 C 218.105469 58.773438 217.882812 58.554688 217.613281 58.554688 L 212.597656 58.554688 C 212.46875 58.554688 212.34375 58.605469 212.25 58.699219 C 212.160156 58.789062 212.105469 58.917969 212.105469 59.046875 L 212.105469 61.675781 C 212.105469 61.949219 212.328125 62.171875 212.597656 62.171875 L 217.613281 62.171875 C 217.882812 62.171875 218.105469 61.949219 218.105469 61.675781 Z M 218.105469 59.046875 "/>
<path style=" stroke:none;fill-rule:evenodd;fill:rgb(100%,100%,100%);fill-opacity:1;" d="M 205.875 58.183594 C 205.875 57.980469 205.710938 57.816406 205.507812 57.816406 L 201.703125 57.816406 C 201.5 57.816406 201.335938 57.980469 201.335938 58.183594 L 201.335938 60.136719 C 201.335938 60.234375 201.375 60.328125 201.441406 60.394531 C 201.511719 60.464844 201.605469 60.503906 201.703125 60.503906 L 205.507812 60.503906 C 205.710938 60.503906 205.875 60.339844 205.875 60.136719 Z M 205.875 58.183594 "/>
<path style=" stroke:none;fill-rule:evenodd;fill:rgb(100%,100%,100%);fill-opacity:1;" d="M 189.894531 58.238281 C 189.894531 57.890625 189.617188 57.609375 189.269531 57.609375 L 180.964844 57.609375 C 180.621094 57.609375 180.339844 57.890625 180.339844 58.238281 L 180.339844 61.578125 C 180.34375 61.921875 180.621094 62.203125 180.964844 62.203125 L 189.269531 62.203125 C 189.613281 62.203125 189.894531 61.921875 189.894531 61.578125 Z M 189.894531 58.238281 "/>
<path style=" stroke:none;fill-rule:evenodd;fill:rgb(100%,100%,100%);fill-opacity:1;" d="M 170.585938 49.980469 C 171.273438 49.980469 171.828125 50.539062 171.828125 51.226562 C 171.828125 51.914062 171.273438 52.472656 170.585938 52.472656 C 169.898438 52.472656 169.34375 51.914062 169.34375 51.226562 C 169.34375 50.539062 169.898438 49.980469 170.585938 49.980469 Z M 170.585938 49.980469 "/>
<path style=" stroke:none;fill-rule:evenodd;fill:rgb(100%,100%,100%);fill-opacity:1;" d="M 175.191406 55.761719 C 176.363281 55.761719 177.316406 56.714844 177.316406 57.890625 C 177.316406 59.070312 176.367188 60.023438 175.191406 60.023438 C 174.019531 60.023438 173.066406 59.070312 173.066406 57.894531 C 173.066406 56.714844 174.019531 55.761719 175.191406 55.761719 Z M 175.191406 55.761719 "/>
<path style=" stroke:none;fill-rule:evenodd;fill:rgb(100%,100%,100%);fill-opacity:1;" d="M 166.753906 33.511719 C 167.320312 33.480469 167.847656 33.796875 168.089844 34.3125 C 168.328125 34.828125 168.230469 35.4375 167.839844 35.851562 C 167.453125 36.265625 166.847656 36.398438 166.324219 36.191406 C 165.796875 35.980469 165.449219 35.46875 165.449219 34.898438 C 165.429688 34.15625 166.011719 33.535156 166.753906 33.511719 Z M 166.753906 33.511719 "/>
<path style=" stroke:none;fill-rule:evenodd;fill:rgb(100%,100%,100%);fill-opacity:1;" d="M 170.492188 33.511719 C 171.058594 33.480469 171.589844 33.796875 171.828125 34.3125 C 172.066406 34.828125 171.96875 35.4375 171.578125 35.851562 C 171.191406 36.265625 170.589844 36.398438 170.0625 36.191406 C 169.535156 35.980469 169.1875 35.46875 169.1875 34.898438 C 169.167969 34.15625 169.75 33.535156 170.492188 33.511719 Z M 170.492188 33.511719 "/>
<path style=" stroke:none;fill-rule:evenodd;fill:rgb(100%,100%,100%);fill-opacity:1;" d="M 174.671875 33.511719 C 175.238281 33.480469 175.765625 33.796875 176.007812 34.3125 C 176.246094 34.828125 176.144531 35.441406 175.757812 35.851562 C 175.367188 36.265625 174.765625 36.402344 174.238281 36.191406 C 173.710938 35.980469 173.367188 35.46875 173.367188 34.898438 C 173.34375 34.152344 173.929688 33.53125 174.671875 33.511719 Z M 174.671875 33.511719 "/>
<path style=" stroke:none;fill-rule:evenodd;fill:rgb(97.647059%,75.686275%,32.54902%);fill-opacity:1;" d="M 84.84375 135.804688 C 73.296875 130.125 64.933594 103.992188 77.398438 92.019531 C 95.890625 74.253906 108.277344 93.949219 109.328125 96.140625 C 111.488281 100.648438 120.464844 115.234375 130.269531 117.664062 C 142.222656 120.628906 139.636719 130.941406 132.902344 135.203125 C 123.140625 141.375 98.464844 142.496094 84.84375 135.800781 Z M 84.84375 135.804688 "/>
<g clip-path="url(#clip3)" clip-rule="nonzero">
<g clip-path="url(#clip4)" clip-rule="evenodd">
<path style=" stroke:none;fill-rule:evenodd;fill:rgb(92.156863%,67.058824%,23.529412%);fill-opacity:1;" d="M 74.695312 86.628906 C 77.261719 82.558594 95.476562 88.890625 97.179688 103.984375 C 99.769531 127.007812 106.964844 122.898438 120.410156 123.148438 C 143.320312 123.570312 136.785156 128.960938 138.214844 135.125 C 133.402344 145.433594 80.738281 149.363281 77.207031 136.046875 C 76.007812 131.527344 59.335938 110.992188 74.699219 86.625 Z M 74.695312 86.628906 "/>
</g>
</g>
<path style=" stroke:none;fill-rule:evenodd;fill:rgb(23.529412%,8.235294%,13.333333%);fill-opacity:1;" d="M 122.75 41.445312 C 115.644531 37.644531 104.464844 48.835938 114 56.761719 L 116.882812 53.59375 C 116.882812 53.59375 117.480469 49.269531 117.191406 48.988281 C 116.898438 48.710938 116.839844 46.199219 116.542969 46.007812 C 116.246094 45.8125 123.132812 41.425781 122.753906 41.445312 Z M 122.75 41.445312 "/>
<path style=" stroke:none;fill-rule:evenodd;fill:rgb(99.607843%,70.196078%,61.568627%);fill-opacity:1;" d="M 114.992188 54.121094 C 115.222656 54.457031 112.574219 59.226562 110.433594 63.097656 C 110.25 64.015625 110.246094 64.960938 110.417969 65.882812 C 110.554688 66.535156 110.957031 67.019531 111.117188 66.773438 C 111.90625 66.378906 112.605469 65.816406 113.15625 65.121094 C 113.15625 65.121094 113.304688 63.714844 116 58.304688 C 118.699219 52.890625 114.992188 54.121094 114.992188 54.121094 Z M 114.992188 54.121094 "/>
<path style=" stroke:none;fill-rule:evenodd;fill:rgb(87.058824%,50.980392%,42.352941%);fill-opacity:1;" d="M 110.3125 65.046875 C 110.3125 64.765625 110.355469 64.484375 110.4375 64.214844 C 112.574219 60.34375 115.226562 55.574219 114.996094 55.238281 C 114.996094 55.238281 116.574219 54.714844 116.921875 55.851562 C 117.40625 53.320312 114.992188 54.121094 114.992188 54.121094 C 115.222656 54.457031 112.574219 59.226562 110.433594 63.097656 C 110.292969 63.738281 110.25 64.394531 110.3125 65.046875 Z M 110.3125 65.046875 "/>
<path style=" stroke:none;fill-rule:evenodd;fill:rgb(99.607843%,70.196078%,61.568627%);fill-opacity:1;" d="M 122.203125 58.652344 C 121.246094 60.089844 119.714844 61.042969 118.003906 61.261719 C 118.003906 61.261719 114.585938 61.476562 113.746094 54.097656 C 112.996094 53.945312 110.34375 51.402344 112.207031 49.621094 C 113.699219 48.191406 114.894531 49.949219 114.691406 50.898438 L 116.195312 45.949219 L 122.644531 45.144531 L 125.855469 46.949219 L 126.507812 49.773438 C 127.1875 49.308594 123.367188 57.125 122.207031 58.652344 Z M 122.203125 58.652344 "/>
<path style=" stroke:none;fill-rule:evenodd;fill:rgb(87.058824%,50.980392%,42.352941%);fill-opacity:1;" d="M 114.683594 51.183594 C 114.660156 51.378906 116.804688 50.777344 117.714844 48.664062 C 118.582031 46.652344 119.90625 46.476562 123.515625 49.261719 C 127.125 52.046875 126.945312 48.398438 126.945312 48.398438 C 126.945312 48.398438 122.164062 44.816406 122.003906 44.46875 C 121.847656 44.121094 117.507812 45.378906 117.507812 45.378906 L 115.210938 49.878906 L 114.683594 51.175781 Z M 114.683594 51.183594 "/>
<path style=" stroke:none;fill-rule:evenodd;fill:rgb(87.058824%,50.980392%,42.352941%);fill-opacity:1;" d="M 113.195312 49.089844 C 111.433594 50.871094 114.042969 53.363281 114.785156 53.515625 C 115.625 60.890625 119.046875 60.679688 119.046875 60.679688 C 119.507812 60.640625 119.957031 60.53125 120.382812 60.351562 C 119.691406 60.867188 118.867188 61.183594 118.007812 61.265625 C 118.007812 61.265625 114.589844 61.476562 113.75 54.097656 C 113 53.945312 110.347656 51.40625 112.210938 49.621094 C 112.476562 49.339844 112.820312 49.152344 113.199219 49.089844 Z M 117.089844 45.835938 L 115.730469 50.3125 C 115.792969 49.808594 115.632812 49.304688 115.285156 48.933594 L 116.191406 45.949219 Z M 117.089844 45.835938 "/>
<path style=" stroke:none;fill-rule:evenodd;fill:rgb(23.529412%,8.235294%,13.333333%);fill-opacity:1;" d="M 114.503906 51.285156 C 114.503906 51.285156 115.859375 51.242188 116.726562 49.089844 C 117.597656 46.9375 119.421875 45.097656 120.976562 46.613281 C 122.535156 48.128906 127.285156 53.527344 130.855469 49.980469 C 134.421875 46.433594 131.4375 44.460938 129.382812 44.257812 C 127.554688 44.082031 125.816406 43.375 124.386719 42.222656 C 122.636719 41.007812 119.089844 39.964844 117.601562 42.15625 C 117.601562 42.15625 112.277344 41.964844 113.335938 49.054688 C 114.195312 49.429688 114.683594 50.355469 114.507812 51.285156 Z M 114.503906 51.285156 "/>
<path style=" stroke:none;fill-rule:evenodd;fill:rgb(99.607843%,70.196078%,61.568627%);fill-opacity:1;" d="M 138.59375 86.554688 C 138.59375 86.554688 138.855469 85.65625 141.476562 85.199219 C 142.433594 85.03125 145.777344 85.070312 147.226562 84.3125 C 152.597656 81.511719 154.039062 75.78125 152.972656 76.199219 C 148.871094 77.820312 150.203125 79.527344 146.613281 80.28125 C 145.664062 80.480469 145.089844 80.519531 145.257812 80.433594 C 145.777344 80.167969 147.851562 78.351562 147.171875 78.078125 C 145.558594 77.429688 142.863281 80.972656 140.5 81.019531 C 139.519531 81.035156 136.589844 81.570312 136.363281 82.296875 C 135.597656 84.757812 138.601562 86.554688 138.601562 86.554688 Z M 138.59375 86.554688 "/>
<path style=" stroke:none;fill-rule:evenodd;fill:rgb(87.058824%,50.980392%,42.352941%);fill-opacity:1;" d="M 147.191406 78.597656 C 147.332031 78.351562 147.359375 78.15625 147.167969 78.078125 C 145.554688 77.429688 142.859375 80.972656 140.496094 81.019531 C 139.515625 81.039062 136.585938 81.574219 136.359375 82.300781 C 135.59375 84.757812 138.597656 86.554688 138.597656 86.554688 C 137.765625 85.835938 136.617188 84.496094 137.125 82.867188 C 137.347656 82.140625 140.277344 81.605469 141.261719 81.585938 C 143.289062 81.546875 145.566406 78.925781 147.191406 78.601562 Z M 153.273438 76.960938 C 153.359375 76.398438 153.257812 76.105469 152.976562 76.199219 C 149.464844 77.335938 149.527344 80.207031 145.285156 80.460938 C 146.117188 80.460938 148.519531 80.28125 149.285156 79.679688 C 151.433594 77.988281 151.378906 77.421875 153.273438 76.960938 Z M 153.273438 76.960938 "/>
<path style=" stroke:none;fill-rule:evenodd;fill:rgb(13.333333%,29.803922%,67.058824%);fill-opacity:1;" d="M 163.230469 123.777344 C 166.304688 121.152344 165.691406 120.78125 166.539062 118.828125 C 169.972656 120.4375 177.683594 112.785156 182.011719 114.75 C 183.675781 115.507812 183.28125 118.683594 181.375 120.519531 C 175.613281 125.109375 169.808594 129.679688 163.429688 133.945312 C 162.40625 134.488281 161.136719 134.128906 160.546875 133.125 L 157.9375 129.222656 C 157.21875 128.144531 156.96875 126.441406 157.898438 125.777344 C 159.824219 125.601562 161.664062 124.914062 163.230469 123.78125 Z M 163.230469 123.777344 "/>
<g clip-path="url(#clip5)" clip-rule="nonzero">
<g clip-path="url(#clip6)" clip-rule="evenodd">
<path style=" stroke:none;fill-rule:evenodd;fill:rgb(92.54902%,96.078431%,98.431373%);fill-opacity:1;" d="M 183.261719 116.246094 C 180.378906 119.175781 177.3125 121.921875 174.085938 124.464844 C 170.078125 127.5 166.269531 129.484375 160.613281 133.316406 L 162.046875 135.28125 L 184.5625 119.046875 L 183.265625 116.246094 Z M 183.261719 116.246094 "/>
</g>
</g>
<g clip-path="url(#clip7)" clip-rule="nonzero">
<g clip-path="url(#clip8)" clip-rule="evenodd">
<path style=" stroke:none;fill-rule:evenodd;fill:rgb(92.54902%,96.078431%,98.431373%);fill-opacity:1;" d="M 156.511719 127.246094 C 156.53125 127.246094 157.023438 127.269531 157.527344 127.285156 C 159.875 127.429688 162.191406 126.714844 164.050781 125.273438 C 166.070312 123.519531 167.484375 121.167969 168.097656 118.5625 C 168.136719 118.433594 168.0625 118.296875 167.933594 118.261719 C 167.804688 118.222656 167.671875 118.296875 167.636719 118.425781 C 166.59375 122.0625 164.921875 124.140625 163.171875 125.316406 C 161.277344 126.507812 159.035156 127.015625 156.816406 126.761719 C 156.660156 126.746094 156.507812 126.75 156.355469 126.78125 C 156.230469 126.824219 156.164062 126.964844 156.207031 127.089844 C 156.25 127.214844 156.386719 127.28125 156.511719 127.238281 Z M 156.511719 127.246094 "/>
</g>
</g>
<g clip-path="url(#clip9)" clip-rule="nonzero">
<g clip-path="url(#clip10)" clip-rule="evenodd">
<path style=" stroke:none;fill-rule:evenodd;fill:rgb(0%,0%,0%);fill-opacity:1;" d="M 169.152344 126.542969 C 169.152344 126.542969 175.378906 123.488281 183.269531 114.84375 C 183.359375 114.746094 183.355469 114.59375 183.257812 114.503906 C 183.15625 114.414062 183.003906 114.417969 182.914062 114.519531 C 175.097656 123.074219 168.941406 126.105469 168.941406 126.105469 C 168.820312 126.164062 168.769531 126.308594 168.828125 126.429688 C 168.886719 126.550781 169.03125 126.597656 169.152344 126.539062 Z M 169.152344 126.542969 "/>
</g>
</g>
<g clip-path="url(#clip11)" clip-rule="nonzero">
<g clip-path="url(#clip12)" clip-rule="evenodd">
<path style=" stroke:none;fill-rule:evenodd;fill:rgb(92.54902%,96.078431%,99.607843%);fill-opacity:1;" d="M 175.816406 117.164062 C 175.863281 117.308594 175.984375 117.417969 176.132812 117.445312 C 176.285156 117.476562 176.4375 117.425781 176.539062 117.308594 C 176.636719 117.195312 176.667969 117.035156 176.621094 116.890625 L 175.964844 114.945312 C 175.917969 114.800781 175.792969 114.695312 175.644531 114.664062 C 175.496094 114.632812 175.34375 114.683594 175.242188 114.800781 C 175.140625 114.914062 175.109375 115.074219 175.160156 115.21875 Z M 175.816406 117.164062 "/>
</g>
</g>
<g clip-path="url(#clip13)" clip-rule="nonzero">
<g clip-path="url(#clip14)" clip-rule="evenodd">
<path style=" stroke:none;fill-rule:evenodd;fill:rgb(92.54902%,96.078431%,99.607843%);fill-opacity:1;" d="M 173.925781 118.125 C 174 118.34375 174.242188 118.464844 174.460938 118.386719 C 174.683594 118.3125 174.800781 118.074219 174.726562 117.851562 L 174.070312 115.90625 C 173.996094 115.6875 173.753906 115.570312 173.535156 115.644531 C 173.3125 115.71875 173.195312 115.957031 173.269531 116.179688 Z M 173.925781 118.125 "/>
</g>
</g>
<g clip-path="url(#clip15)" clip-rule="nonzero">
<g clip-path="url(#clip16)" clip-rule="evenodd">
<path style=" stroke:none;fill-rule:evenodd;fill:rgb(92.54902%,96.078431%,99.607843%);fill-opacity:1;" d="M 172.007812 119.144531 C 172.082031 119.367188 172.324219 119.488281 172.546875 119.410156 C 172.765625 119.335938 172.886719 119.09375 172.8125 118.871094 L 172.15625 116.925781 C 172.105469 116.78125 171.984375 116.671875 171.835938 116.644531 C 171.6875 116.613281 171.53125 116.664062 171.433594 116.78125 C 171.332031 116.894531 171.300781 117.054688 171.351562 117.199219 Z M 172.007812 119.144531 "/>
</g>
</g>
<g clip-path="url(#clip17)" clip-rule="nonzero">
<g clip-path="url(#clip18)" clip-rule="evenodd">
<path style=" stroke:none;fill-rule:evenodd;fill:rgb(92.54902%,96.078431%,99.607843%);fill-opacity:1;" d="M 169.824219 120.339844 C 169.875 120.484375 169.996094 120.59375 170.144531 120.625 C 170.292969 120.652344 170.449219 120.601562 170.546875 120.488281 C 170.648438 120.371094 170.679688 120.210938 170.628906 120.066406 L 169.972656 118.121094 C 169.898438 117.898438 169.65625 117.78125 169.433594 117.855469 C 169.210938 117.929688 169.09375 118.171875 169.167969 118.394531 Z M 169.824219 120.339844 "/>
</g>
</g>
<path style=" stroke:none;fill-rule:evenodd;fill:rgb(69.803922%,80%,91.372549%);fill-opacity:1;" d="M 160.140625 129.078125 C 160.796875 130.507812 161.382812 131.96875 161.890625 133.460938 C 162.820312 136.128906 170.628906 129.910156 170.628906 129.910156 L 170.796875 126.390625 C 170.644531 125.976562 170.441406 125.582031 170.195312 125.21875 C 169.765625 124.566406 169.078125 123.449219 168.796875 123.164062 C 168.519531 122.878906 160.136719 129.074219 160.136719 129.074219 Z M 160.140625 129.078125 "/>
<path style=" stroke:none;fill-rule:evenodd;fill:rgb(13.333333%,29.803922%,67.058824%);fill-opacity:1;" d="M 166.648438 129.949219 C 169.804688 127.425781 169.207031 127.03125 170.117188 125.105469 C 173.496094 126.824219 181.445312 119.425781 185.710938 121.53125 C 187.347656 122.339844 186.855469 125.5 184.886719 127.277344 C 178.984375 131.679688 173.039062 136.058594 166.523438 140.113281 C 165.484375 140.621094 164.226562 140.21875 163.671875 139.199219 L 161.1875 135.214844 C 160.5 134.113281 160.304688 132.402344 161.257812 131.769531 C 163.183594 131.65625 165.046875 131.027344 166.648438 129.949219 Z M 166.648438 129.949219 "/>
<g clip-path="url(#clip19)" clip-rule="nonzero">
<g clip-path="url(#clip20)" clip-rule="evenodd">
<path style=" stroke:none;fill-rule:evenodd;fill:rgb(92.54902%,96.078431%,98.431373%);fill-opacity:1;" d="M 186.90625 123.066406 C 183.929688 125.902344 180.78125 128.546875 177.472656 130.984375 C 173.371094 133.886719 169.5 135.75 163.722656 139.398438 L 165.085938 141.410156 L 188.113281 125.910156 Z M 186.90625 123.066406 "/>
</g>
</g>
<g clip-path="url(#clip21)" clip-rule="nonzero">
<g clip-path="url(#clip22)" clip-rule="evenodd">
<path style=" stroke:none;fill-rule:evenodd;fill:rgb(92.54902%,96.078431%,98.431373%);fill-opacity:1;" d="M 159.824219 133.195312 C 159.847656 133.195312 160.332031 133.238281 160.839844 133.269531 C 163.179688 133.492188 165.515625 132.851562 167.421875 131.472656 C 169.496094 129.785156 170.988281 127.484375 171.683594 124.894531 C 171.714844 124.8125 171.699219 124.71875 171.640625 124.652344 C 171.582031 124.585938 171.492188 124.554688 171.402344 124.574219 C 171.316406 124.59375 171.25 124.660156 171.226562 124.746094 C 170.070312 128.34375 168.328125 130.371094 166.542969 131.488281 C 164.609375 132.617188 162.351562 133.054688 160.140625 132.730469 C 159.988281 132.707031 159.832031 132.707031 159.683594 132.734375 C 159.554688 132.773438 159.484375 132.910156 159.523438 133.035156 C 159.5625 133.164062 159.695312 133.234375 159.824219 133.195312 Z M 159.824219 133.195312 "/>
</g>
</g>
<g clip-path="url(#clip23)" clip-rule="nonzero">
<g clip-path="url(#clip24)" clip-rule="evenodd">
<path style=" stroke:none;fill-rule:evenodd;fill:rgb(0%,0%,0%);fill-opacity:1;" d="M 172.480469 132.902344 C 172.480469 132.902344 178.800781 130.046875 186.964844 121.667969 C 187.058594 121.570312 187.058594 121.417969 186.960938 121.324219 C 186.867188 121.230469 186.714844 121.234375 186.621094 121.328125 C 178.535156 129.628906 172.285156 132.460938 172.285156 132.460938 C 172.207031 132.496094 172.152344 132.570312 172.140625 132.65625 C 172.132812 132.742188 172.171875 132.828125 172.242188 132.878906 C 172.3125 132.929688 172.40625 132.9375 172.484375 132.898438 Z M 172.480469 132.902344 "/>
</g>
</g>
<g clip-path="url(#clip25)" clip-rule="nonzero">
<g clip-path="url(#clip26)" clip-rule="evenodd">
<path style=" stroke:none;fill-rule:evenodd;fill:rgb(92.54902%,96.078431%,99.607843%);fill-opacity:1;" d="M 179.441406 123.742188 C 179.507812 123.96875 179.746094 124.09375 179.96875 124.027344 C 180.195312 123.957031 180.320312 123.71875 180.253906 123.496094 L 179.660156 121.53125 C 179.589844 121.304688 179.351562 121.179688 179.128906 121.246094 C 178.90625 121.316406 178.777344 121.554688 178.847656 121.777344 Z M 179.441406 123.742188 "/>
</g>
</g>
<g clip-path="url(#clip27)" clip-rule="nonzero">
<g clip-path="url(#clip28)" clip-rule="evenodd">
<path style=" stroke:none;fill-rule:evenodd;fill:rgb(92.54902%,96.078431%,99.607843%);fill-opacity:1;" d="M 177.519531 124.640625 C 177.585938 124.867188 177.824219 124.996094 178.046875 124.925781 C 178.273438 124.859375 178.398438 124.621094 178.332031 124.394531 L 177.738281 122.429688 C 177.667969 122.207031 177.433594 122.078125 177.207031 122.148438 C 176.984375 122.214844 176.855469 122.453125 176.925781 122.679688 Z M 177.519531 124.640625 "/>
</g>
</g>
<g clip-path="url(#clip29)" clip-rule="nonzero">
<g clip-path="url(#clip30)" clip-rule="evenodd">
<path style=" stroke:none;fill-rule:evenodd;fill:rgb(92.54902%,96.078431%,99.607843%);fill-opacity:1;" d="M 175.566406 125.597656 C 175.636719 125.824219 175.875 125.949219 176.097656 125.882812 C 176.320312 125.8125 176.449219 125.574219 176.378906 125.351562 L 175.785156 123.386719 C 175.71875 123.160156 175.480469 123.035156 175.257812 123.101562 C 175.035156 123.171875 174.90625 123.410156 174.976562 123.632812 Z M 175.566406 125.597656 "/>
</g>
</g>
<g clip-path="url(#clip31)" clip-rule="nonzero">
<g clip-path="url(#clip32)" clip-rule="evenodd">
<path style=" stroke:none;fill-rule:evenodd;fill:rgb(92.54902%,96.078431%,99.607843%);fill-opacity:1;" d="M 173.351562 126.730469 C 173.417969 126.953125 173.65625 127.082031 173.878906 127.011719 C 174.105469 126.945312 174.230469 126.707031 174.164062 126.480469 L 173.570312 124.515625 C 173.5 124.292969 173.265625 124.164062 173.039062 124.234375 C 172.816406 124.300781 172.6875 124.539062 172.757812 124.765625 L 173.351562 126.726562 Z M 173.351562 126.730469 "/>
</g>
</g>
<path style=" stroke:none;fill-rule:evenodd;fill:rgb(21.176471%,21.176471%,21.176471%);fill-opacity:1;" d="M 90.523438 116.195312 C 91.566406 116.257812 108.402344 144.507812 136.765625 113 C 136.765625 113 137.242188 112.542969 138.917969 114.304688 L 154.554688 129.773438 C 154.554688 129.773438 159.351562 135.152344 170.222656 123.851562 C 170.222656 123.851562 150.082031 87.5 138.882812 93.09375 C 127.683594 98.6875 114.816406 96.117188 114.816406 96.117188 L 105.613281 105.3125 Z M 90.523438 116.195312 "/>
<path style=" stroke:none;fill-rule:evenodd;fill:rgb(7.45098%,7.45098%,7.45098%);fill-opacity:1;" d="M 156.847656 78.050781 C 157.054688 77.65625 156.96875 77.167969 156.632812 76.871094 L 151.417969 72.558594 C 151.273438 72.425781 151.074219 72.371094 150.882812 72.410156 C 150.691406 72.449219 150.527344 72.574219 150.445312 72.75 L 144.230469 84 C 144.023438 84.394531 144.113281 84.882812 144.445312 85.179688 L 149.660156 89.492188 C 149.804688 89.625 150.003906 89.679688 150.195312 89.640625 C 150.386719 89.605469 150.550781 89.476562 150.636719 89.300781 L 156.847656 78.054688 Z M 156.847656 78.050781 "/>
<path style=" stroke:none;fill-rule:evenodd;fill:rgb(7.45098%,7.45098%,7.45098%);fill-opacity:1;" d="M 148.773438 89.550781 C 149.003906 89.839844 149.359375 89.992188 149.726562 89.960938 C 150.09375 89.929688 150.417969 89.71875 150.59375 89.394531 L 150.242188 88.292969 Z M 148.773438 89.550781 "/>
<path style=" stroke:none;fill-rule:evenodd;fill:rgb(21.960784%,21.960784%,21.960784%);fill-opacity:1;" d="M 156.214844 77.542969 C 156.417969 77.15625 156.332031 76.683594 156.007812 76.390625 L 150.921875 72.1875 C 150.78125 72.058594 150.585938 72.007812 150.398438 72.046875 C 150.210938 72.082031 150.054688 72.207031 149.972656 72.378906 L 143.453125 84.183594 C 143.25 84.570312 143.335938 85.042969 143.660156 85.335938 L 148.746094 89.539062 C 148.890625 89.667969 149.082031 89.71875 149.269531 89.679688 C 149.457031 89.644531 149.613281 89.519531 149.695312 89.347656 Z M 156.214844 77.542969 "/>
<path style=" stroke:none;fill-rule:evenodd;fill:rgb(93.333333%,95.686275%,99.607843%);fill-opacity:1;" d="M 155.527344 77.761719 C 155.703125 77.429688 155.628906 77.019531 155.347656 76.769531 L 150.953125 73.132812 C 150.828125 73.023438 150.660156 72.976562 150.5 73.007812 C 150.339844 73.042969 150.203125 73.148438 150.128906 73.296875 L 144.386719 83.699219 C 144.210938 84.03125 144.285156 84.441406 144.566406 84.691406 L 148.960938 88.328125 C 149.085938 88.4375 149.253906 88.484375 149.414062 88.453125 C 149.574219 88.417969 149.710938 88.3125 149.785156 88.164062 Z M 155.527344 77.761719 "/>
<path style=" stroke:none;fill-rule:evenodd;fill:rgb(59.215686%,72.54902%,87.058824%);fill-opacity:1;" d="M 153.59375 80.320312 C 153.660156 80.199219 153.632812 80.054688 153.53125 79.964844 L 149.050781 76.261719 C 149.007812 76.226562 148.949219 76.210938 148.890625 76.222656 C 148.835938 76.234375 148.785156 76.269531 148.757812 76.320312 L 148.527344 76.746094 C 148.460938 76.863281 148.488281 77.011719 148.589844 77.101562 L 153.070312 80.804688 C 153.113281 80.839844 153.171875 80.855469 153.226562 80.84375 C 153.285156 80.832031 153.332031 80.796875 153.359375 80.742188 Z M 153.59375 80.320312 "/>
<path style=" stroke:none;fill-rule:evenodd;fill:rgb(59.215686%,72.54902%,87.058824%);fill-opacity:1;" d="M 149.863281 87.171875 C 149.953125 87 149.914062 86.789062 149.769531 86.664062 L 147.6875 84.9375 C 147.625 84.878906 147.539062 84.855469 147.457031 84.875 C 147.375 84.890625 147.304688 84.945312 147.269531 85.019531 L 146.929688 85.632812 C 146.839844 85.804688 146.878906 86.015625 147.023438 86.140625 L 149.105469 87.867188 C 149.167969 87.925781 149.253906 87.949219 149.335938 87.929688 C 149.421875 87.914062 149.492188 87.859375 149.527344 87.785156 Z M 149.863281 87.171875 "/>
<path style=" stroke:none;fill-rule:evenodd;fill:rgb(59.215686%,72.54902%,87.058824%);fill-opacity:1;" d="M 153.125 81.351562 C 153.128906 81.347656 153.128906 81.339844 153.125 81.332031 L 148.183594 77.246094 C 148.179688 77.246094 148.179688 77.242188 148.175781 77.242188 C 148.171875 77.242188 148.167969 77.246094 148.167969 77.246094 L 148.15625 77.269531 C 148.148438 77.277344 148.148438 77.285156 148.15625 77.289062 L 153.097656 81.375 C 153.097656 81.378906 153.101562 81.378906 153.105469 81.378906 C 153.109375 81.378906 153.109375 81.378906 153.113281 81.375 Z M 153.125 81.351562 "/>
<path style=" stroke:none;fill-rule:evenodd;fill:rgb(59.215686%,72.54902%,87.058824%);fill-opacity:1;" d="M 152.761719 82.015625 C 152.765625 82.007812 152.765625 82 152.761719 81.996094 L 147.816406 77.90625 C 147.816406 77.90625 147.8125 77.902344 147.808594 77.902344 C 147.808594 77.902344 147.804688 77.90625 147.800781 77.90625 L 147.789062 77.933594 C 147.785156 77.9375 147.785156 77.945312 147.789062 77.953125 L 152.730469 82.039062 C 152.730469 82.039062 152.734375 82.042969 152.738281 82.042969 C 152.742188 82.042969 152.746094 82.039062 152.746094 82.039062 Z M 152.761719 82.015625 "/>
<path style=" stroke:none;fill-rule:evenodd;fill:rgb(59.215686%,72.54902%,87.058824%);fill-opacity:1;" d="M 152.351562 82.757812 C 152.355469 82.753906 152.355469 82.742188 152.351562 82.738281 L 147.40625 78.652344 C 147.40625 78.648438 147.402344 78.648438 147.398438 78.648438 C 147.394531 78.648438 147.394531 78.648438 147.390625 78.652344 L 147.378906 78.675781 C 147.375 78.679688 147.375 78.691406 147.378906 78.695312 L 152.320312 82.78125 C 152.324219 82.785156 152.328125 82.785156 152.328125 82.785156 C 152.332031 82.785156 152.335938 82.785156 152.335938 82.78125 Z M 152.351562 82.757812 "/>
<path style=" stroke:none;fill-rule:evenodd;fill:rgb(59.215686%,72.54902%,87.058824%);fill-opacity:1;" d="M 151.835938 83.6875 C 151.839844 83.683594 151.839844 83.675781 151.835938 83.667969 L 146.894531 79.582031 C 146.890625 79.578125 146.890625 79.578125 146.886719 79.578125 C 146.882812 79.578125 146.878906 79.578125 146.875 79.582031 L 146.863281 79.605469 C 146.859375 79.609375 146.859375 79.617188 146.863281 79.625 L 151.808594 83.710938 C 151.808594 83.714844 151.8125 83.714844 151.816406 83.714844 C 151.820312 83.714844 151.824219 83.714844 151.824219 83.710938 Z M 151.835938 83.6875 "/>
<path style=" stroke:none;fill-rule:evenodd;fill:rgb(59.215686%,72.54902%,87.058824%);fill-opacity:1;" d="M 151.308594 84.644531 C 151.3125 84.636719 151.3125 84.632812 151.308594 84.625 L 146.367188 80.539062 C 146.363281 80.535156 146.363281 80.535156 146.359375 80.535156 C 146.355469 80.535156 146.351562 80.535156 146.351562 80.539062 L 146.335938 80.5625 C 146.332031 80.566406 146.332031 80.574219 146.335938 80.582031 L 151.277344 84.667969 C 151.28125 84.671875 151.285156 84.671875 151.289062 84.671875 C 151.289062 84.671875 151.292969 84.671875 151.296875 84.667969 Z M 151.308594 84.644531 "/>
<path style=" stroke:none;fill-rule:evenodd;fill:rgb(59.215686%,72.54902%,87.058824%);fill-opacity:1;" d="M 150.761719 85.640625 C 150.765625 85.632812 150.765625 85.625 150.761719 85.617188 L 145.820312 81.53125 C 145.816406 81.53125 145.8125 81.527344 145.808594 81.527344 C 145.808594 81.527344 145.804688 81.53125 145.800781 81.53125 L 145.789062 81.554688 C 145.785156 81.5625 145.785156 81.570312 145.789062 81.574219 L 150.730469 85.664062 C 150.734375 85.664062 150.734375 85.667969 150.738281 85.667969 C 150.742188 85.667969 150.746094 85.664062 150.746094 85.664062 Z M 150.761719 85.640625 "/>
<path style=" stroke:none;fill-rule:evenodd;fill:rgb(59.215686%,72.54902%,87.058824%);fill-opacity:1;" d="M 150.234375 86.59375 C 150.238281 86.589844 150.238281 86.578125 150.234375 86.574219 L 145.292969 82.488281 C 145.289062 82.484375 145.285156 82.484375 145.285156 82.484375 C 145.28125 82.484375 145.277344 82.484375 145.273438 82.488281 L 145.261719 82.511719 C 145.257812 82.515625 145.257812 82.523438 145.261719 82.53125 L 150.203125 86.617188 C 150.207031 86.621094 150.207031 86.621094 150.210938 86.621094 C 150.214844 86.621094 150.21875 86.621094 150.222656 86.617188 Z M 150.234375 86.59375 "/>
<path style=" stroke:none;fill-rule:evenodd;fill:rgb(59.215686%,72.54902%,87.058824%);fill-opacity:1;" d="M 146.964844 85.328125 C 146.972656 85.316406 146.96875 85.300781 146.960938 85.292969 L 144.824219 83.527344 C 144.820312 83.527344 144.816406 83.523438 144.808594 83.527344 C 144.804688 83.527344 144.800781 83.53125 144.796875 83.535156 L 144.777344 83.574219 C 144.769531 83.585938 144.773438 83.597656 144.78125 83.605469 L 146.917969 85.371094 C 146.921875 85.375 146.925781 85.378906 146.933594 85.375 C 146.9375 85.375 146.941406 85.371094 146.945312 85.367188 L 146.964844 85.324219 Z M 146.964844 85.328125 "/>
<path style=" stroke:none;fill-rule:evenodd;fill:rgb(59.215686%,72.54902%,87.058824%);fill-opacity:1;" d="M 155.050781 77.8125 C 155.105469 77.707031 155.082031 77.578125 154.992188 77.5 L 152.117188 75.121094 C 152.078125 75.085938 152.023438 75.074219 151.972656 75.082031 C 151.921875 75.09375 151.878906 75.128906 151.855469 75.175781 C 151.800781 75.28125 151.824219 75.410156 151.914062 75.488281 L 154.789062 77.867188 C 154.828125 77.902344 154.882812 77.914062 154.933594 77.90625 C 154.984375 77.894531 155.027344 77.863281 155.050781 77.816406 Z M 155.050781 77.8125 "/>
<path style=" stroke:none;fill-rule:evenodd;fill:rgb(59.215686%,72.54902%,87.058824%);fill-opacity:1;" d="M 154.769531 78.320312 C 154.78125 78.296875 154.773438 78.269531 154.753906 78.25 L 151.632812 75.667969 C 151.621094 75.660156 151.613281 75.65625 151.601562 75.660156 C 151.589844 75.660156 151.578125 75.667969 151.574219 75.679688 C 151.5625 75.703125 151.566406 75.730469 151.585938 75.746094 L 154.710938 78.328125 C 154.71875 78.335938 154.730469 78.339844 154.742188 78.339844 C 154.753906 78.335938 154.761719 78.328125 154.769531 78.320312 Z M 154.769531 78.320312 "/>
<path style=" stroke:none;fill-rule:evenodd;fill:rgb(59.215686%,72.54902%,87.058824%);fill-opacity:1;" d="M 154.582031 78.660156 C 154.59375 78.640625 154.589844 78.609375 154.570312 78.59375 L 151.445312 76.011719 C 151.4375 76.003906 151.425781 76 151.414062 76 C 151.402344 76.003906 151.390625 76.011719 151.386719 76.023438 C 151.375 76.046875 151.378906 76.074219 151.398438 76.089844 L 154.523438 78.671875 C 154.53125 78.679688 154.542969 78.683594 154.554688 78.683594 C 154.566406 78.679688 154.578125 78.671875 154.582031 78.660156 Z M 154.582031 78.660156 "/>
<path style=" stroke:none;fill-rule:evenodd;fill:rgb(59.215686%,72.54902%,87.058824%);fill-opacity:1;" d="M 154.414062 78.964844 C 154.425781 78.941406 154.421875 78.914062 154.402344 78.894531 L 151.277344 76.3125 C 151.269531 76.304688 151.257812 76.300781 151.246094 76.304688 C 151.234375 76.304688 151.226562 76.3125 151.222656 76.324219 C 151.210938 76.347656 151.214844 76.375 151.234375 76.394531 L 154.359375 78.976562 C 154.367188 78.984375 154.378906 78.988281 154.390625 78.984375 C 154.402344 78.980469 154.410156 78.972656 154.414062 78.964844 Z M 154.414062 78.964844 "/>
<path style=" stroke:none;fill-rule:evenodd;fill:rgb(59.215686%,72.54902%,87.058824%);fill-opacity:1;" d="M 154.242188 79.277344 C 154.257812 79.253906 154.25 79.226562 154.230469 79.210938 L 151.109375 76.625 C 151.097656 76.617188 151.085938 76.613281 151.074219 76.617188 C 151.066406 76.621094 151.054688 76.628906 151.050781 76.636719 C 151.039062 76.660156 151.042969 76.6875 151.0625 76.707031 L 154.1875 79.289062 C 154.195312 79.296875 154.207031 79.300781 154.21875 79.296875 C 154.230469 79.296875 154.238281 79.289062 154.242188 79.277344 Z M 154.242188 79.277344 "/>
<path style="fill-rule:evenodd;fill:rgb(100%,100%,100%);fill-opacity:1;stroke-width:2.551;stroke-linecap:round;stroke-linejoin:round;stroke:rgb(59.215686%,72.54902%,87.058824%);stroke-opacity:1;stroke-miterlimit:4;" d="M 2188.801286 1080.308433 C 2188.846249 1080.218812 2188.825811 1080.108824 2188.752235 1080.043645 L 2187.427868 1078.951904 C 2187.39108 1078.919315 2187.346117 1078.907094 2187.305242 1078.915241 C 2187.260278 1078.927462 2187.223491 1078.955978 2187.203053 1078.996714 L 2186.103501 1080.97244 C 2186.058538 1081.06206 2186.078976 1081.172049 2186.152552 1081.237228 L 2187.476919 1082.328969 C 2187.509619 1082.361558 2187.554582 1082.373779 2187.599545 1082.365632 C 2187.644508 1082.353411 2187.681296 1082.324895 2187.701734 1082.284158 Z M 2188.801286 1080.308433 " transform="matrix(0.955645,0,0,0.958904,-1940.010327,-960.904384)"/>
<path style=" stroke:none;fill-rule:evenodd;fill:rgb(59.215686%,72.54902%,87.058824%);fill-opacity:1;" d="M 150.199219 75.742188 L 150.175781 76.707031 L 150.5 76.964844 C 150.5 76.964844 150.570312 77.007812 150.675781 76.839844 L 151.113281 76.054688 L 151.214844 75.273438 L 150.203125 75.742188 Z M 150.199219 75.742188 "/>
<path style=" stroke:none;fill-rule:evenodd;fill:rgb(59.215686%,72.54902%,87.058824%);fill-opacity:1;" d="M 150.394531 74.175781 C 150.480469 74.261719 150.496094 74.394531 150.4375 74.5 C 150.417969 74.546875 150.375 74.585938 150.324219 74.597656 C 150.273438 74.613281 150.21875 74.601562 150.179688 74.570312 C 150.09375 74.484375 150.074219 74.351562 150.136719 74.25 C 150.15625 74.199219 150.195312 74.164062 150.246094 74.148438 C 150.296875 74.132812 150.351562 74.144531 150.394531 74.175781 Z M 150.394531 74.175781 "/>
<path style=" stroke:none;fill-rule:evenodd;fill:rgb(59.215686%,72.54902%,87.058824%);fill-opacity:1;" d="M 149.265625 75.441406 L 150.179688 75.078125 L 150.148438 76.714844 C 150.148438 76.726562 150.15625 76.734375 150.164062 76.726562 C 150.171875 76.71875 150.179688 76.707031 150.179688 76.695312 L 150.210938 75.042969 C 150.210938 75.035156 150.210938 75.027344 150.199219 75.03125 L 149.273438 75.394531 C 149.261719 75.402344 149.257812 75.414062 149.253906 75.425781 C 149.253906 75.4375 149.253906 75.445312 149.265625 75.441406 Z M 149.265625 75.441406 "/>
<path style=" stroke:none;fill-rule:evenodd;fill:rgb(100%,100%,100%);fill-opacity:1;" d="M 146.6875 86.667969 C 146.816406 86.800781 146.84375 87.007812 146.746094 87.171875 C 146.714844 87.246094 146.652344 87.304688 146.574219 87.328125 C 146.492188 87.355469 146.410156 87.339844 146.339844 87.289062 C 146.210938 87.15625 146.183594 86.949219 146.28125 86.785156 C 146.3125 86.710938 146.375 86.652344 146.453125 86.628906 C 146.535156 86.605469 146.617188 86.617188 146.6875 86.667969 Z M 146.6875 86.667969 "/>
<path style=" stroke:none;fill-rule:evenodd;fill:rgb(99.607843%,70.196078%,61.568627%);fill-opacity:1;" d="M 140.875 92.5625 C 140.875 92.5625 141.136719 91.664062 143.757812 91.207031 C 144.710938 91.039062 148.058594 91.078125 149.507812 90.320312 C 154.878906 87.519531 156.316406 81.789062 155.253906 82.207031 C 151.152344 83.828125 152.480469 85.535156 148.890625 86.289062 C 147.945312 86.488281 147.367188 86.527344 147.539062 86.441406 C 148.058594 86.175781 150.128906 84.359375 149.449219 84.085938 C 147.835938 83.441406 145.140625 86.980469 142.777344 87.027344 C 141.796875 87.046875 138.867188 87.582031 138.640625 88.308594 C 137.878906 90.765625 140.878906 92.5625 140.878906 92.5625 Z M 140.875 92.5625 "/>
<path style=" stroke:none;fill-rule:evenodd;fill:rgb(87.058824%,50.980392%,42.352941%);fill-opacity:1;" d="M 149.46875 84.609375 C 149.613281 84.359375 149.636719 84.164062 149.445312 84.085938 C 147.832031 83.4375 145.136719 86.980469 142.773438 87.027344 C 141.792969 87.046875 138.863281 87.582031 138.636719 88.308594 C 137.875 90.765625 140.875 92.5625 140.875 92.5625 C 140.042969 91.84375 138.894531 90.503906 139.402344 88.875 C 139.625 88.148438 142.554688 87.613281 143.539062 87.597656 C 145.566406 87.554688 147.84375 84.933594 149.46875 84.609375 Z M 155.550781 82.96875 C 155.636719 82.40625 155.535156 82.117188 155.253906 82.207031 C 151.742188 83.347656 151.804688 86.214844 147.5625 86.46875 C 148.394531 86.46875 150.800781 86.289062 151.5625 85.691406 C 153.710938 83.996094 153.65625 83.429688 155.550781 82.96875 Z M 155.550781 82.96875 "/>
<path style=" stroke:none;fill-rule:evenodd;fill:rgb(8.235294%,19.607843%,53.72549%);fill-opacity:1;" d="M 116.414062 70.914062 L 122.066406 78.765625 C 122.671875 79.40625 123.523438 79.753906 124.40625 79.722656 C 125.636719 79.515625 139.496094 79.644531 139.496094 79.644531 C 140.269531 80.453125 141.554688 85.070312 140.339844 87.449219 C 138.402344 91.253906 119.917969 91.660156 119.179688 92.039062 C 118.445312 92.417969 114.46875 78.15625 115.238281 72.15625 C 116.011719 66.15625 116.414062 70.910156 116.414062 70.910156 Z M 116.414062 70.914062 "/>
<path style=" stroke:none;fill-rule:evenodd;fill:rgb(5.490196%,22.352941%,63.529412%);fill-opacity:1;" d="M 109.074219 57.148438 C 109.074219 57.148438 117.808594 59.433594 120.226562 84.539062 C 120.226562 84.539062 120.84375 88.679688 122.421875 88.769531 C 125.992188 88.96875 141.625 85.742188 141.625 85.742188 C 141.625 85.742188 146.027344 91.066406 142.851562 96.839844 C 142.851562 96.839844 117.921875 110.457031 114.019531 102.550781 C 114.019531 102.550781 106.015625 120.464844 90.476562 118.726562 C 87.503906 115.859375 75.9375 68.0625 109.070312 57.148438 Z M 109.074219 57.148438 "/>
<g clip-path="url(#clip33)" clip-rule="nonzero">
<g clip-path="url(#clip34)" clip-rule="evenodd">
<path style=" stroke:none;fill-rule:evenodd;fill:rgb(8.235294%,19.607843%,53.72549%);fill-opacity:1;" d="M 103.15625 74.546875 C 103.15625 74.546875 106.644531 94.539062 114.050781 102.574219 L 112.636719 106.839844 C 112.636719 106.839844 105.125 101.5625 103.15625 74.546875 Z M 103.15625 74.546875 "/>
</g>
</g>
<path style="fill-rule:evenodd;fill:rgb(100%,100%,100%);fill-opacity:1;stroke-width:2.733;stroke-linecap:round;stroke-linejoin:round;stroke:rgb(54.117647%,61.960784%,89.803922%);stroke-opacity:1;stroke-miterlimit:4;" d="M 2324.508222 1060.658516 L 2324.508222 1076.892054 C 2324.450996 1077.58865 2323.846038 1078.106004 2323.147066 1078.057121 L 2287.474994 1078.057121 L 2287.474994 1078.097857 L 2283.759408 1082.004498 L 2283.759408 1060.658516 C 2283.816634 1059.96192 2284.421592 1059.440491 2285.120563 1059.489375 L 2323.142979 1059.489375 C 2323.84195 1059.440491 2324.450996 1059.96192 2324.508222 1060.658516 Z M 2324.508222 1060.658516 " transform="matrix(0.955645,0,0,0.958904,-1995.772222,-931.292466)"/>
<path style=" stroke:none;fill-rule:nonzero;fill:rgb(54.117647%,61.960784%,89.803922%);fill-opacity:1;" d="M 192.292969 88.050781 L 220.039062 88.050781 C 220.257812 88.050781 220.4375 88.230469 220.4375 88.453125 C 220.4375 88.675781 220.257812 88.855469 220.039062 88.855469 L 192.292969 88.855469 C 192.070312 88.855469 191.890625 88.675781 191.890625 88.453125 C 191.890625 88.230469 192.070312 88.050781 192.292969 88.050781 Z M 192.292969 88.050781 "/>
<path style=" stroke:none;fill-rule:nonzero;fill:rgb(54.117647%,61.960784%,89.803922%);fill-opacity:1;" d="M 192.292969 91.300781 L 220.039062 91.300781 C 220.257812 91.300781 220.4375 91.480469 220.4375 91.703125 C 220.4375 91.925781 220.257812 92.105469 220.039062 92.105469 L 192.292969 92.105469 C 192.070312 92.105469 191.890625 91.925781 191.890625 91.703125 C 191.890625 91.480469 192.070312 91.300781 192.292969 91.300781 Z M 192.292969 91.300781 "/>
<path style=" stroke:none;fill-rule:nonzero;fill:rgb(54.117647%,61.960784%,89.803922%);fill-opacity:1;" d="M 192.292969 94.550781 L 220.039062 94.550781 C 220.257812 94.550781 220.4375 94.730469 220.4375 94.953125 C 220.4375 95.175781 220.257812 95.355469 220.039062 95.355469 L 192.292969 95.355469 C 192.070312 95.355469 191.890625 95.175781 191.890625 94.953125 C 191.890625 94.730469 192.070312 94.550781 192.292969 94.550781 Z M 192.292969 94.550781 "/>
<path style=" stroke:none;fill-rule:nonzero;fill:rgb(54.117647%,61.960784%,89.803922%);fill-opacity:1;" d="M 192.292969 97.800781 L 205.882812 97.800781 C 206.105469 97.800781 206.285156 97.980469 206.285156 98.203125 C 206.285156 98.425781 206.105469 98.605469 205.882812 98.605469 L 192.292969 98.605469 C 192.070312 98.605469 191.890625 98.425781 191.890625 98.203125 C 191.890625 97.980469 192.070312 97.800781 192.292969 97.800781 Z M 192.292969 97.800781 "/>
<path style=" stroke:none;fill-rule:nonzero;fill:rgb(54.117647%,61.960784%,89.803922%);fill-opacity:1;" d="M 65.300781 11.507812 C 64.703125 11.507812 64.21875 11.996094 64.21875 12.59375 L 64.21875 36.5 C 64.21875 37.101562 64.703125 37.585938 65.300781 37.585938 L 89.125 37.585938 C 89.722656 37.585938 90.207031 37.101562 90.207031 36.5 C 90.191406 22.703125 79.050781 11.523438 65.300781 11.507812 Z M 65.300781 11.507812 "/>
<path style=" stroke:none;fill-rule:nonzero;fill:rgb(59.215686%,72.54902%,87.058824%);fill-opacity:1;" d="M 76.988281 57.5625 L 62.054688 38.300781 L 62.054688 14.769531 C 62.054688 14.167969 61.570312 13.683594 60.972656 13.683594 C 48.433594 13.683594 38.226562 24.894531 38.226562 38.671875 C 38.242188 52.46875 49.382812 63.648438 63.132812 63.664062 C 68.125 64.054688 73.0625 62.394531 76.8125 59.070312 C 77.269531 58.699219 77.34375 58.03125 76.988281 57.5625 Z M 76.988281 57.5625 "/>
<path style="fill-rule:nonzero;fill:rgb(100%,100%,100%);fill-opacity:1;stroke-width:2.733;stroke-linecap:round;stroke-linejoin:round;stroke:rgb(54.117647%,61.960784%,89.803922%);stroke-opacity:1;stroke-miterlimit:4;" d="M 1740.729603 887.240719 L 1718.068211 887.240719 C 1717.630843 887.240719 1717.23435 887.493286 1717.046323 887.884357 C 1716.858295 888.279502 1716.911434 888.747973 1717.1853 889.086087 L 1731.91684 907.323866 C 1732.113042 907.568286 1732.403258 907.719011 1732.718 907.743453 L 1732.795664 907.743453 C 1733.081792 907.743453 1733.359746 907.637538 1733.568211 907.442002 C 1738.849329 902.504725 1741.849593 895.608018 1741.861855 888.37727 C 1741.861855 887.754 1741.354999 887.244792 1740.729603 887.240719 Z M 1740.729603 887.240719 " transform="matrix(0.955645,0,0,0.958904,-1574.394823,-811.020959)"/>
<path style="fill-rule:evenodd;fill:rgb(92.156863%,96.470588%,99.215686%);fill-opacity:1;stroke-width:2.733;stroke-linecap:round;stroke-linejoin:round;stroke:rgb(54.117647%,61.960784%,89.803922%);stroke-opacity:1;stroke-miterlimit:4;" d="M 1533.878879 1077.583522 C 1533.878879 1075.831848 1532.460498 1074.414214 1530.711025 1074.414214 L 1498.411184 1074.414214 C 1496.661711 1074.414214 1495.24333 1075.831848 1495.24333 1077.583522 L 1495.24333 1094.468846 C 1495.24333 1096.216446 1496.661711 1097.63408 1498.411184 1097.63408 L 1530.711025 1097.63408 C 1532.460498 1097.63408 1533.878879 1096.216446 1533.878879 1094.468846 Z M 1533.878879 1077.583522 " transform="matrix(0.955645,0,0,0.958904,-1427.61346,-957.385205)"/>
<path style=" stroke:none;fill-rule:evenodd;fill:rgb(54.117647%,61.960784%,89.803922%);fill-opacity:1;" d="M 19.683594 77.734375 C 23.203125 77.734375 26.058594 80.597656 26.058594 84.132812 C 26.058594 87.664062 23.203125 90.53125 19.683594 90.53125 C 16.160156 90.53125 13.304688 87.664062 13.304688 84.132812 C 13.308594 80.597656 16.160156 77.734375 19.683594 77.734375 Z M 19.683594 77.734375 "/>
<path style=" stroke:none;fill-rule:evenodd;fill:rgb(100%,100%,100%);fill-opacity:1;" d="M 24.535156 84.347656 L 16.933594 88.160156 L 16.933594 80.535156 Z M 24.535156 84.347656 "/>
<path style="fill-rule:nonzero;fill:rgb(100%,100%,100%);fill-opacity:1;stroke-width:2.733;stroke-linecap:round;stroke-linejoin:round;stroke:rgb(54.117647%,61.960784%,89.803922%);stroke-opacity:1;stroke-miterlimit:4;" d="M 1945.318601 700.858056 L 1916.70982 700.858056 C 1916.068074 700.858056 1915.544867 700.340701 1915.544867 699.697063 L 1915.544867 671.087743 C 1915.544867 670.444105 1916.068074 669.92675 1916.70982 669.92675 L 1945.318601 669.92675 C 1945.960347 669.92675 1946.479466 670.444105 1946.479466 671.087743 L 1946.479466 699.701136 C 1946.479466 700.340701 1945.956259 700.858056 1945.318601 700.858056 Z M 1945.318601 700.858056 " transform="matrix(0.955645,0,0,0.958904,-1708.963996,-641.083014)"/>
<path style=" stroke:none;fill-rule:nonzero;fill:rgb(59.215686%,72.54902%,87.058824%);fill-opacity:1;" d="M 129.910156 25.710938 L 127.292969 25.710938 L 127.292969 21.109375 C 127.292969 20.859375 127.496094 20.660156 127.742188 20.660156 L 129.464844 20.660156 C 129.710938 20.660156 129.910156 20.859375 129.910156 21.109375 Z M 129.910156 25.710938 "/>
<path style=" stroke:none;fill-rule:nonzero;fill:rgb(59.215686%,72.54902%,87.058824%);fill-opacity:1;" d="M 135.46875 25.710938 L 132.851562 25.710938 L 132.851562 17.011719 C 132.851562 16.761719 133.054688 16.5625 133.300781 16.5625 L 135.023438 16.5625 C 135.269531 16.5625 135.46875 16.761719 135.46875 17.011719 Z M 135.46875 25.710938 "/>
<path style=" stroke:none;fill-rule:nonzero;fill:rgb(59.215686%,72.54902%,87.058824%);fill-opacity:1;" d="M 141.027344 25.710938 L 138.410156 25.710938 L 138.410156 12.910156 C 138.410156 12.664062 138.609375 12.460938 138.855469 12.460938 L 140.578125 12.460938 C 140.824219 12.460938 141.027344 12.664062 141.027344 12.910156 Z M 141.027344 25.710938 "/>
<path style=" stroke:none;fill-rule:nonzero;fill:rgb(59.215686%,72.54902%,87.058824%);fill-opacity:1;" d="M 146.582031 25.710938 L 143.964844 25.710938 L 143.964844 8.8125 C 143.964844 8.566406 144.164062 8.363281 144.414062 8.363281 L 146.132812 8.363281 C 146.378906 8.363281 146.582031 8.566406 146.582031 8.8125 Z M 146.582031 25.710938 "/>
<path style=" stroke:none;fill-rule:nonzero;fill:rgb(54.117647%,61.960784%,89.803922%);fill-opacity:1;" d="M 150.070312 1.3125 L 122.730469 1.3125 C 122.117188 1.3125 121.617188 1.808594 121.617188 2.425781 L 121.617188 5.753906 L 151.179688 5.753906 L 151.179688 2.425781 C 151.179688 1.808594 150.683594 1.308594 150.070312 1.3125 Z M 150.070312 1.3125 "/>
<path style=" stroke:none;fill-rule:nonzero;fill:rgb(27.45098%,81.960784%,75.294118%);fill-opacity:1;" d="M 143.769531 3.53125 C 143.769531 3.84375 143.519531 4.09375 143.210938 4.09375 C 142.902344 4.09375 142.648438 3.84375 142.648438 3.53125 C 142.648438 3.222656 142.902344 2.96875 143.210938 2.96875 C 143.519531 2.96875 143.769531 3.222656 143.769531 3.53125 Z M 143.769531 3.53125 "/>
<path style=" stroke:none;fill-rule:nonzero;fill:rgb(27.45098%,81.960784%,75.294118%);fill-opacity:1;" d="M 146.453125 3.53125 C 146.453125 3.839844 146.203125 4.09375 145.894531 4.089844 C 145.585938 4.089844 145.335938 3.839844 145.335938 3.53125 C 145.335938 3.21875 145.585938 2.96875 145.894531 2.96875 C 146.042969 2.96875 146.183594 3.027344 146.289062 3.132812 C 146.394531 3.238281 146.453125 3.382812 146.453125 3.53125 Z M 146.453125 3.53125 "/>
<path style=" stroke:none;fill-rule:nonzero;fill:rgb(27.45098%,81.960784%,75.294118%);fill-opacity:1;" d="M 149.136719 3.53125 C 149.136719 3.84375 148.886719 4.09375 148.574219 4.09375 C 148.265625 4.09375 148.015625 3.84375 148.015625 3.53125 C 148.015625 3.222656 148.265625 2.96875 148.574219 2.96875 C 148.886719 2.96875 149.136719 3.222656 149.136719 3.53125 Z M 149.136719 3.53125 "/>
<path style=" stroke:none;fill-rule:nonzero;fill:rgb(69.803922%,79.607843%,91.372549%);fill-opacity:1;" d="M 148.441406 26.160156 L 125.316406 26.160156 C 124.539062 26.160156 123.914062 25.53125 123.914062 24.753906 L 123.914062 9.90625 C 123.90625 9.742188 123.988281 9.585938 124.128906 9.503906 C 124.269531 9.417969 124.445312 9.417969 124.585938 9.503906 C 124.730469 9.585938 124.8125 9.742188 124.804688 9.90625 L 124.804688 24.75 C 124.804688 25.035156 125.035156 25.265625 125.316406 25.265625 L 148.441406 25.265625 C 148.6875 25.265625 148.886719 25.464844 148.886719 25.710938 C 148.886719 25.960938 148.6875 26.160156 148.441406 26.160156 Z M 148.441406 26.160156 "/>
<path style=" stroke:none;fill-rule:nonzero;fill:rgb(92.156863%,96.470588%,99.215686%);fill-opacity:1;" d="M 135.058594 3.976562 L 124.195312 3.976562 C 124.03125 3.984375 123.878906 3.902344 123.792969 3.761719 C 123.707031 3.621094 123.707031 3.441406 123.792969 3.300781 C 123.878906 3.160156 124.03125 3.078125 124.195312 3.082031 L 135.058594 3.082031 C 135.296875 3.09375 135.484375 3.292969 135.484375 3.53125 C 135.484375 3.769531 135.296875 3.96875 135.058594 3.976562 Z M 135.058594 3.976562 "/>
<path style=" stroke:none;fill-rule:nonzero;fill:rgb(92.156863%,96.470588%,99.215686%);fill-opacity:1;" d="M 143.769531 3.53125 C 143.769531 3.84375 143.519531 4.09375 143.210938 4.09375 C 142.898438 4.09375 142.648438 3.84375 142.648438 3.53125 C 142.648438 3.222656 142.898438 2.96875 143.210938 2.96875 C 143.519531 2.96875 143.769531 3.222656 143.769531 3.53125 Z M 143.769531 3.53125 "/>
<path style=" stroke:none;fill-rule:nonzero;fill:rgb(92.156863%,96.470588%,99.215686%);fill-opacity:1;" d="M 146.453125 3.53125 C 146.453125 3.839844 146.203125 4.09375 145.894531 4.089844 C 145.585938 4.089844 145.335938 3.839844 145.335938 3.53125 C 145.335938 3.21875 145.585938 2.96875 145.894531 2.96875 C 146.042969 2.96875 146.183594 3.027344 146.289062 3.132812 C 146.394531 3.238281 146.453125 3.382812 146.453125 3.53125 Z M 146.453125 3.53125 "/>
<path style=" stroke:none;fill-rule:nonzero;fill:rgb(92.156863%,96.470588%,99.215686%);fill-opacity:1;" d="M 149.136719 3.53125 C 149.136719 3.84375 148.882812 4.09375 148.574219 4.09375 C 148.265625 4.09375 148.015625 3.84375 148.015625 3.53125 C 148.015625 3.222656 148.265625 2.96875 148.574219 2.96875 C 148.882812 2.96875 149.136719 3.222656 149.136719 3.53125 Z M 149.136719 3.53125 "/>
<path style=" stroke:none;fill-rule:nonzero;fill:rgb(54.117647%,61.960784%,89.803922%);fill-opacity:1;" d="M 147.214844 27.445312 C 147.097656 27.445312 146.984375 27.398438 146.898438 27.316406 L 144.691406 25.101562 C 144.53125 24.925781 144.535156 24.652344 144.703125 24.480469 C 144.875 24.308594 145.148438 24.304688 145.324219 24.46875 L 147.53125 26.683594 C 147.660156 26.808594 147.699219 27.003906 147.628906 27.171875 C 147.558594 27.339844 147.394531 27.449219 147.214844 27.449219 Z M 147.214844 27.445312 "/>
<path style=" stroke:none;fill-rule:nonzero;fill:rgb(54.117647%,61.960784%,89.803922%);fill-opacity:1;" d="M 147.007812 20.46875 C 147.007812 23.960938 144.191406 26.789062 140.710938 26.789062 C 137.234375 26.789062 134.414062 23.960938 134.414062 20.46875 C 134.414062 16.980469 137.234375 14.148438 140.710938 14.148438 C 144.191406 14.148438 147.007812 16.980469 147.007812 20.46875 Z M 147.007812 20.46875 "/>
<path style="fill-rule:nonzero;fill:rgb(100%,100%,100%);fill-opacity:1;stroke-width:2.733;stroke-linecap:round;stroke-linejoin:round;stroke:rgb(54.117647%,61.960784%,89.803922%);stroke-opacity:1;stroke-miterlimit:4;" d="M 2006.882026 756.300982 C 2006.882026 759.038482 2004.662485 761.258627 2001.923825 761.258627 C 1999.185165 761.258627 1996.965623 759.038482 1996.965623 756.300982 C 1996.965623 753.563482 1999.185165 751.343337 2001.923825 751.343337 C 2004.662485 751.343337 2006.882026 753.563482 2006.882026 756.300982 Z M 2006.882026 756.300982 " transform="matrix(0.955645,0,0,0.958904,-1772.417879,-704.75137)"/>
<path style=" stroke:none;fill-rule:nonzero;fill:rgb(69.803922%,79.607843%,91.372549%);fill-opacity:1;" d="M 144.0625 17.109375 C 142.765625 15.808594 140.839844 15.375 139.113281 15.996094 C 140.996094 16.671875 142.253906 18.460938 142.253906 20.46875 C 142.253906 22.476562 140.996094 24.269531 139.113281 24.945312 C 141.199219 25.695312 143.527344 24.890625 144.710938 23.011719 C 145.898438 21.132812 145.628906 18.683594 144.0625 17.109375 Z M 144.0625 17.109375 "/>
<path style=" stroke:none;fill-rule:nonzero;fill:rgb(54.117647%,61.960784%,89.803922%);fill-opacity:1;" d="M 151.066406 29.847656 L 150.054688 30.863281 C 149.984375 30.933594 149.886719 30.976562 149.78125 30.976562 C 149.679688 30.976562 149.582031 30.933594 149.511719 30.863281 L 146.007812 27.347656 C 145.933594 27.273438 145.894531 27.175781 145.894531 27.074219 C 145.894531 26.96875 145.933594 26.871094 146.007812 26.800781 L 147.019531 25.785156 C 147.089844 25.710938 147.1875 25.671875 147.289062 25.671875 C 147.394531 25.671875 147.492188 25.710938 147.5625 25.785156 L 151.066406 29.300781 C 151.140625 29.371094 151.179688 29.46875 151.179688 29.574219 C 151.179688 29.675781 151.140625 29.773438 151.066406 29.847656 Z M 151.066406 29.847656 "/>
</g>
</svg>
