<svg xmlns="http://www.w3.org/2000/svg" xmlns:xlink="http://www.w3.org/1999/xlink" width="247.533" height="146.367" viewBox="0 0 247.533 146.367">
  <defs>
    <clipPath id="clip-path">
      <path id="Trazado_156" data-name="Trazado 156" d="M2215.932,841.172a3.875,3.875,0,0,0-3.874-3.874h-69.422a3.875,3.875,0,0,0-3.874,3.874v26.454a3.875,3.875,0,0,0,3.874,3.874h69.422a3.875,3.875,0,0,0,3.874-3.874V841.172Z" transform="translate(-2138.762 -837.298)" fill="none" clip-rule="evenodd"/>
    </clipPath>
    <clipPath id="clip-path-2">
      <path id="Trazado_185" data-name="Trazado 185" d="M1758.555,1194.35c-12.084-5.922-20.836-33.176-7.792-45.663,19.352-18.527,32.31,2.014,33.411,4.3,2.26,4.7,11.656,19.912,21.915,22.446,12.507,3.089,9.8,13.847,2.754,18.288-10.213,6.436-36.038,7.608-50.288.625Z" transform="translate(-1744.285 -1141.011)" fill="none" clip-rule="evenodd"/>
    </clipPath>
    <clipPath id="clip-path-3">
      <path id="Trazado_203" data-name="Trazado 203" d="M2238.737,1319.015c3.217-2.737,2.575-3.126,3.462-5.164,3.593,1.679,11.66-6.3,16.191-4.25,1.741.788,1.329,4.1-.668,6.017-6.026,4.787-12.1,9.552-18.775,14a2.269,2.269,0,0,1-3.017-.856l-2.731-4.07c-.752-1.123-1.014-2.9-.04-3.591a11.334,11.334,0,0,0,5.578-2.081Z" transform="translate(-2232.527 -1309.261)" fill="none" clip-rule="evenodd"/>
    </clipPath>
    <clipPath id="clip-path-4">
      <path id="Trazado_213" data-name="Trazado 213" d="M2257.631,1356.447c3.3-2.632,2.674-3.042,3.626-5.051,3.536,1.793,11.856-5.923,16.319-3.729,1.714.843,1.2,4.141-.861,5.993-6.176,4.592-12.4,9.159-19.215,13.386a2.269,2.269,0,0,1-2.987-.953l-2.6-4.155c-.717-1.147-.92-2.932.074-3.591a11.338,11.338,0,0,0,5.643-1.9Z" transform="translate(-2251.309 -1347.271)" fill="none" clip-rule="evenodd"/>
    </clipPath>
    <clipPath id="clip-path-5">
      <path id="Trazado_244" data-name="Trazado 244" d="M1852.8,985.517s9.138,2.384,11.668,28.566c0,0,.648,4.319,2.3,4.412,3.733.209,20.092-3.157,20.092-3.157s4.609,5.552,1.284,11.573c0,0-26.087,14.2-30.168,5.956,0,0-8.376,18.681-24.638,16.87-3.108-2.992-15.215-52.836,19.457-64.219Z" transform="translate(-1828.763 -985.517)" fill="none" clip-rule="evenodd"/>
    </clipPath>
  </defs>
  <g id="Grupo_80" data-name="Grupo 80" transform="translate(1.367 1.367)">
    <g id="Grupo_59" data-name="Grupo 59" transform="translate(168.997 30.882)">
      <path id="Trazado_154" data-name="Trazado 154" d="M2215.932,841.172a3.875,3.875,0,0,0-3.874-3.874h-69.422a3.875,3.875,0,0,0-3.874,3.874v26.454a3.875,3.875,0,0,0,3.874,3.874h69.422a3.875,3.875,0,0,0,3.874-3.874V841.172Z" transform="translate(-2138.762 -837.298)" fill="#b1cbe8" fill-rule="evenodd"/>
      <g id="Grupo_58" data-name="Grupo 58" transform="translate(0 0)">
        <g id="Grupo_57" data-name="Grupo 57" clip-path="url(#clip-path)">
          <path id="Trazado_155" data-name="Trazado 155" d="M2215.931,837.3h-77.169v7.584h77.169V837.3Z" transform="translate(-2138.762 -837.298)" fill="#8a9ee5" fill-rule="evenodd"/>
        </g>
      </g>
      <path id="Trazado_157" data-name="Trazado 157" d="M2274.788,912.645l7.216,5.519a.211.211,0,0,0,.257-.336l-7.216-5.519a.211.211,0,0,0-.257.336Z" transform="translate(-2249.623 -898.433)" fill="#8a9ee5" fill-rule="evenodd"/>
      <path id="Trazado_158" data-name="Trazado 158" d="M2204.574,918.33l17.771,5.812a.211.211,0,1,0,.131-.4l-17.771-5.812a.211.211,0,0,0-.131.4Z" transform="translate(-2192.313 -903.042)" fill="#8a9ee5" fill-rule="evenodd"/>
      <path id="Trazado_159" data-name="Trazado 159" d="M2184.6,952.042l21.827,2.371a.211.211,0,0,0,.046-.42l-21.828-2.371a.211.211,0,1,0-.045.421Z" transform="translate(-2175.989 -930.527)" fill="#8a9ee5" fill-rule="evenodd"/>
      <path id="Trazado_160" data-name="Trazado 160" d="M2263.5,960.621l10.4-10.5a.211.211,0,0,0-.3-.3l-10.4,10.5a.212.212,0,0,0,.3.3Z" transform="translate(-2240.193 -929.012)" fill="#8a9ee5" fill-rule="evenodd"/>
      <path id="Trazado_161" data-name="Trazado 161" d="M2330.495,913.188l10.4-10.5a.211.211,0,0,0-.3-.3l-10.4,10.5a.211.211,0,1,0,.3.3Z" transform="translate(-2294.824 -890.331)" fill="#8a9ee5" fill-rule="evenodd"/>
      <path id="Trazado_162" data-name="Trazado 162" d="M2353.053,923.948l21.622-6.254a.211.211,0,0,0-.118-.406l-21.621,6.254a.211.211,0,0,0,.117.406Z" transform="translate(-2313.295 -902.522)" fill="#8a9ee5" fill-rule="evenodd"/>
      <path id="Trazado_163" data-name="Trazado 163" d="M2425.442,931.115l15.763,3.664a.212.212,0,0,0,.1-.412l-15.763-3.664a.212.212,0,0,0-.1.412Z" transform="translate(-2372.414 -913.465)" fill="#8a9ee5" fill-rule="evenodd"/>
      <path id="Trazado_164" data-name="Trazado 164" d="M2357.861,965.392l-2.452-6.238h9.787a.211.211,0,0,0,0-.423h-10.1a.211.211,0,0,0-.2.289l2.566,6.526a.211.211,0,0,0,.394-.155Z" transform="translate(-2315.011 -936.326)" fill="#8a9ee5" fill-rule="evenodd"/>
      <path id="Trazado_165" data-name="Trazado 165" d="M2420.452,966.558l-2.185-6.367,8.536,2.787a.212.212,0,0,0,.131-.4l-8.939-2.918a.212.212,0,0,0-.266.27l2.323,6.768a.211.211,0,1,0,.4-.137Z" transform="translate(-2366.248 -937.073)" fill="#8a9ee5" fill-rule="evenodd"/>
      <path id="Trazado_166" data-name="Trazado 166" d="M2209.452,964.378l4.935-5.756a.212.212,0,0,0-.322-.275l-4.935,5.757a.211.211,0,1,0,.321.275Z" transform="translate(-2196.107 -935.952)" fill="#8a9ee5" fill-rule="evenodd"/>
      <path id="Trazado_167" data-name="Trazado 167" d="M2311.074,930.468a1.121,1.121,0,0,0-1.12-1.12H2298.53a1.121,1.121,0,0,0-1.12,1.12v5.971a1.121,1.121,0,0,0,1.12,1.12h11.424a1.121,1.121,0,0,0,1.12-1.12v-5.971Z" transform="translate(-2268.138 -912.364)" fill="#ebf6fd" fill-rule="evenodd"/>
      <path id="Trazado_168" data-name="Trazado 168" d="M2172.212,889.247a.8.8,0,0,0-.8-.8h-10.52a.8.8,0,0,0-.8.8v4.259a.8.8,0,0,0,.8.8h10.52a.8.8,0,0,0,.8-.8v-4.259Z" transform="translate(-2156.158 -879.01)" fill="#fff" fill-rule="evenodd"/>
      <path id="Trazado_169" data-name="Trazado 169" d="M2257.5,899.034a.55.55,0,0,0-.55-.55h-6.4a.55.55,0,0,0-.55.55v2.931a.55.55,0,0,0,.55.55h6.4a.55.55,0,0,0,.55-.55v-2.931Z" transform="translate(-2229.476 -887.195)" fill="#fff" fill-rule="evenodd"/>
      <path id="Trazado_170" data-name="Trazado 170" d="M2370.247,894.28a.553.553,0,0,0-.553-.553h-6.562a.553.553,0,0,0-.552.553v2.946a.553.553,0,0,0,.552.553h6.562a.553.553,0,0,0,.553-.553V894.28Z" transform="translate(-2321.283 -883.315)" fill="#fff" fill-rule="evenodd"/>
      <path id="Trazado_171" data-name="Trazado 171" d="M2452.338,891.172a.769.769,0,0,0-.769-.769h-13.937a.77.77,0,0,0-.769.769v4.1a.77.77,0,0,0,.769.769h13.937a.769.769,0,0,0,.769-.769v-4.1Z" transform="translate(-2381.861 -880.605)" fill="#fff" fill-rule="evenodd"/>
      <path id="Trazado_172" data-name="Trazado 172" d="M2513.426,939.8a.515.515,0,0,0-.515-.514h-5.246a.514.514,0,0,0-.514.514v2.742a.514.514,0,0,0,.514.514h5.246a.515.515,0,0,0,.515-.514V939.8Z" transform="translate(-2439.181 -920.464)" fill="#fff" fill-rule="evenodd"/>
      <path id="Trazado_173" data-name="Trazado 173" d="M2404.945,951.609a.429.429,0,0,0-.428-.428h-4.384a.428.428,0,0,0-.427.428v2.282a.428.428,0,0,0,.427.428h4.384a.428.428,0,0,0,.428-.428v-2.282Z" transform="translate(-2351.56 -930.169)" fill="#fff" fill-rule="evenodd"/>
      <path id="Trazado_174" data-name="Trazado 174" d="M2465.438,968.6a.514.514,0,0,0-.514-.514h-5.246a.515.515,0,0,0-.514.514v2.742a.515.515,0,0,0,.514.515h5.246a.514.514,0,0,0,.514-.515V968.6Z" transform="translate(-2400.047 -943.956)" fill="#fff" fill-rule="evenodd"/>
      <path id="Trazado_175" data-name="Trazado 175" d="M2424.639,993.984a.515.515,0,0,0-.515-.514h-5.246a.514.514,0,0,0-.515.514v2.742a.515.515,0,0,0,.515.515h5.246a.515.515,0,0,0,.515-.515v-2.742Z" transform="translate(-2366.775 -964.655)" fill="#fff" fill-rule="evenodd"/>
      <path id="Trazado_176" data-name="Trazado 176" d="M2362.021,989.682a.383.383,0,0,0-.382-.382h-3.985a.383.383,0,0,0-.383.382v2.036a.382.382,0,0,0,.383.382h3.985a.382.382,0,0,0,.382-.382v-2.036Z" transform="translate(-2316.955 -961.254)" fill="#fff" fill-rule="evenodd"/>
      <path id="Trazado_177" data-name="Trazado 177" d="M2248.208,988.787a.654.654,0,0,0-.654-.654h-8.689a.654.654,0,0,0-.654.654v3.483a.654.654,0,0,0,.654.653h8.689a.654.654,0,0,0,.654-.653v-3.483Z" transform="translate(-2219.863 -960.303)" fill="#fff" fill-rule="evenodd"/>
      <path id="Trazado_178" data-name="Trazado 178" d="M2177.119,945a1.3,1.3,0,1,1-1.3,1.3,1.3,1.3,0,0,1,1.3-1.3Z" transform="translate(-2168.98 -925.126)" fill="#fff" fill-rule="evenodd"/>
      <path id="Trazado_179" data-name="Trazado 179" d="M2199.169,977.7a2.223,2.223,0,1,1-2.222,2.223,2.224,2.224,0,0,1,2.222-2.223Z" transform="translate(-2186.211 -951.798)" fill="#fff" fill-rule="evenodd"/>
      <path id="Trazado_180" data-name="Trazado 180" d="M2155.107,851.929a1.449,1.449,0,1,1-1.366,1.447,1.409,1.409,0,0,1,1.366-1.447Z" transform="translate(-2150.977 -849.23)" fill="#fff" fill-rule="evenodd"/>
      <path id="Trazado_181" data-name="Trazado 181" d="M2176.312,851.929a1.449,1.449,0,1,1-1.366,1.447,1.409,1.409,0,0,1,1.366-1.447Z" transform="translate(-2168.269 -849.23)" fill="#fff" fill-rule="evenodd"/>
      <path id="Trazado_182" data-name="Trazado 182" d="M2200.011,851.929a1.449,1.449,0,1,1-1.367,1.447,1.408,1.408,0,0,1,1.367-1.447Z" transform="translate(-2187.596 -849.23)" fill="#fff" fill-rule="evenodd"/>
    </g>
    <g id="Grupo_62" data-name="Grupo 62" transform="translate(73.146 86.919)">
      <path id="Trazado_183" data-name="Trazado 183" d="M1758.555,1194.35c-12.084-5.922-20.836-33.176-7.792-45.663,19.352-18.527,32.31,2.014,33.411,4.3,2.26,4.7,11.656,19.912,21.915,22.446,12.507,3.089,9.8,13.847,2.754,18.288-10.213,6.436-36.038,7.608-50.288.625Z" transform="translate(-1744.285 -1141.011)" fill="#f9c153" fill-rule="evenodd"/>
      <g id="Grupo_61" data-name="Grupo 61" transform="translate(0 0)">
        <g id="Grupo_60" data-name="Grupo 60" clip-path="url(#clip-path-2)">
          <path id="Trazado_184" data-name="Trazado 184" d="M1734.176,1146.584c2.683-4.243,21.746,2.361,23.525,18.1,2.713,24.012,10.241,19.726,24.309,19.985,23.975.442,17.136,6.061,18.63,12.492-5.033,10.749-60.142,14.848-63.837.96-1.254-4.712-18.7-26.127-2.626-51.538Z" transform="translate(-1730.525 -1144.53)" fill="#ebab3c" fill-rule="evenodd"/>
        </g>
      </g>
    </g>
    <g id="Grupo_69" data-name="Grupo 69" transform="translate(88.733 41.057)">
      <path id="Trazado_186" data-name="Trazado 186" d="M1979.1,893.246c-7.436-3.962-19.135,7.709-9.155,15.975l3.013-3.307s.627-4.509.323-4.8-.366-2.908-.677-3.111,6.895-4.777,6.5-4.757Z" transform="translate(-1940.752 -892.449)" fill="#3c1522" fill-rule="evenodd"/>
      <path id="Trazado_187" data-name="Trazado 187" d="M1970.887,967.861c.241.351-2.531,5.323-4.77,9.361a7.628,7.628,0,0,0-.016,2.907c.141.68.563,1.185.73.928a6.347,6.347,0,0,0,2.134-1.724s.155-1.465,2.979-7.109-1.057-4.363-1.057-4.363Z" transform="translate(-1940.658 -953.845)" fill="#feb39d" fill-rule="evenodd"/>
      <path id="Trazado_188" data-name="Trazado 188" d="M1965.992,979.256a3.055,3.055,0,0,1,.128-.871c2.239-4.037,5.011-9.01,4.77-9.361,0,0,1.652-.545,2.016.643.506-2.641-2.019-1.807-2.019-1.807.241.351-2.531,5.323-4.77,9.361a6.493,6.493,0,0,0-.125,2.034Z" transform="translate(-1940.658 -953.844)" fill="#de826c" fill-rule="evenodd"/>
      <path id="Trazado_189" data-name="Trazado 189" d="M1984.258,931.764a6.24,6.24,0,0,1-4.394,2.722s-3.577.222-4.458-7.472c-.784-.159-3.558-2.81-1.609-4.67,1.563-1.491,2.812.342,2.6,1.331l1.573-5.161,6.749-.839,3.358,1.882.685,2.948c.709-.485-3.287,7.666-4.5,9.257Z" transform="translate(-1946.482 -913.021)" fill="#feb39d" fill-rule="evenodd"/>
      <path id="Trazado_190" data-name="Trazado 190" d="M1990.849,920.626c-.024.2,2.218-.426,3.172-2.629.907-2.1,2.293-2.28,6.071.624s3.59-.9,3.59-.9-5.006-3.736-5.171-4.1-4.708.951-4.708.951l-2.4,4.693-.552,1.353Z" transform="translate(-1960.943 -909.671)" fill="#de826c" fill-rule="evenodd"/>
      <path id="Trazado_191" data-name="Trazado 191" d="M1974.831,924.984c-1.842,1.857.888,4.458,1.664,4.616.88,7.693,4.458,7.472,4.458,7.472a4.593,4.593,0,0,0,1.4-.342,4.973,4.973,0,0,1-2.484.951s-3.577.222-4.458-7.472c-.784-.159-3.558-2.81-1.609-4.67a1.845,1.845,0,0,1,1.034-.555Zm4.074-3.392-1.423,4.669a1.76,1.76,0,0,0-.465-1.438l.949-3.114.939-.117Z" transform="translate(-1946.482 -916.215)" fill="#de826c" fill-rule="evenodd"/>
      <path id="Trazado_192" data-name="Trazado 192" d="M1983.767,904.427s1.416-.045,2.326-2.29,2.82-4.163,4.448-2.583,6.6,7.209,10.334,3.51.612-5.754-1.539-5.966a9.85,9.85,0,0,1-5.229-2.121c-1.831-1.268-5.542-2.357-7.1-.071,0,0-5.571-.2-4.464,7.192a2.111,2.111,0,0,1,1.228,2.328Z" transform="translate(-1954.048 -893.367)" fill="#3c1522" fill-rule="evenodd"/>
      <path id="Trazado_193" data-name="Trazado 193" d="M2115.552,1103.906s.273-.938,3.016-1.416c1-.173,4.5-.134,6.016-.922,5.622-2.923,7.127-8.9,6.014-8.462-4.292,1.689-2.9,3.469-6.656,4.256-.993.208-1.594.248-1.417.158.543-.274,2.711-2.169,2-2.455-1.688-.675-4.508,3.018-6.979,3.066-1.027.02-4.094.578-4.329,1.335-.8,2.564,2.34,4.438,2.34,4.438Z" transform="translate(-2060.624 -1056.065)" fill="#feb39d" fill-rule="evenodd"/>
      <path id="Trazado_194" data-name="Trazado 194" d="M2124.546,1095.633c.15-.26.175-.464-.025-.544-1.688-.675-4.508,3.019-6.979,3.067-1.027.02-4.094.578-4.329,1.335-.8,2.564,2.34,4.438,2.34,4.438h0c-.87-.748-2.072-2.145-1.541-3.845.236-.757,3.3-1.315,4.329-1.335,2.124-.042,4.506-2.776,6.205-3.115Zm6.364-1.708c.091-.588-.014-.891-.311-.795-3.675,1.186-3.609,4.179-8.047,4.443.871,0,3.386-.185,4.185-.812,2.249-1.765,2.193-2.356,4.173-2.836Z" transform="translate(-2060.624 -1056.089)" fill="#de826c" fill-rule="evenodd"/>
      <path id="Trazado_195" data-name="Trazado 195" d="M2238.737,1319.015c3.217-2.737,2.575-3.126,3.462-5.164,3.593,1.679,11.66-6.3,16.191-4.25,1.741.788,1.329,4.1-.668,6.017-6.026,4.787-12.1,9.552-18.775,14a2.269,2.269,0,0,1-3.017-.856l-2.731-4.07c-.752-1.123-1.014-2.9-.04-3.591a11.334,11.334,0,0,0,5.578-2.081Z" transform="translate(-2158.03 -1232.356)" fill="#224cab" fill-rule="evenodd"/>
      <g id="Grupo_64" data-name="Grupo 64" transform="translate(74.497 76.905)">
        <g id="Grupo_63" data-name="Grupo 63" clip-path="url(#clip-path-3)">
          <path id="Trazado_196" data-name="Trazado 196" d="M2275,1319.553a101.74,101.74,0,0,1-9.6,8.572c-4.194,3.163-8.179,5.235-14.1,9.23l1.5,2.049,23.563-16.93-1.358-2.921Z" transform="translate(-2247.831 -1317.654)" fill="#ecf5fb" fill-rule="evenodd"/>
          <path id="Trazado_197" data-name="Trazado 197" d="M2226.643,1340.289c.021,0,.533.026,1.063.044a10.141,10.141,0,0,0,6.823-2.1,13.3,13.3,0,0,0,4.238-7,.252.252,0,1,0-.485-.14c-1.09,3.79-2.841,5.959-4.669,7.186a10.325,10.325,0,0,1-6.654,1.506,1.546,1.546,0,0,0-.479.022.252.252,0,0,0,.163.477Z" transform="translate(-2227.463 -1326.92)" fill="#ecf5fb" fill-rule="evenodd"/>
          <path id="Trazado_198" data-name="Trazado 198" d="M2298.162,1321.978s6.514-3.187,14.774-12.2a.252.252,0,0,0-.372-.341c-8.179,8.922-14.624,12.085-14.624,12.085a.252.252,0,0,0,.222.453Z" transform="translate(-2285.756 -1309.34)" fill-rule="evenodd"/>
          <path id="Trazado_199" data-name="Trazado 199" d="M2334.42,1313.188a.444.444,0,1,0,.841-.285l-.686-2.027a.444.444,0,1,0-.841.285l.687,2.027Z" transform="translate(-2315.041 -1310.332)" fill="#ecf5fe" fill-rule="evenodd"/>
          <path id="Trazado_200" data-name="Trazado 200" d="M2323.693,1318.616a.444.444,0,0,0,.841-.285l-.687-2.027a.444.444,0,0,0-.841.285l.687,2.027Z" transform="translate(-2306.293 -1314.758)" fill="#ecf5fe" fill-rule="evenodd"/>
          <path id="Trazado_201" data-name="Trazado 201" d="M2312.812,1324.379a.444.444,0,0,0,.842-.285l-.687-2.027a.444.444,0,1,0-.841.285l.687,2.027Z" transform="translate(-2297.419 -1319.458)" fill="#ecf5fe" fill-rule="evenodd"/>
          <path id="Trazado_202" data-name="Trazado 202" d="M2300.444,1331.144a.444.444,0,1,0,.841-.285l-.687-2.028a.444.444,0,0,0-.842.285l.688,2.027Z" transform="translate(-2287.333 -1324.975)" fill="#ecf5fe" fill-rule="evenodd"/>
        </g>
      </g>
      <path id="Trazado_204" data-name="Trazado 204" d="M2248.652,1364.783a48.327,48.327,0,0,1,1.834,4.57c.972,2.782,9.141-3.7,9.141-3.7l.177-3.673a5.624,5.624,0,0,0-.629-1.221c-.451-.679-1.171-1.847-1.463-2.144s-9.061,6.166-9.061,6.166Z" transform="translate(-2171.18 -1272.598)" fill="#b2cce9" fill-rule="evenodd"/>
      <path id="Trazado_205" data-name="Trazado 205" d="M2257.631,1356.447c3.3-2.632,2.674-3.042,3.626-5.051,3.536,1.793,11.856-5.923,16.319-3.729,1.714.843,1.2,4.141-.861,5.993-6.176,4.592-12.4,9.159-19.215,13.386a2.269,2.269,0,0,1-2.987-.953l-2.6-4.155c-.717-1.147-.92-2.932.074-3.591a11.338,11.338,0,0,0,5.643-1.9Z" transform="translate(-2173.346 -1263.353)" fill="#224cab" fill-rule="evenodd"/>
      <g id="Grupo_66" data-name="Grupo 66" transform="translate(77.963 83.918)">
        <g id="Grupo_65" data-name="Grupo 65" clip-path="url(#clip-path-4)">
          <path id="Trazado_206" data-name="Trazado 206" d="M2293.221,1358.093a101.836,101.836,0,0,1-9.872,8.259c-4.293,3.027-8.343,4.97-14.389,8.773l1.43,2.1,24.094-16.165-1.263-2.964Z" transform="translate(-2265.703 -1356.096)" fill="#ecf5fb" fill-rule="evenodd"/>
          <path id="Trazado_207" data-name="Trazado 207" d="M2245.457,1375.636c.021,0,.531.043,1.061.077a10.138,10.138,0,0,0,6.887-1.875,13.3,13.3,0,0,0,4.46-6.859.252.252,0,1,0-.479-.155c-1.211,3.752-3.031,5.865-4.9,7.032a10.326,10.326,0,0,1-6.7,1.292,1.544,1.544,0,0,0-.479.006.252.252,0,0,0,.148.482Z" transform="translate(-2246.276 -1363.073)" fill="#ecf5fb" fill-rule="evenodd"/>
          <path id="Trazado_208" data-name="Trazado 208" d="M2317.065,1360.018s6.613-2.977,15.157-11.716a.252.252,0,0,0-.361-.353c-8.461,8.655-15,11.609-15,11.609a.252.252,0,1,0,.208.459Z" transform="translate(-2304.642 -1347.763)" fill-rule="evenodd"/>
          <path id="Trazado_209" data-name="Trazado 209" d="M2355.279,1350.339a.444.444,0,1,0,.85-.258l-.622-2.048a.444.444,0,1,0-.85.258l.622,2.048Z" transform="translate(-2335.573 -1347.635)" fill="#ecf5fe" fill-rule="evenodd"/>
          <path id="Trazado_210" data-name="Trazado 210" d="M2344.383,1355.42a.444.444,0,1,0,.85-.258l-.621-2.048a.444.444,0,0,0-.851.258l.621,2.048Z" transform="translate(-2326.688 -1351.778)" fill="#ecf5fe" fill-rule="evenodd"/>
          <path id="Trazado_211" data-name="Trazado 211" d="M2333.323,1360.83a.444.444,0,1,0,.85-.258l-.621-2.048a.444.444,0,0,0-.85.258l.621,2.048Z" transform="translate(-2317.669 -1356.191)" fill="#ecf5fe" fill-rule="evenodd"/>
          <path id="Trazado_212" data-name="Trazado 212" d="M2320.745,1367.2a.444.444,0,0,0,.85-.258l-.622-2.049a.444.444,0,0,0-.85.258l.621,2.048Z" transform="translate(-2307.411 -1361.382)" fill="#ecf5fe" fill-rule="evenodd"/>
        </g>
      </g>
      <path id="Trazado_214" data-name="Trazado 214" d="M1853.829,1210.085c1.091.067,18.709,29.526,48.387-3.333,0,0,.5-.473,2.252,1.361l16.366,16.135s5.019,5.608,16.392-6.178c0,0-21.076-37.909-32.794-32.075s-25.182,3.153-25.182,3.153l-9.632,9.587-15.789,11.351Z" transform="translate(-1849.204 -1131.335)" fill="#363636" fill-rule="evenodd"/>
      <path id="Trazado_215" data-name="Trazado 215" d="M2171.123,1077.635a1.016,1.016,0,0,0-.225-1.23l-5.457-4.5a.653.653,0,0,0-1.021.2l-6.5,11.732a1.015,1.015,0,0,0,.224,1.23l5.457,4.5a.651.651,0,0,0,1.02-.2l6.5-11.731Z" transform="translate(-2097.094 -1038.662)" fill="#131313" fill-rule="evenodd"/>
      <path id="Trazado_216" data-name="Trazado 216" d="M2184.193,1162.879a1.15,1.15,0,0,0,1.906-.164l-.371-1.148-1.535,1.311Z" transform="translate(-2118.614 -1111.913)" fill="#131313" fill-rule="evenodd"/>
      <path id="Trazado_217" data-name="Trazado 217" d="M2166.863,1075.4a.991.991,0,0,0-.219-1.2l-5.321-4.385a.636.636,0,0,0-.995.2l-6.822,12.311a.991.991,0,0,0,.219,1.2l5.322,4.385a.636.636,0,0,0,.994-.2l6.822-12.311Z" transform="translate(-2093.496 -1036.958)" fill="#383838" fill-rule="evenodd"/>
      <path id="Trazado_218" data-name="Trazado 218" d="M2170.528,1080.082a.857.857,0,0,0-.189-1.037l-4.6-3.791a.549.549,0,0,0-.86.172l-6.011,10.847a.857.857,0,0,0,.189,1.037l4.6,3.792a.55.55,0,0,0,.86-.173l6.01-10.846Z" transform="translate(-2097.881 -1041.411)" fill="#eef4fe" fill-rule="evenodd"/>
      <path id="Trazado_219" data-name="Trazado 219" d="M2187.935,1097.583a.3.3,0,0,0-.068-.369l-4.686-3.862a.2.2,0,0,0-.306.061l-.245.444a.3.3,0,0,0,.067.368l4.687,3.862a.2.2,0,0,0,.305-.062l.246-.443Z" transform="translate(-2117.311 -1056.245)" fill="#97b9de" fill-rule="evenodd"/>
      <path id="Trazado_220" data-name="Trazado 220" d="M2176.595,1144.629a.438.438,0,0,0-.1-.531l-2.178-1.8a.281.281,0,0,0-.44.088l-.354.638a.439.439,0,0,0,.1.531l2.178,1.8a.281.281,0,0,0,.44-.088l.354-.638Z" transform="translate(-2109.874 -1096.145)" fill="#97b9de" fill-rule="evenodd"/>
      <path id="Trazado_221" data-name="Trazado 221" d="M2185.86,1103.394a.017.017,0,0,0,0-.021l-5.172-4.261a.011.011,0,0,0-.017,0l-.013.024a.016.016,0,0,0,0,.02l5.171,4.262a.011.011,0,0,0,.017,0l.014-.025Z" transform="translate(-2115.727 -1060.978)" fill="#97b9de" fill-rule="evenodd"/>
      <path id="Trazado_222" data-name="Trazado 222" d="M2183.786,1107.138a.017.017,0,0,0,0-.021l-5.172-4.262a.01.01,0,0,0-.017,0l-.014.025a.017.017,0,0,0,0,.02l5.171,4.262a.011.011,0,0,0,.017,0l.014-.025Z" transform="translate(-2114.035 -1064.032)" fill="#97b9de" fill-rule="evenodd"/>
      <path id="Trazado_223" data-name="Trazado 223" d="M2181.459,1111.335a.016.016,0,0,0,0-.021l-5.172-4.262a.011.011,0,0,0-.017,0l-.013.025a.016.016,0,0,0,0,.021l5.172,4.262a.011.011,0,0,0,.017,0l.013-.024Z" transform="translate(-2112.138 -1067.454)" fill="#97b9de" fill-rule="evenodd"/>
      <path id="Trazado_224" data-name="Trazado 224" d="M2178.541,1116.6a.017.017,0,0,0,0-.02l-5.172-4.262a.011.011,0,0,0-.018,0l-.013.025a.016.016,0,0,0,0,.02l5.172,4.262a.011.011,0,0,0,.018,0l.014-.025Z" transform="translate(-2109.757 -1071.75)" fill="#97b9de" fill-rule="evenodd"/>
      <path id="Trazado_225" data-name="Trazado 225" d="M2175.55,1122a.018.018,0,0,0,0-.02l-5.172-4.262a.011.011,0,0,0-.017,0l-.014.024a.017.017,0,0,0,0,.021l5.171,4.262a.012.012,0,0,0,.018,0l.014-.025Z" transform="translate(-2107.318 -1076.152)" fill="#97b9de" fill-rule="evenodd"/>
      <path id="Trazado_226" data-name="Trazado 226" d="M2172.438,1127.617a.018.018,0,0,0,0-.021l-5.171-4.262a.012.012,0,0,0-.018,0l-.014.025a.018.018,0,0,0,0,.021l5.172,4.262a.011.011,0,0,0,.017,0l.014-.025Z" transform="translate(-2104.78 -1080.732)" fill="#97b9de" fill-rule="evenodd"/>
      <path id="Trazado_227" data-name="Trazado 227" d="M2169.447,1133.014a.017.017,0,0,0,0-.021l-5.171-4.262a.011.011,0,0,0-.017,0l-.014.025a.018.018,0,0,0,0,.021l5.171,4.261a.011.011,0,0,0,.018,0l.014-.025Z" transform="translate(-2102.341 -1085.133)" fill="#97b9de" fill-rule="evenodd"/>
      <path id="Trazado_228" data-name="Trazado 228" d="M2163.792,1136.484a.027.027,0,0,0-.006-.034l-2.234-1.841a.018.018,0,0,0-.028.006l-.023.041a.029.029,0,0,0,.007.034l2.234,1.841a.018.018,0,0,0,.028-.006l.023-.042Z" transform="translate(-2100.105 -1089.924)" fill="#97b9de" fill-rule="evenodd"/>
      <path id="Trazado_229" data-name="Trazado 229" d="M2204.877,1089.729a.27.27,0,0,0-.06-.327l-3.01-2.481a.173.173,0,0,0-.271.055.27.27,0,0,0,.06.327l3.01,2.481a.173.173,0,0,0,.271-.054Z" transform="translate(-2132.731 -1051.004)" fill="#97b9de" fill-rule="evenodd"/>
      <path id="Trazado_230" data-name="Trazado 230" d="M2203.4,1092.921a.06.06,0,0,0-.013-.072l-3.269-2.693a.038.038,0,0,0-.059.011.06.06,0,0,0,.013.072l3.268,2.693a.038.038,0,0,0,.06-.012Z" transform="translate(-2131.549 -1053.669)" fill="#97b9de" fill-rule="evenodd"/>
      <path id="Trazado_231" data-name="Trazado 231" d="M2202.328,1094.858a.058.058,0,0,0-.013-.072l-3.269-2.693a.038.038,0,0,0-.06.012.059.059,0,0,0,.013.072l3.269,2.693a.038.038,0,0,0,.06-.012Z" transform="translate(-2130.672 -1055.249)" fill="#97b9de" fill-rule="evenodd"/>
      <path id="Trazado_232" data-name="Trazado 232" d="M2201.382,1096.567a.059.059,0,0,0-.013-.072l-3.269-2.693a.038.038,0,0,0-.059.012.059.059,0,0,0,.013.072l3.269,2.693a.038.038,0,0,0,.06-.012Z" transform="translate(-2129.901 -1056.643)" fill="#97b9de" fill-rule="evenodd"/>
      <path id="Trazado_233" data-name="Trazado 233" d="M2200.4,1098.346a.06.06,0,0,0-.013-.072l-3.269-2.694a.038.038,0,0,0-.06.012.06.06,0,0,0,.013.072l3.268,2.694a.039.039,0,0,0,.061-.012Z" transform="translate(-2129.097 -1058.094)" fill="#97b9de" fill-rule="evenodd"/>
      <path id="Trazado_234" data-name="Trazado 234" d="M2188.8,1080.31a.221.221,0,0,0-.049-.268l-1.325-1.092a.141.141,0,0,0-.221.045l-1.1,1.977a.22.22,0,0,0,.049.267l1.324,1.092a.142.142,0,0,0,.222-.045l1.1-1.977Z" transform="translate(-2120.153 -1044.51)" fill="#fff" stroke="#97b9de" stroke-linecap="round" stroke-linejoin="round" stroke-width="2.551" fill-rule="evenodd"/>
      <path id="Trazado_235" data-name="Trazado 235" d="M2192.161,1088.451l-.027,1.009.342.268s.073.043.184-.131l.458-.819.105-.816-1.061.489Z" transform="translate(-2125.089 -1051.888)" fill="#97b9de" fill-rule="evenodd"/>
      <path id="Trazado_236" data-name="Trazado 236" d="M2192.027,1081.6a.276.276,0,0,1,.045.335.177.177,0,0,1-.271.075.276.276,0,0,1-.044-.335.176.176,0,0,1,.27-.075Z" transform="translate(-2124.752 -1046.668)" fill="#97b9de" fill-rule="evenodd"/>
      <path id="Trazado_237" data-name="Trazado 237" d="M2186.934,1087.02l.955-.376-.033,1.707c0,.012.007.017.016.011a.044.044,0,0,0,.017-.032l.032-1.724c0-.01,0-.015-.012-.012l-.969.38a.042.042,0,0,0-.019.03c0,.013,0,.02.012.017Z" transform="translate(-2120.839 -1050.771)" fill="#97b9de" fill-rule="evenodd"/>
      <path id="Trazado_238" data-name="Trazado 238" d="M2170.218,1152.116a.432.432,0,0,1,.063.525.278.278,0,0,1-.423.125.432.432,0,0,1-.063-.525.278.278,0,0,1,.423-.124Z" transform="translate(-2106.824 -1104.159)" fill="#fff" fill-rule="evenodd"/>
      <path id="Trazado_239" data-name="Trazado 239" d="M2128.478,1137.864s.273-.938,3.015-1.415c1-.174,4.5-.134,6.016-.922,5.622-2.923,7.128-8.9,6.014-8.462-4.292,1.689-2.9,3.469-6.656,4.256-.993.208-1.594.248-1.417.158.544-.274,2.711-2.17,2-2.455-1.688-.674-4.508,3.019-6.98,3.067-1.027.02-4.093.578-4.329,1.335-.8,2.564,2.34,4.438,2.34,4.438Z" transform="translate(-2071.164 -1083.758)" fill="#feb39d" fill-rule="evenodd"/>
      <path id="Trazado_240" data-name="Trazado 240" d="M2137.47,1129.592c.151-.26.175-.464-.024-.544-1.688-.675-4.508,3.019-6.98,3.067-1.027.02-4.093.578-4.329,1.335-.8,2.564,2.34,4.438,2.34,4.438h0c-.87-.749-2.072-2.146-1.542-3.845.236-.757,3.3-1.315,4.329-1.335,2.124-.041,4.505-2.776,6.205-3.114Zm6.364-1.708c.091-.588-.015-.89-.311-.795-3.674,1.187-3.609,4.179-8.047,4.443.871,0,3.386-.185,4.185-.812,2.249-1.765,2.192-2.357,4.173-2.836Z" transform="translate(-2071.164 -1083.782)" fill="#de826c" fill-rule="evenodd"/>
      <path id="Trazado_241" data-name="Trazado 241" d="M1994.772,1055.081l5.915,8.188a3.215,3.215,0,0,0,2.448,1c1.288-.215,15.793-.083,15.793-.083.808.845,2.153,5.661.883,8.141-2.03,3.965-21.373,4.392-22.142,4.787s-4.933-14.479-4.125-20.736,1.229-1.3,1.229-1.3Z" transform="translate(-1963.056 -1023.553)" fill="#153289" fill-rule="evenodd"/>
      <path id="Trazado_242" data-name="Trazado 242" d="M1852.8,985.517s9.138,2.384,11.668,28.566c0,0,.648,4.319,2.3,4.412,3.733.209,20.092-3.157,20.092-3.157s4.609,5.552,1.284,11.573c0,0-26.087,14.2-30.168,5.956,0,0-8.376,18.681-24.638,16.87-3.108-2.992-15.215-52.836,19.457-64.219Z" transform="translate(-1828.763 -968.345)" fill="#0e39a2" fill-rule="evenodd"/>
      <g id="Grupo_68" data-name="Grupo 68" transform="translate(0 17.172)">
        <g id="Grupo_67" data-name="Grupo 67" clip-path="url(#clip-path-5)">
          <path id="Trazado_243" data-name="Trazado 243" d="M1925.485,1083.856s3.649,20.849,11.4,29.232l-1.482,4.445s-7.858-5.5-9.919-33.677Z" transform="translate(-1907.639 -1065.712)" fill="#153289" fill-rule="evenodd"/>
        </g>
      </g>
    </g>
    <g id="Grupo_70" data-name="Grupo 70" transform="translate(193.993 86.919)">
      <path id="Trazado_245" data-name="Trazado 245" d="M2324.509,1060.659v16.232a1.276,1.276,0,0,1-1.361,1.168h-35.673l0,.04-3.717,3.905v-21.345a1.277,1.277,0,0,1,1.363-1.168h38.022A1.277,1.277,0,0,1,2324.509,1060.659Z" transform="translate(-2283.763 -1059.491)" fill="#fff" stroke="#8a9ee5" stroke-linecap="round" stroke-linejoin="round" stroke-width="2.733" fill-rule="evenodd"/>
      <rect id="Rectángulo_71" data-name="Rectángulo 71" width="29.873" height="0.839" rx="0.42" transform="translate(5.437 3.539)" fill="#8a9ee5"/>
      <rect id="Rectángulo_72" data-name="Rectángulo 72" width="29.873" height="0.839" rx="0.42" transform="translate(5.437 6.929)" fill="#8a9ee5"/>
      <rect id="Rectángulo_73" data-name="Rectángulo 73" width="29.873" height="0.839" rx="0.42" transform="translate(5.437 10.318)" fill="#8a9ee5"/>
      <rect id="Rectángulo_74" data-name="Rectángulo 74" width="15.062" height="0.839" rx="0.42" transform="translate(5.437 13.707)" fill="#8a9ee5"/>
    </g>
    <g id="Grupo_71" data-name="Grupo 71" transform="translate(38.638 10.635)">
      <path id="Trazado_246" data-name="Trazado 246" d="M1705.784,727.567a1.133,1.133,0,0,0-1.133,1.133v24.929a1.133,1.133,0,0,0,1.133,1.133h24.929a1.133,1.133,0,0,0,1.133-1.133A26.091,26.091,0,0,0,1705.784,727.567Z" transform="translate(-1677.456 -727.567)" fill="#8a9ee5"/>
      <path id="Trazado_247" data-name="Trazado 247" d="M1597.812,785.612l-15.626-20.088V740.982a1.133,1.133,0,0,0-1.133-1.133c-13.121,0-23.8,11.692-23.8,26.062a26.092,26.092,0,0,0,26.062,26.062,19.359,19.359,0,0,0,14.316-4.791A1.133,1.133,0,0,0,1597.812,785.612Z" transform="translate(-1557.257 -737.583)" fill="#97b9de"/>
      <path id="Trazado_248" data-name="Trazado 248" d="M1740.73,887.242h-22.662a1.133,1.133,0,0,0-.882,1.845l14.731,18.237a1.133,1.133,0,0,0,.8.419h.08a1.133,1.133,0,0,0,.773-.3,26.163,26.163,0,0,0,8.292-19.064A1.134,1.134,0,0,0,1740.73,887.242Z" transform="translate(-1687.473 -857.781)" fill="#fff" stroke="#8a9ee5" stroke-linecap="round" stroke-linejoin="round" stroke-width="2.733"/>
    </g>
    <g id="Grupo_72" data-name="Grupo 72" transform="translate(0 74.632)">
      <path id="Trazado_249" data-name="Trazado 249" d="M1533.879,1077.583a3.169,3.169,0,0,0-3.168-3.168h-32.3a3.169,3.169,0,0,0-3.168,3.168v16.884a3.169,3.169,0,0,0,3.168,3.167h32.3a3.169,3.169,0,0,0,3.168-3.167v-16.884Z" transform="translate(-1495.241 -1074.415)" fill="#ebf6fd" stroke="#8a9ee5" stroke-linecap="round" stroke-linejoin="round" stroke-width="2.733" fill-rule="evenodd"/>
      <path id="Trazado_250" data-name="Trazado 250" d="M1569.969,1101.867a6.673,6.673,0,1,1-6.673,6.673,6.676,6.676,0,0,1,6.673-6.673Z" transform="translate(-1550.74 -1096.802)" fill="#8a9ee5" fill-rule="evenodd"/>
      <path id="Trazado_251" data-name="Trazado 251" d="M1591.824,1121.669l-7.955,3.978v-7.955l7.955,3.978Z" transform="translate(-1567.516 -1109.706)" fill="#fff" fill-rule="evenodd"/>
    </g>
    <g id="Grupo_78" data-name="Grupo 78" transform="translate(125.895 0)">
      <path id="Trazado_262" data-name="Trazado 262" d="M1945.317,700.86h-28.608a1.163,1.163,0,0,1-1.163-1.163V671.088a1.163,1.163,0,0,1,1.163-1.163h28.608a1.163,1.163,0,0,1,1.163,1.163V699.7A1.163,1.163,0,0,1,1945.317,700.86Z" transform="translate(-1915.545 -669.925)" fill="#fff" stroke="#8a9ee5" stroke-linecap="round" stroke-linejoin="round" stroke-width="2.733"/>
      <path id="Trazado_263" data-name="Trazado 263" d="M1950.5,784.55h-2.738v-4.8a.469.469,0,0,1,.469-.469h1.8a.469.469,0,0,1,.469.469Z" transform="translate(-1941.821 -759.104)" fill="#97b9de"/>
      <path id="Trazado_264" data-name="Trazado 264" d="M1982.01,765.661h-2.739v-9.074a.47.47,0,0,1,.47-.469h1.8a.469.469,0,0,1,.469.469Z" transform="translate(-1967.514 -740.214)" fill="#97b9de"/>
      <path id="Trazado_265" data-name="Trazado 265" d="M2013.518,746.77h-2.738V733.422a.469.469,0,0,1,.469-.469h1.8a.469.469,0,0,1,.469.469Z" transform="translate(-1993.209 -721.324)" fill="#97b9de"/>
      <path id="Trazado_266" data-name="Trazado 266" d="M2045.026,727.88h-2.739V710.258a.469.469,0,0,1,.469-.469h1.8a.469.469,0,0,1,.469.469V727.88Z" transform="translate(-2018.903 -702.434)" fill="#97b9de"/>
      <path id="Trazado_267" data-name="Trazado 267" d="M1945.317,669.925h-28.608a1.163,1.163,0,0,0-1.163,1.163v3.469h30.935v-3.469A1.163,1.163,0,0,0,1945.317,669.925Z" transform="translate(-1915.545 -669.925)" fill="#8a9ee5"/>
      <g id="Grupo_77" data-name="Grupo 77" transform="translate(22.01 1.73)">
        <path id="Trazado_268" data-name="Trazado 268" d="M2036.005,679.889a.586.586,0,1,1-.586-.586A.586.586,0,0,1,2036.005,679.889Z" transform="translate(-2034.834 -679.303)" fill="#46d1c0"/>
        <path id="Trazado_269" data-name="Trazado 269" d="M2051.22,679.889a.585.585,0,1,1-.585-.586A.585.585,0,0,1,2051.22,679.889Z" transform="translate(-2047.242 -679.303)" fill="#46d1c0"/>
        <path id="Trazado_270" data-name="Trazado 270" d="M2066.435,679.889a.586.586,0,1,1-.586-.586A.586.586,0,0,1,2066.435,679.889Z" transform="translate(-2059.649 -679.303)" fill="#46d1c0"/>
      </g>
      <path id="Trazado_271" data-name="Trazado 271" d="M1954.212,733.4h-24.2a1.47,1.47,0,0,1-1.468-1.469V716.45a.467.467,0,1,1,.933,0v15.48a.536.536,0,0,0,.535.535h24.2a.467.467,0,1,1,0,.934Z" transform="translate(-1926.142 -707.485)" fill="#b2cbe9"/>
      <path id="Trazado_272" data-name="Trazado 272" d="M1939.479,680.881h-11.368a.467.467,0,1,1,0-.933h11.368a.467.467,0,0,1,0,.933Z" transform="translate(-1925.412 -678.099)" fill="#ebf6fd"/>
      <path id="Trazado_273" data-name="Trazado 273" d="M2036.005,679.889a.586.586,0,1,1-.586-.586A.586.586,0,0,1,2036.005,679.889Z" transform="translate(-2012.825 -677.573)" fill="#ebf6fd"/>
      <path id="Trazado_274" data-name="Trazado 274" d="M2051.22,679.889a.585.585,0,1,1-.585-.586A.585.585,0,0,1,2051.22,679.889Z" transform="translate(-2025.232 -677.573)" fill="#ebf6fd"/>
      <path id="Trazado_275" data-name="Trazado 275" d="M2066.435,679.889a.586.586,0,1,1-.586-.586A.586.586,0,0,1,2066.435,679.889Z" transform="translate(-2037.64 -677.573)" fill="#ebf6fd"/>
      <path id="Trazado_276" data-name="Trazado 276" d="M2048.451,803.3a.466.466,0,0,1-.33-.136l-2.308-2.308a.467.467,0,0,1,.66-.66l2.308,2.308a.467.467,0,0,1-.33.8Z" transform="translate(-2021.666 -776.045)" fill="#8a9ee5"/>
      <path id="Trazado_277" data-name="Trazado 277" d="M2001.292,749.08a6.591,6.591,0,1,1-6.591-6.591A6.591,6.591,0,0,1,2001.292,749.08Z" transform="translate(-1974.721 -729.1)" fill="#8a9ee5"/>
      <path id="Trazado_278" data-name="Trazado 278" d="M2006.881,756.3a4.957,4.957,0,1,1-4.957-4.957A4.957,4.957,0,0,1,2006.881,756.3Z" transform="translate(-1981.944 -736.322)" fill="#fff" stroke="#8a9ee5" stroke-linecap="round" stroke-linejoin="round" stroke-width="2.733"/>
      <path id="Trazado_279" data-name="Trazado 279" d="M2019.95,752.8a4.957,4.957,0,0,0-5.177-1.162,4.958,4.958,0,0,1,0,9.335,4.958,4.958,0,0,0,5.177-8.173Z" transform="translate(-1996.465 -736.325)" fill="#b2cbe9"/>
      <path id="Trazado_280" data-name="Trazado 280" d="M2058.644,811.966l-1.059,1.058a.4.4,0,0,1-.57,0l-3.666-3.666a.4.4,0,0,1,0-.57l1.058-1.058a.4.4,0,0,1,.57,0l3.666,3.666A.4.4,0,0,1,2058.644,811.966Z" transform="translate(-2027.827 -782.207)" fill="#8a9ee5"/>
    </g>
  </g>
</svg>
