<svg xmlns="http://www.w3.org/2000/svg" xmlns:xlink="http://www.w3.org/1999/xlink" width="220" height="220" viewBox="0 0 220 220">
  <defs>
    <linearGradient id="linear-gradient" x1="0.5" x2="0.5" y2="1" gradientUnits="objectBoundingBox">
      <stop offset="0" stop-color="#f2f7ff"/>
      <stop offset="1" stop-color="#becbff"/>
    </linearGradient>
  </defs>
  <g id="Grupo_798" data-name="Grupo 798" transform="translate(-1600 -501)">
    <circle id="Elipse_22" data-name="Elipse 22" cx="110" cy="110" r="110" transform="translate(1600 501)" fill="url(#linear-gradient)"/>
    <g id="empresa" transform="translate(1623.999 518.945)" style="isolation: isolate">
      <g id="Capa_1" data-name="Capa 1" transform="translate(0.001 0.01)">
        <path id="Trazado_863" data-name="Trazado 863" d="M-187.869,88.741q-1.04,1.027-2.082,2h-154.1c-.309-.658-.608-1.328-.893-2-13.344-31.286-2.1-75.011,18.319-83.607,22.916-9.655,50.8,27.728,89.545,15.2,8.527-2.758,12.754-6.364,22.31-6.195,18.573.342,40.022,14.685,44.14,33.423C-167.108,63.578-177.244,78.247-187.869,88.741Z" transform="translate(354.081 63.303)" fill="#ecf7fe"/>
        <path id="Trazado_864" data-name="Trazado 864" d="M89.051-225.909V-234.5h-9.59a28.944,28.944,0,0,0-5.352-12.947l6.779-6.776L74.8-260.285l-6.779,6.776A28.814,28.814,0,0,0,55.1-258.86v-9.59H46.5v9.59a29.225,29.225,0,0,0-12.921,5.352l-6.776-6.77-6.065,6.065,6.776,6.776a29,29,0,0,0-5.352,12.947H12.57v8.587h9.59a28.909,28.909,0,0,0,5.352,12.914l-6.776,6.779,6.065,6.085,6.776-6.783A29.225,29.225,0,0,0,46.5-201.556v9.59H55.1v-9.585a28.766,28.766,0,0,0,12.921-5.357L74.8-200.13l6.085-6.081-6.781-6.779a28.859,28.859,0,0,0,5.354-12.921Zm-21.966,5.892A19.091,19.091,0,0,1,61-213.93a19.19,19.19,0,0,1-5.892,2.445,19.731,19.731,0,0,1-4.292.481,19.931,19.931,0,0,1-4.314-.481,18.525,18.525,0,0,1-5.872-2.464,18.887,18.887,0,0,1-6.085-6.068,18.652,18.652,0,0,1-2.445-5.892,19.6,19.6,0,0,1-.483-4.292A19.618,19.618,0,0,1,32.1-234.5a19.065,19.065,0,0,1,2.445-5.912,19.28,19.28,0,0,1,6.085-6.065,18.846,18.846,0,0,1,5.872-2.445,19.8,19.8,0,0,1,4.314-.483,19.6,19.6,0,0,1,4.292.483A19.131,19.131,0,0,1,61-246.473a18.887,18.887,0,0,1,6.068,6.085,18.826,18.826,0,0,1,2.464,5.892,19.75,19.75,0,0,1,.481,4.294,19.732,19.732,0,0,1-.481,4.292A19.19,19.19,0,0,1,67.086-220.017Z" transform="translate(70.501 275.593)" fill="#d6ebf5"/>
        <path id="Trazado_865" data-name="Trazado 865" d="M-127.461-282.9v-3.654h-4.082a12.32,12.32,0,0,0-2.278-5.506l2.886-2.883-2.589-2.581-2.883,2.892a12.256,12.256,0,0,0-5.5-2.278V-301h-3.662v4.079a12.434,12.434,0,0,0-5.486,2.278l-2.886-2.883-2.581,2.581,2.883,2.881a12.319,12.319,0,0,0-2.278,5.506H-160v3.654h4.082a12.276,12.276,0,0,0,2.278,5.486l-2.886,2.883,2.581,2.589,2.886-2.883a12.433,12.433,0,0,0,5.486,2.278v4.079h3.662v-4.079a12.255,12.255,0,0,0,5.5-2.278l2.883,2.883,2.589-2.589-2.879-2.872a12.276,12.276,0,0,0,2.278-5.486Zm-9.348,2.508a8.119,8.119,0,0,1-2.589,2.587,8.179,8.179,0,0,1-2.506,1.042,8.5,8.5,0,0,1-1.828.2,8.53,8.53,0,0,1-1.835-.2,7.9,7.9,0,0,1-2.5-1.049,8.036,8.036,0,0,1-2.589-2.581,7.976,7.976,0,0,1-1.04-2.508,8.337,8.337,0,0,1-.2-1.826,8.338,8.338,0,0,1,.2-1.828,8.134,8.134,0,0,1,1.04-2.515,8.214,8.214,0,0,1,2.589-2.581,7.974,7.974,0,0,1,2.5-1.04,8.393,8.393,0,0,1,1.835-.206,8.363,8.363,0,0,1,1.828.206,8.119,8.119,0,0,1,2.506,1.04,8.036,8.036,0,0,1,2.581,2.589,7.961,7.961,0,0,1,1.049,2.506,8.338,8.338,0,0,1,.2,1.828,8.339,8.339,0,0,1-.2,1.826A8.187,8.187,0,0,1-136.81-280.4Z" transform="translate(205.202 301)" fill="#c5e0e8"/>
        <path id="Trazado_866" data-name="Trazado 866" d="M173.21,231.071h.013a19.135,19.135,0,0,1,10.5-5.767c2.811-.513,6.125-.6,7.81-2.908,1.407-1.927,1.014-4.562.911-6.947-.316-7.2,7.242-7.461,12.451-9.655,5.778-2.427,10.491-6.168,11.648-12.653,1.6-9-6.844-7.784-12.747-5.958-5.752,1.782-13.561-1.17-16.476,5.55-1.424,3.278-2.3,6.853-5.969,8.326-1.988.8-4.2.74-6.324.994-3.511.417-6.315,2.1-6.46,5.936-.075,1.918.421,3.812.5,5.73a13.509,13.509,0,0,1-5.359,11.218Z" transform="translate(-47.473 -79.049)" fill="#5b90c0"/>
        <path id="Trazado_867" data-name="Trazado 867" d="M179.8,247.977q4.082-5.5,8.677-10.573a128.082,128.082,0,0,1,9.693-9.62,113.782,113.782,0,0,1,10.7-8.442c1.867-1.292,3.774-2.524,5.73-3.673q1.464-.878,2.969-1.661c1-.529,2.014-1.038,3.055-1.488-1.02.492-2.01,1.04-2.989,1.608s-1.94,1.161-2.89,1.775c-1.9,1.224-3.748,2.528-5.55,3.888a113.241,113.241,0,0,0-10.274,8.8,127.177,127.177,0,0,0-9.19,9.9q-4.325,5.185-8.119,10.764Z" transform="translate(-60.032 -99.833)" fill="#fff"/>
        <path id="Trazado_868" data-name="Trazado 868" d="M190.952,89.91h.018a20.482,20.482,0,0,1,10-8.053c2.87-1.071,6.351-1.784,7.7-4.534,1.126-2.3.219-5.005-.34-7.5-1.683-7.544,6.25-9.234,11.332-12.508,5.642-3.654,9.914-8.481,9.919-15.541,0-9.787-8.681-6.93-14.569-3.9-5.736,2.956-14.531,1.317-16.348,8.944-.889,3.73-1.145,7.665-4.738,9.908-1.949,1.216-4.292,1.567-6.489,2.234-3.616,1.1-6.269,3.4-5.705,7.476.281,2.036,1.161,3.95,1.6,5.953a14.483,14.483,0,0,1-3.553,12.842Z" transform="translate(-60.016 38.726)" fill="#94c2e7"/>
        <path id="Trazado_869" data-name="Trazado 869" d="M198.66,111.323q3.278-6.566,7.176-12.785A137.053,137.053,0,0,1,214.26,86.57a122.3,122.3,0,0,1,9.71-10.915c1.727-1.716,3.511-3.375,5.359-4.953q1.382-1.192,2.822-2.311c.959-.746,1.931-1.475,2.945-2.142-.985.709-1.927,1.475-2.853,2.256s-1.83,1.591-2.717,2.414q-2.662,2.477-5.117,5.15a121.106,121.106,0,0,0-9.192,11.218,135.94,135.94,0,0,0-7.845,12.17q-3.592,6.28-6.555,12.883Z" transform="translate(-74.753 14.339)" fill="#fff"/>
        <path id="Trazado_870" data-name="Trazado 870" d="M-317.851,231.071h-.015a19.12,19.12,0,0,0-10.5-5.767c-2.809-.514-6.122-.6-7.808-2.908-1.409-1.927-1.016-4.562-.911-6.947.314-7.2-7.242-7.461-12.451-9.655-5.778-2.427-10.491-6.168-11.648-12.653-1.6-9,6.842-7.784,12.745-5.958,5.751,1.782,13.564-1.17,16.478,5.55,1.424,3.278,2.3,6.853,5.969,8.326,1.986.8,4.2.74,6.324.994,3.511.417,6.313,2.1,6.46,5.936.075,1.918-.421,3.812-.5,5.73a13.509,13.509,0,0,0,5.359,11.218Z" transform="translate(362.395 -79.049)" fill="#94c2e7"/>
        <path id="Trazado_871" data-name="Trazado 871" d="M-280.985,247.977q-4.082-5.5-8.677-10.573a128.489,128.489,0,0,0-9.693-9.62,114.062,114.062,0,0,0-10.7-8.442c-1.867-1.293-3.774-2.524-5.732-3.673q-1.462-.878-2.967-1.661c-1-.529-2.017-1.038-3.057-1.488,1.02.492,2.01,1.04,2.989,1.608s1.942,1.161,2.89,1.775c1.9,1.224,3.748,2.528,5.552,3.888a113.512,113.512,0,0,1,10.272,8.8,126.784,126.784,0,0,1,9.2,9.9q4.325,5.185,8.119,10.764Z" transform="translate(331.505 -99.833)" fill="#fff"/>
        <path id="Trazado_872" data-name="Trazado 872" d="M-324.056,89.91h-.015a20.491,20.491,0,0,0-10-8.053c-2.87-1.071-6.351-1.784-7.7-4.534-1.126-2.3-.219-5.005.34-7.5,1.683-7.544-6.252-9.234-11.332-12.508-5.642-3.654-9.917-8.481-9.919-15.541,0-9.787,8.681-6.93,14.569-3.9,5.736,2.956,14.531,1.317,16.348,8.944.878,3.73,1.145,7.665,4.738,9.908,1.946,1.216,4.29,1.567,6.489,2.234,3.614,1.1,6.269,3.4,5.705,7.476-.283,2.036-1.161,3.95-1.6,5.953a14.483,14.483,0,0,0,3.553,12.842Z" transform="translate(363.406 38.726)" fill="#5b90c0"/>
        <path id="Trazado_873" data-name="Trazado 873" d="M-284.258,111.323q-3.278-6.566-7.176-12.785a137.525,137.525,0,0,0-8.424-11.968,122.318,122.318,0,0,0-9.717-10.915c-1.727-1.716-3.511-3.375-5.359-4.953q-1.378-1.192-2.82-2.311c-.959-.746-1.933-1.475-2.947-2.142.985.709,1.927,1.475,2.853,2.256s1.832,1.591,2.717,2.414q2.666,2.475,5.13,5.146a121.083,121.083,0,0,1,9.2,11.22,135.944,135.944,0,0,1,7.845,12.17q3.594,6.28,6.557,12.883Z" transform="translate(330.638 14.339)" fill="#fff"/>
        <path id="Trazado_874" data-name="Trazado 874" d="M11.223-192.66a5.543,5.543,0,0,0-5.543,5.543,5.543,5.543,0,0,0,5.543,5.539,5.541,5.541,0,0,0,5.541-5.539A5.541,5.541,0,0,0,11.223-192.66Zm0,8.225a2.686,2.686,0,0,1-2.686-2.682,2.688,2.688,0,0,1,2.686-2.686,2.688,2.688,0,0,1,2.686,2.686A2.686,2.686,0,0,1,11.223-184.435Z" transform="translate(75.879 216.434)" fill="#5995ca"/>
        <path id="Trazado_875" data-name="Trazado 875" d="M354.226,146.65H328.668l-2.818,10.494h31.193Z" transform="translate(-254.346 -114.471)" fill="#183e71"/>
        <path id="Trazado_876" data-name="Trazado 876" d="M-103.562-118.21h-78.393a9.655,9.655,0,0,0-9.636,9.636v92.648a9.655,9.655,0,0,0,9.636,9.636h78.393a9.655,9.655,0,0,0,9.638-9.636v-92.648A9.655,9.655,0,0,0-103.562-118.21Zm4.608,102.283a4.621,4.621,0,0,1-4.608,4.608h-78.393a4.621,4.621,0,0,1-4.608-4.608v-92.648a4.619,4.619,0,0,1,4.608-4.608h78.393a4.619,4.619,0,0,1,4.608,4.608Z" transform="translate(229.86 158.321)" fill="#183e71"/>
        <path id="Trazado_877" data-name="Trazado 877" d="M-81.062-90.692V1.956A4.621,4.621,0,0,1-85.67,6.564h-78.4a4.621,4.621,0,0,1-4.608-4.608V-90.692a4.619,4.619,0,0,1,4.608-4.608h78.393A4.619,4.619,0,0,1-81.062-90.692Z" transform="translate(211.977 140.439)" fill="#d6e9f8"/>
        <path id="Trazado_878" data-name="Trazado 878" d="M244.609,445.527l-2.249-4.29,38.455-20.167,4.725,10.663,14.551-10.261,2.791,3.961-19.377,13.662-5.023-11.332Z" transform="translate(-189.177 -328.673)" fill="#4480ad"/>
        <path id="Trazado_879" data-name="Trazado 879" d="M489.2,420.3l-2.326-7.369-6.127-4.709,14.959-1.472Z" transform="translate(-375.254 -317.495)" fill="#4480ad"/>
        <path id="Trazado_880" data-name="Trazado 880" d="M-37.55,155.1s3.97-1.626,4.338.369c.5,2.736-2.932,2.447-5.021,1.2S-37.55,155.1-37.55,155.1Z" transform="translate(110.764 -54.524)" fill="#f8b37d"/>
        <path id="Trazado_881" data-name="Trazado 881" d="M-97.359,105.42a68.7,68.7,0,0,1-10.38.417,10.313,10.313,0,0,1-1.949-.316c-1.756-.522-3.651-4.071-5-7.184-1.121-2.585-1.872-4.869-1.872-4.869l1.29-5.677a.547.547,0,0,1,.055.037.145.145,0,0,1,.035.024h0a20.515,20.515,0,0,1,7.81,12.756l10.314,1.863A6.388,6.388,0,0,1-97.359,105.42Z" transform="translate(171.295 -2.474)" fill="#162e4a"/>
        <path id="Trazado_882" data-name="Trazado 882" d="M-102.954,105.994a10.313,10.313,0,0,1-1.949-.316c-1.756-.522-3.651-4.071-5-7.184l-.1-.713L-110.43,88h0l.035.035h0A29.954,29.954,0,0,1-102.954,105.994Z" transform="translate(166.51 -2.638)" fill="#162e4a" style="mix-blend-mode: multiply;isolation: isolate"/>
        <rect id="Rectángulo_346" data-name="Rectángulo 346" width="10.696" height="15.729" transform="translate(52.341 124.276)" fill="#d64723"/>
        <rect id="Rectángulo_347" data-name="Rectángulo 347" width="10.696" height="21.933" transform="translate(71.575 118.072)" fill="#f5a996"/>
        <rect id="Rectángulo_348" data-name="Rectángulo 348" width="10.696" height="28.139" transform="translate(90.808 111.866)" fill="#d64723"/>
        <rect id="Rectángulo_349" data-name="Rectángulo 349" width="10.696" height="34.342" transform="translate(110.042 105.663)" fill="#f5a996"/>
        <path id="Trazado_883" data-name="Trazado 883" d="M-108.354,375.86s5.225,1.176,5.12,2.633-8.027.729-8.027.729a3.228,3.228,0,0,1,.219-2.284C-110.443,376.141-108.354,375.86-108.354,375.86Z" transform="translate(167.252 -227.33)" fill="#1a1f26"/>
        <path id="Trazado_884" data-name="Trazado 884" d="M-210.18,365.088s3.921,3.645,3.1,4.85-7.3-3.414-7.3-3.414.419-1.477,1.317-1.867S-210.18,365.088-210.18,365.088Z" transform="translate(247.649 -218.502)" fill="#1a1f26"/>
        <path id="Trazado_885" data-name="Trazado 885" d="M-133.215,198.568s-1.578,1.729-5.372.766l-1.1-11.314-.768-8.045-.061-.658-.406-4.224-.608-2.541-.2-.816-.114-.465-3.327-13.855-.564-2.348.285-.492,3.417-5.874.287-.5,3.583,1.975,2.008,1.1s.053.386.14,1.06c.039.279.081.606.132.974.09.685.2,1.516.316,2.456.057.45.118.924.178,1.415.4,3.123.865,7.022,1.22,10.533a1.875,1.875,0,0,0,.029.27,59.61,59.61,0,0,1,.487,8.435C-133.656,176.488-133.215,198.568-133.215,198.568Z" transform="translate(194.064 -49.627)" fill="#916d82"/>
        <path id="Trazado_886" data-name="Trazado 886" d="M-185.484,157s-.2.544-.555,1.468h0c-.439,1.192-1.141,3.015-1.953,5.111-1.418,3.669-6.454,15.488-6.583,15.725l-4.415,8.558-6.272,12.186a5.114,5.114,0,0,1-5.1-1.87l4.85-11.578,1.365-3.261.116-.279,1.709-4.088,1.358-3.246.055-.206,2.328-8.872,2.723-10.364.123-.476,3.292-2.032,3.465-2.133.04.061,1.705,2.622Z" transform="translate(244.511 -52.313)" fill="#bb9bae"/>
        <path id="Trazado_887" data-name="Trazado 887" d="M-136.885,107.881a6.146,6.146,0,0,1-.7.353,8.152,8.152,0,0,1-1.207.417,11.6,11.6,0,0,1-2,.342,19.53,19.53,0,0,1-3.72-.059,28.406,28.406,0,0,1-2.853-.456c-.737-.16-1.187-.29-1.187-.29l2.315-20.768.2-1.775.09-.013a14.284,14.284,0,0,1,4.668.105h0c.029.055.055.112.086.173a.138.138,0,0,1,0,.02c.187.366.4.8.641,1.268,1.361,2.717,3.362,6.737,3.362,6.886C-137.19,94.319-136.885,107.881-136.885,107.881Z" transform="translate(196.265 -0.677)" fill="#fbe9e7"/>
        <path id="Trazado_888" data-name="Trazado 888" d="M-110.757,120.555c-3.491.439-4.951-1.508-4.951-1.508s.219-3.884.5-8.538c.145-2.528.3-5.284.439-7.762.184-3.32.325-6.144.355-7.31a26.781,26.781,0,0,0-1.363-7.88l.165-.127a.138.138,0,0,1,0,.02c.187.366.4.8.641,1.268,1.361,2.717,3.362,6.737,3.362,6.886,0,.219.305,13.792.305,13.792a6.147,6.147,0,0,1-.7.353c.4,3.123.865,7.022,1.22,10.533C-110.781,120.375-110.77,120.471-110.757,120.555Z" transform="translate(170.686 -2.193)" fill="#dbcbca" style="mix-blend-mode: multiply;isolation: isolate"/>
        <path id="Trazado_889" data-name="Trazado 889" d="M-177.313,220.437s-4.185,11.5-10.9,19.574l1.365-3.261.116-.279,1.709-4.088,1.358-3.246.055-.206,2.328-8.872Z" transform="translate(227.222 -105.718)" fill="#bb9bae" style="mix-blend-mode: multiply;isolation: isolate"/>
        <path id="Trazado_890" data-name="Trazado 890" d="M-175.5,237.558a.406.406,0,0,1-.193-.048.421.421,0,0,1-.209-.246.421.421,0,0,1,.027-.322l7.816-15.172,6.386-15.24a.424.424,0,0,1,.553-.219.421.421,0,0,1,.219.553l-6.405,15.286-7.825,15.185A.419.419,0,0,1-175.5,237.558Z" transform="translate(217.632 -94.96)" fill="#fbe7f2"/>
        <path id="Trazado_891" data-name="Trazado 891" d="M-165.632,109.411c-.878,4.117-1.931,7.511-2.853,7.854-2.3.862-3.162-1.2-7.125-2.01h0a70.6,70.6,0,0,0,3.228-10.125,25.1,25.1,0,0,0,.676-5.047c.057-5.925-.805-10.287.057-11.78a1.652,1.652,0,0,1,.176-.248,7.216,7.216,0,0,1,3.072-1.723c.424-.09.832-.158,1.227-.219l.09-.013c.14.266.478.908.9,1.742a34.653,34.653,0,0,1,2.471,5.969C-163.337,95.4-164.3,103.227-165.632,109.411Z" transform="translate(217.387 -1.155)" fill="#162e4a"/>
        <path id="Trazado_892" data-name="Trazado 892" d="M-94.755,253.419a.424.424,0,0,1-.421-.415l-.415-20.548-.865-9.813a.424.424,0,0,1,.384-.459.424.424,0,0,1,.459.384l.878,9.857.415,20.57a.424.424,0,0,1-.115.306.424.424,0,0,1-.3.133Z" transform="translate(155.603 -107.375)" fill="#fbe7f2"/>
        <path id="Trazado_893" data-name="Trazado 893" d="M-115.79,86l.075.147h0A1.129,1.129,0,0,0-115.79,86Z" transform="translate(170.694 -1.077)" fill="#2f2c79"/>
        <rect id="Rectángulo_350" data-name="Rectángulo 350" width="35.878" height="4.362" transform="translate(49.163 71.017)" fill="#84a9ba"/>
        <rect id="Rectángulo_351" data-name="Rectángulo 351" width="35.878" height="4.362" transform="translate(49.163 79.753)" fill="#84a9ba"/>
        <path id="Trazado_894" data-name="Trazado 894" d="M245.2,550.11l-3.943,17.676-.775-8.038-.064-.65-.4-4.224-.61-2.541Z" transform="translate(-186.866 -429.396)" fill="#bb9bae" style="mix-blend-mode: multiply;isolation: isolate"/>
        <path id="Trazado_895" data-name="Trazado 895" d="M-108.748,115.523a7.364,7.364,0,0,1-4.446.689s.114-2.925.239-6.66c.2-5.982.439-14.044.3-15.558a23.877,23.877,0,0,0-2.1-5.89c-.219-.472-.426-.9-.6-1.271-.035-.066-.066-.132-.1-.193a9.933,9.933,0,0,1,1.1.279c.219.34.461.726.715,1.143,1.317,2.166,2.956,5.207,3.353,7.54C-109.591,99.666-108.748,115.523-108.748,115.523Z" transform="translate(170.428 -1.576)" fill="#162e4a"/>
        <path id="Trazado_896" data-name="Trazado 896" d="M-144.763,30.34c3.845,0,4.608,5.716,3.428,9.982l-9.333.553S-152.832,30.34-144.763,30.34Z" transform="translate(198.124 42.369)" fill="#183e72"/>
        <rect id="Rectángulo_352" data-name="Rectángulo 352" width="35.878" height="8.132" transform="translate(49.163 56.455)" fill="#fff"/>
        <path id="Trazado_897" data-name="Trazado 897" d="M-130.766,67.253c-1.655,1.167-4.2-.081-4.2-.081l.314-4.575,1.938-.689,1.034-.36.358-.127.033.353.483,5.071Z" transform="translate(185.665 18.11)" fill="#f8b37d"/>
        <path id="Trazado_898" data-name="Trazado 898" d="M-129.824,66.776a4.739,4.739,0,0,1-3.886-3.73l1.975-1.209.808-.5.226.145.391.219Z" transform="translate(184.681 18.172)" fill="#f8b37d" style="mix-blend-mode: multiply;isolation: isolate"/>
        <path id="Trazado_899" data-name="Trazado 899" d="M-138.457,231.273l-10.077,2.491-1.569.388-.105.022a1.716,1.716,0,0,1-1.975-1.275l-1.317-5.339a1.716,1.716,0,0,1,1.255-2.078L-140.6,222.6a1.71,1.71,0,0,1,1.488.334,1.681,1.681,0,0,1,.59.922l1.317,5.339A1.716,1.716,0,0,1-138.457,231.273Z" transform="translate(200.168 -107.665)" fill="#222429"/>
        <path id="Trazado_900" data-name="Trazado 900" d="M-137.614,217.988l.276,1.121,1.1-.27-.279-1.121a.406.406,0,0,1,.018-.25.415.415,0,0,1,.287-.255l3.641-.9a.421.421,0,0,1,.509.3l.277,1.121,1.1-.27-.277-1.121a1.547,1.547,0,0,0-1.872-1.128l-3.641.9a1.552,1.552,0,0,0-1.071.944A1.536,1.536,0,0,0-137.614,217.988Z" transform="translate(187.763 -101.904)" fill="#21274f"/>
        <path id="Trazado_901" data-name="Trazado 901" d="M-133.287,34.54s1.374,5.181.777,6.958-5.093,2.947-6.289-1.734,1.975-5.745,1.975-5.745Z" transform="translate(188.864 39.497)" fill="#f8b37d"/>
        <path id="Trazado_902" data-name="Trazado 902" d="M-130.946,33.252a3.286,3.286,0,0,1-3.329,2.732l-.682,1.475-1.113-3.333,2.73-1.756Z" transform="translate(186.523 40.785)" fill="#f8b37d" style="mix-blend-mode: multiply;isolation: isolate"/>
        <path id="Trazado_903" data-name="Trazado 903" d="M-141.006,42.521s.729,3.261-.351,5.611-2.153-2.554-2.153-2.554l.263-3.357Z" transform="translate(192.331 33.096)" fill="#183e72"/>
        <path id="Trazado_904" data-name="Trazado 904" d="M-137.626,52.8a1.145,1.145,0,0,0,1.3.959,1.145,1.145,0,0,0,.957-1.3,1.143,1.143,0,0,0-1.3-.957A1.143,1.143,0,0,0-137.626,52.8Z" transform="translate(187.748 25.86)" fill="#f8b37d"/>
        <path id="Trazado_905" data-name="Trazado 905" d="M-135.481,33.221s-1.255,2.493-6.4,2.065l1.51-2.589s1.622-.366,1.683-.366S-135.481,33.221-135.481,33.221Z" transform="translate(191.058 40.816)" fill="#183e72"/>
        <path id="Trazado_906" data-name="Trazado 906" d="M-166.918,180.721l-.4,1.756s-5.613-3.325-8.275.478a70.6,70.6,0,0,0,3.228-10.125l1.775.941Z" transform="translate(217.371 -68.853)" fill="#162e4a" style="mix-blend-mode: multiply;isolation: isolate"/>
        <path id="Trazado_907" data-name="Trazado 907" d="M-162.241,108.47s-4.8,12.247,1.317,21.865l-3.919-3.95-5.986-8.444Z" transform="translate(213.656 -18.616)" fill="#162e4a" style="mix-blend-mode: multiply;isolation: isolate"/>
        <path id="Trazado_908" data-name="Trazado 908" d="M-135.05,208.17s3.608,2.254,2.056,3.7c-2.142,2-3.687-2.414-3.687-2.414Z" transform="translate(187 -96.438)" fill="#f8b37d"/>
        <path id="Trazado_909" data-name="Trazado 909" d="M-169.34,98.01l-4.76,10.617,6.085,11.249a3.932,3.932,0,0,1-2.684,1.9s-8.633-10.478-9.131-12.585c-.595-2.5,1.657-10.621,4.948-14.117Z" transform="translate(220.755 -8.156)" fill="#162e4a"/>
        <rect id="Rectángulo_353" data-name="Rectángulo 353" width="52.701" height="10" transform="translate(60.752 38.15)" fill="#5995ca"/>
        <path id="Trazado_910" data-name="Trazado 910" d="M-173.876,118.259a.285.285,0,0,1-.206-.088c-.305-.325-7.511-8-6.978-11.957a29.943,29.943,0,0,1,5.047-12.289.281.281,0,0,1,.186-.111.281.281,0,0,1,.209.054.285.285,0,0,1,.057.395A29.462,29.462,0,0,0-180.5,106.3c-.5,3.7,6.757,11.411,6.829,11.494a.281.281,0,0,1,.078.2.281.281,0,0,1-.089.2A.287.287,0,0,1-173.876,118.259Z" transform="translate(221.663 -7.174)" fill="#729cbc"/>
        <path id="Trazado_911" data-name="Trazado 911" d="M-81.488,115.407a.2.2,0,0,1-.05,0l-8.275-1.5-.037-.189a19.775,19.775,0,0,0-3.849-8.745.281.281,0,0,1-.073-.2.281.281,0,0,1,.094-.2.283.283,0,0,1,.4.022,19.961,19.961,0,0,1,3.95,8.826l7.9,1.429a.279.279,0,0,1,.219.327A.281.281,0,0,1-81.488,115.407Z" transform="translate(153.508 -15.522)" fill="#729cbc"/>
        <rect id="Rectángulo_354" data-name="Rectángulo 354" width="39.313" height="21.97" transform="translate(22.124 36.622)" fill="#f5a996"/>
        <rect id="Rectángulo_355" data-name="Rectángulo 355" width="3.39" height="14.942" transform="translate(24.476 41.514)" fill="#fff"/>
        <rect id="Rectángulo_356" data-name="Rectángulo 356" width="3.39" height="8.848" transform="translate(30.746 47.608)" fill="#fff"/>
        <rect id="Rectángulo_357" data-name="Rectángulo 357" width="3.39" height="12.752" transform="translate(37.015 43.704)" fill="#fff"/>
        <rect id="Rectángulo_358" data-name="Rectángulo 358" width="3.39" height="6.746" transform="translate(43.284 49.71)" fill="#fff"/>
        <rect id="Rectángulo_359" data-name="Rectángulo 359" width="3.39" height="5.016" transform="translate(55.823 51.439)" fill="#fff"/>
        <rect id="Rectángulo_360" data-name="Rectángulo 360" width="3.39" height="11.762" transform="translate(49.554 44.693)" fill="#fff"/>
        <path id="Trazado_912" data-name="Trazado 912" d="M-231.064-138.588h-38.5a1.756,1.756,0,0,1-1.245-.518,1.756,1.756,0,0,1-.51-1.248h0a1.756,1.756,0,0,1,1.756-1.756h38.5a1.756,1.756,0,0,1,1.249.518,1.756,1.756,0,0,1,.518,1.249h0A1.766,1.766,0,0,1-231.064-138.588Z" transform="translate(292.094 176.977)" fill="#183e71"/>
        <path id="Trazado_913" data-name="Trazado 913" d="M-225.853-134.11v21.968H-265.17C-233.781-113.625-225.853-134.11-225.853-134.11Z" transform="translate(287.294 170.732)" fill="#f5a996" style="mix-blend-mode: multiply;isolation: isolate"/>
        <path id="Trazado_914" data-name="Trazado 914" d="M-295.6,346.439V346a13.7,13.7,0,0,0-8.1,2.8,6,6,0,0,0-1.859,2.229l.413.165-.206-.083.206.083a5.89,5.89,0,0,1,1.745-2.065A13.3,13.3,0,0,1-295.6,346.439Z" transform="translate(318.813 -204.022)" fill="#222d21"/>
        <path id="Trazado_915" data-name="Trazado 915" d="M-324.06,337.533l.439-.026c-.241-3.95-1.554-6.239-2.614-7.461a6.012,6.012,0,0,0-2.308-1.756l-.145.417.072-.208-.075.208a5.692,5.692,0,0,1,2.142,1.652C-325.541,331.529-324.295,333.728-324.06,337.533Z" transform="translate(336.875 -190.198)" fill="#222d21"/>
        <path id="Trazado_916" data-name="Trazado 916" d="M-358.794,309.8c-.355-.56-3.355.856-3.355.856l-.129.092c-.055-.05-.11-.1-.162-.154a17.688,17.688,0,0,1-2.572-3.217s3.4-.294,3.23-.878-3.489.419-3.489.419h0c-.786-1.468-1.075-2.94-.094-3.921a5.83,5.83,0,0,1,4.15-1.119c.035.143.9,3.511,1.536,2.978s-1.146-2.956-1.146-2.956a9.876,9.876,0,0,1,4.628,1.374c-.055,1.209-.123,3.9.366,3.73.628-.2,0-3.463,0-3.463a2.222,2.222,0,0,1,.219.208,4.969,4.969,0,0,1,.189,7.022,4.923,4.923,0,0,1-6.563.219C-360.7,310.725-358.544,310.194-358.794,309.8Z" transform="translate(365.989 -169.581)" fill="#2f576d"/>
        <path id="Trazado_917" data-name="Trazado 917" d="M-305.7,317.473l-.647.024c-.219-5.769,1.365-9.282,2.728-11.216a8.778,8.778,0,0,1,3.1-2.881l.272.588-.136-.294.136.292a8.294,8.294,0,0,0-2.872,2.706C-304.405,308.541-305.9,311.912-305.7,317.473Z" transform="translate(319.448 -170.77)" fill="#222d21"/>
        <path id="Trazado_918" data-name="Trazado 918" d="M-296.594,274.163c.439-.862,4.994.764,4.994.764l.2.116.219-.248a25.923,25.923,0,0,0,3.276-5.047s-4.979.057-4.817-.808,5.126.112,5.126.112h0c.928-2.247,1.141-4.428-.426-5.705-1.328-1.1-3.711-1.35-6.184-1.031-.033.219-.8,5.22-1.817,4.547s1.251-4.461,1.253-4.463a14.415,14.415,0,0,0-6.528,2.657c.252,1.756.737,5.64,0,5.486-.941-.206-.494-5.027-.494-5.027a3.053,3.053,0,0,0-.3.336,7.258,7.258,0,0,0,.731,10.23,7.2,7.2,0,0,0,9.565-.619C-293.7,275.237-296.9,274.774-296.594,274.163Z" transform="translate(317.489 -138.602)" fill="#7fa3ba"/>
        <path id="Trazado_919" data-name="Trazado 919" d="M-331.018,370.524h2.157a5.984,5.984,0,0,0,5.984-5.984H-337a5.973,5.973,0,0,0,2.37,4.771A5.958,5.958,0,0,0-331.018,370.524Z" transform="translate(343.361 -218.494)" fill="#6a3e3f"/>
        <path id="Trazado_920" data-name="Trazado 920" d="M-271.4,336.736c.6-.266,2.306,2.583,2.306,2.583l.053.147.219-.037a17.777,17.777,0,0,0,3.928-1.233s-2.657-2.142-2.194-2.528,2.662,2.3,2.662,2.3h0c1.47-.781,2.535-1.841,2.267-3.2a5.808,5.808,0,0,0-2.818-3.243c-.112.1-2.7,2.414-2.943,1.611s2.607-1.813,2.607-1.813a9.9,9.9,0,0,0-4.608-1.444c-.628,1.034-2.072,3.3-2.388,2.9-.406-.522,1.933-2.875,1.933-2.875a1.455,1.455,0,0,0-.307.046,4.974,4.974,0,0,0-4.077,5.725,4.937,4.937,0,0,0,5.324,3.847C-270.336,338.566-271.828,336.921-271.4,336.736Z" transform="translate(294.845 -191.432)" fill="#bbd7e7"/>
        <path id="Trazado_921" data-name="Trazado 921" d="M213.067,232.907s-2.37-3.983-.54-7.105.108-6.3-1.453-5.653-2.53,3.072-4.47,3.175-3.338-1.508-5.113-.645.108,2.583-2.477,3.292,5.486,5.37,5.486,5.37l-.27,3.406Z" transform="translate(-74.631 -105.722)" fill="#d64723"/>
        <path id="Trazado_922" data-name="Trazado 922" d="M230.367,262.781s-.162-3.875-3.338-3.823a19.95,19.95,0,0,0-6.072,1.514,2.914,2.914,0,0,0-1.453,4.235l.039.066Z" transform="translate(-90.694 -136.08)" fill="#992415"/>
        <path id="Trazado_923" data-name="Trazado 923" d="M202.707,297.97H152.17s1.615-19.043,14.678-24.946h0a19.062,19.062,0,0,1,4.99-1.47C177.4,270.7,192.8,273.134,202.707,297.97Z" transform="translate(-38.465 -145.804)" fill="#d64723"/>
        <path id="Trazado_924" data-name="Trazado 924" d="M251.438,310.447V307.12a7.961,7.961,0,0,1,2.982,1.014l.974-2.4a8.827,8.827,0,0,0-3.95-1.189V302.42h-1.951v2.166c-3.072.351-4.582,2.126-4.582,4.191,0,2.789,2.414,3.511,4.582,4.038v3.254a7.922,7.922,0,0,1-3.783-1.382l-1.071,2.377a9.207,9.207,0,0,0,4.854,1.56v2.124h1.951v-2.181c3.061-.371,4.54-2.126,4.54-4.152C255.978,311.663,253.6,310.943,251.438,310.447Zm-1.951-.489c-.858-.272-1.442-.643-1.442-1.317,0-.643.41-1.209,1.442-1.444ZM251.438,316v-2.7c.838.294,1.4.658,1.4,1.345,0,.63-.43,1.132-1.4,1.345Z" transform="translate(-110.643 -170.005)" fill="#fbdedb"/>
        <path id="Trazado_925" data-name="Trazado 925" d="M184.544,303.7H152.17s1.615-19.043,14.678-24.946h0S144.549,301.019,184.544,303.7Z" transform="translate(-38.465 -151.53)" fill="#d64723" style="mix-blend-mode: multiply;isolation: isolate"/>
        <path id="Trazado_926" data-name="Trazado 926" d="M66-44.443l7.726,3.235a6.1,6.1,0,0,1,4.562-3.259v-8.4A14.465,14.465,0,0,0,66-44.443Z" transform="translate(28.796 107.32)" fill="#5b90c0"/>
        <path id="Trazado_927" data-name="Trazado 927" d="M108.245,17.59a6.1,6.1,0,0,1-8.049,4.722L95.57,29.4A14.47,14.47,0,0,0,116.658,17.59Z" transform="translate(5.715 52.321)" fill="#fff"/>
        <path id="Trazado_928" data-name="Trazado 928" d="M68.491-1.666a6.289,6.289,0,0,1-.086-1.025,5.85,5.85,0,0,1,.042-.713c.015-.138.037-.276.064-.413L60.72-7.08a14.38,14.38,0,0,0-.68,4.389A14.435,14.435,0,0,0,66.347,9.251L70.92,2.244a6.1,6.1,0,0,1-2.429-3.91Z" transform="translate(33.448 71.578)" fill="#2f576d"/>
        <path id="Trazado_929" data-name="Trazado 929" d="M148.365-56.311H129.89V-74.86a19.333,19.333,0,0,1,18.475,18.549Z" transform="translate(-21.074 124.484)" fill="#f5a996"/>
        <path id="Trazado_930" data-name="Trazado 930" d="M-120.613,232.637l-10.077,2.491c10.972-3.072,9.423-10.827,9.423-10.827a1.681,1.681,0,0,1,.59.922l1.317,5.339A1.716,1.716,0,0,1-120.613,232.637Z" transform="translate(182.324 -109.028)" fill="#222429" opacity="0.8" style="mix-blend-mode: multiply;isolation: isolate"/>
      </g>
    </g>
  </g>
</svg>
