<svg xmlns="http://www.w3.org/2000/svg" xmlns:xlink="http://www.w3.org/1999/xlink" width="356.946" height="300.787" viewBox="0 0 356.946 300.787">
  <defs>
    <clipPath id="clip-path">
      <path id="SVGID" d="M3715.381,1288.493a4.622,4.622,0,0,1-1.137,2.722c-1.465,1.286-.528,9.019-.528,9.019s6.778.371,7.987-.034l-.059-1.969a12.678,12.678,0,0,1,9.774,1.882s18.229.862,22.09-1.452c0,0,1.207-3.207-.723-4.706s-14.648-5.817-18.63-6.365c-3.23-.445-3.773.469-3.773.469s-9.608,2.554-15,.435Z" transform="translate(-3713.421 -1287.466)" fill="none" clip-rule="evenodd"/>
    </clipPath>
    <clipPath id="clip-path-2">
      <path id="SVGID-2" data-name="SVGID" d="M3821.335,1284.784a4.628,4.628,0,0,1-1.137,2.722c-1.465,1.286-.529,9.019-.529,9.019s6.778.371,7.987-.034l-.059-1.969a12.682,12.682,0,0,1,9.775,1.882s18.229.861,22.089-1.453c0,0,1.207-3.206-.723-4.706s-14.648-5.816-18.63-6.365c-3.23-.444-3.773.469-3.773.469s-9.608,2.554-15,.435Z" transform="translate(-3819.374 -1283.757)" fill="none" clip-rule="evenodd"/>
    </clipPath>
    <clipPath id="clip-path-3">
      <path id="SVGID-3" data-name="SVGID" d="M3754.664,840.372l.418-7.18s2.636-.405,6.708,2.129c5.51,3.427,24.95,26.763,15.014,74.349,0,0-26.3,13.153-49.41-.81-5.291,1.527-12.319-74.907,21.684-76.449,0,0,5.132,7.252,5.586,7.962Z" transform="translate(-3722.947 -832.41)" fill="none" clip-rule="evenodd"/>
    </clipPath>
    <clipPath id="clip-path-4">
      <path id="SVGID-4" data-name="SVGID" d="M3974.559,1279.011a4.628,4.628,0,0,0,1.137,2.722c1.465,1.286.529,9.018.529,9.018s-6.777.371-7.987-.034l.06-1.968a12.683,12.683,0,0,0-9.776,1.882s-18.229.861-22.088-1.453c0,0-1.208-3.207.722-4.706s14.659-5.743,18.63-6.364a6.545,6.545,0,0,1,4.042.482c.726.231,9.339,2.541,14.731.421Z" transform="translate(-3936.06 -1277.983)" fill="none" clip-rule="evenodd"/>
    </clipPath>
    <clipPath id="clip-path-5">
      <path id="SVGID-5" data-name="SVGID" d="M4109.782,1245.288a4.622,4.622,0,0,0,2.345,1.788c1.913.382,4.967,7.547,4.967,7.547s-5.684,3.71-6.934,3.964l-.933-1.734a12.682,12.682,0,0,0-7.525,6.517s-15.356,9.86-19.856,9.787c0,0-2.648-2.173-1.728-4.437s9.823-12.3,12.952-14.828a6.553,6.553,0,0,1,3.742-1.6c.744-.163,9.358-2.469,12.968-7Z" transform="translate(-4079.925 -1245.288)" fill="none" clip-rule="evenodd"/>
    </clipPath>
    <clipPath id="clip-path-6">
      <path id="SVGID-6" data-name="SVGID" d="M3992.02,833.581s-34.887,47.087-18.743,85.915c0,0,24.59,8.224,42.694-7.3.044-.1,11.979-72.675-23.951-78.61Z" transform="translate(-3969.011 -833.581)" fill="none" clip-rule="evenodd"/>
    </clipPath>
  </defs>
  <g id="Grupo_148" data-name="Grupo 148" transform="translate(-3508.248 -622.467)">
    <g id="Grupo_145" data-name="Grupo 145" transform="translate(3595.606 679.932)">
      <path id="Trazado_685" data-name="Trazado 685" d="M3782.563,808.9c.784.316.059,8.785-.506,15.653a10.233,10.233,0,0,0,2.645,3.914c.894.823,2.167,1.227,2.249.774a8.663,8.663,0,0,0,2.494-3.694s-1.05-2.067-.846-11.471-6.036-5.177-6.036-5.177Z" transform="translate(-3750.889 -785.125)" fill="#feb39d" fill-rule="evenodd"/>
      <path id="Trazado_686" data-name="Trazado 686" d="M3783.69,827.367a3.615,3.615,0,0,1-.556-1.253c.564-6.868,1.291-15.337.506-15.653,0,0,2.657-1.8,4.446-.438-1.462-3.874-5.523-1.122-5.523-1.122.784.316.059,8.785-.506,15.653a8.276,8.276,0,0,0,1.633,2.813Z" transform="translate(-3750.889 -785.125)" fill="#de826c" fill-rule="evenodd"/>
      <path id="Trazado_687" data-name="Trazado 687" d="M3789.567,789.362c-.488,2.861-1.715,5.239-3.919,6.633,0,0-4.569,2.765-11.05-6.782-1.145.333-6.641-1.249-5.353-5.052,1.033-3.05,3.949-1.494,4.348-.039l-1.492-7.9,8.331-5.774,5.735.163,2.943,3.419c.6-1.132.959,12.393.458,15.333Z" transform="translate(-3743.512 -763.855)" fill="#feb39d" fill-rule="evenodd"/>
      <path id="Trazado_688" data-name="Trazado 688" d="M3779.638,783.9c.107.281,2.633-2.1,2.37-5.664-.251-3.394,1.451-4.6,8.446-3.374s4.12-3.666,4.12-3.666-9.192-1.469-9.659-1.831-5.559,4.511-5.559,4.511l.075,7.857.206,2.167Z" transform="translate(-3749.358 -763.229)" fill="#de826c" fill-rule="evenodd"/>
      <path id="Trazado_689" data-name="Trazado 689" d="M3770.226,789.226c-1.147,3.724,4.254,5.273,5.388,4.943,6.481,9.548,11.05,6.782,11.05,6.782a6.816,6.816,0,0,0,1.606-1.417,7.41,7.41,0,0,1-2.622,2.973s-4.569,2.765-11.05-6.782c-1.145.333-6.641-1.249-5.353-5.052a2.75,2.75,0,0,1,.981-1.447Zm3.033-7.295,1.35,7.147A2.622,2.622,0,0,0,3773,787.5l-.9-4.768,1.159-.8Z" transform="translate(-3743.512 -770.368)" fill="#de826c" fill-rule="evenodd"/>
      <path id="Trazado_690" data-name="Trazado 690" d="M3771.833,776.154s1.839-1.039,1.488-4.633.843-7.445,4.085-6.484,13.7,4.953,16.07-2.512-3.171-8.02-6.157-6.811-5.076,1.224-8.37.815-8.947.72-9.427,4.818c0,0-7.491,3.591-.922,12.582a3.145,3.145,0,0,1,3.231,2.225Z" transform="translate(-3741.728 -755.218)" fill="#3c1522" fill-rule="evenodd"/>
      <path id="Trazado_691" data-name="Trazado 691" d="M3716.761,1271.108a71.569,71.569,0,0,0,.814,9.54c.731,4.073,12.488,1.721,12.488,1.721l3.183-2.614-.413-5.329-16.072-3.318Z" transform="translate(-3713.858 -1047.789)" fill="#b2cce9" fill-rule="evenodd"/>
      <path id="Trazado_692" data-name="Trazado 692" d="M3715.381,1288.493a4.622,4.622,0,0,1-1.137,2.722c-1.465,1.286-.528,9.019-.528,9.019s6.778.371,7.987-.034l-.059-1.969a12.678,12.678,0,0,1,9.774,1.882s18.229.862,22.09-1.452c0,0,1.207-3.207-.723-4.706s-14.648-5.817-18.63-6.365c-3.23-.445-3.773.469-3.773.469s-9.608,2.554-15,.435Z" transform="translate(-3711.964 -1057.067)" fill="#393939" fill-rule="evenodd"/>
      <g id="Grupo_134" data-name="Grupo 134" transform="translate(1.456 230.4)">
        <g id="Grupo_133" data-name="Grupo 133" clip-path="url(#clip-path)">
          <path id="Trazado_693" data-name="Trazado 693" d="M3730.278,1289.622s10.218.839,12.545-3.048l3.22-.729s-3.009,6.811-15.765,3.777Z" transform="translate(-3722.981 -1286.547)" fill-rule="evenodd"/>
          <path id="Trazado_694" data-name="Trazado 694" d="M3767.634,1286.645l-.8-.294-1.606,4.352.8.293,1.606-4.352Z" transform="translate(-3742.804 -1286.834)" fill-rule="evenodd"/>
          <path id="Trazado_695" data-name="Trazado 695" d="M3772.595,1287.541l-.8-.293-1.606,4.351.8.294,1.606-4.352Z" transform="translate(-3745.617 -1287.343)" fill-rule="evenodd"/>
          <path id="Trazado_696" data-name="Trazado 696" d="M3777.983,1288.384l-.8-.293-1.606,4.352.8.293,1.606-4.352Z" transform="translate(-3748.673 -1287.82)" fill-rule="evenodd"/>
          <path id="Trazado_697" data-name="Trazado 697" d="M3783.726,1289.355l-.8-.293-1.6,4.351.8.294,1.6-4.352Z" transform="translate(-3751.931 -1288.371)" fill-rule="evenodd"/>
          <path id="Trazado_698" data-name="Trazado 698" d="M3789.852,1290.036l-.795-.294-1.606,4.352.8.294,1.6-4.352Z" transform="translate(-3755.404 -1288.757)" fill-rule="evenodd"/>
        </g>
      </g>
      <path id="Trazado_699" data-name="Trazado 699" d="M3796.589,1299.563a13.22,13.22,0,0,1,2.447,1.251c1.93,1.5.723,4.706.723,4.706a11.49,11.49,0,0,1-3.889,1.055,5.6,5.6,0,0,1-.894-3.072,5.446,5.446,0,0,1,1.613-3.94Z" transform="translate(-3758.216 -1063.927)" fill="#141414" fill-rule="evenodd"/>
      <path id="Trazado_700" data-name="Trazado 700" d="M3713.616,1309.363l.21,1.877s6.777.37,7.987-.035l-.059-1.969a12.68,12.68,0,0,1,9.775,1.882s18.229.861,22.089-1.452a6.413,6.413,0,0,0,.326-2.792,6.831,6.831,0,0,1-.352,1.66c-3.861,2.314-22.032,1.8-22.032,1.8a12.1,12.1,0,0,0-10.171-1.306l-.009.193c-1.209.4-7.764.138-7.764.138Z" transform="translate(-3712.075 -1068.073)" fill-rule="evenodd"/>
      <path id="Trazado_701" data-name="Trazado 701" d="M3822.715,1267.4a71.653,71.653,0,0,0,.814,9.54c.732,4.074,12.487,1.721,12.487,1.721l3.184-2.614-.412-5.329-16.073-3.318Z" transform="translate(-3773.947 -1045.686)" fill="#b2cce9" fill-rule="evenodd"/>
      <path id="Trazado_702" data-name="Trazado 702" d="M3821.335,1284.784a4.628,4.628,0,0,1-1.137,2.722c-1.465,1.286-.529,9.019-.529,9.019s6.778.371,7.987-.034l-.059-1.969a12.682,12.682,0,0,1,9.775,1.882s18.229.861,22.089-1.453c0,0,1.207-3.206-.723-4.706s-14.648-5.816-18.63-6.365c-3.23-.444-3.773.469-3.773.469s-9.608,2.554-15,.435Z" transform="translate(-3772.052 -1054.963)" fill="#393939" fill-rule="evenodd"/>
      <g id="Grupo_136" data-name="Grupo 136" transform="translate(47.322 228.794)">
        <g id="Grupo_135" data-name="Grupo 135" clip-path="url(#clip-path-2)">
          <path id="Trazado_703" data-name="Trazado 703" d="M3836.231,1285.914s10.218.839,12.545-3.048l3.22-.728s-3.009,6.811-15.765,3.777Z" transform="translate(-3828.934 -1282.839)" fill-rule="evenodd"/>
          <path id="Trazado_704" data-name="Trazado 704" d="M3873.587,1282.936l-.8-.293-1.605,4.352.8.294,1.605-4.352Z" transform="translate(-3848.757 -1283.125)" fill-rule="evenodd"/>
          <path id="Trazado_705" data-name="Trazado 705" d="M3878.548,1283.833l-.8-.294-1.605,4.352.795.294,1.606-4.352Z" transform="translate(-3851.571 -1283.634)" fill-rule="evenodd"/>
          <path id="Trazado_706" data-name="Trazado 706" d="M3883.936,1284.676l-.795-.293-1.606,4.352.8.294,1.605-4.352Z" transform="translate(-3854.627 -1284.112)" fill-rule="evenodd"/>
          <path id="Trazado_707" data-name="Trazado 707" d="M3889.679,1285.646l-.795-.294-1.6,4.352.795.293,1.6-4.352Z" transform="translate(-3857.885 -1284.662)" fill-rule="evenodd"/>
          <path id="Trazado_708" data-name="Trazado 708" d="M3895.8,1286.328l-.795-.294-1.6,4.352.8.293,1.6-4.351Z" transform="translate(-3861.358 -1285.048)" fill-rule="evenodd"/>
        </g>
      </g>
      <path id="Trazado_709" data-name="Trazado 709" d="M3902.543,1295.855a13.273,13.273,0,0,1,2.448,1.25c1.93,1.5.722,4.706.722,4.706a11.446,11.446,0,0,1-3.889,1.055,5.6,5.6,0,0,1-.894-3.071,5.446,5.446,0,0,1,1.613-3.94Z" transform="translate(-3818.305 -1061.824)" fill="#141414" fill-rule="evenodd"/>
      <path id="Trazado_710" data-name="Trazado 710" d="M3819.57,1305.654l.21,1.876s6.778.37,7.987-.034l-.059-1.969a12.681,12.681,0,0,1,9.775,1.882s18.229.861,22.089-1.453a6.4,6.4,0,0,0,.327-2.792,6.866,6.866,0,0,1-.353,1.66c-3.86,2.314-22.032,1.8-22.032,1.8a12.1,12.1,0,0,0-10.17-1.306l-.009.193c-1.209.406-7.764.139-7.764.139Z" transform="translate(-3772.163 -1065.97)" fill-rule="evenodd"/>
      <path id="Trazado_711" data-name="Trazado 711" d="M3763.7,981.508s8.46,88.658,20.11,119.149c0,0,19.453,6.923,24.453-3.026,0,0,1.184-81.392-9.191-116.884s-35.372.761-35.372.761Z" transform="translate(-3740.478 -874.285)" fill="#141414" fill-rule="evenodd"/>
      <path id="Trazado_712" data-name="Trazado 712" d="M3720.4,980.26s-13.476,87.959-9.668,120.607c0,0,17.1,12.024,24.359,3.785,0,0,21.018-78.294,19.662-115.423s-34.353-8.969-34.353-8.969Z" transform="translate(-3710.056 -877.043)" fill="#373737" fill-rule="evenodd"/>
      <path id="Trazado_713" data-name="Trazado 713" d="M3754.664,840.372l.418-7.18s2.636-.405,6.708,2.129c5.51,3.427,24.95,26.763,15.014,74.349,0,0-26.3,13.153-49.41-.81-5.291,1.527-12.319-74.907,21.684-76.449,0,0,5.132,7.252,5.586,7.962Z" transform="translate(-3717.367 -798.995)" fill="#4381f4" fill-rule="evenodd"/>
      <g id="Grupo_138" data-name="Grupo 138" transform="translate(5.58 33.415)">
        <g id="Grupo_137" data-name="Grupo 137" clip-path="url(#clip-path-3)">
          <path id="Trazado_714" data-name="Trazado 714" d="M3755.9,851.392a11.525,11.525,0,0,0-12.515-9.481,10.185,10.185,0,0,0-8.992,11.9l4.2,25.481a11.526,11.526,0,0,0,12.516,9.481,10.184,10.184,0,0,0,8.991-11.9l-4.2-25.481Z" transform="translate(-3729.354 -837.759)" fill="#173287" fill-rule="evenodd"/>
        </g>
      </g>
      <path id="Trazado_715" data-name="Trazado 715" d="M3865.017,951.246a28.869,28.869,0,0,1,10.061-1.5c4.813.356.634-3.561.634-3.561l-4.137-.28-5.981,1.313-.577,4.023Z" transform="translate(-3797.937 -863.363)" fill="#de816c" fill-rule="evenodd"/>
      <path id="Trazado_716" data-name="Trazado 716" d="M3796.145,858.137s6.344,28.139,5.833,34.369c0,0,1.763,13.845.209,16.511,0,0,5.228,12.219,6.324,11.155s4.274-7.144,3.485-12.477-10.3-43.849-13.947-50.468-1.9.91-1.9.91Z" transform="translate(-3758.643 -811.525)" fill="#383838" fill-rule="evenodd"/>
      <path id="Trazado_717" data-name="Trazado 717" d="M3791.046,853.177l2.307,2.293,2.282-.434.785-3.821-3.1-.712-2.272,2.675Z" transform="translate(-3755.987 -809.256)" fill-rule="evenodd"/>
      <path id="Trazado_718" data-name="Trazado 718" d="M3796.063,942.491c-4.435,1.616-24.482,2.883-24.482,2.883-15.247,1.047-10.193-14.273-10.193-14.273s3.4-1.31,9.959.631,26.317,2.79,26.317,2.79v.007c1.473-.092,4.164.266,5.219.088,4.278-.719,6.141,3.337,8.228,4.587,3.381,2.026,2.9,5.911-4.171,5.35-4.811-.382-2.708-2.712-7.164-2.516-.97.042-2.24.345-3.715.452Z" transform="translate(-3738.712 -854.72)" fill="#ffb39d" fill-rule="evenodd"/>
      <path id="Trazado_719" data-name="Trazado 719" d="M3761.435,931.63c-.775,4.069-1.216,13.183,10.66,12.367,0,0,20.047-1.267,24.482-2.883,1.475-.107,2.745-.409,3.715-.451,4.455-.2,2.353,2.134,7.163,2.516,2.958.234,4.763-.31,5.614-1.17.474,1.766-1.275,3.475-6.127,3.091-4.811-.382-2.708-2.712-7.164-2.516-.97.042-2.24.345-3.715.451-4.435,1.616-24.482,2.884-24.482,2.884-15.247,1.047-10.193-14.273-10.193-14.273l.047-.016Z" transform="translate(-3738.712 -855.265)" fill="#de826c" fill-rule="evenodd"/>
      <path id="Trazado_720" data-name="Trazado 720" d="M3756.99,850.1a10.106,10.106,0,0,0-10.975-8.314,8.931,8.931,0,0,0-7.885,10.438l4.511,27.374a10.107,10.107,0,0,0,10.976,8.313,8.931,8.931,0,0,0,7.885-10.438L3756.99,850.1Z" transform="translate(-3725.906 -804.281)" fill="#457ff6" fill-rule="evenodd"/>
      <path id="Trazado_721" data-name="Trazado 721" d="M3769.736,919.628a2.194,2.194,0,0,0-3.1-.966l-16.168,9.2a2.572,2.572,0,0,0-1.024,3.312l2.354,4.854a2.193,2.193,0,0,0,3.1.966l16.168-9.2a2.571,2.571,0,0,0,1.024-3.312l-2.352-4.854Z" transform="translate(-3732.254 -847.74)" fill="#224cab" fill-rule="evenodd"/>
      <path id="Trazado_722" data-name="Trazado 722" d="M3784.39,839.279a.891.891,0,0,0,0-.932l-5.921-8.178a.359.359,0,0,0-.635.051l-2.1,3.266a.893.893,0,0,0,0,.932l5.921,8.178a.36.36,0,0,0,.635-.051l2.1-3.266Z" transform="translate(-3747.23 -797.628)" fill="#224cab" fill-rule="evenodd"/>
      <path id="Trazado_723" data-name="Trazado 723" d="M3796.719,840.827a1.083,1.083,0,0,1-.452-.81l.27-7.178c.009-.266.228-.335.487-.154l3.12,2.177a1.082,1.082,0,0,1,.451.809l-.269,7.178c-.011.265-.229.335-.489.154l-3.119-2.177Z" transform="translate(-3758.948 -799.095)" fill="#224cab" fill-rule="evenodd"/>
      <path id="Trazado_724" data-name="Trazado 724" d="M4008.406,808.879c-.764.308-.056,8.557.493,15.247a9.964,9.964,0,0,1-2.577,3.813c-.871.8-2.11,1.2-2.19.755a8.438,8.438,0,0,1-2.429-3.6s1.023-2.014.823-11.174,5.879-5.043,5.879-5.043Z" transform="translate(-3875.456 -785.127)" fill="#feb39d" fill-rule="evenodd"/>
      <path id="Trazado_725" data-name="Trazado 725" d="M4009.04,826.867a3.515,3.515,0,0,0,.542-1.22c-.55-6.69-1.257-14.939-.493-15.247,0,0-2.588-1.753-4.331-.427,1.424-3.773,5.38-1.094,5.38-1.094-.764.308-.057,8.557.493,15.247a8.062,8.062,0,0,1-1.591,2.741Z" transform="translate(-3877.187 -785.127)" fill="#de826c" fill-rule="evenodd"/>
      <path id="Trazado_726" data-name="Trazado 726" d="M3984.529,789.848a9.059,9.059,0,0,0,3.817,6.46s4.45,2.694,10.764-6.606c1.115.325,6.468-1.216,5.214-4.921-1.006-2.971-3.847-1.455-4.235-.038l1.453-7.695-8.114-5.624-5.585.159-2.867,3.33c-.585-1.1-.935,12.071-.447,14.935Z" transform="translate(-3865.584 -764.409)" fill="#feb39d" fill-rule="evenodd"/>
      <path id="Trazado_727" data-name="Trazado 727" d="M4000.518,784.526c-.1.274-2.566-2.041-2.309-5.517.245-3.3-1.414-4.476-8.227-3.286s-4.013-3.57-4.013-3.57,8.954-1.432,9.408-1.783,5.414,4.394,5.414,4.394l-.072,7.652-.2,2.11Z" transform="translate(-3866.208 -763.8)" fill="#de826c" fill-rule="evenodd"/>
      <path id="Trazado_728" data-name="Trazado 728" d="M4005.324,789.715c1.118,3.628-4.144,5.136-5.249,4.815-6.312,9.3-10.763,6.606-10.763,6.606a6.665,6.665,0,0,1-1.564-1.38,7.219,7.219,0,0,0,2.554,2.9s4.45,2.694,10.764-6.606c1.115.325,6.468-1.216,5.214-4.921a2.681,2.681,0,0,0-.956-1.41Zm-2.955-7.106-1.314,6.962a2.553,2.553,0,0,1,1.566-1.536l.877-4.643-1.128-.783Z" transform="translate(-3867.541 -770.752)" fill="#de826c" fill-rule="evenodd"/>
      <path id="Trazado_729" data-name="Trazado 729" d="M3993.029,776.836s-1.791-1.011-1.449-4.513-.708-6.539-3.9-5.725c-2.727.7-5.012-.512-6.786.377-4.509,2.258-8,3.129-8.947-3.413-.346-2.385,1.1-3.247,1.593-4.37,1.067-2.431,3.144-3.834,6.52-2.062,3.244,1.7,4.545-.156,7.753-.555s8.276.372,8.744,4.363c0,0-.195,2.839,1.17,4.511,1.026,1.258,2.424,2.427,2.453,4.787.038,3.124-2.235,4.736-4,4.433a3.063,3.063,0,0,0-3.147,2.167Z" transform="translate(-3858.55 -755.851)" fill="#3c1522" fill-rule="evenodd"/>
      <path id="Trazado_730" data-name="Trazado 730" d="M4004.59,1261.63a71.611,71.611,0,0,1-.813,9.54c-.732,4.074-12.488,1.721-12.488,1.721l-3.183-2.614.412-5.329,16.072-3.318Z" transform="translate(-3867.744 -1042.414)" fill="#b2cce9" fill-rule="evenodd"/>
      <path id="Trazado_731" data-name="Trazado 731" d="M4122.189,1227.9a71.646,71.646,0,0,1,5.744,7.661c2.165,3.527-8.173,9.6-8.173,9.6l-4.115.168-3.24-4.251,9.785-13.176Z" transform="translate(-3938.236 -1023.283)" fill="#b2cce9" fill-rule="evenodd"/>
      <path id="Trazado_732" data-name="Trazado 732" d="M3974.559,1279.011a4.628,4.628,0,0,0,1.137,2.722c1.465,1.286.529,9.018.529,9.018s-6.777.371-7.987-.034l.06-1.968a12.683,12.683,0,0,0-9.776,1.882s-18.229.861-22.088-1.453c0,0-1.208-3.207.722-4.706s14.659-5.743,18.63-6.364a6.545,6.545,0,0,1,4.042.482c.726.231,9.339,2.541,14.731.421Z" transform="translate(-3838.228 -1051.689)" fill="#393939" fill-rule="evenodd"/>
      <g id="Grupo_140" data-name="Grupo 140" transform="translate(97.833 226.295)">
        <g id="Grupo_139" data-name="Grupo 139" clip-path="url(#clip-path-4)">
          <path id="Trazado_733" data-name="Trazado 733" d="M3999.614,1276.356s-16.888,1.677-19.214-2.209l-3.433,1.144c1.956,2.707,17.168,8.127,22.646,1.065Z" transform="translate(-3959.26 -1275.808)" fill-rule="evenodd"/>
        </g>
      </g>
      <path id="Trazado_734" data-name="Trazado 734" d="M3939.6,1290.086a13.264,13.264,0,0,0-2.448,1.25c-1.93,1.5-.722,4.706-.722,4.706a11.461,11.461,0,0,0,3.889,1.055,5.6,5.6,0,0,0,.894-3.072,5.45,5.45,0,0,0-1.613-3.94Z" transform="translate(-3838.228 -1058.552)" fill="#141414" fill-rule="evenodd"/>
      <path id="Trazado_735" data-name="Trazado 735" d="M3976.435,1299.885l-.21,1.876s-6.776.372-7.986-.034l.059-1.968a12.684,12.684,0,0,0-9.776,1.882s-18.228.862-22.088-1.453a6.405,6.405,0,0,1-.327-2.792,6.869,6.869,0,0,0,.354,1.66c3.86,2.314,22.031,1.8,22.031,1.8a12.1,12.1,0,0,1,10.171-1.305l.009.193c1.209.405,7.764.138,7.764.138Z" transform="translate(-3838.227 -1062.698)" fill-rule="evenodd"/>
      <path id="Trazado_736" data-name="Trazado 736" d="M4109.782,1245.288a4.622,4.622,0,0,0,2.345,1.788c1.913.382,4.967,7.547,4.967,7.547s-5.684,3.71-6.934,3.964l-.933-1.734a12.682,12.682,0,0,0-7.525,6.517s-15.356,9.86-19.856,9.787c0,0-2.648-2.173-1.728-4.437s9.823-12.3,12.952-14.828a6.553,6.553,0,0,1,3.742-1.6c.744-.163,9.358-2.469,12.968-7Z" transform="translate(-3919.816 -1033.146)" fill="#393939" fill-rule="evenodd"/>
      <g id="Grupo_142" data-name="Grupo 142" transform="translate(160.109 212.141)">
        <g id="Grupo_141" data-name="Grupo 141" clip-path="url(#clip-path-5)">
          <path id="Trazado_737" data-name="Trazado 737" d="M4125.663,1242.184s-13.787,9.9-17.744,7.694l-2.4,2.708c3.047,1.365,18.932-1.546,20.144-10.4Z" transform="translate(-4094.44 -1243.527)" fill-rule="evenodd"/>
        </g>
      </g>
      <path id="Trazado_738" data-name="Trazado 738" d="M4081.614,1294.088a13.322,13.322,0,0,0-1.495,2.306c-.921,2.264,1.728,4.437,1.728,4.437a11.464,11.464,0,0,0,3.9-1.031,5.606,5.606,0,0,0-.761-3.107,5.452,5.452,0,0,0-3.367-2.606Z" transform="translate(-3919.816 -1060.822)" fill="#141414" fill-rule="evenodd"/>
      <path id="Trazado_739" data-name="Trazado 739" d="M4116.656,1262.855l.756,1.73s-5.684,3.71-6.934,3.964l-.933-1.734a12.683,12.683,0,0,0-7.525,6.517s-15.355,9.86-19.855,9.786a6.407,6.407,0,0,1-1.679-2.255,6.864,6.864,0,0,0,1.136,1.261c4.5.074,19.983-9.454,19.983-9.454a12.1,12.1,0,0,1,8.155-6.216l.1.162c1.25-.254,6.792-3.763,6.792-3.763Z" transform="translate(-3920.134 -1043.109)" fill-rule="evenodd"/>
      <path id="Trazado_740" data-name="Trazado 740" d="M3987.994,970.648s6.3,88.838-.15,120.835c0,0-18.042,10.042-24.617,1.055,0,0-14.615-80.079-10.246-116.8s35.012-5.093,35.012-5.093Z" transform="translate(-3847.362 -870.213)" fill="#141414" fill-rule="evenodd"/>
      <path id="Trazado_741" data-name="Trazado 741" d="M3981.175,1010.626s1.627,31.37,9.687,51.528,41.986,58.57,41.986,58.57,20.392-10.222,18.194-18.7c-3-11.582-25.093-42.789-28.68-55.255s-1.838-31.133-3.1-36.845-36.143.306-38.092.7Z" transform="translate(-3863.813 -898.277)" fill="#383838" fill-rule="evenodd"/>
      <path id="Trazado_742" data-name="Trazado 742" d="M3871.67,935.968s-.473.578-3.968.477c-3.26-.093-5.7.4-9.155,3.545-2.175,1.979,1.649,4.806,4.283,3.162,2.352-1.468,1.963-2.711,5.529-1.626a12.18,12.18,0,0,0,4.113.6l-.8-6.155Z" transform="translate(-3793.904 -857.725)" fill="#feb39d" fill-rule="evenodd"/>
      <path id="Trazado_743" data-name="Trazado 743" d="M3857.908,947.2c-.111,1.7,2.795,3.3,4.922,1.967,2.353-1.468,1.963-2.711,5.529-1.626a12.184,12.184,0,0,0,4.114.6l-.073-.558a12.265,12.265,0,0,1-4.109-.6c-3.565-1.086-3.176.157-5.529,1.625-1.893,1.181-4.4.054-4.854-1.409Z" transform="translate(-3793.904 -863.736)" fill="#de816c" fill-rule="evenodd"/>
      <path id="Trazado_744" data-name="Trazado 744" d="M3891.758,942.656l-4.824.892s-3.569-8.063-.091-12.973l5,.376-.085,11.7Z" transform="translate(-3809.452 -854.667)" fill="#fff" stroke="#000" stroke-linecap="round" stroke-linejoin="round" stroke-width="0.598" fill-rule="evenodd"/>
      <path id="Trazado_745" data-name="Trazado 745" d="M3929.576,847.2s-13.431,23.761-18.949,29.119l-19.2,5.64s-1.3,11.8.262,15.658c0,0,29.982-3.075,34.028-8.624,5.922-8.124,22.165-20.14,3.859-41.793Z" transform="translate(-3812.628 -807.382)" fill="#153289" fill-rule="evenodd"/>
      <path id="Trazado_746" data-name="Trazado 746" d="M3969.77,841.839l-.438-7.534s-2.767-.425-7.04,2.233c-5.782,3.6-26.182,28.085-15.755,78.021,0,0,27.6,13.8,51.85-.851,5.552,1.6,12.927-78.606-22.754-80.224,0,0-5.385,7.61-5.862,8.355Z" transform="translate(-3842.512 -799.604)" fill="#fff" stroke="#000" stroke-linecap="round" stroke-linejoin="round" stroke-width="0.287" fill-rule="evenodd"/>
      <path id="Trazado_747" data-name="Trazado 747" d="M3959.454,873.976s4.761-29.179,9.562-39.942c0,0-21.428.319-25.576,49.393,0,0-.282,23.6,3.067,32.544,0,0,10.172,4.2,16.212,4.428s-3.266-46.423-3.266-46.423Z" transform="translate(-3842.41 -799.916)" fill="#0e39a2" fill-rule="evenodd"/>
      <path id="Trazado_748" data-name="Trazado 748" d="M3980.192,868.7l-1.291-15.59,3.138-1.826a.389.389,0,0,0,.167-.475l-1.487-3.873,7.108-14.548a.389.389,0,0,0-.7-.341l-7.182,14.7a.392.392,0,0,0-.014.31l1.43,3.722-3.064,1.784a.388.388,0,0,0-.192.368l1.311,15.835a.389.389,0,0,0,.774-.065Z" transform="translate(-3862.073 -798.665)" fill="#fff" fill-rule="evenodd"/>
      <path id="Trazado_749" data-name="Trazado 749" d="M3992.02,833.581s-34.887,47.087-18.743,85.915c0,0,24.59,8.224,42.694-7.3.044-.1,11.979-72.675-23.951-78.61Z" transform="translate(-3856.915 -799.659)" fill="#224cab" fill-rule="evenodd"/>
      <g id="Grupo_144" data-name="Grupo 144" transform="translate(112.097 33.922)">
        <g id="Grupo_143" data-name="Grupo 143" clip-path="url(#clip-path-6)">
          <path id="Trazado_750" data-name="Trazado 750" d="M3969.488,885.114s18.185-20.875,19.651-24.05a.392.392,0,0,0,.035-.19l-.492-6.811,3.686-1.035a.4.4,0,0,0,.168-.1l10.366-10.267a.388.388,0,1,0-.546-.552l-10.295,10.2-3.893,1.093a.389.389,0,0,0-.283.4l.507,7.024c-1.73,3.429-19.489,23.778-19.489,23.778a.388.388,0,1,0,.585.51Z" transform="translate(-3968.895 -838.354)" fill="#fff" fill-rule="evenodd"/>
          <path id="Trazado_751" data-name="Trazado 751" d="M4061.611,925.714s8.863-61.663-17.519-75.209c0,0-10.59-2.112-6.469,19.938,4.061,21.728,11.583,48.212,11.039,56.811,0,0,5.645,3.121,12.949-1.54Z" transform="translate(-4007.383 -843.148)" fill="#112f90" fill-rule="evenodd"/>
        </g>
      </g>
      <path id="Trazado_752" data-name="Trazado 752" d="M4064.772,1032.076a2.2,2.2,0,0,1,2.361-2.017l8.329.656a2.2,2.2,0,0,1,2.017,2.361l-.277,3.527a2.2,2.2,0,0,1-2.362,2.017l-8.329-.656a2.2,2.2,0,0,1-2.017-2.361l.278-3.526Z" transform="translate(-3911.061 -911.082)" fill="none" stroke="#801d01" stroke-linecap="round" stroke-linejoin="round" stroke-width="6.283"/>
      <path id="Trazado_753" data-name="Trazado 753" d="M4016.268,1033.794a1.375,1.375,0,0,1,1.5-1.237l50.77,4.879a1.375,1.375,0,0,1,1.236,1.5l-3.031,31.532a1.375,1.375,0,0,1-1.5,1.237l-50.769-4.88a1.374,1.374,0,0,1-1.236-1.5l3.03-31.532Z" transform="translate(-3881.993 -912.499)" fill="#9e2b0a" fill-rule="evenodd"/>
      <path id="Trazado_754" data-name="Trazado 754" d="M4068.531,1043.838h.005a1.375,1.375,0,0,1,1.236,1.5l-3.031,31.532a1.375,1.375,0,0,1-1.5,1.237l-50.769-4.88a1.374,1.374,0,0,1-1.236-1.5l.015-.155,50.764,4.879a1.375,1.375,0,0,0,1.5-1.236l3.015-31.377Z" transform="translate(-3881.993 -918.9)" fill="#801d01" fill-rule="evenodd"/>
      <path id="Trazado_755" data-name="Trazado 755" d="M4020.224,1029.386l51.063,4.908a1.375,1.375,0,0,1,1.09,1.477l-.588,6.119-9.3,12.323-35.876-3.448-8.083-16.517.347-3.619a1.375,1.375,0,0,1,1.351-1.243Z" transform="translate(-3884.995 -910.704)" fill="#e33e0c" fill-rule="evenodd"/>
      <path id="Trazado_756" data-name="Trazado 756" d="M4060.646,1057.073l8.154-10.8.588-6.119a1.374,1.374,0,0,0-1.089-1.477l-48.108-4.624.024-.259a1.375,1.375,0,0,1,1.352-1.243l51.063,4.908a1.374,1.374,0,0,1,1.089,1.477l-.587,6.119-9.305,12.323-3.18-.306Z" transform="translate(-3885.939 -912.5)" fill="#c12f0c" fill-rule="evenodd"/>
      <path id="Trazado_757" data-name="Trazado 757" d="M4064.586,1079.6a.338.338,0,0,1,.369-.3l10.163.977a.339.339,0,0,1,.3.369l-.358,3.735a.339.339,0,0,1-.37.3l-10.162-.976a.339.339,0,0,1-.306-.37l.359-3.735Z" transform="translate(-3910.912 -939.009)" fill="#801d01" fill-rule="evenodd"/>
      <path id="Trazado_758" data-name="Trazado 758" d="M4068.937,1081.754a.22.22,0,0,1,.241-.2l6.625.636a.221.221,0,0,1,.2.241l-.234,2.435a.219.219,0,0,1-.241.2l-6.624-.636a.221.221,0,0,1-.2-.241l.233-2.435Z" transform="translate(-3913.452 -940.29)" fill="#e33e0c" fill-rule="evenodd"/>
      <path id="Trazado_759" data-name="Trazado 759" d="M4064.608,1083.948a.046.046,0,0,1,.051-.042l10.744,1.032a.048.048,0,0,1,.042.052l-.05.518a.047.047,0,0,1-.051.042l-10.743-1.032a.048.048,0,0,1-.042-.051l.05-.519Z" transform="translate(-3911.101 -941.623)" fill="#c12f0c" fill-rule="evenodd"/>
      <path id="Trazado_760" data-name="Trazado 760" d="M4077.039,1008.223a8.678,8.678,0,0,0,.558,5.716c1.4,2.555,1.869,5.441-.123,6s-6.908-.138-7.746-1.77.237-4.243,1.019-6.188a15.443,15.443,0,0,0,.967-4.923c-.012-.6,5.325,1.161,5.325,1.161Z" transform="translate(-3913.861 -897.973)" fill="#feb39d" fill-rule="evenodd"/>
      <path id="Trazado_761" data-name="Trazado 761" d="M4076.843,1009.028c.7.214,1.207.38,1.207.38a8.68,8.68,0,0,0,.557,5.716c1.4,2.555,1.869,5.441-.123,6-1.752.495-5.768.012-7.278-1.222a11.691,11.691,0,0,0,6.13.582c1.991-.562,1.526-3.448.123-6a8.478,8.478,0,0,1-.616-5.456Z" transform="translate(-3914.871 -899.159)" fill="#de826c" fill-rule="evenodd"/>
      <path id="Trazado_762" data-name="Trazado 762" d="M4078.372,1001.352l.8,4.748s-7.158,3.971-11.527.773l.324-4.989,10.4-.532Z" transform="translate(-3912.853 -894.806)" fill="#fff" stroke="#000" stroke-linecap="round" stroke-linejoin="round" stroke-width="0.598" fill-rule="evenodd"/>
      <path id="Trazado_763" data-name="Trazado 763" d="M4063.35,919.008s8.726-54.669-17.268-67.784c0,0-10.435-2.3-6.372,17.536,4,19.544,11.416,43.466,10.881,51.117,0,0,5.562,3.005,12.759-.868Z" transform="translate(-3896.477 -809.619)" fill="#224cab" fill-rule="evenodd"/>
      <path id="Trazado_764" data-name="Trazado 764" d="M4091.95,993.452a.664.664,0,1,0,.512.787.664.664,0,0,0-.512-.787Z" transform="translate(-3926.181 -890.317)" fill-rule="evenodd"/>
      <path id="Trazado_765" data-name="Trazado 765" d="M4092.175,998.972a.664.664,0,1,0,.512.788.664.664,0,0,0-.512-.788Z" transform="translate(-3926.309 -893.448)" fill-rule="evenodd"/>
      <path id="Trazado_766" data-name="Trazado 766" d="M4009.374,981.625h-15.8v3.195h15.8v-3.195Z" transform="translate(-3870.846 -883.618)" fill="#0e39a2" stroke="#fff" stroke-linecap="round" stroke-linejoin="round" stroke-width="1.794" fill-rule="evenodd"/>
      <path id="Trazado_767" data-name="Trazado 767" d="M4003.874,841.015a.636.636,0,0,1-.084-.818l6.261-8.648a.476.476,0,0,1,.727-.069l2.69,2.489a.636.636,0,0,1,.083.819l-6.261,8.648a.475.475,0,0,1-.726.069l-2.69-2.489Z" transform="translate(-3876.575 -798.39)" fill="#457ff6" fill-rule="evenodd"/>
      <path id="Trazado_768" data-name="Trazado 768" d="M3997.662,842.034a.806.806,0,0,0,.5-.71l-.167-7.515a.352.352,0,0,0-.523-.321l-3.4,1.292a.809.809,0,0,0-.5.711l.167,7.515a.353.353,0,0,0,.524.322l3.4-1.293Z" transform="translate(-3870.844 -799.586)" fill="#457ff6" fill-rule="evenodd"/>
    </g>
    <path id="Trazado_769" data-name="Trazado 769" d="M3514.256,776.113c-3.248,0-6.3-3.638-5.986-6.965.246-2.6,4.5-5.184,6.937-5.08a6.057,6.057,0,0,1,3.933,1.953c.239-.239-1.443-4.319-1.638-7.445-.39-6.241,4.138-12.614,9.827-14.89,2.467-.987,6.025-1.745,8.189-.149,7.625,5.622,4.882,13.328,4.882,13.328s2.578-3.833,6.68-1.532c3.283,1.841.945,8.007.945,8.007s2.9-5.992,3.753-7.06c3.623-4.53,11.115-5.753,16.944-3.81,6.119,2.04,8.169,6.655,5.509,12.507-.207.456-3.168,4.388-3.126,4.318,1.51-2.525,10.712-3.989,10.72,3.722.006,5.822-9.16,3.9-15.155,3.978-7.844.1-47.352-.884-52.414-.884Z" transform="translate(0 -68.138)" fill="#b2cce8" fill-rule="evenodd"/>
    <path id="Trazado_770" data-name="Trazado 770" d="M4140.43,784.544c-1.447.02-17.135-3.6-10.5-12.792,7.191-9.966,19.08-1.871,19.08-2.032,0-.778-.894-1.672-1.091-2.441-.683-2.641-1.06-6.46-.242-9.106,2.52-8.163,15.719-14.081,25.961-14.081,9.362,0,13.82,7.039,13.1,13.424a28.552,28.552,0,0,1-1.456,6.853,25.867,25.867,0,0,1-1.455,3c0-.96,3.488-2.6,4.367-3.1,4.214-2.391,10.588-3.823,14.8-.563,3.542,2.741,4.189,5.82,2.062,9.387a12.779,12.779,0,0,1-3.154,3.285c-.419.325,14.81-7.361,14.934,3.438.059,5.067-10.921,4.644-19.158,4.572-7.694-.068-54.186.15-57.25.15Z" transform="translate(-351.645 -68.977)" fill="#b2cce8" fill-rule="evenodd"/>
    <g id="Grupo_146" data-name="Grupo 146" transform="translate(3578.283 635.155)">
      <path id="Trazado_771" data-name="Trazado 771" d="M3703.75,705.717l.668-.1A2.255,2.255,0,0,0,3706,703.47v-9.739h18.729a2.248,2.248,0,0,0,2.248-2.247V657.022a5.25,5.25,0,0,0-5.244-5.244h-46.448a5.25,5.25,0,0,0-5.244,5.244v31.464a5.25,5.25,0,0,0,5.244,5.244h19.043l7.569,11.012A2.251,2.251,0,0,0,3703.75,705.717Z" transform="translate(-3670.038 -651.778)" fill="#8a9ee5"/>
    </g>
    <g id="Grupo_147" data-name="Grupo 147" transform="translate(3723.71 622.467)">
      <path id="Trazado_772" data-name="Trazado 772" d="M4033.929,687.362l-.8-.119a2.712,2.712,0,0,1-1.9-2.585V672.941h-22.533a2.7,2.7,0,0,1-2.7-2.7v-41.46a6.316,6.316,0,0,1,6.309-6.309h55.882a6.317,6.317,0,0,1,6.31,6.309v37.855a6.317,6.317,0,0,1-6.31,6.309h-22.912l-9.106,13.249A2.707,2.707,0,0,1,4033.929,687.362Z" transform="translate(-4005.988 -622.467)" fill="#b2cce8"/>
    </g>
  </g>
</svg>
