<svg xmlns="http://www.w3.org/2000/svg" width="576.012" height="462.609" viewBox="0 0 576.012 462.609">
  <g id="Grupo_729" data-name="Grupo 729" transform="translate(6453.074 2610.969)">
    <g id="Grupo_121" data-name="Grupo 121" transform="translate(-6153.593 -2567.099)">
      <path id="Trazado_396" data-name="Trazado 396" d="M4374.806,824.174s-17.164,12.352-26,25.008-11.607,18.9-11.607,18.9L4307,854.969l-3.334-1.446a84.823,84.823,0,0,1,7.359-14.777,115.563,115.563,0,0,1,28.215-30.5Z" transform="translate(-4303.664 -808.242)" fill="#f7c154"/>
      <g id="Grupo_118" data-name="Grupo 118" transform="translate(26.583 6.877)">
        <path id="Trazado_397" data-name="Trazado 397" d="M4384.114,829.11l-22.488-9.864.608-.68,22.489,9.863Z" transform="translate(-4348.962 -818.453)" fill="#6b6b6b"/>
        <path id="Trazado_398" data-name="Trazado 398" d="M4378.891,831.175l-27.577-12.1.608-.681,27.576,12.1Z" transform="translate(-4345.633 -818.398)" fill="#6b6b6b"/>
        <path id="Trazado_399" data-name="Trazado 399" d="M4376.094,834.3l-27.577-12.1.608-.68,27.576,12.1Z" transform="translate(-4344.73 -819.409)" fill="#6b6b6b"/>
        <path id="Trazado_400" data-name="Trazado 400" d="M4373.3,837.433l-27.576-12.1.608-.68,27.577,12.1Z" transform="translate(-4343.826 -820.419)" fill="#6b6b6b"/>
        <path id="Trazado_401" data-name="Trazado 401" d="M4361.719,836.709l-18.794-8.244.608-.68,18.794,8.243Z" transform="translate(-4342.924 -821.429)" fill="#6b6b6b"/>
      </g>
      <g id="Grupo_119" data-name="Grupo 119" transform="translate(15.398 18.861)">
        <path id="Trazado_402" data-name="Trazado 402" d="M4365.128,845.595l-21.594-8.73.539-.768,21.594,8.73Z" transform="translate(-4331.937 -836.096)" fill="#6b6b6b"/>
        <path id="Trazado_403" data-name="Trazado 403" d="M4360.32,848.187l-26.482-10.706.54-.769,26.482,10.706Z" transform="translate(-4328.806 -836.295)" fill="#6b6b6b"/>
        <path id="Trazado_404" data-name="Trazado 404" d="M4357.843,851.721l-26.482-10.706.539-.768,26.482,10.706Z" transform="translate(-4328.005 -837.436)" fill="#6b6b6b"/>
        <path id="Trazado_405" data-name="Trazado 405" d="M4352.132,853.833l-23.25-9.288.518-.778,23.251,9.288Z" transform="translate(-4327.205 -838.573)" fill="#6b6b6b"/>
        <path id="Trazado_406" data-name="Trazado 406" d="M4344.454,855.379l-18.048-7.3.539-.768,18.047,7.3Z" transform="translate(-4326.405 -839.719)" fill="#6b6b6b"/>
      </g>
      <g id="Grupo_120" data-name="Grupo 120" transform="translate(6.385 32.74)">
        <path id="Trazado_407" data-name="Trazado 407" d="M4349.883,865.833l-20.359-8.41.523-.83,20.36,8.41Z" transform="translate(-4318.398 -856.594)" fill="#6b6b6b"/>
        <path id="Trazado_408" data-name="Trazado 408" d="M4345.28,868.743l-24.968-10.314.523-.83,24.967,10.313Z" transform="translate(-4315.425 -856.918)" fill="#6b6b6b"/>
        <path id="Trazado_409" data-name="Trazado 409" d="M4342.874,872.56l-24.968-10.313.523-.83L4343.4,871.73Z" transform="translate(-4314.648 -858.151)" fill="#6b6b6b"/>
        <path id="Trazado_410" data-name="Trazado 410" d="M4340.467,876.377,4315.5,866.063l.523-.83,24.967,10.313Z" transform="translate(-4313.871 -859.383)" fill="#6b6b6b"/>
        <path id="Trazado_411" data-name="Trazado 411" d="M4330.109,876.909l-17.016-7.029.523-.83,17.015,7.029Z" transform="translate(-4313.094 -860.615)" fill="#6b6b6b"/>
      </g>
    </g>
    <g id="Grupo_122" data-name="Grupo 122" transform="translate(-6380.271 -2610.969)">
      <path id="Trazado_412" data-name="Trazado 412" d="M4303.955,1361.474s-6.565,9.8-22.956,19.191-22.3,15.482-33.413,13.63c0,0-1.324-.264-3.574-4.234,0,0-.162-.384-.42-1.047a77.192,77.192,0,0,1-3.151-9.674c-1.191-5.029-3.559-10.716-6.345-11.115s12.43-10.717,23.942-4.232c0,0,5.822,1.32,18-.8,5.455-.947,10.168-3.042,14.362-4.323,3.834-1.173,7.236-1.667,10.378.013.139.074.273.147.406.23.1.06.2.121.3.19a2.153,2.153,0,0,1,.181.117c.1.069.212.143.315.221.03.026.066.047.1.073.105.078.208.161.313.243.151.121.3.251.454.385A13.726,13.726,0,0,1,4303.955,1361.474Z" transform="translate(-4054.416 -941.814)" fill="#9e2a0a"/>
      <path id="Trazado_413" data-name="Trazado 413" d="M4308.644,1361.991s-6.566,9.8-22.957,19.191-22.3,15.481-33.413,13.629c0,0-.624-.126-1.74-1.485a15.037,15.037,0,0,1-1.121-1.567h0c-.225-.35-.464-.744-.71-1.181,0,0-.16-.385-.42-1.047,2.931.675,8.834.588,25.268-8.219a180.454,180.454,0,0,0,22.438-14.344h0c4.073-3.038,7.3-5.7,9.474-7.565a10.383,10.383,0,0,1,2.064,1.458A13.639,13.639,0,0,1,4308.644,1361.991Z" transform="translate(-4059.103 -942.33)" fill="#fff"/>
      <path id="Trazado_414" data-name="Trazado 414" d="M4294.3,1380.2a117.122,117.122,0,0,1-13.5,8.834c-8.933,5.159-15.183,8.137-22.925,9.825a29.468,29.468,0,0,1-6.8.9,15.161,15.161,0,0,1-1.121-1.567c2,.026,4.656,1.16,16.953-3.4s26.5-15.482,26.5-15.482Z" transform="translate(-4059.645 -948.755)" fill="#141414"/>
      <path id="Trazado_415" data-name="Trazado 415" d="M4327.508,1358.886c-2.178,1.869-5.4,4.527-9.476,7.565h0c-2.671-4.683-.9-7.565-.9-7.565v-.013C4320.963,1357.7,4324.364,1357.207,4327.508,1358.886Z" transform="translate(-4081.147 -941.814)" fill="#141414"/>
      <path id="Trazado_416" data-name="Trazado 416" d="M4276.167,1370.93a10.273,10.273,0,0,1-7.417-3.049l.247-.211a10.027,10.027,0,0,0,7.744,2.921c4.627-.24,14.453-2.489,18.651-3.449l1.1-.252c3.541-.805,5.376.69,5.45.753l-.208.25c-.018-.015-1.794-1.453-5.171-.687l-1.1.251c-4.2.962-14.051,3.216-18.707,3.458C4276.556,1370.926,4276.359,1370.93,4276.167,1370.93Z" transform="translate(-4065.714 -944.671)" fill="#fff"/>
      <rect id="Rectángulo_94" data-name="Rectángulo 94" width="1.762" height="2.39" rx="0.881" transform="translate(211.044 424.397) rotate(-168.282)" fill="#fff"/>
      <rect id="Rectángulo_95" data-name="Rectángulo 95" width="1.762" height="2.39" rx="0.881" transform="translate(215.388 423.972) rotate(176.83)" fill="#fff"/>
      <rect id="Rectángulo_96" data-name="Rectángulo 96" width="1.762" height="2.39" rx="0.881" transform="matrix(-0.989, 0.149, -0.149, -0.989, 219.461, 423.396)" fill="#fff"/>
      <rect id="Rectángulo_97" data-name="Rectángulo 97" width="1.762" height="2.39" rx="0.881" transform="translate(223.1 422.677) rotate(171.453)" fill="#fff"/>
      <rect id="Rectángulo_98" data-name="Rectángulo 98" width="1.762" height="2.39" rx="0.881" transform="matrix(-0.965, 0.261, -0.261, -0.965, 226.913, 421.803)" fill="#fff"/>
      <rect id="Rectángulo_99" data-name="Rectángulo 99" width="1.762" height="2.39" rx="0.881" transform="translate(230.33 420.878) rotate(164.849)" fill="#fff"/>
      <circle id="Elipse_15" data-name="Elipse 15" cx="5.111" cy="5.111" r="5.111" transform="translate(192.277 430.546)" fill="#fff"/>
      <path id="Trazado_417" data-name="Trazado 417" d="M4302.449,867.968l3.333,1.446a8.148,8.148,0,0,1-3.385,1.328c-3.264-.1-2.394-10.319-2.394-10.319s2.48-5.856,2.394-6.154,7.081-1.29,7.081-1.29.118.078.33.212A84.621,84.621,0,0,0,4302.449,867.968Z" transform="translate(-4075.769 -778.817)" fill="#bf6455"/>
      <path id="Trazado_418" data-name="Trazado 418" d="M4109.74,1400.887h-17.2a14.593,14.593,0,0,1-8.146-5.756c-3.631-4.9-7.643-13.118-10.847-17.8s-7.21-6.552-8.665-14.49-.186-6.665,2.515-8.569a7.141,7.141,0,0,1,1.657-.818c2.852-1.03,6.839-1.342,8.8-5.7,2.381-5.294,22.363,14.421,22.363,14.421s-4.1,4.368-4.366,7.674,3.366,19.468,4.366,21.243a2.2,2.2,0,0,0,.538.6c1.735,1.424,6.3,2.545,7.937,4.224a1.661,1.661,0,0,1,.13.13v0A5.711,5.711,0,0,1,4109.74,1400.887Z" transform="translate(-3999.692 -938.278)" fill="#bf3104"/>
      <path id="Trazado_419" data-name="Trazado 419" d="M4109.739,1404.034h-17.2a14.589,14.589,0,0,1-8.145-5.756c-3.633-4.9-7.645-13.118-10.847-17.8s-7.21-6.553-8.665-14.49c-1.125-6.116-.627-6.765.9-7.609.373-.208.8-.424,1.29-.736.1-.069.217-.147.329-.225a7.134,7.134,0,0,1,1.657-.818c-.519,3.086-1.072,10.05,3.125,15.373,5.557,7.046,8.933,10.621,13.3,17.966s7.8,9.128,7.8,9.128h15.4a1.236,1.236,0,0,1,.129.134A5.707,5.707,0,0,1,4109.739,1404.034Z" transform="translate(-3999.69 -941.424)" fill="#fff"/>
      <path id="Trazado_420" data-name="Trazado 420" d="M4093.046,1402.046l-.627.957s-.333-.265-4.238-4.169-5.159-6.483-8.764-13.365-8.107-9.626-10.785-14.585c-1.715-3.177-2.086-8.557-2.134-12.011.373-.208.8-.424,1.289-.736a46.545,46.545,0,0,0-.047,5.5c.3,7.246,4.662,10.816,7.345,13.876s5.657,8.154,8.445,13.811S4093.046,1402.046,4093.046,1402.046Z" transform="translate(-4000.41 -941.922)"/>
      <path id="Trazado_421" data-name="Trazado 421" d="M4122.653,1417.421v0l-15.536-.134s1.675-4.583,7.468-4.225c1.735,1.424,6.3,2.546,7.937,4.225A1.743,1.743,0,0,1,4122.653,1417.421Z" transform="translate(-4013.525 -959.65)"/>
      <path id="Trazado_422" data-name="Trazado 422" d="M4106.521,1398.742l-.236-.222c.015-.016,1.554-1.707.989-5.123l-.185-1.112c-.714-4.254-2.385-14.217-2.354-18.882a10.327,10.327,0,0,1,3.5-7.813l.2.258a9.993,9.993,0,0,0-3.371,7.557c-.031,4.635,1.635,14.58,2.348,18.826l.187,1.112C4108.187,1396.929,4106.589,1398.67,4106.521,1398.742Z" transform="translate(-4012.755 -944.328)" fill="#fff"/>
      <path id="Trazado_423" data-name="Trazado 423" d="M4097.469,1058.83l106.07,201.716s-5.06,11.016-19.648,12.8-31.264,1.787-39.6,4.466c0,0-5.061.893-7.741-2.977s-108.674-213.772-108.674-213.772Z" transform="translate(-3987.94 -845.282)" fill="#141414"/>
      <path id="Trazado_424" data-name="Trazado 424" d="M4132.293,1153.8q-.368.831-.766,1.783c-6.864,16.235-21.073,58.937-29.582,84.979v0c-4.1,12.535-6.878,21.208-6.878,21.208s-4.852,9.924-25.9,4.765q-1.383-.337-2.787-.766a99.492,99.492,0,0,1-20.317-9.258h0a189.82,189.82,0,0,1-22.94-15.78L4055,1161.49s4.246-4.908-3.692-6.9a71.978,71.978,0,0,1-9.18-3.194c-5.085-2.086-11.6-5.116-19.394-9.232-8.271-4.371-17.988-9.968-28.986-16.948-24.315-15.448-27.328-44.472-23.441-62.482a40.032,40.032,0,0,1,3.6-10.382,17.273,17.273,0,0,1,1.978-2.961,8.207,8.207,0,0,1,3.683-2.211c9.9-3.354,33.6-.226,51.822,3.008,2.133.381,4.189.758,6.14,1.129,7.159,1.364,12.89,2.606,15.66,3.221,1.173.26,1.813.411,1.813.411l.411.39,3.208,3.047,43.562,41.4.006,0,22.167,21.061S4141.82,1132.366,4132.293,1153.8Z" transform="translate(-3968.897 -841.056)" fill="#383838"/>
      <path id="Trazado_425" data-name="Trazado 425" d="M4100.748,989.091l-4.965-1s-11.483,5.683-29.557-1.03c-15.811-5.869-18.706-113.93-19.183-140.955-.069-3.878-.086-6.085-.086-6.085s-4.669-4.328,4.562-4.96c6.592-.45,13.521,1.225,17.2,3.393,1.48.87,2.441,1.822,2.644,2.748C4072.086,844.44,4100.748,989.091,4100.748,989.091Z" transform="translate(-3993.719 -773.009)" fill="#fff"/>
      <path id="Trazado_426" data-name="Trazado 426" d="M4066.87,843.54s.459,5.017-10.136,5.432a18.234,18.234,0,0,1-9.691-2.861c-.069-3.878-.086-6.085-.086-6.085s-4.669-4.328,4.562-4.96c6.592-.45,13.521,1.225,17.2,3.393A31.643,31.643,0,0,1,4066.87,843.54Z" transform="translate(-3993.719 -773.009)" fill="#828282"/>
      <path id="Trazado_427" data-name="Trazado 427" d="M4197.938,1029.783a19.048,19.048,0,0,1-10.122-1.19c-5.759-2.182-5.658-3.77-10.963-1.787s-3.818,3.67-9.281,3.2-8.2-3.134-13.629-3.8,1.818-8.336,1.818-8.336,3.978.307,8.578.255c1.779-.017,3.645-.09,5.415-.255,6.354-.6,11.313-1.788,19.451,1.983,6.977,3.233,8.41,8.21,8.673,9.569h0C4197.926,1029.658,4197.938,1029.783,4197.938,1029.783Z" transform="translate(-4027.993 -831.846)" fill="#feb39c"/>
      <path id="Trazado_428" data-name="Trazado 428" d="M4197.938,1030.1a19.049,19.049,0,0,1-10.122-1.189c-5.759-2.182-5.658-3.77-10.963-1.788s-3.818,3.67-9.281,3.2-8.2-3.134-13.629-3.8,1.818-8.336,1.818-8.336,3.978.307,8.578.255c1.247,1.68,2.658,3.55,3.827,4.891,2.579,2.957,8.536-2.164,13.3,0s8.363,5.821,15.495,6.276a5.933,5.933,0,0,1,.917.129h0C4197.926,1029.973,4197.938,1030.1,4197.938,1030.1Z" transform="translate(-4027.993 -832.161)" fill="#dd806b"/>
      <path id="Trazado_429" data-name="Trazado 429" d="M4291.231,861.746s-.115-2.637,2.865-6.533,1.833-6.19,5.616-5.617,10.2.917,9.629,3.438-6.261.688-6.261.688-1.763-.89-2.1,1.9,1.719,3.941-1.377,11.048l11.362,5.082s-3.759,4.618-9.565,4.582S4292.263,864.267,4291.231,861.746Z" transform="translate(-4072.972 -777.696)" fill="#dd806b"/>
      <path id="Trazado_430" data-name="Trazado 430" d="M4234.452,884.647c-1.588.4-71.851,40.888-71.851,40.888s-12.508,5.358-22.036,0c-4.484-2.524-15.653-10.275-26.219-17.785-9.865-7-19.2-13.785-22.092-15.888-1.523-6.643-3.086-12.525-4.622-17.684l-6.493-29.779-2.4-7.068s30.465,15.362,43.567,24.689,28.583,19.45,31.163,18.26,56.568-31.162,56.568-31.162,12.505,4.567,18.46,17.07S4236.041,884.248,4234.452,884.647Z" transform="translate(-4004.363 -773.764)" fill="#123189"/>
      <path id="Trazado_431" data-name="Trazado 431" d="M4119.042,988.927c-1.29,1.19-9.011,7.444-19.1,4.567,0,0,1.927-33.348-6.21-80.984-1.342-7.859-2.78-14.966-4.247-21.368-1.523-6.643-3.086-12.525-4.622-17.684-5.95-19.988-11.491-29.19-12.9-30.288a4.878,4.878,0,0,1-1.776-4.225l4.155-3.843,2.445,1.341,2.256,1.238a117.531,117.531,0,0,1,26.995,44.065c2.194,6.54,4.012,15.452,5.535,25.285,4.8,31.046,6.675,71.281,8.259,75.05C4121.92,987.04,4120.332,987.737,4119.042,988.927Z" transform="translate(-4001.596 -773.045)" fill="#0c3aa3"/>
      <path id="Trazado_432" data-name="Trazado 432" d="M4055.312,994.856c-.15.329-.536.445-1.232.493-3.031.207-21.23,5.674-40.14,3.921a66.24,66.24,0,0,1-10.076-1.693c-10.729-2.705-19.153-5.834-24.9-9.046a33.08,33.08,0,0,1-4.671-3.081c-2.947-2.372-4.383-4.726-4.171-6.929.229-2.359,1.96-11.747,3.908-24.034,1.722-10.868,3.618-24.008,4.787-36.565.446-4.791.787-9.491.974-13.949v0a138.987,138.987,0,0,0-.044-14.071c-1.342-21.42,4.445-33.188,13.491-41.057a56.32,56.32,0,0,1,10.03-6.808,27.488,27.488,0,0,1,13.317-3.505,27.109,27.109,0,0,1,4.756.411,28.128,28.128,0,0,1,5.57,1.567,21.26,21.26,0,0,1,3.155,1.523l0,0s2.575,1.814,2.969,3.9c.1.489.5,1.909,1.125,4.051,2.042,7,6.381,21.68,9.5,36.573a170.036,170.036,0,0,1,2.54,19.991s0,.009,0,.017q.156,1.948.3,3.96c.4,5.631.731,11.586,1.038,17.6.77,14.915,1.42,30.145,2.761,41.464.381,3.22.8,6.033,1.221,8.5.7,4.069,1.42,7.176,2.048,9.548.078.3.156.588.229.865.3,1.082.571,1.991.8,2.757C4055.225,993.323,4055.551,994.345,4055.312,994.856Z" transform="translate(-3969.286 -774.151)" fill="#224caa"/>
      <path id="Trazado_433" data-name="Trazado 433" d="M4047.488,822.9l7.146,11.128a5.508,5.508,0,0,0-2.073,2.289c-2.649,4.831-1.852,16.871-1.852,16.871s-10.985-9.262-11.911-18.789C4038.175,827.973,4043.779,824.489,4047.488,822.9Z" transform="translate(-3991.451 -769.107)" fill="#3e5ef0"/>
      <path id="Trazado_434" data-name="Trazado 434" d="M4077.139,841.216c-3.84-5.029-11.777-6.748-11.777-6.748a4.735,4.735,0,0,0-1.325-.77l-4.9-11.414c1.853.645,5.186,1.809,10.6,3.713C4079.121,829.305,4077.139,841.216,4077.139,841.216Z" transform="translate(-3998.032 -768.906)" fill="#3e5ef0"/>
      <path id="Trazado_435" data-name="Trazado 435" d="M4090.71,996.191c-.643-.494-10.559-4.068-23.033-8.453-22.386-7.864-53-18.343-53-18.343s-9.825-5.063-14.292-15.78-17.27-41.979-17.27-41.979a86.248,86.248,0,0,1-5.21-17.771c-1.944-10.877-1.961-24.445,6.4-33.738,9.362-10.4,22.07-7.782,32.28.217v0a48.27,48.27,0,0,1,15.979,22.706c6.229,20.247,11.686,44.064,13.274,47.337.382.788,3.648,2.5,8.4,4.64,15.054,6.8,44.992,17.988,44.992,17.988s4.765,1.788,6.253,14S4092.512,997.581,4090.71,996.191Z" transform="translate(-3971.461 -778.919)" fill="#224caa"/>
      <path id="ndas" d="M4078.124,792.2c-2.484-.306-2.635,1.686-4.939,7.517a7.381,7.381,0,0,1-4.907,4.643.284.284,0,0,1-.045.01c-2.238.6-4.5.025-5.48-1.124v6.293s.924,5.369-5.063,5.982a12.384,12.384,0,0,1-2.625-.01c-4.728-.527-8.266-3.719-8.266-6.584V796.652s-1.23-7.212-5.064-11.969-6.443-21.48,4.3-28.079,26.544-3.067,29.916,6.6c0,0,.708,2.936,1.315,6.634.627,3.809,1.149,8.432.681,11.468C4077.02,787.292,4080.6,792.506,4078.124,792.2Z" transform="translate(-3991.337 -746.609)" fill="#feb39c"/>
      <path id="ndas_shadow" data-name="ndas shadow" d="M4077.261,769.837c-2.129,1.159-4.9,1.155-8.848-.863-4.948-2.529-6.5,1.671-6.218,7.368s-5.466,5.465-5.466,5.465a72.245,72.245,0,0,0,.116,10.012c.462,4.542,3.337,7.423,6.042,10.3,2.5,2.655,4.979,2.319,5.345,2.253-2.238.6-4.5.025-5.48-1.124v4.682c-4.657.065-8.1-3.568-8.1-3.568a57.663,57.663,0,0,0,.407,11.151c-4.728-.527-8.266-3.719-8.266-6.584V796.652s-1.23-7.212-5.064-11.969-6.443-21.48,4.3-28.079,26.544-3.067,29.916,6.6C4075.946,763.2,4076.653,766.139,4077.261,769.837Z" transform="translate(-3991.337 -746.609)" fill="#dd806b"/>
      <path id="rambut" d="M4046.659,783.6a12.476,12.476,0,0,1-4.373-9.436c0-6.1,6.9-2.992,6.9,2.647,0,0,4.144,1.956,4.834-3.453s.115-11.277,5.294-10.126,12.428,5.063,18.3,1.381,6.675-19.217,0-20.944-11.508,7.71-20.369,4.373-13.119-2.761-17.606,3.222-10.011,1.036-14.5,3.567-7.366,12.774-1.266,18.182,2.3,9.9,4.948,14.96,8.86,5.408,8.976,11.047,6.1,3.567,9.091-1.151S4046.659,783.6,4046.659,783.6Z" transform="translate(-3985.523 -743.454)" fill="#441e12"/>
      <path id="Trazado_436" data-name="Trazado 436" d="M4059.47,1026.061,4004.83,999.2s-7.145-3.77-9.925-11.115c-2.561-6.769-5.968-26.713-11.932-38.962.447-4.791.788-9.5.974-13.953.679,1.839,1.146,2.9,1.146,2.9s12.8,31.263,17.27,41.979,14.292,15.78,14.292,15.78,19.688,6.739,39.03,13.461C4057.746,1021.278,4060,1024.927,4059.47,1026.061Z" transform="translate(-3973.442 -805.356)" fill="#123189"/>
      <path id="Trazado_437" data-name="Trazado 437" d="M4068.675,936.253c-2.228-1.12-3.644-2-3.886-2.5-1.589-3.273-7.046-27.09-13.274-47.337a48.273,48.273,0,0,0-15.979-22.706v0s13.953,8.119,21.809,26.778c2.428,5.77,7.193,18.6,10.292,28.172C4068.039,924.286,4068.369,930.242,4068.675,936.253Z" transform="translate(-3990.413 -782.28)" fill="#123189"/>
      <rect id="Rectángulo_100" data-name="Rectángulo 100" width="1.762" height="3.487" rx="0.881" transform="translate(93.64 430.987) rotate(-86.521)" fill="#fff"/>
      <rect id="Rectángulo_101" data-name="Rectángulo 101" width="1.762" height="3.487" rx="0.881" transform="translate(95.051 426.566) rotate(-66.088)" fill="#fff"/>
      <rect id="Rectángulo_102" data-name="Rectángulo 102" width="1.762" height="3.346" rx="0.881" transform="translate(93.999 435.075) rotate(-93.472)" fill="#fff"/>
      <rect id="Rectángulo_103" data-name="Rectángulo 103" width="1.762" height="3.205" rx="0.881" transform="matrix(-0.154, -0.988, 0.988, -0.154, 94.596, 439.144)" fill="#fff"/>
      <rect id="Rectángulo_104" data-name="Rectángulo 104" width="1.762" height="3.323" rx="0.881" transform="translate(95.334 442.779) rotate(-98.849)" fill="#fff"/>
      <rect id="Rectángulo_105" data-name="Rectángulo 105" width="1.762" height="3.412" rx="0.881" transform="translate(96.228 446.588) rotate(-105.452)" fill="#fff"/>
      <rect id="Rectángulo_106" data-name="Rectángulo 106" width="1.762" height="3.204" rx="0.881" transform="translate(97.171 450) rotate(-105.453)" fill="#fff"/>
    </g>
    <g id="Grupo_123" data-name="Grupo 123" transform="translate(-6453.074 -2445.149)">
      <path id="Trazado_438" data-name="Trazado 438" d="M3932.832,1178l-7.873,19.927-57.629,145.815h-5.951l50.318-173.879Z" transform="translate(-3861.379 -1046.951)" fill="#8e8e8e"/>
      <path id="Trazado_439" data-name="Trazado 439" d="M3932.832,1178l-7.873,19.927c-7.172-1.636-13.262-3.042-13.262-3.042l-47.778,148.858h-2.541l50.318-173.879Z" transform="translate(-3861.379 -1046.951)" fill="#6b6b6b"/>
      <path id="Trazado_440" data-name="Trazado 440" d="M4075.167,1343.741h-5.956L4003.709,1178l9.137-3.519,12-4.618,2.406,8.323,7.039,24.315Z" transform="translate(-3907.334 -1046.951)" fill="#8e8e8e"/>
      <path id="Trazado_441" data-name="Trazado 441" d="M4071.583,1345.943h-2.372l-65.5-165.742,9.135-3.519c5.138,1.268,10.376,2.6,14.405,3.7l7.037,24.316a88.245,88.245,0,0,1-9.154,1.718Z" transform="translate(-3907.334 -1049.153)" fill="#6b6b6b"/>
      <path id="Trazado_442" data-name="Trazado 442" d="M4067.8,1197.381c-5.622,3.831-14.836,3.394-14.836,3.394l-4.558-12.626C4056.2,1192.265,4062.717,1195.294,4067.8,1197.381Z" transform="translate(-3921.767 -1052.856)" fill="#8e2606"/>
      <path id="Trazado_443" data-name="Trazado 443" d="M3950.075,1033.823a40.006,40.006,0,0,0-3.6,10.383c-12.817-8.851-51.388-44.008-51.388-44.008s8.631-18.161,30.365-9.526a142.118,142.118,0,0,1,24.355,12.188c-1.948,12.288-3.679,21.675-3.908,24.034C3945.691,1029.1,3947.127,1031.45,3950.075,1033.823Z" transform="translate(-3872.263 -988.342)" fill="#8e2606"/>
      <path id="Trazado_444" data-name="Trazado 444" d="M4000.6,1141.914c-4.169,0-84.854-.3-104.5-45.256s-3.87-90.809-3.87-90.809,54.781,29.475,80.98,75.327S4004.772,1141.914,4000.6,1141.914Z" transform="translate(-3869.405 -993.995)" fill="#f40"/>
      <path id="Trazado_445" data-name="Trazado 445" d="M4000.6,1141.914c-4.169,0-84.854-.3-104.5-45.256s-3.87-90.809-3.87-90.809-8.34,64.013,38.7,97.357S4000.6,1141.914,4000.6,1141.914Z" transform="translate(-3869.405 -993.995)" fill="#bf3104"/>
    </g>
    <g id="Grupo_128" data-name="Grupo 128" transform="translate(-6256.338 -2408.992)">
      <path id="Trazado_478" data-name="Trazado 478" d="M4240.29,1054.844l-6.091,19.576-72.075,231.642h-10.2L4180.514,1057C4178.375,1049.9,4240.29,1054.844,4240.29,1054.844Z" transform="translate(-4151.926 -1045.43)" fill="#8e8e8e"/>
      <path id="Trazado_479" data-name="Trazado 479" d="M4240.29,1054.844l-6.091,19.576h-26.526l-49.34,231.642h-6.406L4180.514,1057C4178.375,1049.9,4240.29,1054.844,4240.29,1054.844Z" transform="translate(-4151.926 -1045.43)" fill="#6b6b6b"/>
      <path id="Trazado_480" data-name="Trazado 480" d="M4666.548,1306.062h-10.2l-78.167-251.219s61.919-4.947,59.776,2.156l2.046,17.818Z" transform="translate(-4289.557 -1045.43)" fill="#8e8e8e"/>
      <path id="Trazado_481" data-name="Trazado 481" d="M4660.966,1306.062h-4.613l-78.167-251.219s61.919-4.947,59.776,2.156l2.046,17.818H4610.82C4608.871,1074.818,4655.543,1282,4660.966,1306.062Z" transform="translate(-4289.557 -1045.43)" fill="#6b6b6b"/>
      <path id="Trazado_482" data-name="Trazado 482" d="M4535.019,1047.528a5.612,5.612,0,0,1-.192,1.472,5.8,5.8,0,0,1-5.629,4.311H4169.563a5.81,5.81,0,0,1-5.625-4.311,5.674,5.674,0,0,1-.192-1.472,5.8,5.8,0,0,1,5.817-5.787H4529.2A5.8,5.8,0,0,1,4535.019,1047.528Z" transform="translate(-4155.743 -1041.741)" fill="#4480f5"/>
      <path id="Trazado_483" data-name="Trazado 483" d="M4534.917,1052.46a5.8,5.8,0,0,1-5.629,4.311H4169.654a5.813,5.813,0,0,1-5.625-4.311Z" transform="translate(-4155.833 -1045.202)" fill="#4d3abf"/>
    </g>
    <g id="Grupo_129" data-name="Grupo 129" transform="translate(-6235.136 -2469.724)">
      <path id="Rectángulo_118" data-name="Rectángulo 118" d="M1.737,0H38.308a0,0,0,0,1,0,0V3.368a0,0,0,0,1,0,0H1.632A1.632,1.632,0,0,1,0,1.737v0A1.737,1.737,0,0,1,1.737,0Z" transform="translate(0 57.363)" fill="#6b6b6b"/>
      <path id="Rectángulo_119" data-name="Rectángulo 119" d="M0,0H88.9a.688.688,0,0,1,.688.688v.954a1.726,1.726,0,0,1-1.726,1.726H0a0,0,0,0,1,0,0V0A0,0,0,0,1,0,0Z" transform="translate(38.308 57.363)" fill="#8e8e8e"/>
      <path id="Trazado_484" data-name="Trazado 484" d="M4324.787,952.05h-79.722c-2.749,0-5.238,2.488-5.56,5.558l-5.431,51.805h89.231l5.484-52.3C4329.083,954.316,4327.291,952.05,4324.787,952.05Z" transform="translate(-4199.652 -952.05)" fill="#6b6b6b"/>
      <path id="Trazado_485" data-name="Trazado 485" d="M4330.511,952.05h-79.723c-2.75,0-5.239,2.488-5.561,5.558l-5.431,51.805h89.232l5.484-52.3C4334.805,954.316,4333.013,952.05,4330.511,952.05Z" transform="translate(-4201.5 -952.05)" fill="#8e8e8e"/>
      <circle id="Elipse_17" data-name="Elipse 17" cx="10.421" cy="10.421" r="10.421" transform="translate(75.249 20.242)" fill="#6b6b6b"/>
    </g>
    <g id="Grupo_130" data-name="Grupo 130" transform="translate(-6091.677 -2442.4)">
      <path id="Trazado_486" data-name="Trazado 486" d="M4449.7,1035.239a1.146,1.146,0,0,1-.386.845,1.4,1.4,0,0,1-.937.346h-42.606c-3.419,0-6.2-2.495-6.2-5.568a5.288,5.288,0,0,1,1.816-3.94,6.553,6.553,0,0,1,4.381-1.628h42.606a1.26,1.26,0,0,1,1.322,1.187,1.131,1.131,0,0,1-.386.841,1.383,1.383,0,0,1-.937.351H4436.76v6.378h11.617A1.26,1.26,0,0,1,4449.7,1035.239Z" transform="translate(-4396.548 -1003.023)" fill="#f40"/>
      <path id="Trazado_487" data-name="Trazado 487" d="M4448.516,1029.681v4.607a.969.969,0,0,1-1.015.911h-41a3.724,3.724,0,0,1-.714-.067h0a3.318,3.318,0,0,1-2.857-3.148,3.058,3.058,0,0,1,1.045-2.272,3.781,3.781,0,0,1,2.529-.943h41A.969.969,0,0,1,4448.516,1029.681Z" transform="translate(-4397.631 -1004.145)" fill="#fff"/>
      <path id="Trazado_488" data-name="Trazado 488" d="M4448.516,1029.681v4.607a.969.969,0,0,1-1.015.911h-.238v-5.03h-40c-1.08,0-3.176,1.023-2.667,3.06a4.84,4.84,0,0,0,1.192,1.9,3.318,3.318,0,0,1-2.857-3.148,3.058,3.058,0,0,1,1.045-2.272,3.781,3.781,0,0,1,2.529-.943h41A.969.969,0,0,1,4448.516,1029.681Z" transform="translate(-4397.631 -1004.145)" fill="#828282"/>
      <path id="Trazado_489" data-name="Trazado 489" d="M4455.98,1002.347a1.149,1.149,0,0,1-.387.845,1.4,1.4,0,0,1-.935.347h-42.607c-3.42,0-6.2-2.5-6.2-5.568a5.285,5.285,0,0,1,1.818-3.94,6.545,6.545,0,0,1,4.379-1.628h42.607a1.26,1.26,0,0,1,1.321,1.187,1.133,1.133,0,0,1-.387.841,1.377,1.377,0,0,1-.935.351h-11.618v6.377h11.618A1.26,1.26,0,0,1,4455.98,1002.347Z" transform="translate(-4398.575 -992.403)" fill="#3e5ef0"/>
      <path id="Trazado_490" data-name="Trazado 490" d="M4454.8,996.789v4.607a.968.968,0,0,1-1.015.911h-41a3.724,3.724,0,0,1-.713-.066h-.006a3.319,3.319,0,0,1-2.856-3.149,3.058,3.058,0,0,1,1.046-2.272,3.78,3.78,0,0,1,2.529-.943h41A.968.968,0,0,1,4454.8,996.789Z" transform="translate(-4399.658 -993.525)" fill="#fff"/>
      <path id="Trazado_491" data-name="Trazado 491" d="M4454.8,996.789v4.607a.968.968,0,0,1-1.015.911h-.237v-5.03h-40c-1.08,0-3.178,1.023-2.669,3.06a4.872,4.872,0,0,0,1.192,1.9,3.319,3.319,0,0,1-2.856-3.149,3.058,3.058,0,0,1,1.046-2.272,3.78,3.78,0,0,1,2.529-.943h41A.968.968,0,0,1,4454.8,996.789Z" transform="translate(-4399.658 -993.525)" fill="#828282"/>
      <path id="Trazado_492" data-name="Trazado 492" d="M4395.1,1018.793a1.145,1.145,0,0,0,.386.845,1.4,1.4,0,0,0,.935.347h42.606c3.42,0,6.2-2.5,6.2-5.568a5.283,5.283,0,0,0-1.816-3.94,6.557,6.557,0,0,0-4.381-1.628h-42.606a1.259,1.259,0,0,0-1.321,1.187,1.13,1.13,0,0,0,.386.841,1.376,1.376,0,0,0,.935.352h11.618v6.377h-11.618A1.259,1.259,0,0,0,4395.1,1018.793Z" transform="translate(-4395.105 -997.713)" fill="#eaab3b"/>
      <path id="Trazado_493" data-name="Trazado 493" d="M4398.453,1013.235v4.608a.969.969,0,0,0,1.016.911h41a3.742,3.742,0,0,0,.713-.066h0a3.317,3.317,0,0,0,2.855-3.149,3.056,3.056,0,0,0-1.043-2.272,3.782,3.782,0,0,0-2.53-.943h-41A.969.969,0,0,0,4398.453,1013.235Z" transform="translate(-4396.186 -998.835)" fill="#fff"/>
      <path id="Trazado_494" data-name="Trazado 494" d="M4398.453,1013.235v4.608a.969.969,0,0,0,1.016.911h.238v-5.03h40c1.078,0,3.178,1.023,2.666,3.06a4.831,4.831,0,0,1-1.192,1.9,3.317,3.317,0,0,0,2.855-3.149,3.056,3.056,0,0,0-1.043-2.272,3.782,3.782,0,0,0-2.53-.943h-41A.969.969,0,0,0,4398.453,1013.235Z" transform="translate(-4396.186 -998.835)" fill="#828282"/>
    </g>
  </g>
</svg>
