<svg xmlns="http://www.w3.org/2000/svg" xmlns:xlink="http://www.w3.org/1999/xlink" width="238.329" height="30.133" viewBox="0 0 238.329 30.133">
  <defs>
    <linearGradient id="linear-gradient" x1="7.455" y1="2.875" x2="-1.286" y2="-0.11" gradientUnits="objectBoundingBox">
      <stop offset="0" stop-color="#1e93ff"/>
      <stop offset="1" stop-color="#1d2cff"/>
    </linearGradient>
    <linearGradient id="linear-gradient-2" x1="22.55" y1="2.622" x2="-8.472" y2="-0.363" xlink:href="#linear-gradient"/>
    <linearGradient id="linear-gradient-3" x1="5.78" y1="2.295" x2="-2.633" y2="-0.566" xlink:href="#linear-gradient"/>
    <linearGradient id="linear-gradient-4" x1="4.43" y1="1.946" x2="-3.343" y2="-0.915" xlink:href="#linear-gradient"/>
    <linearGradient id="linear-gradient-5" x1="3.905" y1="1.682" x2="-5.049" y2="-1.303" xlink:href="#linear-gradient"/>
    <linearGradient id="linear-gradient-6" x1="2.822" y1="1.293" x2="-5.919" y2="-1.692" xlink:href="#linear-gradient"/>
    <linearGradient id="linear-gradient-7" x1="8.764" y1="3.134" x2="-0.251" y2="0.195" xlink:href="#linear-gradient"/>
  </defs>
  <g id="Grupo_39" data-name="Grupo 39" transform="translate(-544.634 -367.017)">
    <g id="Grupo_28" data-name="Grupo 28" transform="translate(544.634 367.017)">
      <path id="Trazado_6" data-name="Trazado 6" d="M612.57,386.954l-11.844-19.21H587.878v28.877h8.58v-19.21l11.844,19.21H621.15V367.744h-8.58Z" transform="translate(-550.517 -367.116)" fill="url(#linear-gradient)"/>
      <rect id="Rectángulo_60" data-name="Rectángulo 60" width="9.375" height="28.877" transform="translate(76.157 0.628)" fill="url(#linear-gradient-2)"/>
      <path id="Trazado_7" data-name="Trazado 7" d="M671.186,389.219a15.082,15.082,0,0,1-5.105.733,22.478,22.478,0,0,1-3.181-.209,6.663,6.663,0,0,1-2.512-.837,4.233,4.233,0,0,1-1.631-1.82,7.2,7.2,0,0,1-.587-3.159v-3.6a7.24,7.24,0,0,1,.607-3.223,4.345,4.345,0,0,1,1.653-1.842,6.664,6.664,0,0,1,2.511-.836,22.147,22.147,0,0,1,3.14-.21,14.944,14.944,0,0,1,5.23.753,3.8,3.8,0,0,1,2.386,3.181h9.5q-.544-6.236-5.084-8.685t-12.032-2.448a32.33,32.33,0,0,0-7.3.754,13.789,13.789,0,0,0-5.483,2.511,11.18,11.18,0,0,0-3.432,4.666,18.963,18.963,0,0,0-1.193,7.178,19.214,19.214,0,0,0,1.193,7.261,10.868,10.868,0,0,0,3.432,4.625,13.686,13.686,0,0,0,5.483,2.427,34.2,34.2,0,0,0,7.3.712q7.448,0,11.99-2.469t5.168-8.412h-9.5A3.916,3.916,0,0,1,671.186,389.219Z" transform="translate(-558.786 -367.017)" fill="url(#linear-gradient-3)"/>
      <path id="Trazado_8" data-name="Trazado 8" d="M724.225,370.157a14.934,14.934,0,0,0-5.859-2.428,44.994,44.994,0,0,0-15.944,0,14.923,14.923,0,0,0-5.859,2.428,10.954,10.954,0,0,0-3.62,4.582,17.674,17.674,0,0,0-1.256,7.094,19.078,19.078,0,0,0,1.256,7.408,10.989,10.989,0,0,0,3.62,4.708,14.918,14.918,0,0,0,5.859,2.469,43.742,43.742,0,0,0,15.944,0,14.929,14.929,0,0,0,5.859-2.469,11.011,11.011,0,0,0,3.621-4.708,19.111,19.111,0,0,0,1.255-7.408,17.7,17.7,0,0,0-1.255-7.094A10.977,10.977,0,0,0,724.225,370.157ZM719.6,383.59a7.651,7.651,0,0,1-.586,3.223,4.364,4.364,0,0,1-1.737,1.947,7.755,7.755,0,0,1-2.887.942,32.014,32.014,0,0,1-7.994,0,7.75,7.75,0,0,1-2.887-.942,4.366,4.366,0,0,1-1.737-1.947,7.65,7.65,0,0,1-.585-3.223v-3.1q0-3.642,2.343-4.96a18.526,18.526,0,0,1,13.728,0q2.343,1.318,2.343,4.96Z" transform="translate(-564.638 -367.017)" fill="url(#linear-gradient-4)"/>
      <path id="Trazado_9" data-name="Trazado 9" d="M770.427,382.831a10.174,10.174,0,0,0,1.4-5.5q0-4.686-2.93-7.135t-8.161-2.448H739.98v28.877h9.375v-9.374h7.491l5.315,9.374h10.3l-5.943-10.463A8.462,8.462,0,0,0,770.427,382.831Zm-8.1-5.085a2.516,2.516,0,0,1-.69,1.863,3.281,3.281,0,0,1-2.365.69h-9.919v-5.692h9.919a3.417,3.417,0,0,1,2.385.649,2.418,2.418,0,0,1,.67,1.821Z" transform="translate(-571.208 -367.116)" fill="url(#linear-gradient-5)"/>
      <path id="Trazado_10" data-name="Trazado 10" d="M806.67,367.744v19.21l-11.844-19.21H781.978v28.877h8.58v-19.21l11.844,19.21H815.25V367.744Z" transform="translate(-576.921 -367.116)" fill="url(#linear-gradient-6)"/>
      <path id="Trazado_11" data-name="Trazado 11" d="M544.634,384.215q0,7.113,4.336,10.067t12.254,2.953q7.707,0,11.688-2.953t3.98-10.067V367.909H544.634Z" transform="translate(-544.634 -367.138)" fill="url(#linear-gradient-7)"/>
    </g>
    <g id="Grupo_37" data-name="Grupo 37" transform="translate(554.518 372.889)">
      <g id="Grupo_36" data-name="Grupo 36" transform="translate(0)">
        <g id="Grupo_35" data-name="Grupo 35">
          <g id="Grupo_34" data-name="Grupo 34">
            <path id="Trazado_17" data-name="Trazado 17" d="M570.013,374.053c.153-.151,0-.324-.2-.194-.13.086-3.137,1.8-4.728,2.7-.566.324-.958.54-.98.562.043-.173.109-.367.152-.518.044-.109,0-.13-.109-.152a8.053,8.053,0,0,0-1.612.043,6.423,6.423,0,0,0-1.982.519,7.372,7.372,0,0,0-2.876,2.142,6.643,6.643,0,0,0-1.482,3.071,7.185,7.185,0,0,0,2.375,6.9c2.048,1.752,4.466,2.531,4.466,4.132,0,0,2.113-1.233,1-2.552a6.1,6.1,0,0,1-1.743-3.4,5.013,5.013,0,0,1,.348-2.466c.044-.109-.022-.109-.087-.13a4.213,4.213,0,0,1-1.22-.584,2.673,2.673,0,0,1-1.154-2.963,3.038,3.038,0,0,1,.479-1.125.258.258,0,0,1,.109-.108c-.044.217-.109.433-.131.649a2.876,2.876,0,0,0,1.569,3.245,4.056,4.056,0,0,0,2.244.151c1.024.282,1.721.584,2.723.931a1.978,1.978,0,0,0,1.459-.086c.371-.2,1.025-.844.61-1.363-2.527-2.834-2.483-3.7-3.485-4.586-.153-.194-.175-.13,0-.324C566.266,377.969,569.752,374.313,570.013,374.053Zm-5.033,6.9c-.37-.368-.523-1.1-1.176-1.1a1.61,1.61,0,0,1,.653-.259c.327,0,.588.259.567.757a1.018,1.018,0,0,0,.087.606C565.134,381.019,565.068,381.04,564.981,380.954Z" transform="translate(-556.074 -373.813)" fill="#fff"/>
          </g>
        </g>
      </g>
    </g>
  </g>
</svg>
