<?xml version="1.0" encoding="utf-8"?>
<!-- Generator: Adobe Illustrator 25.4.1, SVG Export Plug-In . SVG Version: 6.00 Build 0)  -->
<svg version="1.1" id="Capa_1" xmlns="http://www.w3.org/2000/svg" xmlns:xlink="http://www.w3.org/1999/xlink" x="0px" y="0px"
	 viewBox="0 0 32.3 29.3" style="enable-background:new 0 0 32.3 29.3;" xml:space="preserve">
<style type="text/css">
	.st0{fill:url(#Trazado_11_00000103256427207092229530000012398997531400072863_);}
	.st1{fill:#FFFFFF;}
</style>
<g id="Grupo_39" transform="translate(-544.634 -367.017)">
	<g id="Grupo_28" transform="translate(544.634 367.017)">
		
			<linearGradient id="Trazado_11_00000093860161119277657450000003961381888539585701_" gradientUnits="userSpaceOnUse" x1="-495.1159" y1="225.139" x2="-504.1309" y2="228.078" gradientTransform="matrix(32.258 0 0 -29.326 16254.1582 6694.3232)">
			<stop  offset="0" style="stop-color:#1E93FF"/>
			<stop  offset="1" style="stop-color:#1D2CFF"/>
		</linearGradient>
		<path id="Trazado_11" style="fill:url(#Trazado_11_00000093860161119277657450000003961381888539585701_);" d="M0,16.3
			c0,4.7,1.4,8.1,4.3,10.1s7,3,12.3,3c5.1,0,9-1,11.7-3s4-5.3,4-10.1V0H0V16.3z"/>
	</g>
	<g id="Grupo_37" transform="translate(554.518 372.889)">
		<g id="Grupo_36" transform="translate(0)">
			<g id="Grupo_35">
				<g id="Grupo_34">
					<path id="Trazado_17" class="st1" d="M13.9-0.5c0.2-0.2,0-0.3-0.2-0.2C13.6-0.6,10.6,1.1,9,2c-0.6,0.3-1,0.5-1,0.6
						c0-0.2,0.1-0.4,0.2-0.5c0-0.1,0-0.1-0.1-0.2c-0.5,0-1.1,0-1.6,0C5.8,2,5.1,2.2,4.5,2.4C3.4,2.9,2.4,3.6,1.6,4.6
						C0.9,5.4,0.3,6.5,0.1,7.6c-0.5,2.6,0.4,5.2,2.4,6.9c2,1.8,4.5,2.5,4.5,4.1c0,0,2.1-1.2,1-2.6C7,15.2,6.4,14,6.2,12.7
						c-0.1-0.8,0-1.7,0.3-2.5c0-0.1,0-0.1-0.1-0.1C6,10,5.6,9.8,5.3,9.5c-1-0.6-1.5-1.8-1.2-3c0.1-0.4,0.2-0.8,0.5-1.1
						c0,0,0.1-0.1,0.1-0.1c0,0.2-0.1,0.4-0.1,0.6C4.3,7.3,4.9,8.7,6.1,9.2c0.7,0.3,1.5,0.3,2.2,0.2c1,0.3,1.7,0.6,2.7,0.9
						c0.5,0.2,1,0.1,1.5-0.1c0.4-0.2,1-0.8,0.6-1.4C10.6,6,10.7,5.2,9.7,4.3C9.5,4.1,9.5,4.2,9.7,4C10.2,3.4,13.7-0.3,13.9-0.5z
						 M8.9,6.4C8.5,6,8.4,5.3,7.7,5.3C7.9,5.1,8.1,5,8.4,5C8.7,5,9,5.3,9,5.8c0,0.2,0,0.4,0.1,0.6C9.1,6.4,9,6.5,8.9,6.4L8.9,6.4z"
						/>
				</g>
			</g>
		</g>
	</g>
</g>
</svg>
