<svg id="Capa_1" data-name="Capa 1" xmlns="http://www.w3.org/2000/svg" xmlns:xlink="http://www.w3.org/1999/xlink" viewBox="0 0 238.33 30.14"><defs><style>.cls-1{fill:#fff;}.cls-2{fill:url(#Degradado_sin_nombre_7);}</style><linearGradient id="Degradado_sin_nombre_7" x1="9.86" y1="15.59" x2="23.89" y2="15.59" gradientUnits="userSpaceOnUse"><stop offset="0" stop-color="#1e93ff"/><stop offset="1" stop-color="#1d2cff"/></linearGradient></defs><g id="Grupo_39" data-name="Grupo 39"><g id="Grupo_28" data-name="Grupo 28"><path id="Trazado_6" data-name="Trazado 6" class="cls-1" d="M62.05,19.84,50.21.63H37.36V29.51h8.58V10.3L57.78,29.51H70.63V.63H62.05Z" transform="translate(0 0)"/><rect id="Rectángulo_60" data-name="Rectángulo 60" class="cls-1" x="76.16" y="0.63" width="9.38" height="28.88"/><path id="Trazado_7" data-name="Trazado 7" class="cls-1" d="M112.4,22.2a14.75,14.75,0,0,1-5.11.73,22.63,22.63,0,0,1-3.18-.2,6.78,6.78,0,0,1-2.51-.84A4.22,4.22,0,0,1,100,20.07a7.32,7.32,0,0,1-.59-3.16v-3.6a7.25,7.25,0,0,1,.61-3.22,4.47,4.47,0,0,1,1.65-1.85,6.82,6.82,0,0,1,2.51-.83,20.71,20.71,0,0,1,3.14-.21,14.94,14.94,0,0,1,5.23.75,3.79,3.79,0,0,1,2.39,3.18h9.5q-.54-6.22-5.08-8.68T107.29,0a32.61,32.61,0,0,0-7.3.75,13.9,13.9,0,0,0-5.48,2.51,11.2,11.2,0,0,0-3.43,4.67,18.89,18.89,0,0,0-1.19,7.18,19.13,19.13,0,0,0,1.19,7.26A10.85,10.85,0,0,0,94.51,27,13.6,13.6,0,0,0,100,29.42a33.84,33.84,0,0,0,7.3.71q7.45,0,12-2.47t5.17-8.41H115A3.91,3.91,0,0,1,112.4,22.2Z" transform="translate(0 0)"/><path id="Trazado_8" data-name="Trazado 8" class="cls-1" d="M159.59,3.14A15,15,0,0,0,153.73.71a45,45,0,0,0-15.95,0,15,15,0,0,0-5.86,2.43,11.05,11.05,0,0,0-3.62,4.58,17.78,17.78,0,0,0-1.25,7.1,19.09,19.09,0,0,0,1.25,7.4,11.07,11.07,0,0,0,3.62,4.71,14.9,14.9,0,0,0,5.86,2.47,43.63,43.63,0,0,0,15.95,0,14.84,14.84,0,0,0,5.86-2.47,11,11,0,0,0,3.62-4.71,19.09,19.09,0,0,0,1.25-7.4,17.6,17.6,0,0,0-1.25-7.1A11,11,0,0,0,159.59,3.14ZM155,16.57a7.75,7.75,0,0,1-.58,3.23,4.37,4.37,0,0,1-1.74,1.94,7.74,7.74,0,0,1-2.89.94,31.42,31.42,0,0,1-8,0,7.74,7.74,0,0,1-2.89-.94,4.37,4.37,0,0,1-1.74-1.94,7.75,7.75,0,0,1-.58-3.23v-3.1c0-2.42.78-4.08,2.34-5a18.61,18.61,0,0,1,13.73,0c1.56.88,2.34,2.54,2.34,5Z" transform="translate(0 0)"/><path id="Trazado_9" data-name="Trazado 9" class="cls-1" d="M199.22,15.71a10.19,10.19,0,0,0,1.4-5.5q0-4.68-2.93-7.13T189.53.63H168.77V29.51h9.38V20.14h7.49L191,29.51h10.3l-5.94-10.46A8.48,8.48,0,0,0,199.22,15.71Zm-8.1-5.08a2.55,2.55,0,0,1-.69,1.86,3.27,3.27,0,0,1-2.37.69h-9.91V7.49h9.91a3.41,3.41,0,0,1,2.39.65,2.42,2.42,0,0,1,.67,1.82Z" transform="translate(0 0)"/><path id="Trazado_10" data-name="Trazado 10" class="cls-1" d="M229.75.63V19.84L217.9.63H205.06V29.51h8.58V10.3l11.84,19.21h12.85V.63Z" transform="translate(0 0)"/><path id="Trazado_11" data-name="Trazado 11" class="cls-1" d="M0,17.08q0,7.11,4.34,10.06t12.25,3q7.71,0,11.69-3t4-10.06V.77H0Z" transform="translate(0 0)"/></g><g id="Grupo_37" data-name="Grupo 37"><g id="Grupo_36" data-name="Grupo 36"><g id="Grupo_35" data-name="Grupo 35"><g id="Grupo_34" data-name="Grupo 34"><path id="Trazado_17" data-name="Trazado 17" class="cls-2" d="M23.82,6.11c.16-.15,0-.32-.2-.19L18.9,8.62l-1,.56c0-.17.1-.37.15-.52s0-.13-.11-.15a7.86,7.86,0,0,0-1.61,0,6.5,6.5,0,0,0-2,.52,7.4,7.4,0,0,0-2.87,2.14A6.61,6.61,0,0,0,10,14.29a7.16,7.16,0,0,0,2.37,6.9c2,1.75,4.47,2.53,4.47,4.13,0,0,2.11-1.24,1-2.55a6.17,6.17,0,0,1-1.75-3.4,5.08,5.08,0,0,1,.35-2.47c.05-.11,0-.11-.08-.13a4.42,4.42,0,0,1-1.22-.58,2.67,2.67,0,0,1-1.16-3,3.09,3.09,0,0,1,.48-1.12.2.2,0,0,1,.11-.11c0,.22-.11.43-.13.65A2.87,2.87,0,0,0,16,15.88a4,4,0,0,0,2.24.15c1,.29,1.72.59,2.72.93a2,2,0,0,0,1.46-.08c.37-.2,1-.84.61-1.36-2.52-2.84-2.48-3.7-3.48-4.59-.15-.19-.18-.13,0-.32C20.08,10,23.56,6.37,23.82,6.11Zm-5,6.9c-.37-.37-.52-1.1-1.18-1.1a1.72,1.72,0,0,1,.66-.26c.32,0,.59.26.56.76a1.06,1.06,0,0,0,.09.61c0,.06,0,.08-.13,0Z" transform="translate(0 0)"/></g></g></g></g></g></svg>