<svg xmlns="http://www.w3.org/2000/svg" xmlns:xlink="http://www.w3.org/1999/xlink" width="220" height="220" viewBox="0 0 220 220">
  <defs>
    <linearGradient id="linear-gradient" x1="0.5" x2="0.5" y2="1" gradientUnits="objectBoundingBox">
      <stop offset="0" stop-color="#f2f7ff"/>
      <stop offset="1" stop-color="#becbff"/>
    </linearGradient>
  </defs>
  <g id="Grupo_796" data-name="Grupo 796" transform="translate(-585 -501)">
    <circle id="Elipse_22" data-name="Elipse 22" cx="110" cy="110" r="110" transform="translate(585 501)" fill="url(#linear-gradient)"/>
    <g id="Grupo_740" data-name="Grupo 740" transform="translate(2664 2122)">
      <rect id="Rect치ngulo_172" data-name="Rect치ngulo 172" width="112.933" height="140.729" transform="translate(-2024.224 -1577.729)" fill="#fff"/>
      <path id="Trazado_843" data-name="Trazado 843" d="M123.867,50.038,63.8,110.1l10.881,10.882L134.748,60.92a5.253,5.253,0,0,0,0-7.429L131.3,50.038A5.253,5.253,0,0,0,123.867,50.038Z" transform="translate(-2016.062 -1580.705)" fill="#ff6e1d"/>
      <rect id="Rect치ngulo_173" data-name="Rect치ngulo 173" width="8.334" height="15.389" transform="translate(-1908.586 -1514.277) rotate(-45)" fill="#ffd92e"/>
      <path id="Trazado_844" data-name="Trazado 844" d="M122.924,60.923,112.432,71.415,101.546,60.529l10.505-10.492a5.247,5.247,0,0,1,7.419,0l3.454,3.454A5.263,5.263,0,0,1,122.924,60.923Z" transform="translate(-2004.241 -1580.705)" fill="#404a80"/>
      <g id="Grupo_733" data-name="Grupo 733" transform="translate(-1948.809 -1589)">
        <path id="Trazado_847" data-name="Trazado 847" d="M88.964,16.517h-4.6A6.671,6.671,0,1,0,77.7,23.2a2.3,2.3,0,0,1,0,4.6,11.274,11.274,0,1,1,11.267-11.28Z" transform="translate(-66.43 -5.25)" fill="#404a80"/>
      </g>
      <g id="Grupo_734" data-name="Grupo 734" transform="translate(-2009.241 -1589)">
        <path id="Trazado_848" data-name="Trazado 848" d="M42.944,16.517h-4.6A6.671,6.671,0,1,0,31.677,23.2a2.3,2.3,0,1,1,0,4.6,11.274,11.274,0,1,1,11.267-11.28Z" transform="translate(-20.41 -5.25)" fill="#404a80"/>
      </g>
      <g id="Grupo_735" data-name="Grupo 735" transform="translate(-1979.025 -1589)">
        <path id="Trazado_849" data-name="Trazado 849" d="M65.954,16.517h-4.6A6.671,6.671,0,1,0,54.687,23.2a2.3,2.3,0,1,1,0,4.6,11.274,11.274,0,1,1,11.267-11.28Z" transform="translate(-43.42 -5.25)" fill="#404a80"/>
      </g>
      <path id="Trazado_850" data-name="Trazado 850" d="M65.1,95.413,75.979,106.3l-16.323,5.441Z" transform="translate(-2017.36 -1566.013)" fill="#fee1ba"/>
      <g id="Grupo_739" data-name="Grupo 739" transform="translate(-7022.623 -3719.48)">
        <path id="Trazado_817" data-name="Trazado 817" d="M5408.063,2862.967a2.311,2.311,0,0,0,.376.238l-.03-3.73a1.6,1.6,0,0,0-.37-.132l.023,3.624Z" transform="translate(-358.106 -630.496)" fill="#ff942c"/>
        <path id="Trazado_818" data-name="Trazado 818" d="M5141.7,2717.224l-15.566,0a.956.956,0,0,1-.956-.956v-.105a.955.955,0,0,1,.955-.956l15.567,0a.955.955,0,0,1,.956.955v.105a.956.956,0,0,1-.956.956Z" transform="translate(-97.644 -497.773)" fill="#8db3e2"/>
        <path id="Trazado_819" data-name="Trazado 819" d="M5163.965,2745.2a1.03,1.03,0,0,0-1.453,1.459l12.426,12.365a1.029,1.029,0,1,0,1.452-1.459l-12.425-12.365Z" transform="translate(-131.741 -525.113)" fill="#4b2a65"/>
        <path id="Trazado_820" data-name="Trazado 820" d="M5094.285,2768.372a1.029,1.029,0,0,0-1.452,1.459l16.892,16.81a1.029,1.029,0,1,0,1.452-1.459l-16.892-16.81Z" transform="translate(-67.579 -546.452)" fill="#4b2a65"/>
        <path id="Trazado_821" data-name="Trazado 821" d="M5597.234,2333.976a1.029,1.029,0,1,0-1.452,1.459l11.632,11.576a1.029,1.029,0,0,0,1.452-1.459l-11.632-11.575Z" transform="translate(-530.704 -146.451)" fill="#4b2a65"/>
        <path id="Trazado_822" data-name="Trazado 822" d="M5322.435,2582.411a1.029,1.029,0,1,0-1.452,1.459l12.628,12.566a1.029,1.029,0,0,0,1.452-1.459l-12.628-12.566Z" transform="translate(-277.663 -375.216)" fill="#4b2a65"/>
        <path id="Trazado_823" data-name="Trazado 823" d="M5433.725,2476.748a1.029,1.029,0,1,0-1.452,1.459l12.425,12.365a1.029,1.029,0,0,0,1.452-1.459l-12.425-12.365Z" transform="translate(-380.141 -277.919)" fill="#4b2a65"/>
        <path id="Trazado_824" data-name="Trazado 824" d="M5627.387,2271.475l-16.892-16.81a1.029,1.029,0,0,0-1.452,1.459l16.892,16.81a1.029,1.029,0,1,0,1.452-1.459Z" transform="translate(-542.915 -73.421)" fill="#4b2a65"/>
        <path id="Trazado_825" data-name="Trazado 825" d="M5352.418,2504.871a1.029,1.029,0,0,0-1.452,1.459l16.892,16.81a1.03,1.03,0,1,0,1.453-1.459l-16.893-16.81Z" transform="translate(-305.273 -303.815)" fill="#4b2a65"/>
        <path id="Trazado_826" data-name="Trazado 826" d="M5266.481,2466.308a3.215,3.215,0,0,1-2.282-5.493c1.485-1.478,2.06-3.631,1.809-6.775a59.844,59.844,0,0,0-2.564-11.136,64.273,64.273,0,0,1-2.807-12.438c-.406-5.093.8-8.965,3.684-11.836,2.533-2.519,5.816-3.744,10.04-3.744.6,0,1.226.025,1.863.075a65.276,65.276,0,0,1,12.515,2.789,60.862,60.862,0,0,0,11.185,2.546c.478.038.938.057,1.368.057a7.211,7.211,0,0,0,5.421-1.846,3.223,3.223,0,1,1,4.563,4.552c-2.52,2.507-5.789,3.727-10,3.727h0c-.6,0-1.229-.026-1.868-.076a65.245,65.245,0,0,1-12.483-2.784,60.86,60.86,0,0,0-11.213-2.551c-.477-.038-.936-.057-1.366-.057a7.267,7.267,0,0,0-5.464,1.863c-1.486,1.479-2.061,3.631-1.81,6.775a59.944,59.944,0,0,0,2.565,11.137,64.277,64.277,0,0,1,2.806,12.437c.406,5.094-.8,8.965-3.684,11.836a3.214,3.214,0,0,1-2.282.942Z" transform="translate(-222.305 -221.231)" fill="#ff474a"/>
        <path id="Trazado_827" data-name="Trazado 827" d="M5302.966,2414.756c-2.38,2.368-5.506,3.531-9.522,3.531q-.878,0-1.815-.074a64.737,64.737,0,0,1-12.347-2.759,61.318,61.318,0,0,0-11.35-2.576q-.743-.059-1.419-.059a7.935,7.935,0,0,0-5.938,2.059c-1.637,1.629-2.273,3.95-2.005,7.306a60.277,60.277,0,0,0,2.59,11.273,63.792,63.792,0,0,1,2.78,12.3c.39,4.884-.751,8.583-3.488,11.306a2.55,2.55,0,0,1-3.615-3.6c1.637-1.629,2.274-3.95,2.007-7.306a60.354,60.354,0,0,0-2.591-11.273,63.764,63.764,0,0,1-2.78-12.3c-.391-4.885.751-8.583,3.487-11.306,2.391-2.38,5.532-3.548,9.565-3.548q.877,0,1.809.074a64.75,64.75,0,0,1,12.38,2.764,61.321,61.321,0,0,0,11.32,2.571c.5.039.969.059,1.421.059a7.879,7.879,0,0,0,5.9-2.042,2.55,2.55,0,0,1,3.614,3.6Zm.95-4.552a3.911,3.911,0,0,0-5.514,0,6.591,6.591,0,0,1-4.946,1.65c-.413,0-.855-.018-1.315-.055a60.438,60.438,0,0,1-11.05-2.522,65.764,65.764,0,0,0-12.649-2.813c-.655-.051-1.3-.077-1.916-.077h0a16.85,16.85,0,0,0-5.867.966,12.985,12.985,0,0,0-7.9,8.374,18.387,18.387,0,0,0-.627,6.967,64.774,64.774,0,0,0,2.831,12.573,59.467,59.467,0,0,1,2.54,11c.234,2.932-.279,4.916-1.614,6.245a3.9,3.9,0,0,0,5.514,5.505,12.9,12.9,0,0,0,3.253-5.4,18.409,18.409,0,0,0,.626-6.967,64.7,64.7,0,0,0-2.831-12.573,59.509,59.509,0,0,1-2.54-11c-.233-2.932.279-4.916,1.613-6.245a6.648,6.648,0,0,1,4.989-1.667c.413,0,.854.018,1.313.054a60.424,60.424,0,0,1,11.079,2.526,65.74,65.74,0,0,0,12.618,2.809c.657.052,1.3.078,1.921.078a16.791,16.791,0,0,0,5.843-.961,12.863,12.863,0,0,0,4.629-2.961,3.883,3.883,0,0,0,0-5.506Z" transform="translate(-214.469 -213.405)" fill="#4b2a65"/>
        <path id="Trazado_828" data-name="Trazado 828" d="M5065.5,2234.553c-.6,0-1.226-.025-1.863-.076a65.249,65.249,0,0,1-12.515-2.789,60.893,60.893,0,0,0-11.185-2.547c-.478-.038-.937-.057-1.368-.057a7.209,7.209,0,0,0-5.42,1.846,3.223,3.223,0,1,1-4.564-4.551c2.52-2.508,5.79-3.727,10-3.727.6,0,1.228.026,1.867.076a65.274,65.274,0,0,1,12.483,2.784,60.859,60.859,0,0,0,11.213,2.551c.477.038.937.056,1.366.056a7.266,7.266,0,0,0,5.464-1.863c1.486-1.479,2.061-3.631,1.81-6.775a59.855,59.855,0,0,0-2.564-11.137,64.249,64.249,0,0,1-2.806-12.437c-.406-5.094.8-8.965,3.684-11.837a3.223,3.223,0,1,1,4.565,4.552c-1.486,1.479-2.062,3.631-1.811,6.775a59.849,59.849,0,0,0,2.565,11.135,64.319,64.319,0,0,1,2.806,12.438c.406,5.094-.8,8.965-3.684,11.836-2.532,2.52-5.815,3.744-10.039,3.744Z" transform="translate(-7.827 -7.827)" fill="#009fff"/>
        <path id="Trazado_829" data-name="Trazado 829" d="M5067.24,2222.5c-2.392,2.38-5.532,3.548-9.564,3.548q-.877,0-1.81-.073a64.716,64.716,0,0,1-12.38-2.764,61.316,61.316,0,0,0-11.32-2.571q-.743-.059-1.421-.059a7.875,7.875,0,0,0-5.9,2.042,2.55,2.55,0,0,1-3.615-3.6c2.38-2.368,5.507-3.531,9.522-3.531q.879,0,1.815.074a64.754,64.754,0,0,1,12.347,2.759,61.313,61.313,0,0,0,11.349,2.576c.5.039.967.059,1.419.059a7.936,7.936,0,0,0,5.939-2.059c1.637-1.629,2.273-3.95,2.005-7.306a60.271,60.271,0,0,0-2.59-11.273,63.8,63.8,0,0,1-2.78-12.3c-.39-4.884.751-8.583,3.487-11.306a2.55,2.55,0,0,1,3.615,3.6c-1.637,1.629-2.274,3.95-2.007,7.306a60.322,60.322,0,0,0,2.591,11.273,63.76,63.76,0,0,1,2.78,12.3c.39,4.885-.751,8.583-3.487,11.306Zm4.829-11.413a64.7,64.7,0,0,0-2.831-12.573,59.513,59.513,0,0,1-2.54-11c-.234-2.932.279-4.916,1.614-6.245a3.9,3.9,0,0,0-5.514-5.505,12.9,12.9,0,0,0-3.253,5.4,18.389,18.389,0,0,0-.627,6.967,64.705,64.705,0,0,0,2.831,12.573,59.513,59.513,0,0,1,2.54,11c.233,2.932-.279,4.916-1.614,6.245a6.647,6.647,0,0,1-4.989,1.667c-.413,0-.854-.018-1.313-.054a60.455,60.455,0,0,1-11.079-2.526,65.694,65.694,0,0,0-12.617-2.809c-.657-.052-1.3-.078-1.921-.078a16.778,16.778,0,0,0-5.843.962,12.859,12.859,0,0,0-4.629,2.961,3.9,3.9,0,0,0,5.514,5.506,6.592,6.592,0,0,1,4.946-1.65c.412,0,.855.018,1.315.055a60.45,60.45,0,0,1,11.049,2.521,65.71,65.71,0,0,0,12.65,2.814c.655.052,1.3.078,1.916.078a16.845,16.845,0,0,0,5.866-.966,12.985,12.985,0,0,0,7.9-8.374,18.38,18.38,0,0,0,.627-6.967Z" fill="#4b2a65"/>
        <path id="Trazado_830" data-name="Trazado 830" d="M5038.038,2235.828c2.728-2.713,6.435-3.844,11.337-3.457a64.742,64.742,0,0,1,12.348,2.759,61.318,61.318,0,0,0,11.35,2.576c3.381.266,5.718-.37,7.357-2s2.273-3.95,2.006-7.306a60.319,60.319,0,0,0-2.591-11.273,63.792,63.792,0,0,1-2.78-12.3c-.39-4.884.751-8.583,3.488-11.306a2.565,2.565,0,0,1,2.946-.479,2.513,2.513,0,0,0-.481-.666,2.564,2.564,0,0,0-3.614,0c-2.736,2.723-3.877,6.421-3.488,11.306a63.834,63.834,0,0,0,2.781,12.3,60.316,60.316,0,0,1,2.59,11.273c.268,3.356-.369,5.677-2.006,7.306s-3.976,2.266-7.357,2a61.313,61.313,0,0,1-11.349-2.576,64.731,64.731,0,0,0-12.348-2.759c-4.9-.388-8.61.743-11.337,3.457a2.539,2.539,0,0,0,.669,4.075,2.536,2.536,0,0,1,.48-2.932Z" transform="translate(-15.654 -15.654)" fill="#00aeff"/>
        <path id="Trazado_831" data-name="Trazado 831" d="M5085.933,2198.877c-1.637,1.629-2.273,3.95-2.006,7.306a60.283,60.283,0,0,0,2.591,11.273,63.761,63.761,0,0,1,2.78,12.3c.39,4.885-.75,8.583-3.487,11.306s-6.459,3.861-11.375,3.475a64.782,64.782,0,0,1-12.38-2.764,61.291,61.291,0,0,0-11.319-2.571c-3.365-.266-5.69.364-7.317,1.983a2.565,2.565,0,0,1-3.069.413,2.559,2.559,0,0,0,4.03.542c1.627-1.619,3.951-2.249,7.317-1.982a61.31,61.31,0,0,1,11.32,2.571,64.732,64.732,0,0,0,12.38,2.764c4.915.387,8.636-.75,11.374-3.474s3.878-6.421,3.487-11.306a63.794,63.794,0,0,0-2.78-12.3,60.361,60.361,0,0,1-2.591-11.273c-.268-3.356.37-5.677,2.007-7.306a2.538,2.538,0,0,0-.546-4.01,2.535,2.535,0,0,1-.415,3.055Z" transform="translate(-19.531 -19.513)" fill="#007bf8"/>
        <path id="Trazado_832" data-name="Trazado 832" d="M5547.272,2398.549c.652,2.217,1.317,4.478,1.817,6.641l5.514,1.47a86.734,86.734,0,0,0-2.426-9.541c-.562-1.91-1.134-3.853-1.6-5.738l-5.566-1.484c.553,2.842,1.417,5.781,2.263,8.652Z" transform="translate(-484.231 -198.221)" fill="#007bf8"/>
        <path id="Trazado_833" data-name="Trazado 833" d="M5297.779,2818.9a3.214,3.214,0,0,1-2.282-5.493c1.485-1.478,2.06-3.631,1.809-6.775a43.136,43.136,0,0,0-1.736-7.979.673.673,0,0,1,.835-.83l.013,0c.665.193,4.065,1.178,5.688,1.595a.671.671,0,0,1,.485.489,37.384,37.384,0,0,1,1.154,6.211c.406,5.094-.8,8.965-3.684,11.836a3.212,3.212,0,0,1-2.282.941Z" transform="translate(-253.602 -573.818)" fill="#ff474a"/>
        <path id="Trazado_834" data-name="Trazado 834" d="M5291.759,2809.649a2.55,2.55,0,0,1-3.615-3.6c1.637-1.628,2.274-3.95,2.006-7.306a43.063,43.063,0,0,0-1.76-8.109c.166.048,3.975,1.156,5.721,1.6a36.724,36.724,0,0,1,1.136,6.1c.389,4.884-.752,8.583-3.488,11.306Zm4.829-11.413a37.923,37.923,0,0,0-1.171-6.32,1.346,1.346,0,0,0-.972-.979c-1.66-.426-5.268-1.473-5.673-1.591l-.006,0a1.347,1.347,0,0,0-1.671,1.659,42.574,42.574,0,0,1,1.714,7.849c.234,2.932-.279,4.916-1.614,6.245a3.9,3.9,0,0,0,5.513,5.505,12.889,12.889,0,0,0,3.253-5.4,18.378,18.378,0,0,0,.627-6.967Z" transform="translate(-245.776 -565.991)" fill="#4b2a65"/>
        <path id="Trazado_835" data-name="Trazado 835" d="M5268.175,2438.888a.678.678,0,0,1-.187-.027l-.015,0c-.67-.194-4.093-1.186-5.687-1.6a.675.675,0,0,1-.485-.489,38.019,38.019,0,0,1-1.162-6.3c-.406-5.094.8-8.965,3.684-11.837,2.533-2.519,5.816-3.744,10.04-3.744.6,0,1.226.026,1.863.075a65.257,65.257,0,0,1,12.515,2.789,60.865,60.865,0,0,0,11.185,2.546c.478.038.938.057,1.368.057a7.211,7.211,0,0,0,5.421-1.846,3.223,3.223,0,1,1,4.563,4.552c-2.52,2.508-5.789,3.727-10,3.727-.6,0-1.229-.026-1.868-.076a65.262,65.262,0,0,1-12.483-2.784,60.881,60.881,0,0,0-11.213-2.551c-.477-.037-.936-.056-1.366-.056a7.267,7.267,0,0,0-5.464,1.863c-1.486,1.479-2.061,3.631-1.81,6.775a42.86,42.86,0,0,0,1.747,8.074.673.673,0,0,1-.648.856Z" transform="translate(-222.305 -221.232)" fill="#ff474a"/>
        <path id="Trazado_836" data-name="Trazado 836" d="M5302.966,2414.756c-2.38,2.368-5.506,3.531-9.522,3.531q-.878,0-1.815-.074a64.737,64.737,0,0,1-12.347-2.759,61.318,61.318,0,0,0-11.35-2.576q-.743-.059-1.419-.059a7.935,7.935,0,0,0-5.938,2.059c-1.637,1.629-2.273,3.95-2.005,7.306a43.685,43.685,0,0,0,1.77,8.2c-.192-.056-4-1.164-5.723-1.607a37.442,37.442,0,0,1-1.144-6.194c-.391-4.885.751-8.583,3.487-11.306,2.391-2.38,5.532-3.548,9.564-3.548q.877,0,1.81.074a64.75,64.75,0,0,1,12.38,2.764,61.321,61.321,0,0,0,11.32,2.571c.5.039.969.059,1.421.059a7.879,7.879,0,0,0,5.9-2.042,2.55,2.55,0,0,1,3.614,3.6Zm.95-4.552a3.911,3.911,0,0,0-5.514,0,6.59,6.59,0,0,1-4.946,1.65c-.413,0-.855-.018-1.315-.055a60.438,60.438,0,0,1-11.05-2.522,65.764,65.764,0,0,0-12.649-2.813c-.655-.051-1.3-.077-1.916-.077a16.849,16.849,0,0,0-5.866.966,12.983,12.983,0,0,0-7.9,8.374,18.387,18.387,0,0,0-.627,6.967,39.046,39.046,0,0,0,1.18,6.413,1.345,1.345,0,0,0,.97.978c1.6.411,5.007,1.4,5.674,1.594l.008,0a1.346,1.346,0,0,0,1.671-1.66,42.322,42.322,0,0,1-1.724-7.944c-.233-2.932.279-4.916,1.613-6.245a6.648,6.648,0,0,1,4.989-1.667c.413,0,.854.018,1.313.054a60.424,60.424,0,0,1,11.079,2.526,65.74,65.74,0,0,0,12.618,2.809c.657.052,1.3.078,1.921.078a16.791,16.791,0,0,0,5.843-.961,12.863,12.863,0,0,0,4.629-2.961,3.883,3.883,0,0,0,0-5.506Z" transform="translate(-214.469 -213.405)" fill="#4b2a65"/>
        <path id="Trazado_837" data-name="Trazado 837" d="M5312.08,2824.5c.39,4.884-.751,8.582-3.487,11.306a2.566,2.566,0,0,1-2.833.53,2.528,2.528,0,0,0,.534.778,2.565,2.565,0,0,0,3.614,0c2.736-2.723,3.877-6.421,3.488-11.306a40.134,40.134,0,0,0-1.135-6.409q-.535-.137-1.069-.281a37.191,37.191,0,0,1,.889,5.382Z" transform="translate(-263.925 -593.455)" fill="#ff3d3d"/>
        <path id="Trazado_838" data-name="Trazado 838" d="M5329.145,2459.947a2.535,2.535,0,0,1-.534,2.819c-2.727,2.714-6.436,3.844-11.337,3.457a64.775,64.775,0,0,1-12.349-2.759,61.291,61.291,0,0,0-11.349-2.576c-3.38-.266-5.719.37-7.357,2s-2.274,3.95-2.006,7.306a46.038,46.038,0,0,0,1.771,8.452l-.578-.168c-1.349-.393-2.712-.788-4.076-1.157q.119.512.247,1.027c1.72.443,3.443.944,5.145,1.439l.578.168a46.038,46.038,0,0,1-1.771-8.452c-.268-3.356.369-5.677,2.006-7.306s3.977-2.266,7.358-2a61.344,61.344,0,0,1,11.349,2.576,64.765,64.765,0,0,0,12.347,2.76c4.9.387,8.61-.743,11.337-3.457a2.54,2.54,0,0,0-.782-4.128Z" transform="translate(-241.43 -262.724)" fill="#ff3d3d"/>
        <path id="Trazado_839" data-name="Trazado 839" d="M5304.038,2802.42a45.915,45.915,0,0,1,1.76,8.416c.268,3.356-.37,5.677-2.006,7.306a2.534,2.534,0,0,0,0,3.6,2.57,2.57,0,0,0,.561.421,2.534,2.534,0,0,1,.423-3.04c1.636-1.628,2.273-3.95,2.006-7.306a45.823,45.823,0,0,0-1.76-8.415l.5.145c1.464.426,2.946.856,4.425,1.25-.06-.256-.123-.513-.186-.77-1.746-.448-3.5-.957-5.223-1.459l-.5-.145Z" transform="translate(-261.423 -578.08)" fill="#ff7474"/>
        <path id="Trazado_840" data-name="Trazado 840" d="M5270.127,2439.22c-.39-4.885.752-8.583,3.487-11.306s6.459-3.861,11.375-3.475a64.769,64.769,0,0,1,12.38,2.764,61.282,61.282,0,0,0,11.32,2.571c3.365.266,5.69-.364,7.317-1.982a2.566,2.566,0,0,1,3.055-.422,2.614,2.614,0,0,0-.424-.558,2.565,2.565,0,0,0-3.615,0c-1.627,1.619-3.951,2.249-7.316,1.983a61.316,61.316,0,0,1-11.32-2.571,64.76,64.76,0,0,0-12.38-2.764c-4.915-.387-8.636.75-11.374,3.474s-3.877,6.421-3.487,11.306a40.3,40.3,0,0,0,1.144,6.442q.4.1.8.209a38.049,38.049,0,0,1-.957-5.672Z" transform="translate(-230.14 -229.059)" fill="#ff7474"/>
        <path id="Trazado_841" data-name="Trazado 841" d="M5275.74,2652.774c0,.015.006.03.008.044q.044.234.091.469c0,.021.008.042.012.063q.106.526.224,1.056c.006.027.012.054.019.082.036.161.072.323.11.485,0,.014.006.028.01.042.043.18.085.36.13.541,0,.012.006.024.009.035.025.105.052.21.078.316,1.719.443,3.444.944,5.145,1.439l.577.168c-.017-.06-.034-.12-.051-.18-.006-.023-.013-.045-.019-.068-.033-.117-.066-.234-.1-.352,0-.015-.009-.031-.012-.046-.03-.106-.06-.213-.089-.319,0-.017-.008-.034-.014-.051q-.1-.365-.2-.73c0-.007,0-.015-.006-.022l-.1-.365h0q-.1-.373-.189-.743l-.005-.019q-.045-.183-.089-.365l-5.547-1.479Z" transform="translate(-236.282 -440.283)" fill="#ff3d3d"/>
        <path id="Trazado_842" data-name="Trazado 842" d="M5316.108,2802.565l-.5-.145q.1.349.194.7l0,.01c.254.92.5,1.835.71,2.734l5.534,1.476q-.05-.278-.1-.556c0-.011,0-.022-.006-.033-.033-.17-.068-.341-.1-.513,0-.019-.008-.037-.012-.056q-.113-.539-.238-1.083l-.019-.084q-.06-.258-.123-.517a.108.108,0,0,0,0-.017q-.054-.227-.111-.454c-1.745-.448-3.5-.957-5.222-1.459Z" transform="translate(-272.995 -578.08)" fill="#ff3d3d"/>
      </g>
    </g>
  </g>
</svg>
