<svg xmlns="http://www.w3.org/2000/svg" xmlns:xlink="http://www.w3.org/1999/xlink" width="220" height="220" viewBox="0 0 220 220">
  <defs>
    <linearGradient id="linear-gradient" x1="0.5" x2="0.5" y2="1" gradientUnits="objectBoundingBox">
      <stop offset="0" stop-color="#f2f7ff"/>
      <stop offset="1" stop-color="#becbff"/>
    </linearGradient>
  </defs>
  <g id="Grupo_797" data-name="Grupo 797" transform="translate(-1121 -501)">
    <circle id="Elipse_23" data-name="Elipse 23" cx="110" cy="110" r="110" transform="translate(1121 501)" fill="url(#linear-gradient)"/>
    <g id="Grupo_736" data-name="Grupo 736" transform="translate(1160.776 529.75)">
      <rect id="Rect치ngulo_172" data-name="Rect치ngulo 172" width="112.933" height="140.729" transform="translate(9 16.52)" fill="#fff"/>
      <path id="Trazado_843" data-name="Trazado 843" d="M123.867,50.038,63.8,110.1l10.881,10.882L134.748,60.92a5.253,5.253,0,0,0,0-7.429L131.3,50.038A5.253,5.253,0,0,0,123.867,50.038Z" transform="translate(17.162 13.544)" fill="#ff6e1d"/>
      <rect id="Rect치ngulo_173" data-name="Rect치ngulo 173" width="8.334" height="15.389" transform="translate(124.638 79.973) rotate(-45)" fill="#ffd92e"/>
      <path id="Trazado_844" data-name="Trazado 844" d="M122.924,60.923,112.432,71.415,101.546,60.529l10.505-10.492a5.247,5.247,0,0,1,7.419,0l3.454,3.454A5.263,5.263,0,0,1,122.924,60.923Z" transform="translate(28.983 13.545)" fill="#404a80"/>
      <g id="Grupo_731" data-name="Grupo 731" transform="translate(32.951 40.472)">
        <path id="Trazado_845" data-name="Trazado 845" d="M38.51,36.668H29.537a2.3,2.3,0,1,1,0-4.6H38.51a2.3,2.3,0,1,1,0,4.6Z" transform="translate(-27.239 -32.072)" fill="#cce6ff"/>
      </g>
      <g id="Grupo_732" data-name="Grupo 732" transform="translate(23.979 40.472)">
        <path id="Trazado_846" data-name="Trazado 846" d="M71.948,133.872H49.984a29.578,29.578,0,0,1,0-59.156H79.761a19.024,19.024,0,1,0,0-38.048H52.921a2.3,2.3,0,1,1,0-4.6h26.84a23.62,23.62,0,1,1,0,47.24H49.984a24.982,24.982,0,0,0,0,49.964H71.948a2.3,2.3,0,0,1,0,4.6Z" transform="translate(-20.407 -32.072)" fill="#cce6ff"/>
      </g>
      <g id="Grupo_733" data-name="Grupo 733" transform="translate(84.415 5.25)">
        <path id="Trazado_847" data-name="Trazado 847" d="M88.964,16.517h-4.6A6.671,6.671,0,1,0,77.7,23.2a2.3,2.3,0,0,1,0,4.6,11.274,11.274,0,1,1,11.267-11.28Z" transform="translate(-66.43 -5.25)" fill="#404a80"/>
      </g>
      <g id="Grupo_734" data-name="Grupo 734" transform="translate(23.983 5.25)">
        <path id="Trazado_848" data-name="Trazado 848" d="M42.944,16.517h-4.6A6.671,6.671,0,1,0,31.677,23.2a2.3,2.3,0,1,1,0,4.6,11.274,11.274,0,1,1,11.267-11.28Z" transform="translate(-20.41 -5.25)" fill="#404a80"/>
      </g>
      <g id="Grupo_735" data-name="Grupo 735" transform="translate(54.199 5.25)">
        <path id="Trazado_849" data-name="Trazado 849" d="M65.954,16.517h-4.6A6.671,6.671,0,1,0,54.687,23.2a2.3,2.3,0,1,1,0,4.6,11.274,11.274,0,1,1,11.267-11.28Z" transform="translate(-43.42 -5.25)" fill="#404a80"/>
      </g>
      <path id="Trazado_850" data-name="Trazado 850" d="M65.1,95.413,75.979,106.3l-16.323,5.441Z" transform="translate(15.864 28.237)" fill="#fee1ba"/>
    </g>
  </g>
</svg>
