<svg xmlns="http://www.w3.org/2000/svg" width="18.572" height="14.859" viewBox="0 0 18.572 14.859">
  <path id="Icon_awesome-user-edit" data-name="Icon awesome-user-edit" d="M6.5,7.429A3.715,3.715,0,1,0,2.786,3.715,3.714,3.714,0,0,0,6.5,7.429Zm2.6.929H8.616a5.052,5.052,0,0,1-4.231,0H3.9a3.9,3.9,0,0,0-3.9,3.9v1.207a1.393,1.393,0,0,0,1.393,1.393H9.371A1.394,1.394,0,0,1,9.3,14.24l.2-1.767.035-.322.229-.229L12,9.678a3.861,3.861,0,0,0-2.9-1.32Zm1.315,4.217-.2,1.77a.462.462,0,0,0,.511.511l1.767-.2,4-4L14.417,8.575l-4,4ZM18.37,7.8l-1.1-1.1a.7.7,0,0,0-.981,0l-1.1,1.1-.119.119L17.157,10,18.37,8.787a.7.7,0,0,0,0-.984Z" fill="#0028ff"/>
</svg>
